<?xml version="1.0" encoding="utf-8" standalone="no"?>
<!DOCTYPE svg PUBLIC "-//W3C//DTD SVG 1.1//EN"
  "http://www.w3.org/Graphics/SVG/1.1/DTD/svg11.dtd">
<!-- Created with matplotlib (https://matplotlib.org/) -->
<svg height="310.86825pt" version="1.1" viewBox="0 0 510.51485 310.86825" width="510.51485pt" xmlns="http://www.w3.org/2000/svg" xmlns:xlink="http://www.w3.org/1999/xlink">
 <defs>
  <style type="text/css">
*{stroke-linecap:butt;stroke-linejoin:round;}
  </style>
 </defs>
 <g id="figure_1">
  <g id="patch_1">
   <path d="M 0 310.86825 
L 510.51485 310.86825 
L 510.51485 0 
L 0 0 
z
" style="fill:none;"/>
  </g>
  <g id="axes_1">
   <g id="patch_2">
    <path d="M 40.603125 273.312 
L 397.723125 273.312 
L 397.723125 7.2 
L 40.603125 7.2 
z
" style="fill:none;"/>
   </g>
   <g id="matplotlib.axis_1">
    <g id="xtick_1">
     <g id="line2d_1">
      <path clip-path="url(#p76ea266915)" d="M 40.603125 273.312 
L 40.603125 7.2 
" style="fill:none;stroke:#b0b0b0;stroke-linecap:square;stroke-width:0.8;"/>
     </g>
     <g id="line2d_2">
      <defs>
       <path d="M 0 0 
L 0 3.5 
" id="mb45b7fcc54" style="stroke:#000000;stroke-width:0.8;"/>
      </defs>
      <g>
       <use style="stroke:#000000;stroke-width:0.8;" x="40.603125" xlink:href="#mb45b7fcc54" y="273.312"/>
      </g>
     </g>
     <g id="text_1">
      <!-- 0 -->
      <defs>
       <path d="M 31.78125 66.40625 
Q 24.171875 66.40625 20.328125 58.90625 
Q 16.5 51.421875 16.5 36.375 
Q 16.5 21.390625 20.328125 13.890625 
Q 24.171875 6.390625 31.78125 6.390625 
Q 39.453125 6.390625 43.28125 13.890625 
Q 47.125 21.390625 47.125 36.375 
Q 47.125 51.421875 43.28125 58.90625 
Q 39.453125 66.40625 31.78125 66.40625 
z
M 31.78125 74.21875 
Q 44.046875 74.21875 50.515625 64.515625 
Q 56.984375 54.828125 56.984375 36.375 
Q 56.984375 17.96875 50.515625 8.265625 
Q 44.046875 -1.421875 31.78125 -1.421875 
Q 19.53125 -1.421875 13.0625 8.265625 
Q 6.59375 17.96875 6.59375 36.375 
Q 6.59375 54.828125 13.0625 64.515625 
Q 19.53125 74.21875 31.78125 74.21875 
z
" id="DejaVuSans-48"/>
      </defs>
      <g transform="translate(37.421875 287.910437)scale(0.1 -0.1)">
       <use xlink:href="#DejaVuSans-48"/>
      </g>
     </g>
    </g>
    <g id="xtick_2">
     <g id="line2d_3">
      <path clip-path="url(#p76ea266915)" d="M 100.197396 273.312 
L 100.197396 7.2 
" style="fill:none;stroke:#b0b0b0;stroke-linecap:square;stroke-width:0.8;"/>
     </g>
     <g id="line2d_4">
      <g>
       <use style="stroke:#000000;stroke-width:0.8;" x="100.197396" xlink:href="#mb45b7fcc54" y="273.312"/>
      </g>
     </g>
     <g id="text_2">
      <!-- 100 -->
      <defs>
       <path d="M 12.40625 8.296875 
L 28.515625 8.296875 
L 28.515625 63.921875 
L 10.984375 60.40625 
L 10.984375 69.390625 
L 28.421875 72.90625 
L 38.28125 72.90625 
L 38.28125 8.296875 
L 54.390625 8.296875 
L 54.390625 0 
L 12.40625 0 
z
" id="DejaVuSans-49"/>
      </defs>
      <g transform="translate(90.653646 287.910437)scale(0.1 -0.1)">
       <use xlink:href="#DejaVuSans-49"/>
       <use x="63.623047" xlink:href="#DejaVuSans-48"/>
       <use x="127.246094" xlink:href="#DejaVuSans-48"/>
      </g>
     </g>
    </g>
    <g id="xtick_3">
     <g id="line2d_5">
      <path clip-path="url(#p76ea266915)" d="M 159.791668 273.312 
L 159.791668 7.2 
" style="fill:none;stroke:#b0b0b0;stroke-linecap:square;stroke-width:0.8;"/>
     </g>
     <g id="line2d_6">
      <g>
       <use style="stroke:#000000;stroke-width:0.8;" x="159.791668" xlink:href="#mb45b7fcc54" y="273.312"/>
      </g>
     </g>
     <g id="text_3">
      <!-- 200 -->
      <defs>
       <path d="M 19.1875 8.296875 
L 53.609375 8.296875 
L 53.609375 0 
L 7.328125 0 
L 7.328125 8.296875 
Q 12.9375 14.109375 22.625 23.890625 
Q 32.328125 33.6875 34.8125 36.53125 
Q 39.546875 41.84375 41.421875 45.53125 
Q 43.3125 49.21875 43.3125 52.78125 
Q 43.3125 58.59375 39.234375 62.25 
Q 35.15625 65.921875 28.609375 65.921875 
Q 23.96875 65.921875 18.8125 64.3125 
Q 13.671875 62.703125 7.8125 59.421875 
L 7.8125 69.390625 
Q 13.765625 71.78125 18.9375 73 
Q 24.125 74.21875 28.421875 74.21875 
Q 39.75 74.21875 46.484375 68.546875 
Q 53.21875 62.890625 53.21875 53.421875 
Q 53.21875 48.921875 51.53125 44.890625 
Q 49.859375 40.875 45.40625 35.40625 
Q 44.1875 33.984375 37.640625 27.21875 
Q 31.109375 20.453125 19.1875 8.296875 
z
" id="DejaVuSans-50"/>
      </defs>
      <g transform="translate(150.247918 287.910437)scale(0.1 -0.1)">
       <use xlink:href="#DejaVuSans-50"/>
       <use x="63.623047" xlink:href="#DejaVuSans-48"/>
       <use x="127.246094" xlink:href="#DejaVuSans-48"/>
      </g>
     </g>
    </g>
    <g id="xtick_4">
     <g id="line2d_7">
      <path clip-path="url(#p76ea266915)" d="M 219.385939 273.312 
L 219.385939 7.2 
" style="fill:none;stroke:#b0b0b0;stroke-linecap:square;stroke-width:0.8;"/>
     </g>
     <g id="line2d_8">
      <g>
       <use style="stroke:#000000;stroke-width:0.8;" x="219.385939" xlink:href="#mb45b7fcc54" y="273.312"/>
      </g>
     </g>
     <g id="text_4">
      <!-- 300 -->
      <defs>
       <path d="M 40.578125 39.3125 
Q 47.65625 37.796875 51.625 33 
Q 55.609375 28.21875 55.609375 21.1875 
Q 55.609375 10.40625 48.1875 4.484375 
Q 40.765625 -1.421875 27.09375 -1.421875 
Q 22.515625 -1.421875 17.65625 -0.515625 
Q 12.796875 0.390625 7.625 2.203125 
L 7.625 11.71875 
Q 11.71875 9.328125 16.59375 8.109375 
Q 21.484375 6.890625 26.8125 6.890625 
Q 36.078125 6.890625 40.9375 10.546875 
Q 45.796875 14.203125 45.796875 21.1875 
Q 45.796875 27.640625 41.28125 31.265625 
Q 36.765625 34.90625 28.71875 34.90625 
L 20.21875 34.90625 
L 20.21875 43.015625 
L 29.109375 43.015625 
Q 36.375 43.015625 40.234375 45.921875 
Q 44.09375 48.828125 44.09375 54.296875 
Q 44.09375 59.90625 40.109375 62.90625 
Q 36.140625 65.921875 28.71875 65.921875 
Q 24.65625 65.921875 20.015625 65.03125 
Q 15.375 64.15625 9.8125 62.3125 
L 9.8125 71.09375 
Q 15.4375 72.65625 20.34375 73.4375 
Q 25.25 74.21875 29.59375 74.21875 
Q 40.828125 74.21875 47.359375 69.109375 
Q 53.90625 64.015625 53.90625 55.328125 
Q 53.90625 49.265625 50.4375 45.09375 
Q 46.96875 40.921875 40.578125 39.3125 
z
" id="DejaVuSans-51"/>
      </defs>
      <g transform="translate(209.842189 287.910437)scale(0.1 -0.1)">
       <use xlink:href="#DejaVuSans-51"/>
       <use x="63.623047" xlink:href="#DejaVuSans-48"/>
       <use x="127.246094" xlink:href="#DejaVuSans-48"/>
      </g>
     </g>
    </g>
    <g id="xtick_5">
     <g id="line2d_9">
      <path clip-path="url(#p76ea266915)" d="M 278.98021 273.312 
L 278.98021 7.2 
" style="fill:none;stroke:#b0b0b0;stroke-linecap:square;stroke-width:0.8;"/>
     </g>
     <g id="line2d_10">
      <g>
       <use style="stroke:#000000;stroke-width:0.8;" x="278.98021" xlink:href="#mb45b7fcc54" y="273.312"/>
      </g>
     </g>
     <g id="text_5">
      <!-- 400 -->
      <defs>
       <path d="M 37.796875 64.3125 
L 12.890625 25.390625 
L 37.796875 25.390625 
z
M 35.203125 72.90625 
L 47.609375 72.90625 
L 47.609375 25.390625 
L 58.015625 25.390625 
L 58.015625 17.1875 
L 47.609375 17.1875 
L 47.609375 0 
L 37.796875 0 
L 37.796875 17.1875 
L 4.890625 17.1875 
L 4.890625 26.703125 
z
" id="DejaVuSans-52"/>
      </defs>
      <g transform="translate(269.43646 287.910437)scale(0.1 -0.1)">
       <use xlink:href="#DejaVuSans-52"/>
       <use x="63.623047" xlink:href="#DejaVuSans-48"/>
       <use x="127.246094" xlink:href="#DejaVuSans-48"/>
      </g>
     </g>
    </g>
    <g id="xtick_6">
     <g id="line2d_11">
      <path clip-path="url(#p76ea266915)" d="M 338.574482 273.312 
L 338.574482 7.2 
" style="fill:none;stroke:#b0b0b0;stroke-linecap:square;stroke-width:0.8;"/>
     </g>
     <g id="line2d_12">
      <g>
       <use style="stroke:#000000;stroke-width:0.8;" x="338.574482" xlink:href="#mb45b7fcc54" y="273.312"/>
      </g>
     </g>
     <g id="text_6">
      <!-- 500 -->
      <defs>
       <path d="M 10.796875 72.90625 
L 49.515625 72.90625 
L 49.515625 64.59375 
L 19.828125 64.59375 
L 19.828125 46.734375 
Q 21.96875 47.46875 24.109375 47.828125 
Q 26.265625 48.1875 28.421875 48.1875 
Q 40.625 48.1875 47.75 41.5 
Q 54.890625 34.8125 54.890625 23.390625 
Q 54.890625 11.625 47.5625 5.09375 
Q 40.234375 -1.421875 26.90625 -1.421875 
Q 22.3125 -1.421875 17.546875 -0.640625 
Q 12.796875 0.140625 7.71875 1.703125 
L 7.71875 11.625 
Q 12.109375 9.234375 16.796875 8.0625 
Q 21.484375 6.890625 26.703125 6.890625 
Q 35.15625 6.890625 40.078125 11.328125 
Q 45.015625 15.765625 45.015625 23.390625 
Q 45.015625 31 40.078125 35.4375 
Q 35.15625 39.890625 26.703125 39.890625 
Q 22.75 39.890625 18.8125 39.015625 
Q 14.890625 38.140625 10.796875 36.28125 
z
" id="DejaVuSans-53"/>
      </defs>
      <g transform="translate(329.030732 287.910437)scale(0.1 -0.1)">
       <use xlink:href="#DejaVuSans-53"/>
       <use x="63.623047" xlink:href="#DejaVuSans-48"/>
       <use x="127.246094" xlink:href="#DejaVuSans-48"/>
      </g>
     </g>
    </g>
    <g id="text_7">
     <!-- time (s) -->
     <defs>
      <path d="M 18.3125 70.21875 
L 18.3125 54.6875 
L 36.8125 54.6875 
L 36.8125 47.703125 
L 18.3125 47.703125 
L 18.3125 18.015625 
Q 18.3125 11.328125 20.140625 9.421875 
Q 21.96875 7.515625 27.59375 7.515625 
L 36.8125 7.515625 
L 36.8125 0 
L 27.59375 0 
Q 17.1875 0 13.234375 3.875 
Q 9.28125 7.765625 9.28125 18.015625 
L 9.28125 47.703125 
L 2.6875 47.703125 
L 2.6875 54.6875 
L 9.28125 54.6875 
L 9.28125 70.21875 
z
" id="DejaVuSans-116"/>
      <path d="M 9.421875 54.6875 
L 18.40625 54.6875 
L 18.40625 0 
L 9.421875 0 
z
M 9.421875 75.984375 
L 18.40625 75.984375 
L 18.40625 64.59375 
L 9.421875 64.59375 
z
" id="DejaVuSans-105"/>
      <path d="M 52 44.1875 
Q 55.375 50.25 60.0625 53.125 
Q 64.75 56 71.09375 56 
Q 79.640625 56 84.28125 50.015625 
Q 88.921875 44.046875 88.921875 33.015625 
L 88.921875 0 
L 79.890625 0 
L 79.890625 32.71875 
Q 79.890625 40.578125 77.09375 44.375 
Q 74.3125 48.1875 68.609375 48.1875 
Q 61.625 48.1875 57.5625 43.546875 
Q 53.515625 38.921875 53.515625 30.90625 
L 53.515625 0 
L 44.484375 0 
L 44.484375 32.71875 
Q 44.484375 40.625 41.703125 44.40625 
Q 38.921875 48.1875 33.109375 48.1875 
Q 26.21875 48.1875 22.15625 43.53125 
Q 18.109375 38.875 18.109375 30.90625 
L 18.109375 0 
L 9.078125 0 
L 9.078125 54.6875 
L 18.109375 54.6875 
L 18.109375 46.1875 
Q 21.1875 51.21875 25.484375 53.609375 
Q 29.78125 56 35.6875 56 
Q 41.65625 56 45.828125 52.96875 
Q 50 49.953125 52 44.1875 
z
" id="DejaVuSans-109"/>
      <path d="M 56.203125 29.59375 
L 56.203125 25.203125 
L 14.890625 25.203125 
Q 15.484375 15.921875 20.484375 11.0625 
Q 25.484375 6.203125 34.421875 6.203125 
Q 39.59375 6.203125 44.453125 7.46875 
Q 49.3125 8.734375 54.109375 11.28125 
L 54.109375 2.78125 
Q 49.265625 0.734375 44.1875 -0.34375 
Q 39.109375 -1.421875 33.890625 -1.421875 
Q 20.796875 -1.421875 13.15625 6.1875 
Q 5.515625 13.8125 5.515625 26.8125 
Q 5.515625 40.234375 12.765625 48.109375 
Q 20.015625 56 32.328125 56 
Q 43.359375 56 49.78125 48.890625 
Q 56.203125 41.796875 56.203125 29.59375 
z
M 47.21875 32.234375 
Q 47.125 39.59375 43.09375 43.984375 
Q 39.0625 48.390625 32.421875 48.390625 
Q 24.90625 48.390625 20.390625 44.140625 
Q 15.875 39.890625 15.1875 32.171875 
z
" id="DejaVuSans-101"/>
      <path id="DejaVuSans-32"/>
      <path d="M 31 75.875 
Q 24.46875 64.65625 21.28125 53.65625 
Q 18.109375 42.671875 18.109375 31.390625 
Q 18.109375 20.125 21.3125 9.0625 
Q 24.515625 -2 31 -13.1875 
L 23.1875 -13.1875 
Q 15.875 -1.703125 12.234375 9.375 
Q 8.59375 20.453125 8.59375 31.390625 
Q 8.59375 42.28125 12.203125 53.3125 
Q 15.828125 64.359375 23.1875 75.875 
z
" id="DejaVuSans-40"/>
      <path d="M 44.28125 53.078125 
L 44.28125 44.578125 
Q 40.484375 46.53125 36.375 47.5 
Q 32.28125 48.484375 27.875 48.484375 
Q 21.1875 48.484375 17.84375 46.4375 
Q 14.5 44.390625 14.5 40.28125 
Q 14.5 37.15625 16.890625 35.375 
Q 19.28125 33.59375 26.515625 31.984375 
L 29.59375 31.296875 
Q 39.15625 29.25 43.1875 25.515625 
Q 47.21875 21.78125 47.21875 15.09375 
Q 47.21875 7.46875 41.1875 3.015625 
Q 35.15625 -1.421875 24.609375 -1.421875 
Q 20.21875 -1.421875 15.453125 -0.5625 
Q 10.6875 0.296875 5.421875 2 
L 5.421875 11.28125 
Q 10.40625 8.6875 15.234375 7.390625 
Q 20.0625 6.109375 24.8125 6.109375 
Q 31.15625 6.109375 34.5625 8.28125 
Q 37.984375 10.453125 37.984375 14.40625 
Q 37.984375 18.0625 35.515625 20.015625 
Q 33.0625 21.96875 24.703125 23.78125 
L 21.578125 24.515625 
Q 13.234375 26.265625 9.515625 29.90625 
Q 5.8125 33.546875 5.8125 39.890625 
Q 5.8125 47.609375 11.28125 51.796875 
Q 16.75 56 26.8125 56 
Q 31.78125 56 36.171875 55.265625 
Q 40.578125 54.546875 44.28125 53.078125 
z
" id="DejaVuSans-115"/>
      <path d="M 8.015625 75.875 
L 15.828125 75.875 
Q 23.140625 64.359375 26.78125 53.3125 
Q 30.421875 42.28125 30.421875 31.390625 
Q 30.421875 20.453125 26.78125 9.375 
Q 23.140625 -1.703125 15.828125 -13.1875 
L 8.015625 -13.1875 
Q 14.5 -2 17.703125 9.0625 
Q 20.90625 20.125 20.90625 31.390625 
Q 20.90625 42.671875 17.703125 53.65625 
Q 14.5 64.65625 8.015625 75.875 
z
" id="DejaVuSans-41"/>
     </defs>
     <g transform="translate(199.771719 301.588562)scale(0.1 -0.1)">
      <use xlink:href="#DejaVuSans-116"/>
      <use x="39.208984" xlink:href="#DejaVuSans-105"/>
      <use x="66.992188" xlink:href="#DejaVuSans-109"/>
      <use x="164.404297" xlink:href="#DejaVuSans-101"/>
      <use x="225.927734" xlink:href="#DejaVuSans-32"/>
      <use x="257.714844" xlink:href="#DejaVuSans-40"/>
      <use x="296.728516" xlink:href="#DejaVuSans-115"/>
      <use x="348.828125" xlink:href="#DejaVuSans-41"/>
     </g>
    </g>
   </g>
   <g id="matplotlib.axis_2">
    <g id="ytick_1">
     <g id="line2d_13">
      <path clip-path="url(#p76ea266915)" d="M 40.603125 251.136 
L 397.723125 251.136 
" style="fill:none;stroke:#b0b0b0;stroke-linecap:square;stroke-width:0.8;"/>
     </g>
     <g id="line2d_14">
      <defs>
       <path d="M 0 0 
L -3.5 0 
" id="m8a05517130" style="stroke:#000000;stroke-width:0.8;"/>
      </defs>
      <g>
       <use style="stroke:#000000;stroke-width:0.8;" x="40.603125" xlink:href="#m8a05517130" y="251.136"/>
      </g>
     </g>
     <g id="text_8">
      <!-- 30 -->
      <g transform="translate(20.878125 254.935219)scale(0.1 -0.1)">
       <use xlink:href="#DejaVuSans-51"/>
       <use x="63.623047" xlink:href="#DejaVuSans-48"/>
      </g>
     </g>
    </g>
    <g id="ytick_2">
     <g id="line2d_15">
      <path clip-path="url(#p76ea266915)" d="M 40.603125 206.784 
L 397.723125 206.784 
" style="fill:none;stroke:#b0b0b0;stroke-linecap:square;stroke-width:0.8;"/>
     </g>
     <g id="line2d_16">
      <g>
       <use style="stroke:#000000;stroke-width:0.8;" x="40.603125" xlink:href="#m8a05517130" y="206.784"/>
      </g>
     </g>
     <g id="text_9">
      <!-- 40 -->
      <g transform="translate(20.878125 210.583219)scale(0.1 -0.1)">
       <use xlink:href="#DejaVuSans-52"/>
       <use x="63.623047" xlink:href="#DejaVuSans-48"/>
      </g>
     </g>
    </g>
    <g id="ytick_3">
     <g id="line2d_17">
      <path clip-path="url(#p76ea266915)" d="M 40.603125 162.432 
L 397.723125 162.432 
" style="fill:none;stroke:#b0b0b0;stroke-linecap:square;stroke-width:0.8;"/>
     </g>
     <g id="line2d_18">
      <g>
       <use style="stroke:#000000;stroke-width:0.8;" x="40.603125" xlink:href="#m8a05517130" y="162.432"/>
      </g>
     </g>
     <g id="text_10">
      <!-- 50 -->
      <g transform="translate(20.878125 166.231219)scale(0.1 -0.1)">
       <use xlink:href="#DejaVuSans-53"/>
       <use x="63.623047" xlink:href="#DejaVuSans-48"/>
      </g>
     </g>
    </g>
    <g id="ytick_4">
     <g id="line2d_19">
      <path clip-path="url(#p76ea266915)" d="M 40.603125 118.08 
L 397.723125 118.08 
" style="fill:none;stroke:#b0b0b0;stroke-linecap:square;stroke-width:0.8;"/>
     </g>
     <g id="line2d_20">
      <g>
       <use style="stroke:#000000;stroke-width:0.8;" x="40.603125" xlink:href="#m8a05517130" y="118.08"/>
      </g>
     </g>
     <g id="text_11">
      <!-- 60 -->
      <defs>
       <path d="M 33.015625 40.375 
Q 26.375 40.375 22.484375 35.828125 
Q 18.609375 31.296875 18.609375 23.390625 
Q 18.609375 15.53125 22.484375 10.953125 
Q 26.375 6.390625 33.015625 6.390625 
Q 39.65625 6.390625 43.53125 10.953125 
Q 47.40625 15.53125 47.40625 23.390625 
Q 47.40625 31.296875 43.53125 35.828125 
Q 39.65625 40.375 33.015625 40.375 
z
M 52.59375 71.296875 
L 52.59375 62.3125 
Q 48.875 64.0625 45.09375 64.984375 
Q 41.3125 65.921875 37.59375 65.921875 
Q 27.828125 65.921875 22.671875 59.328125 
Q 17.53125 52.734375 16.796875 39.40625 
Q 19.671875 43.65625 24.015625 45.921875 
Q 28.375 48.1875 33.59375 48.1875 
Q 44.578125 48.1875 50.953125 41.515625 
Q 57.328125 34.859375 57.328125 23.390625 
Q 57.328125 12.15625 50.6875 5.359375 
Q 44.046875 -1.421875 33.015625 -1.421875 
Q 20.359375 -1.421875 13.671875 8.265625 
Q 6.984375 17.96875 6.984375 36.375 
Q 6.984375 53.65625 15.1875 63.9375 
Q 23.390625 74.21875 37.203125 74.21875 
Q 40.921875 74.21875 44.703125 73.484375 
Q 48.484375 72.75 52.59375 71.296875 
z
" id="DejaVuSans-54"/>
      </defs>
      <g transform="translate(20.878125 121.879219)scale(0.1 -0.1)">
       <use xlink:href="#DejaVuSans-54"/>
       <use x="63.623047" xlink:href="#DejaVuSans-48"/>
      </g>
     </g>
    </g>
    <g id="ytick_5">
     <g id="line2d_21">
      <path clip-path="url(#p76ea266915)" d="M 40.603125 73.728 
L 397.723125 73.728 
" style="fill:none;stroke:#b0b0b0;stroke-linecap:square;stroke-width:0.8;"/>
     </g>
     <g id="line2d_22">
      <g>
       <use style="stroke:#000000;stroke-width:0.8;" x="40.603125" xlink:href="#m8a05517130" y="73.728"/>
      </g>
     </g>
     <g id="text_12">
      <!-- 70 -->
      <defs>
       <path d="M 8.203125 72.90625 
L 55.078125 72.90625 
L 55.078125 68.703125 
L 28.609375 0 
L 18.3125 0 
L 43.21875 64.59375 
L 8.203125 64.59375 
z
" id="DejaVuSans-55"/>
      </defs>
      <g transform="translate(20.878125 77.527219)scale(0.1 -0.1)">
       <use xlink:href="#DejaVuSans-55"/>
       <use x="63.623047" xlink:href="#DejaVuSans-48"/>
      </g>
     </g>
    </g>
    <g id="ytick_6">
     <g id="line2d_23">
      <path clip-path="url(#p76ea266915)" d="M 40.603125 29.376 
L 397.723125 29.376 
" style="fill:none;stroke:#b0b0b0;stroke-linecap:square;stroke-width:0.8;"/>
     </g>
     <g id="line2d_24">
      <g>
       <use style="stroke:#000000;stroke-width:0.8;" x="40.603125" xlink:href="#m8a05517130" y="29.376"/>
      </g>
     </g>
     <g id="text_13">
      <!-- 80 -->
      <defs>
       <path d="M 31.78125 34.625 
Q 24.75 34.625 20.71875 30.859375 
Q 16.703125 27.09375 16.703125 20.515625 
Q 16.703125 13.921875 20.71875 10.15625 
Q 24.75 6.390625 31.78125 6.390625 
Q 38.8125 6.390625 42.859375 10.171875 
Q 46.921875 13.96875 46.921875 20.515625 
Q 46.921875 27.09375 42.890625 30.859375 
Q 38.875 34.625 31.78125 34.625 
z
M 21.921875 38.8125 
Q 15.578125 40.375 12.03125 44.71875 
Q 8.5 49.078125 8.5 55.328125 
Q 8.5 64.0625 14.71875 69.140625 
Q 20.953125 74.21875 31.78125 74.21875 
Q 42.671875 74.21875 48.875 69.140625 
Q 55.078125 64.0625 55.078125 55.328125 
Q 55.078125 49.078125 51.53125 44.71875 
Q 48 40.375 41.703125 38.8125 
Q 48.828125 37.15625 52.796875 32.3125 
Q 56.78125 27.484375 56.78125 20.515625 
Q 56.78125 9.90625 50.3125 4.234375 
Q 43.84375 -1.421875 31.78125 -1.421875 
Q 19.734375 -1.421875 13.25 4.234375 
Q 6.78125 9.90625 6.78125 20.515625 
Q 6.78125 27.484375 10.78125 32.3125 
Q 14.796875 37.15625 21.921875 38.8125 
z
M 18.3125 54.390625 
Q 18.3125 48.734375 21.84375 45.5625 
Q 25.390625 42.390625 31.78125 42.390625 
Q 38.140625 42.390625 41.71875 45.5625 
Q 45.3125 48.734375 45.3125 54.390625 
Q 45.3125 60.0625 41.71875 63.234375 
Q 38.140625 66.40625 31.78125 66.40625 
Q 25.390625 66.40625 21.84375 63.234375 
Q 18.3125 60.0625 18.3125 54.390625 
z
" id="DejaVuSans-56"/>
      </defs>
      <g transform="translate(20.878125 33.175219)scale(0.1 -0.1)">
       <use xlink:href="#DejaVuSans-56"/>
       <use x="63.623047" xlink:href="#DejaVuSans-48"/>
      </g>
     </g>
    </g>
    <g id="text_14">
     <!-- temperature (°C) -->
     <defs>
      <path d="M 18.109375 8.203125 
L 18.109375 -20.796875 
L 9.078125 -20.796875 
L 9.078125 54.6875 
L 18.109375 54.6875 
L 18.109375 46.390625 
Q 20.953125 51.265625 25.265625 53.625 
Q 29.59375 56 35.59375 56 
Q 45.5625 56 51.78125 48.09375 
Q 58.015625 40.1875 58.015625 27.296875 
Q 58.015625 14.40625 51.78125 6.484375 
Q 45.5625 -1.421875 35.59375 -1.421875 
Q 29.59375 -1.421875 25.265625 0.953125 
Q 20.953125 3.328125 18.109375 8.203125 
z
M 48.6875 27.296875 
Q 48.6875 37.203125 44.609375 42.84375 
Q 40.53125 48.484375 33.40625 48.484375 
Q 26.265625 48.484375 22.1875 42.84375 
Q 18.109375 37.203125 18.109375 27.296875 
Q 18.109375 17.390625 22.1875 11.75 
Q 26.265625 6.109375 33.40625 6.109375 
Q 40.53125 6.109375 44.609375 11.75 
Q 48.6875 17.390625 48.6875 27.296875 
z
" id="DejaVuSans-112"/>
      <path d="M 41.109375 46.296875 
Q 39.59375 47.171875 37.8125 47.578125 
Q 36.03125 48 33.890625 48 
Q 26.265625 48 22.1875 43.046875 
Q 18.109375 38.09375 18.109375 28.8125 
L 18.109375 0 
L 9.078125 0 
L 9.078125 54.6875 
L 18.109375 54.6875 
L 18.109375 46.1875 
Q 20.953125 51.171875 25.484375 53.578125 
Q 30.03125 56 36.53125 56 
Q 37.453125 56 38.578125 55.875 
Q 39.703125 55.765625 41.0625 55.515625 
z
" id="DejaVuSans-114"/>
      <path d="M 34.28125 27.484375 
Q 23.390625 27.484375 19.1875 25 
Q 14.984375 22.515625 14.984375 16.5 
Q 14.984375 11.71875 18.140625 8.90625 
Q 21.296875 6.109375 26.703125 6.109375 
Q 34.1875 6.109375 38.703125 11.40625 
Q 43.21875 16.703125 43.21875 25.484375 
L 43.21875 27.484375 
z
M 52.203125 31.203125 
L 52.203125 0 
L 43.21875 0 
L 43.21875 8.296875 
Q 40.140625 3.328125 35.546875 0.953125 
Q 30.953125 -1.421875 24.3125 -1.421875 
Q 15.921875 -1.421875 10.953125 3.296875 
Q 6 8.015625 6 15.921875 
Q 6 25.140625 12.171875 29.828125 
Q 18.359375 34.515625 30.609375 34.515625 
L 43.21875 34.515625 
L 43.21875 35.40625 
Q 43.21875 41.609375 39.140625 45 
Q 35.0625 48.390625 27.6875 48.390625 
Q 23 48.390625 18.546875 47.265625 
Q 14.109375 46.140625 10.015625 43.890625 
L 10.015625 52.203125 
Q 14.9375 54.109375 19.578125 55.046875 
Q 24.21875 56 28.609375 56 
Q 40.484375 56 46.34375 49.84375 
Q 52.203125 43.703125 52.203125 31.203125 
z
" id="DejaVuSans-97"/>
      <path d="M 8.5 21.578125 
L 8.5 54.6875 
L 17.484375 54.6875 
L 17.484375 21.921875 
Q 17.484375 14.15625 20.5 10.265625 
Q 23.53125 6.390625 29.59375 6.390625 
Q 36.859375 6.390625 41.078125 11.03125 
Q 45.3125 15.671875 45.3125 23.6875 
L 45.3125 54.6875 
L 54.296875 54.6875 
L 54.296875 0 
L 45.3125 0 
L 45.3125 8.40625 
Q 42.046875 3.421875 37.71875 1 
Q 33.40625 -1.421875 27.6875 -1.421875 
Q 18.265625 -1.421875 13.375 4.4375 
Q 8.5 10.296875 8.5 21.578125 
z
M 31.109375 56 
z
" id="DejaVuSans-117"/>
      <path d="M 25 67.921875 
Q 21.09375 67.921875 18.40625 65.203125 
Q 15.71875 62.5 15.71875 58.59375 
Q 15.71875 54.734375 18.40625 52.078125 
Q 21.09375 49.421875 25 49.421875 
Q 28.90625 49.421875 31.59375 52.078125 
Q 34.28125 54.734375 34.28125 58.59375 
Q 34.28125 62.453125 31.5625 65.1875 
Q 28.859375 67.921875 25 67.921875 
z
M 25 74.21875 
Q 28.125 74.21875 31 73.015625 
Q 33.890625 71.828125 35.984375 69.578125 
Q 38.234375 67.390625 39.359375 64.59375 
Q 40.484375 61.8125 40.484375 58.59375 
Q 40.484375 52.15625 35.96875 47.6875 
Q 31.453125 43.21875 24.90625 43.21875 
Q 18.3125 43.21875 13.90625 47.609375 
Q 9.515625 52 9.515625 58.59375 
Q 9.515625 65.140625 14 69.671875 
Q 18.5 74.21875 25 74.21875 
z
" id="DejaVuSans-176"/>
      <path d="M 64.40625 67.28125 
L 64.40625 56.890625 
Q 59.421875 61.53125 53.78125 63.8125 
Q 48.140625 66.109375 41.796875 66.109375 
Q 29.296875 66.109375 22.65625 58.46875 
Q 16.015625 50.828125 16.015625 36.375 
Q 16.015625 21.96875 22.65625 14.328125 
Q 29.296875 6.6875 41.796875 6.6875 
Q 48.140625 6.6875 53.78125 8.984375 
Q 59.421875 11.28125 64.40625 15.921875 
L 64.40625 5.609375 
Q 59.234375 2.09375 53.4375 0.328125 
Q 47.65625 -1.421875 41.21875 -1.421875 
Q 24.65625 -1.421875 15.125 8.703125 
Q 5.609375 18.84375 5.609375 36.375 
Q 5.609375 53.953125 15.125 64.078125 
Q 24.65625 74.21875 41.21875 74.21875 
Q 47.75 74.21875 53.53125 72.484375 
Q 59.328125 70.75 64.40625 67.28125 
z
" id="DejaVuSans-67"/>
     </defs>
     <g transform="translate(14.798438 183.27475)rotate(-90)scale(0.1 -0.1)">
      <use xlink:href="#DejaVuSans-116"/>
      <use x="39.208984" xlink:href="#DejaVuSans-101"/>
      <use x="100.732422" xlink:href="#DejaVuSans-109"/>
      <use x="198.144531" xlink:href="#DejaVuSans-112"/>
      <use x="261.621094" xlink:href="#DejaVuSans-101"/>
      <use x="323.144531" xlink:href="#DejaVuSans-114"/>
      <use x="364.257812" xlink:href="#DejaVuSans-97"/>
      <use x="425.537109" xlink:href="#DejaVuSans-116"/>
      <use x="464.746094" xlink:href="#DejaVuSans-117"/>
      <use x="528.125" xlink:href="#DejaVuSans-114"/>
      <use x="569.207031" xlink:href="#DejaVuSans-101"/>
      <use x="630.730469" xlink:href="#DejaVuSans-32"/>
      <use x="662.517578" xlink:href="#DejaVuSans-40"/>
      <use x="701.53125" xlink:href="#DejaVuSans-176"/>
      <use x="751.53125" xlink:href="#DejaVuSans-67"/>
      <use x="821.355469" xlink:href="#DejaVuSans-41"/>
     </g>
    </g>
   </g>
   <g id="line2d_25">
    <path clip-path="url(#p76ea266915)" d="M 40.603125 169.97184 
L 41.819404 172.18944 
L 43.02675 169.97184 
L 51.481097 169.97184 
L 52.688664 172.18944 
L 53.896317 169.97184 
L 56.311899 169.97184 
L 57.519548 172.18944 
L 58.727244 169.97184 
L 59.934928 169.97184 
L 61.142991 172.18944 
L 62.350722 169.97184 
L 63.558339 172.18944 
L 65.973056 172.18944 
L 67.180748 169.97184 
L 69.595233 169.97184 
L 70.802572 172.18944 
L 72.004457 169.97184 
L 75.627168 169.97184 
L 76.834897 172.18944 
L 78.042455 169.97184 
L 79.250053 169.97184 
L 80.457765 172.18944 
L 81.665428 174.85056 
L 82.873255 169.97184 
L 84.080996 174.85056 
L 85.288497 169.97184 
L 86.496043 174.85056 
L 87.703939 174.85056 
L 88.911563 169.97184 
L 90.118919 172.18944 
L 99.779053 172.18944 
L 100.986527 174.85056 
L 104.60973 174.85056 
L 105.817375 172.18944 
L 107.024637 169.97184 
L 108.231918 174.85056 
L 109.439372 169.97184 
L 110.647347 172.18944 
L 120.309105 172.18944 
L 121.516754 169.97184 
L 122.724377 174.85056 
L 123.932043 174.85056 
L 125.139629 169.97184 
L 126.347252 172.18944 
L 127.554916 174.85056 
L 129.969703 174.85056 
L 131.177287 143.80416 
L 132.419121 129.168 
L 133.65803 122.07168 
L 134.897541 112.75776 
L 137.376287 98.1216 
L 138.610302 93.6864 
L 139.844606 88.80768 
L 141.08347 88.80768 
L 142.334634 83.92896 
L 143.574346 81.71136 
L 144.815407 79.05024 
L 147.293146 74.61504 
L 148.532714 71.95392 
L 149.772239 69.73632 
L 152.252063 69.73632 
L 153.490953 64.8576 
L 154.725253 62.64 
L 155.963927 59.97888 
L 159.676849 59.97888 
L 160.911151 55.54368 
L 162.149825 57.76128 
L 163.389396 57.76128 
L 164.62911 55.54368 
L 165.868719 52.88256 
L 167.108926 52.88256 
L 168.347823 50.66496 
L 172.066497 50.66496 
L 173.301344 48.00384 
L 175.77993 48.00384 
L 177.013536 43.56864 
L 178.252471 45.78624 
L 179.492635 45.78624 
L 180.731529 43.56864 
L 181.971123 43.56864 
L 183.210658 40.90752 
L 184.444966 40.90752 
L 185.683797 38.68992 
L 186.923357 40.90752 
L 188.162926 40.90752 
L 190.642049 36.47232 
L 194.35546 36.47232 
L 195.594287 31.5936 
L 196.833877 36.47232 
L 198.073355 33.8112 
L 199.313714 33.8112 
L 200.552535 31.5936 
L 207.989924 31.5936 
L 209.230163 28.93248 
L 210.469044 28.93248 
L 211.720503 31.5936 
L 212.960756 28.93248 
L 214.199657 28.93248 
L 215.439171 26.71488 
L 226.607924 26.71488 
L 227.847262 28.93248 
L 229.086836 26.71488 
L 231.56613 26.71488 
L 232.80575 24.49728 
L 234.045274 26.71488 
L 235.284837 24.49728 
L 237.763954 24.49728 
L 239.002579 26.71488 
L 240.24308 24.49728 
L 241.482648 24.49728 
L 242.722203 26.71488 
L 243.96178 21.83616 
L 245.201336 21.83616 
L 246.440874 24.49728 
L 250.159003 24.49728 
L 251.399151 21.83616 
L 252.638746 26.71488 
L 253.878106 21.83616 
L 255.117656 24.49728 
L 256.357423 26.71488 
L 258.848464 26.71488 
L 260.084537 24.49728 
L 261.3329 21.83616 
L 262.573111 24.49728 
L 263.812663 21.83616 
L 265.052244 21.83616 
L 266.291829 24.49728 
L 267.525519 24.49728 
L 268.764992 21.83616 
L 270.009835 21.83616 
L 271.250107 19.61856 
L 272.489599 21.83616 
L 276.207641 21.83616 
L 277.447245 24.49728 
L 278.687406 19.61856 
L 279.926307 24.49728 
L 281.166538 24.49728 
L 282.405473 21.83616 
L 286.124584 21.83616 
L 287.364135 24.49728 
L 288.603882 21.83616 
L 289.842805 19.61856 
L 291.083039 21.83616 
L 292.322565 19.61856 
L 293.562139 21.83616 
L 298.532377 21.83616 
L 299.771899 24.49728 
L 301.011434 21.83616 
L 307.203317 21.83616 
L 308.437012 19.61856 
L 309.671786 38.68992 
L 310.879489 55.54368 
L 312.087102 64.8576 
L 314.502559 79.05024 
L 315.710228 81.71136 
L 316.917786 86.59008 
L 318.125327 88.80768 
L 320.540796 98.1216 
L 321.748142 95.904 
L 322.955804 100.78272 
L 324.163771 103.00032 
L 325.371344 105.66144 
L 326.579023 107.87904 
L 330.201832 107.87904 
L 331.409966 112.75776 
L 332.617448 112.75776 
L 333.825016 114.97536 
L 336.240242 114.97536 
L 337.447883 117.63648 
L 338.655542 117.63648 
L 339.86323 114.97536 
L 341.070995 122.07168 
L 344.694047 122.07168 
L 345.902596 126.9504 
L 347.110036 124.7328 
L 348.317738 126.9504 
L 351.93983 126.9504 
L 353.147855 129.168 
L 354.35541 129.168 
L 355.563004 131.82912 
L 356.770312 126.9504 
L 357.971473 126.9504 
L 359.179149 129.168 
L 360.386898 131.82912 
L 361.59454 131.82912 
L 362.80222 129.168 
L 364.010155 131.82912 
L 367.633369 131.82912 
L 368.841075 134.04672 
L 376.087689 134.04672 
L 377.295254 136.70784 
L 380.918141 136.70784 
L 382.125756 141.14304 
L 383.333416 136.70784 
L 384.541029 141.14304 
L 385.748708 136.70784 
L 386.956816 141.14304 
L 394.202553 141.14304 
L 395.410266 143.80416 
L 396.617862 141.14304 
L 397.825567 141.14304 
L 397.825567 141.14304 
" style="fill:none;stroke:#1f77b4;stroke-linecap:square;stroke-width:1.5;"/>
   </g>
   <g id="line2d_26">
    <path clip-path="url(#p76ea266915)" d="M 40.603125 179.28576 
L 43.019778 179.28576 
L 44.227437 174.85056 
L 45.43552 179.28576 
L 46.64357 177.06816 
L 47.85143 179.28576 
L 49.059459 179.28576 
L 50.267512 177.06816 
L 51.47548 179.28576 
L 52.68339 174.85056 
L 53.891404 179.28576 
L 55.099677 177.06816 
L 56.307638 179.28576 
L 61.139837 179.28576 
L 62.347832 177.06816 
L 63.555724 179.28576 
L 64.763654 179.28576 
L 65.971564 177.06816 
L 67.179801 179.28576 
L 75.63648 179.28576 
L 76.844334 177.06816 
L 78.052209 179.28576 
L 81.676172 179.28576 
L 82.884118 177.06816 
L 84.092225 179.28576 
L 93.760501 179.28576 
L 94.968539 177.06816 
L 96.176221 179.28576 
L 97.38368 174.85056 
L 98.591318 179.28576 
L 102.214615 179.28576 
L 103.422205 177.06816 
L 104.629833 177.06816 
L 105.838064 179.28576 
L 108.253286 179.28576 
L 109.461526 177.06816 
L 110.669378 179.28576 
L 111.877261 177.06816 
L 113.085676 179.28576 
L 114.293194 179.28576 
L 115.500514 181.94688 
L 116.708067 179.28576 
L 119.124174 179.28576 
L 120.331902 177.06816 
L 121.539439 179.28576 
L 122.747164 177.06816 
L 123.954533 179.28576 
L 125.161988 179.28576 
L 126.369503 174.85056 
L 127.571198 179.28576 
L 129.986989 179.28576 
L 131.194656 150.90048 
L 132.43401 136.70784 
L 133.668317 126.9504 
L 134.901921 114.97536 
L 137.369135 105.66144 
L 138.607993 103.00032 
L 139.842286 95.904 
L 141.081143 93.6864 
L 142.320698 91.02528 
L 144.799813 86.59008 
L 146.039339 81.71136 
L 147.278949 79.05024 
L 148.524468 79.05024 
L 149.764033 76.83264 
L 150.997642 76.83264 
L 152.237159 71.95392 
L 153.476725 71.95392 
L 154.716337 69.73632 
L 157.195461 69.73632 
L 158.434972 64.8576 
L 159.674564 67.51872 
L 160.91411 62.64 
L 162.153675 64.8576 
L 163.394549 59.97888 
L 168.357406 59.97888 
L 169.596957 57.76128 
L 170.836531 59.97888 
L 172.076114 55.54368 
L 174.555256 55.54368 
L 175.794805 52.88256 
L 177.034372 50.66496 
L 181.98738 50.66496 
L 183.22099 48.00384 
L 184.454569 48.00384 
L 186.927716 43.56864 
L 188.161947 45.78624 
L 189.394923 43.56864 
L 190.634496 45.78624 
L 191.87331 43.56864 
L 193.112857 45.78624 
L 194.352453 43.56864 
L 195.591976 40.90752 
L 196.832277 38.68992 
L 198.071204 38.68992 
L 199.310672 40.90752 
L 200.550274 40.90752 
L 201.789836 38.68992 
L 203.029372 40.90752 
L 204.268973 40.90752 
L 205.508512 36.47232 
L 206.74801 38.68992 
L 207.988279 36.47232 
L 212.948344 36.47232 
L 214.191379 33.8112 
L 215.430957 31.5936 
L 225.305734 31.5936 
L 226.545369 28.93248 
L 227.785497 26.71488 
L 229.019109 26.71488 
L 230.258778 28.93248 
L 231.503578 26.71488 
L 235.216931 26.71488 
L 236.46246 28.93248 
L 237.702024 26.71488 
L 245.133435 26.71488 
L 246.373066 24.49728 
L 247.612583 28.93248 
L 248.852185 26.71488 
L 256.289472 26.71488 
L 257.52907 24.49728 
L 258.768654 26.71488 
L 261.247753 26.71488 
L 262.486703 24.49728 
L 263.726863 26.71488 
L 267.445574 26.71488 
L 268.685178 24.49728 
L 272.409766 24.49728 
L 273.649299 21.83616 
L 274.888894 24.49728 
L 276.12846 24.49728 
L 277.368021 21.83616 
L 278.607619 26.71488 
L 279.84651 26.71488 
L 281.086676 21.83616 
L 282.32631 21.83616 
L 283.565826 24.49728 
L 284.799586 26.71488 
L 287.26682 26.71488 
L 288.500333 24.49728 
L 292.218947 24.49728 
L 293.458512 26.71488 
L 294.698055 24.49728 
L 295.931736 26.71488 
L 297.171463 21.83616 
L 298.41078 24.49728 
L 299.650366 26.71488 
L 300.889859 21.83616 
L 302.123477 26.71488 
L 305.832278 26.71488 
L 307.069771 24.49728 
L 308.309353 26.71488 
L 309.548481 40.90752 
L 310.757053 57.76128 
L 311.964871 69.73632 
L 314.380968 83.92896 
L 319.212079 103.00032 
L 320.419851 105.66144 
L 322.835619 110.09664 
L 324.043552 112.75776 
L 325.251203 112.75776 
L 326.459331 114.97536 
L 327.666739 117.63648 
L 328.874393 122.07168 
L 332.497705 122.07168 
L 333.705522 124.7328 
L 334.913509 126.9504 
L 337.328803 126.9504 
L 338.536803 129.168 
L 339.744683 131.82912 
L 340.952246 129.168 
L 342.160336 131.82912 
L 343.368078 131.82912 
L 344.575813 134.04672 
L 345.783783 134.04672 
L 346.99153 136.70784 
L 348.199193 134.04672 
L 349.406785 141.14304 
L 350.614477 141.14304 
L 351.822148 136.70784 
L 354.237297 136.70784 
L 355.445679 141.14304 
L 356.65323 141.14304 
L 357.860887 143.80416 
L 359.06943 141.14304 
L 360.277484 138.92544 
L 361.485493 141.14304 
L 362.693436 143.80416 
L 363.901541 141.14304 
L 365.109682 146.02176 
L 366.317787 143.80416 
L 368.734001 143.80416 
L 369.941751 146.02176 
L 377.189503 146.02176 
L 378.397165 150.90048 
L 385.645275 150.90048 
L 386.852835 153.11808 
L 388.060387 150.90048 
L 390.476212 150.90048 
L 391.683696 153.11808 
L 392.891421 153.11808 
L 394.09933 155.7792 
L 397.723125 155.7792 
L 397.723125 155.7792 
" style="fill:none;stroke:#ff7f0e;stroke-linecap:square;stroke-width:1.5;"/>
   </g>
   <g id="line2d_27">
    <path clip-path="url(#p76ea266915)" d="M 40.603125 220.0896 
L 41.80192 217.42848 
L 43.000961 217.42848 
L 44.199851 220.0896 
L 45.398747 217.42848 
L 46.597845 220.0896 
L 47.79676 217.42848 
L 48.995901 220.0896 
L 50.195095 220.0896 
L 51.394435 217.42848 
L 52.593813 220.0896 
L 53.79291 217.42848 
L 54.992029 217.42848 
L 56.191209 220.0896 
L 57.390352 217.42848 
L 58.590311 220.0896 
L 60.988464 220.0896 
L 62.187552 217.42848 
L 63.386706 220.0896 
L 64.585934 220.0896 
L 65.785135 217.42848 
L 66.984509 222.3072 
L 68.183403 220.0896 
L 69.382289 217.42848 
L 70.58164 220.0896 
L 75.377925 220.0896 
L 76.577037 217.42848 
L 77.775883 217.42848 
L 78.974956 220.0896 
L 80.173776 217.42848 
L 81.373075 220.0896 
L 82.572289 220.0896 
L 83.771486 217.42848 
L 84.97084 217.42848 
L 86.169964 220.0896 
L 88.56768 220.0896 
L 89.766745 217.42848 
L 90.965709 220.0896 
L 92.16487 220.0896 
L 93.364056 222.3072 
L 94.563181 220.0896 
L 96.962094 220.0896 
L 98.161344 217.42848 
L 99.360514 220.0896 
L 101.758915 220.0896 
L 102.958071 222.3072 
L 104.157192 222.3072 
L 105.356388 217.42848 
L 106.555512 220.0896 
L 111.351721 220.0896 
L 112.55064 222.3072 
L 113.74973 222.3072 
L 114.948621 220.0896 
L 116.147715 217.42848 
L 117.346934 220.0896 
L 118.546019 220.0896 
L 119.744841 217.42848 
L 120.94404 220.0896 
L 122.143203 220.0896 
L 123.342255 222.3072 
L 124.541643 222.3072 
L 125.740743 220.0896 
L 128.138941 220.0896 
L 129.338064 222.3072 
L 130.5374 208.11456 
L 132.980788 193.92192 
L 134.20247 193.92192 
L 135.424145 189.0432 
L 136.645855 191.2608 
L 139.083237 191.2608 
L 140.304762 189.0432 
L 141.526402 189.0432 
L 142.748279 186.8256 
L 143.964154 184.16448 
L 145.18569 184.16448 
L 146.407368 186.8256 
L 147.628868 184.16448 
L 152.509766 184.16448 
L 153.731495 186.8256 
L 154.95302 184.16448 
L 162.259316 184.16448 
L 163.481169 181.94688 
L 164.696854 184.16448 
L 165.918535 181.94688 
L 167.140204 184.16448 
L 168.355926 181.94688 
L 169.577648 184.16448 
L 172.020973 184.16448 
L 173.242673 181.94688 
L 174.458409 179.28576 
L 175.680085 181.94688 
L 176.901758 181.94688 
L 178.123453 179.28576 
L 179.345105 181.94688 
L 180.566817 179.28576 
L 183.00422 179.28576 
L 184.21994 181.94688 
L 185.44157 179.28576 
L 193.993395 179.28576 
L 195.215075 174.85056 
L 196.436587 179.28576 
L 203.766849 179.28576 
L 206.210212 174.85056 
L 207.431957 179.28576 
L 209.875243 179.28576 
L 211.096959 177.06816 
L 213.5403 177.06816 
L 214.756076 179.28576 
L 217.193432 174.85056 
L 220.846578 174.85056 
L 222.062285 177.06816 
L 223.283844 174.85056 
L 231.817702 174.85056 
L 233.039553 177.06816 
L 234.255119 174.85056 
L 246.436352 174.85056 
L 247.658033 172.18944 
L 248.873746 174.85056 
L 250.09539 172.18944 
L 251.317117 174.85056 
L 252.538789 172.18944 
L 253.760472 174.85056 
L 254.982193 172.18944 
L 256.197713 174.85056 
L 257.4194 172.18944 
L 258.641257 169.97184 
L 259.862776 169.97184 
L 261.084632 172.18944 
L 262.306241 169.97184 
L 263.527987 174.85056 
L 264.749664 172.18944 
L 265.971304 169.97184 
L 267.193032 172.18944 
L 270.851957 172.18944 
L 272.073628 169.97184 
L 275.73871 169.97184 
L 276.960534 172.18944 
L 278.176273 169.97184 
L 280.619624 169.97184 
L 281.841315 172.18944 
L 283.062998 169.97184 
L 284.278707 169.97184 
L 285.500402 174.85056 
L 286.722081 169.97184 
L 301.370372 169.97184 
L 302.591998 167.31072 
L 303.813668 169.97184 
L 308.700442 169.97184 
L 309.922013 184.16448 
L 312.320024 193.92192 
L 314.71837 193.92192 
L 315.917425 198.35712 
L 319.514644 198.35712 
L 320.714029 203.23584 
L 321.912836 201.01824 
L 324.31114 201.01824 
L 325.510175 203.23584 
L 327.908379 203.23584 
L 329.107517 201.01824 
L 330.306352 203.23584 
L 331.505371 201.01824 
L 332.704498 203.23584 
L 335.102836 203.23584 
L 336.301974 201.01824 
L 337.50105 203.23584 
L 353.089347 203.23584 
L 354.288774 205.89696 
L 355.4877 205.89696 
L 356.68676 208.11456 
L 357.885867 205.89696 
L 359.085057 208.11456 
L 360.283949 205.89696 
L 361.483297 203.23584 
L 363.88164 203.23584 
L 365.080706 208.11456 
L 366.279751 205.89696 
L 367.478846 205.89696 
L 368.678167 203.23584 
L 369.877537 205.89696 
L 371.076326 205.89696 
L 372.275261 208.11456 
L 375.872428 208.11456 
L 377.071698 203.23584 
L 378.27064 205.89696 
L 379.469861 208.11456 
L 380.668977 208.11456 
L 381.868172 205.89696 
L 383.067223 205.89696 
L 384.266016 208.11456 
L 385.465127 205.89696 
L 386.663953 208.11456 
L 387.862899 205.89696 
L 389.061965 208.11456 
L 392.659397 208.11456 
L 393.858632 205.89696 
L 395.057414 205.89696 
L 396.256339 208.11456 
L 397.455775 208.11456 
L 397.455775 208.11456 
" style="fill:none;stroke:#2ca02c;stroke-linecap:square;stroke-width:1.5;"/>
   </g>
   <g id="patch_3">
    <path d="M 40.603125 273.312 
L 40.603125 7.2 
" style="fill:none;stroke:#000000;stroke-linecap:square;stroke-linejoin:miter;stroke-width:0.8;"/>
   </g>
   <g id="patch_4">
    <path d="M 397.723125 273.312 
L 397.723125 7.2 
" style="fill:none;stroke:#000000;stroke-linecap:square;stroke-linejoin:miter;stroke-width:0.8;"/>
   </g>
   <g id="patch_5">
    <path d="M 40.603125 273.312 
L 397.723125 273.312 
" style="fill:none;stroke:#000000;stroke-linecap:square;stroke-linejoin:miter;stroke-width:0.8;"/>
   </g>
   <g id="patch_6">
    <path d="M 40.603125 7.2 
L 397.723125 7.2 
" style="fill:none;stroke:#000000;stroke-linecap:square;stroke-linejoin:miter;stroke-width:0.8;"/>
   </g>
   <g id="legend_1">
    <g id="patch_7">
     <path d="M 410.436725 54.234375 
L 501.31485 54.234375 
Q 503.31485 54.234375 503.31485 52.234375 
L 503.31485 9.2 
Q 503.31485 7.2 501.31485 7.2 
L 410.436725 7.2 
Q 408.436725 7.2 408.436725 9.2 
L 408.436725 52.234375 
Q 408.436725 54.234375 410.436725 54.234375 
z
" style="fill:#ffffff;opacity:0.8;stroke:#cccccc;stroke-linejoin:miter;"/>
    </g>
    <g id="line2d_28">
     <path d="M 412.436725 15.298437 
L 432.436725 15.298437 
" style="fill:none;stroke:#1f77b4;stroke-linecap:square;stroke-width:1.5;"/>
    </g>
    <g id="line2d_29"/>
    <g id="text_15">
     <!-- acrylic case -->
     <defs>
      <path d="M 48.78125 52.59375 
L 48.78125 44.1875 
Q 44.96875 46.296875 41.140625 47.34375 
Q 37.3125 48.390625 33.40625 48.390625 
Q 24.65625 48.390625 19.8125 42.84375 
Q 14.984375 37.3125 14.984375 27.296875 
Q 14.984375 17.28125 19.8125 11.734375 
Q 24.65625 6.203125 33.40625 6.203125 
Q 37.3125 6.203125 41.140625 7.25 
Q 44.96875 8.296875 48.78125 10.40625 
L 48.78125 2.09375 
Q 45.015625 0.34375 40.984375 -0.53125 
Q 36.96875 -1.421875 32.421875 -1.421875 
Q 20.0625 -1.421875 12.78125 6.34375 
Q 5.515625 14.109375 5.515625 27.296875 
Q 5.515625 40.671875 12.859375 48.328125 
Q 20.21875 56 33.015625 56 
Q 37.15625 56 41.109375 55.140625 
Q 45.0625 54.296875 48.78125 52.59375 
z
" id="DejaVuSans-99"/>
      <path d="M 32.171875 -5.078125 
Q 28.375 -14.84375 24.75 -17.8125 
Q 21.140625 -20.796875 15.09375 -20.796875 
L 7.90625 -20.796875 
L 7.90625 -13.28125 
L 13.1875 -13.28125 
Q 16.890625 -13.28125 18.9375 -11.515625 
Q 21 -9.765625 23.484375 -3.21875 
L 25.09375 0.875 
L 2.984375 54.6875 
L 12.5 54.6875 
L 29.59375 11.921875 
L 46.6875 54.6875 
L 56.203125 54.6875 
z
" id="DejaVuSans-121"/>
      <path d="M 9.421875 75.984375 
L 18.40625 75.984375 
L 18.40625 0 
L 9.421875 0 
z
" id="DejaVuSans-108"/>
     </defs>
     <g transform="translate(440.436725 18.798437)scale(0.1 -0.1)">
      <use xlink:href="#DejaVuSans-97"/>
      <use x="61.279297" xlink:href="#DejaVuSans-99"/>
      <use x="116.259766" xlink:href="#DejaVuSans-114"/>
      <use x="157.373047" xlink:href="#DejaVuSans-121"/>
      <use x="216.552734" xlink:href="#DejaVuSans-108"/>
      <use x="244.335938" xlink:href="#DejaVuSans-105"/>
      <use x="272.119141" xlink:href="#DejaVuSans-99"/>
      <use x="327.099609" xlink:href="#DejaVuSans-32"/>
      <use x="358.886719" xlink:href="#DejaVuSans-99"/>
      <use x="413.867188" xlink:href="#DejaVuSans-97"/>
      <use x="475.146484" xlink:href="#DejaVuSans-115"/>
      <use x="527.246094" xlink:href="#DejaVuSans-101"/>
     </g>
    </g>
    <g id="line2d_30">
     <path d="M 412.436725 29.976562 
L 432.436725 29.976562 
" style="fill:none;stroke:#ff7f0e;stroke-linecap:square;stroke-width:1.5;"/>
    </g>
    <g id="line2d_31"/>
    <g id="text_16">
     <!-- naked -->
     <defs>
      <path d="M 54.890625 33.015625 
L 54.890625 0 
L 45.90625 0 
L 45.90625 32.71875 
Q 45.90625 40.484375 42.875 44.328125 
Q 39.84375 48.1875 33.796875 48.1875 
Q 26.515625 48.1875 22.3125 43.546875 
Q 18.109375 38.921875 18.109375 30.90625 
L 18.109375 0 
L 9.078125 0 
L 9.078125 54.6875 
L 18.109375 54.6875 
L 18.109375 46.1875 
Q 21.34375 51.125 25.703125 53.5625 
Q 30.078125 56 35.796875 56 
Q 45.21875 56 50.046875 50.171875 
Q 54.890625 44.34375 54.890625 33.015625 
z
" id="DejaVuSans-110"/>
      <path d="M 9.078125 75.984375 
L 18.109375 75.984375 
L 18.109375 31.109375 
L 44.921875 54.6875 
L 56.390625 54.6875 
L 27.390625 29.109375 
L 57.625 0 
L 45.90625 0 
L 18.109375 26.703125 
L 18.109375 0 
L 9.078125 0 
z
" id="DejaVuSans-107"/>
      <path d="M 45.40625 46.390625 
L 45.40625 75.984375 
L 54.390625 75.984375 
L 54.390625 0 
L 45.40625 0 
L 45.40625 8.203125 
Q 42.578125 3.328125 38.25 0.953125 
Q 33.9375 -1.421875 27.875 -1.421875 
Q 17.96875 -1.421875 11.734375 6.484375 
Q 5.515625 14.40625 5.515625 27.296875 
Q 5.515625 40.1875 11.734375 48.09375 
Q 17.96875 56 27.875 56 
Q 33.9375 56 38.25 53.625 
Q 42.578125 51.265625 45.40625 46.390625 
z
M 14.796875 27.296875 
Q 14.796875 17.390625 18.875 11.75 
Q 22.953125 6.109375 30.078125 6.109375 
Q 37.203125 6.109375 41.296875 11.75 
Q 45.40625 17.390625 45.40625 27.296875 
Q 45.40625 37.203125 41.296875 42.84375 
Q 37.203125 48.484375 30.078125 48.484375 
Q 22.953125 48.484375 18.875 42.84375 
Q 14.796875 37.203125 14.796875 27.296875 
z
" id="DejaVuSans-100"/>
     </defs>
     <g transform="translate(440.436725 33.476562)scale(0.1 -0.1)">
      <use xlink:href="#DejaVuSans-110"/>
      <use x="63.378906" xlink:href="#DejaVuSans-97"/>
      <use x="124.658203" xlink:href="#DejaVuSans-107"/>
      <use x="182.521484" xlink:href="#DejaVuSans-101"/>
      <use x="244.044922" xlink:href="#DejaVuSans-100"/>
     </g>
    </g>
    <g id="line2d_32">
     <path d="M 412.436725 44.654687 
L 432.436725 44.654687 
" style="fill:none;stroke:#2ca02c;stroke-linecap:square;stroke-width:1.5;"/>
    </g>
    <g id="line2d_33"/>
    <g id="text_17">
     <!-- fasttech -->
     <defs>
      <path d="M 37.109375 75.984375 
L 37.109375 68.5 
L 28.515625 68.5 
Q 23.6875 68.5 21.796875 66.546875 
Q 19.921875 64.59375 19.921875 59.515625 
L 19.921875 54.6875 
L 34.71875 54.6875 
L 34.71875 47.703125 
L 19.921875 47.703125 
L 19.921875 0 
L 10.890625 0 
L 10.890625 47.703125 
L 2.296875 47.703125 
L 2.296875 54.6875 
L 10.890625 54.6875 
L 10.890625 58.5 
Q 10.890625 67.625 15.140625 71.796875 
Q 19.390625 75.984375 28.609375 75.984375 
z
" id="DejaVuSans-102"/>
      <path d="M 54.890625 33.015625 
L 54.890625 0 
L 45.90625 0 
L 45.90625 32.71875 
Q 45.90625 40.484375 42.875 44.328125 
Q 39.84375 48.1875 33.796875 48.1875 
Q 26.515625 48.1875 22.3125 43.546875 
Q 18.109375 38.921875 18.109375 30.90625 
L 18.109375 0 
L 9.078125 0 
L 9.078125 75.984375 
L 18.109375 75.984375 
L 18.109375 46.1875 
Q 21.34375 51.125 25.703125 53.5625 
Q 30.078125 56 35.796875 56 
Q 45.21875 56 50.046875 50.171875 
Q 54.890625 44.34375 54.890625 33.015625 
z
" id="DejaVuSans-104"/>
     </defs>
     <g transform="translate(440.436725 48.154687)scale(0.1 -0.1)">
      <use xlink:href="#DejaVuSans-102"/>
      <use x="35.205078" xlink:href="#DejaVuSans-97"/>
      <use x="96.484375" xlink:href="#DejaVuSans-115"/>
      <use x="148.583984" xlink:href="#DejaVuSans-116"/>
      <use x="187.792969" xlink:href="#DejaVuSans-116"/>
      <use x="227.001953" xlink:href="#DejaVuSans-101"/>
      <use x="288.525391" xlink:href="#DejaVuSans-99"/>
      <use x="343.505859" xlink:href="#DejaVuSans-104"/>
     </g>
    </g>
   </g>
  </g>
 </g>
 <defs>
  <clipPath id="p76ea266915">
   <rect height="266.112" width="357.12" x="40.603125" y="7.2"/>
  </clipPath>
 </defs>
</svg>
