<svg height="423.21" viewBox="0 0 537.105 317.408" width="716.14" xmlns="http://www.w3.org/2000/svg" xmlns:xlink="http://www.w3.org/1999/xlink"><defs><style>*{stroke-linecap:butt;stroke-linejoin:round}</style></defs><g id="figure_1"><path d="M0 317.408h537.105V0H0z" fill="none" id="patch_1"/><g id="axes_1"><path d="M46.985 273.312h357.12V7.2H46.985z" fill="none" id="patch_2"/><g id="matplotlib.axis_1"><g id="xtick_1"><g id="line2d_1"><defs><path d="M0 0v3.5" id="m3ff050a958" stroke="#969696" stroke-width=".4"/></defs><use x="46.985" xlink:href="#m3ff050a958" y="273.312" fill="#969696" stroke="#969696" stroke-width=".4"/></g><g id="text_1"><defs><path d="M42.484 34.188q0 14.109-3.734 21.156-3.734 7.062-10.969 7.062-7.078 0-10.89-7.062-3.797-7.047-3.797-21.157 0-13.671 3.75-20.937Q20.609 6 27.78 6q7.235 0 10.969 7 3.734 7.016 3.734 21.188zm9.422 0q0-17.297-6.25-26.704-6.25-9.39-17.875-9.39-12.062 0-18.062 9.734-6 9.75-6 26.36 0 17.03 6.14 26.578 6.157 9.547 17.922 9.547 11.625 0 17.875-9.5t6.25-26.626z" id="HelveticaWorld-Regular-48"/></defs><use xlink:href="#HelveticaWorld-Regular-48" transform="matrix(.14 0 0 -.14 43.093 290.361)" fill="#969696"/></g></g><g id="xtick_2"><use x="106.544" xlink:href="#m3ff050a958" y="273.312" fill="#969696" stroke="#969696" stroke-width=".4" id="line2d_2"/><g id="text_2"><defs><path d="M35.89 0h-9.374v49.906H10.109v6.985q8.594.28 12.782 2.75Q27.094 62.109 29 70.313h6.89z" id="HelveticaWorld-Regular-49"/></defs><g transform="matrix(.14 0 0 -.14 94.866 290.361)" fill="#969696"><use xlink:href="#HelveticaWorld-Regular-49"/><use x="55.615" xlink:href="#HelveticaWorld-Regular-48"/><use x="111.23" xlink:href="#HelveticaWorld-Regular-48"/></g></g></g><g id="xtick_3"><use x="166.102" xlink:href="#m3ff050a958" y="273.312" fill="#969696" stroke="#969696" stroke-width=".4" id="line2d_3"/><g id="text_3"><defs><path d="M4.39 45.125q0 12.39 6.391 18.781 6.406 6.407 17.938 6.407 9.656 0 15.812-5.86 6.157-5.86 6.157-15.14 0-7.22-3.547-12.188-3.532-4.953-10.422-8.703l-12.11-6.64Q13.922 15.921 12.5 8.296h38.188V0H2.593q.39 9.906 4.297 16.5 3.906 6.594 12.203 11.375l12.593 7.328q5.032 2.89 7.329 5.984 2.297 3.094 2.297 8.516 0 5.375-3.766 9.031-3.75 3.672-10.156 3.672-7.078 0-10.594-4.672-3.516-4.656-3.61-12.609z" id="HelveticaWorld-Regular-50"/></defs><g transform="matrix(.14 0 0 -.14 154.424 290.361)" fill="#969696"><use xlink:href="#HelveticaWorld-Regular-50"/><use x="55.615" xlink:href="#HelveticaWorld-Regular-48"/><use x="111.23" xlink:href="#HelveticaWorld-Regular-48"/></g></g></g><g id="xtick_4"><use x="225.66" xlink:href="#m3ff050a958" y="273.312" fill="#969696" stroke="#969696" stroke-width=".4" id="line2d_4"/><g id="text_4"><defs><path d="M22.406 39.984q2.203-.187 4.594-.187 6.203 0 9.781 2.86 3.594 2.859 3.594 8.656 0 4.687-3.344 7.89-3.343 3.203-9.64 3.203-6.985 0-10.235-4.11-3.234-4.093-3.437-10.983h-8.64q0 10.984 5.765 16.984 5.765 6.016 16.937 6.016 9.922 0 15.828-5.11 5.907-5.094 5.907-13.39 0-10.704-9.032-14.5v-.204q11.72-4 11.72-16.406 0-9.906-6.595-16.265-6.593-6.344-18.703-6.344-9.906 0-16.312 5.203Q4.204 8.5 3.422 21.484H12.5q.203-8.109 4-11.797Q20.313 6 27.484 6q6.938 0 11.141 3.86 4.203 3.859 4.203 9.718 0 6.406-4.016 9.672-4 3.266-12.39 3.266-2 0-4.016-.094z" id="HelveticaWorld-Regular-51"/></defs><g transform="matrix(.14 0 0 -.14 213.982 290.361)" fill="#969696"><use xlink:href="#HelveticaWorld-Regular-51"/><use x="55.615" xlink:href="#HelveticaWorld-Regular-48"/><use x="111.23" xlink:href="#HelveticaWorld-Regular-48"/></g></g></g><g id="xtick_5"><use x="285.218" xlink:href="#m3ff050a958" y="273.312" fill="#969696" stroke="#969696" stroke-width=".4" id="line2d_5"/><g id="text_5"><defs><path d="M10.594 24.703h22.61v31.89h-.188zM42 17.093V0h-8.797v17.094H2.484v8.593L34.72 70.314H42v-45.61h10.297v-7.61z" id="HelveticaWorld-Regular-52"/></defs><g transform="matrix(.14 0 0 -.14 273.54 290.361)" fill="#969696"><use xlink:href="#HelveticaWorld-Regular-52"/><use x="55.615" xlink:href="#HelveticaWorld-Regular-48"/><use x="111.23" xlink:href="#HelveticaWorld-Regular-48"/></g></g></g><g id="xtick_6"><use x="344.776" xlink:href="#m3ff050a958" y="273.312" fill="#969696" stroke="#969696" stroke-width=".4" id="line2d_6"/><g id="text_6"><defs><path d="M14.703 40.922q5.813 4.39 13.625 4.39 9.469 0 16.281-6.296 6.813-6.297 6.813-16.22 0-10.78-6.578-17.796-6.563-7-18.422-7-10.313 0-16.266 5.047Q4.203 8.109 3.22 17.39h9.094q.671-5.672 4.437-8.672 3.766-3 10.453-3 6.485 0 10.64 4.484Q42 14.703 42 21.688q0 7.125-4.36 11.421-4.343 4.297-11.218 4.297-7.813 0-13.047-6.687l-7.563.39 5.266 37.594h36.438v-8.5H17.672z" id="HelveticaWorld-Regular-53"/></defs><g transform="matrix(.14 0 0 -.14 333.098 290.361)" fill="#969696"><use xlink:href="#HelveticaWorld-Regular-53"/><use x="55.615" xlink:href="#HelveticaWorld-Regular-48"/><use x="111.23" xlink:href="#HelveticaWorld-Regular-48"/></g></g></g><g id="text_7"><defs><path d="M17.188 45.016V10.984q0-2 1.093-3.046 1.11-1.047 3.938-1.047h3.375V0Q20.797-.688 19-.688q-5.516 0-8.063 2.641-2.53 2.64-2.53 8.547v34.516H1.311v7.28h7.094v14.595h8.781V52.297h8.407v-7.281z" id="HelveticaWorld-Regular-116"/><path d="M6.594 61.813v9.968h8.781v-9.969zM15.375 0H6.594v52.297h8.781z" id="HelveticaWorld-Regular-105"/><path d="M6.594 52.297h8.297v-7.375h.203q5.906 8.89 15.812 8.89 9.813 0 13.922-8.5 3.75 4.594 7.266 6.547 3.515 1.953 8.703 1.953 6.781 0 11.484-4.453Q77 44.922 77 36.187V0h-8.781v33.797q0 6.094-2.297 9.094-2.297 3.015-7.422 3.015-5.172 0-8.75-4.203-3.563-4.203-3.563-9.812V0h-8.78v36.188q0 4.53-2.11 7.124-2.094 2.594-6.094 2.594-6.297 0-10.062-4.687-3.766-4.688-3.766-12.703V0H6.594z" id="HelveticaWorld-Regular-109"/><path d="M42.484 30.328q-.687 8.485-4.5 12.031-3.797 3.547-10.109 3.547-6.39 0-10.328-4.5-3.922-4.484-4.172-11.078zm8.391-13.922q-1.453-8.11-7.953-13.422-5.719-4.5-15.047-4.593-10.984.093-17.438 7.203Q4 12.704 4 24.704q0 13.78 6.64 21.437 6.641 7.672 18.47 7.672 10.593 0 16.546-7.922 5.953-7.907 5.953-22.594H13.375q0-8.203 3.813-12.703Q21 6.109 28.608 6.109q5.375 0 9.235 3.235 3.86 3.25 4.25 7.062z" id="HelveticaWorld-Regular-101"/><path d="M14.203-12.5H25v-7.078H6.297v91.797H25v-7.125H14.203z" id="HelveticaWorld-Regular-91"/><path d="M36.078 37.406q-.187 4.688-3.344 6.735-3.14 2.047-9.047 2.047-4.296 0-7.359-1.907-3.047-1.89-3.047-5.468 0-2.829 1.797-4.172 1.813-1.344 7.828-2.86l8.688-2.187q7.906-2 11.297-5.11 3.406-3.093 3.406-8.656 0-7.719-5.64-12.531-5.641-4.813-15.063-4.813-11 0-16.64 4.563-5.626 4.578-5.735 13.75h8.5q.203-5.422 3.594-8.063 3.39-2.625 10.171-2.625 5.516 0 8.766 2.188 3.25 2.203 3.25 6.11 0 2.78-2.11 4.437-2.093 1.672-8.296 3.078l-10.203 2.5q-6.203 1.562-9.157 4.656-2.953 3.094-2.953 8.031 0 7.72 5.516 12.203 5.531 4.5 14.406 4.5 9.485 0 14.531-4.624 5.047-4.61 5.344-11.782z" id="HelveticaWorld-Regular-115"/><path d="M13.625 65.094H2.781v7.125h18.703v-91.797H2.781v7.078h10.844z" id="HelveticaWorld-Regular-93"/></defs><g transform="matrix(.14 0 0 -.14 203.277 307.31)" fill="#969696"><use xlink:href="#HelveticaWorld-Regular-116"/><use x="27.686" xlink:href="#HelveticaWorld-Regular-105"/><use x="49.707" xlink:href="#HelveticaWorld-Regular-109"/><use x="132.715" xlink:href="#HelveticaWorld-Regular-101"/><use x="188.135" xlink:href="#HelveticaWorld-Regular-32"/><use x="212.549" xlink:href="#HelveticaWorld-Regular-91"/><use x="240.332" xlink:href="#HelveticaWorld-Regular-115"/><use x="290.332" xlink:href="#HelveticaWorld-Regular-93"/></g></g></g><g id="matplotlib.axis_2"><g id="ytick_1"><path clip-path="url(#pc20424900e)" d="M46.985 241.056h357.12" fill="none" stroke="#969696" stroke-linecap="square" stroke-width=".3" id="line2d_7"/><g id="line2d_8"><defs><path d="M0 0h-3.5" id="m5861348a9f" stroke="#969696" stroke-width=".3"/></defs><use x="46.985" xlink:href="#m5861348a9f" y="241.056" fill="#969696" stroke="#969696" stroke-width=".3"/></g><g transform="matrix(.14 0 0 -.14 24.415 246.08)" fill="#969696" id="text_8"><use xlink:href="#HelveticaWorld-Regular-51"/><use x="55.615" xlink:href="#HelveticaWorld-Regular-48"/></g></g><g id="ytick_2"><path clip-path="url(#pc20424900e)" d="M46.985 200.736h357.12" fill="none" stroke="#969696" stroke-linecap="square" stroke-width=".3" id="line2d_9"/><use x="46.985" xlink:href="#m5861348a9f" y="200.736" fill="#969696" stroke="#969696" stroke-width=".3" id="line2d_10"/><g transform="matrix(.14 0 0 -.14 24.415 205.76)" fill="#969696" id="text_9"><use xlink:href="#HelveticaWorld-Regular-51"/><use x="55.615" xlink:href="#HelveticaWorld-Regular-53"/></g></g><g id="ytick_3"><path clip-path="url(#pc20424900e)" d="M46.985 160.416h357.12" fill="none" stroke="#969696" stroke-linecap="square" stroke-width=".3" id="line2d_11"/><use x="46.985" xlink:href="#m5861348a9f" y="160.416" fill="#969696" stroke="#969696" stroke-width=".3" id="line2d_12"/><g transform="matrix(.14 0 0 -.14 24.415 165.44)" fill="#969696" id="text_10"><use xlink:href="#HelveticaWorld-Regular-52"/><use x="55.615" xlink:href="#HelveticaWorld-Regular-48"/></g></g><g id="ytick_4"><path clip-path="url(#pc20424900e)" d="M46.985 120.096h357.12" fill="none" stroke="#969696" stroke-linecap="square" stroke-width=".3" id="line2d_13"/><use x="46.985" xlink:href="#m5861348a9f" y="120.096" fill="#969696" stroke="#969696" stroke-width=".3" id="line2d_14"/><g transform="matrix(.14 0 0 -.14 24.415 125.12)" fill="#969696" id="text_11"><use xlink:href="#HelveticaWorld-Regular-52"/><use x="55.615" xlink:href="#HelveticaWorld-Regular-53"/></g></g><g id="ytick_5"><path clip-path="url(#pc20424900e)" d="M46.985 79.776h357.12" fill="none" stroke="#969696" stroke-linecap="square" stroke-width=".3" id="line2d_15"/><use x="46.985" xlink:href="#m5861348a9f" y="79.776" fill="#969696" stroke="#969696" stroke-width=".3" id="line2d_16"/><g transform="matrix(.14 0 0 -.14 24.415 84.8)" fill="#969696" id="text_12"><use xlink:href="#HelveticaWorld-Regular-53"/><use x="55.615" xlink:href="#HelveticaWorld-Regular-48"/></g></g><g id="ytick_6"><path clip-path="url(#pc20424900e)" d="M46.985 39.456h357.12" fill="none" stroke="#969696" stroke-linecap="square" stroke-width=".3" id="line2d_17"/><use x="46.985" xlink:href="#m5861348a9f" y="39.456" fill="#969696" stroke="#969696" stroke-width=".3" id="line2d_18"/><g transform="matrix(.14 0 0 -.14 24.415 44.48)" fill="#969696" id="text_13"><use xlink:href="#HelveticaWorld-Regular-53"/><use x="55.615" xlink:href="#HelveticaWorld-Regular-53"/></g></g><g id="text_14"><defs><path d="M14.984 23.688q0-8.407 4.094-13 4.11-4.579 10.219-4.579 6.687 0 10.39 5.438 3.72 5.453 3.72 14.765 0 10.22-3.563 14.907-3.563 4.687-10.735 4.687-6.984 0-10.562-5.5-3.563-5.5-3.563-16.718zm-8.39 28.609h8.297v-7.375h.203q5.61 8.89 15.625 8.89 10.11 0 15.937-7.359 5.828-7.344 5.828-18.766 0-12.796-5.953-21Q40.578-1.515 29.5-1.515q-9.094 0-13.922 7.032h-.203v-26.22H6.594z" id="HelveticaWorld-Regular-112"/><path d="M15.375 0H6.594v52.297h8.297v-8.688h.203q5.703 10.203 14.687 10.203 1.422 0 2.297-.296V44.39h-3.266q-5.906 0-9.671-4.016-3.766-4-3.766-9.953z" id="HelveticaWorld-Regular-114"/><path d="M38.375 26.703q-.969-1.015-3.828-1.656-2.86-.625-10.672-1.656-5.766-.688-8.469-2.844-2.703-2.14-2.703-5.656 0-4.297 2.281-6.688 2.297-2.39 7.329-2.39 6.296 0 11.171 3.578 4.891 3.593 4.891 8.718zM6.203 36.375q.297 8.844 5.734 13.14 5.454 4.297 15.844 4.297 8.297 0 13.907-3.765 5.624-3.75 5.624-10.844V9.078Q47.313 6 50.094 6q1.125 0 2.89.39V0Q50.594-.984 48-.984q-4.5 0-6.703 1.921-2.188 1.938-2.281 6.047-7.516-8.5-18.891-8.5-7.422 0-11.922 4.204Q3.72 6.89 3.72 13.624q0 6.89 3.906 11.125Q11.531 29 19 29.89l15.516 1.891q4.203.64 4.203 6.203 0 4.11-3.047 6.297-3.047 2.203-9.25 2.203-5.516 0-8.485-2.437-2.953-2.438-3.53-7.672z" id="HelveticaWorld-Regular-97"/><path d="M6.11 52.297h8.78V17.578q0-5.765 2.61-8.625Q20.125 6.11 25 6.11q6.781 0 10.594 4.797 3.812 4.813 3.812 12.578v28.813h8.782V0H39.89v7.625l-.188.188q-4.984-9.329-16.61-9.329-7.515 0-12.25 4.094Q6.11 6.688 6.11 14.703z" id="HelveticaWorld-Regular-117"/><path d="M20.016 66.016q-2 0-3.766-.86-1.75-.844-3.094-2.312-1.344-1.469-2.156-3.297-.797-1.828-.797-3.828 0-2 .797-3.86.813-1.859 2.156-3.297 1.344-1.437 3.094-2.296 1.766-.86 3.766-.86t3.734.86q1.734.859 3.094 2.297Q28.219 50 29 51.858q.781 1.86.781 3.86 0 2-.781 3.828-.781 1.828-2.156 3.297-1.36 1.468-3.094 2.312-1.734.86-3.734.86zm14.562-10.297q0-3.125-1.078-5.766-1.078-2.64-3.031-4.594-1.953-1.953-4.672-3.109-2.703-1.14-5.781-1.14-3.125 0-5.766 1.14-2.625 1.156-4.578 3.11-1.953 1.953-3.11 4.593-1.14 2.64-1.14 5.766 0 3.078 1.14 5.781 1.157 2.703 3.11 4.656 1.953 1.953 4.578 3.047 2.64 1.11 5.766 1.11 3.078 0 5.78-1.11 2.72-1.094 4.673-3.047 1.953-1.953 3.031-4.656 1.078-2.703 1.078-5.781z" id="HelveticaWorld-Regular-176"/><path d="M58.016 50.203q-1.625 7.313-6.782 11.094-5.14 3.797-13.343 3.797-10.594 0-17.047-7.703-6.438-7.688-6.438-20.766 0-15.14 6.094-22.547 6.11-7.39 17.688-7.39 7.609 0 13.093 5.046 5.5 5.063 7.407 14.688h9.421Q66.22 12.594 57.625 5.344t-20.906-7.25q-14.703 0-23.516 10.11Q4.391 18.311 4.391 36.28q0 17.328 9.203 27.36 9.203 10.047 24.297 10.047 12.5 0 20.265-6.454 7.766-6.437 9.235-17.03z" id="HelveticaWorld-Regular-67"/></defs><g transform="matrix(0 -.14 -.14 0 17.516 191.096)" fill="#969696"><use xlink:href="#HelveticaWorld-Regular-116"/><use x="27.686" xlink:href="#HelveticaWorld-Regular-101"/><use x="83.105" xlink:href="#HelveticaWorld-Regular-109"/><use x="166.113" xlink:href="#HelveticaWorld-Regular-112"/><use x="222.607" xlink:href="#HelveticaWorld-Regular-101"/><use x="278.027" xlink:href="#HelveticaWorld-Regular-114"/><use x="309.596" xlink:href="#HelveticaWorld-Regular-97"/><use x="364.527" xlink:href="#HelveticaWorld-Regular-116"/><use x="392.213" xlink:href="#HelveticaWorld-Regular-117"/><use x="446.998" xlink:href="#HelveticaWorld-Regular-114"/><use x="478.566" xlink:href="#HelveticaWorld-Regular-101"/><use x="533.986" xlink:href="#HelveticaWorld-Regular-32"/><use x="558.4" xlink:href="#HelveticaWorld-Regular-91"/><use x="586.184" xlink:href="#HelveticaWorld-Regular-176"/><use x="626.174" xlink:href="#HelveticaWorld-Regular-67"/><use x="698.488" xlink:href="#HelveticaWorld-Regular-93"/></g></g></g><path clip-path="url(#pc20424900e)" d="M46.985 265.248l1.223-8.064 1.204 8.064 1.222-8.064h1.221l1.221 8.064 2.445-16.128 1.221 8.064h1.221l1.22-8.064 1.222 16.128h1.22l1.222-8.064 1.22 8.064 1.221-8.064 1.222 8.064 1.221-8.064h2.443l1.221 8.064 1.22-8.064h1.222l1.22-8.064 1.205 16.128 1.22-16.128 1.222 16.128h1.221l1.221-8.064 1.221 8.064h3.665l1.22-8.064 1.222 8.064h4.884l1.221-8.064 1.222 8.064h2.445l1.22-8.064 1.222 8.064h1.22l1.204-8.064h3.662l1.221 8.064 1.221-8.064 1.221 8.064 1.221-16.128 1.221 16.128h1.221l1.221-8.064h1.204l1.22 8.064h1.221l1.221-8.064 1.221 8.064 2.443-16.128 1.22 24.192 1.221-16.128 1.222 8.064h1.226l1.204 8.064 1.22-8.064h2.446l1.222 8.064h1.22l1.221-40.32 1.251-8.064h1.25l1.251 8.064h1.245l1.24 8.064 2.489-16.128h1.244l1.257 16.128 1.245-8.064h7.468l1.24-8.064 1.244 8.064h1.239l1.245-8.064 1.25 8.064h1.245l1.245-8.064h1.245l1.244 8.064 1.245-8.064 1.245 8.064 1.245-8.064 1.244 16.128 1.234-16.128 1.244 8.064 1.245-8.064h1.25l1.24 8.064 1.244-8.064h1.239l1.239-8.064 1.245 8.064 1.238-8.064 1.245 16.128 1.239-8.064h2.484l1.238-8.064 1.245 8.064 1.239-8.064 2.49 16.128 1.239-16.128 1.244 8.064h3.723l1.238-8.064 1.245 8.064h7.469l1.244-8.064h2.49l1.245 8.064 1.25-8.064h3.72l1.241 8.064 1.245-8.064h2.478l1.239 8.064 1.25-8.064h2.502l1.239 8.064 1.24-8.064h1.237l1.246 8.064 1.238-8.064 1.245 8.064 1.244-8.064h2.484l1.245 8.064 1.239-8.064 1.244 8.064 1.24-8.064h3.722l1.238 8.064 1.24-8.064 1.238 8.064h2.496l1.24-8.064h4.96l1.238 8.064h2.484l1.245-8.064h1.25l1.27-8.064 1.244 16.128 1.245-8.064h1.244l1.245 8.064 2.472-16.128 1.238 8.064h1.24l1.244 8.064 1.245-8.064h1.245l1.244 8.064 1.245-8.064h2.496l1.244-8.064 1.245 16.128 1.257-16.128 1.239 8.064h2.495l1.245 8.064 1.244-8.064h1.245l1.251 8.064 1.245-8.064h6.206l1.268-8.064 1.245 8.064 2.449 32.256h9.751l1.222 8.064 1.22-8.064h2.426l1.22 8.064h3.665l1.22-8.064 1.222 8.064h3.664l1.221-8.064 1.223 8.064h2.443l1.222-8.064 1.22 16.128 2.443-16.128 1.204 8.064h2.442l1.221-8.064 1.205 8.064 1.22-8.064 1.222 16.128h1.222l1.22-8.064h1.222l1.222-8.064 1.222 8.064h3.662l1.203 8.064 1.219-8.064 1.219 8.064 1.218-8.064h1.22l1.218 8.064h1.22l1.218-8.064h1.22l1.218 8.064 1.219-8.064 1.22 8.064 1.22-8.064h9.755l1.219-8.064 2.422 16.128 2.438-16.128 1.219 16.128h1.218" fill="none" stroke="#1f77b4" stroke-linecap="square" stroke-width="1.5" id="line2d_19"/><path clip-path="url(#pc20424900e)" d="M46.985 223.896l1.192 3.927h3.575l2.383 7.854 1.191-7.854 3.575 11.781 1.192-15.708 1.191-3.927 1.192 7.854h1.192l1.191 3.927 1.192-7.854h1.191l1.192 7.854 1.191-7.854 2.384 7.854 1.191-7.854 1.192 3.927 1.191-3.927 1.192 3.927h2.383l1.192 3.927 1.191-7.854 1.192 7.854h1.191l1.192-3.927 1.192 3.927 1.191-3.927h2.383l1.192-3.927 1.191 7.854 1.192-7.854h1.192l1.191 3.927 1.192 7.854 1.191-3.927 1.192 3.927 1.192-11.781h1.191l1.192 7.854h1.191l1.192-7.854h1.191l1.192 3.927 1.192-7.854h1.191l1.192 3.927 1.191 7.854 1.192-3.927h1.192l1.191 3.927 1.192-7.854 1.191 3.927 1.192-3.927 1.191 3.927 1.192-3.927 1.192 3.927 1.191 7.854 2.383-7.854 1.192 3.927 1.192-3.927h1.191l1.192-7.854 1.191 11.781h2.383l1.194-7.854 1.193-23.563 1.19-7.855 1.192 3.928h1.192l1.191-7.855h7.149l1.191-3.927 1.191 3.927 1.192-11.781 1.191 7.854 2.383-7.854 1.192 3.927 1.19-3.927h1.192l1.192 3.927 1.191-3.927 1.192-7.855 1.191 3.928h4.766l1.191-7.855 1.191 11.782 1.192-11.782 2.383 7.855 2.383-7.855 1.191 3.927 1.192-7.854 1.191 11.782 1.191-7.855 1.192-3.927 1.191 3.927h1.192l1.191-3.927 1.191 3.927 1.192-7.854 1.191 11.781 1.192-11.781 1.191 11.781 1.192-7.854 1.19-3.927 1.192 7.854 2.383-7.854 1.192 7.854 3.574-11.781 1.191 7.854 1.192 3.927 1.191-7.854h4.766l1.191-3.927h1.192l2.382 7.854 1.192-3.927h1.191l2.383 7.854 1.191-3.927h1.192l1.191-3.927 1.192-7.854 1.191 3.927 1.191 7.854h1.192l1.191-11.781 1.192 3.927h1.191l1.192 3.927h1.191l1.191-7.854 1.192 3.927h3.574l1.192 3.927 1.19-3.927h2.384l1.191 3.927 1.192-7.854h2.382l1.192 11.781 1.191-15.709 1.192 15.71 2.382-15.71h1.192l1.191 3.928 1.192 7.854 1.191-11.782 1.192 3.928h1.191l1.191 3.927 1.192-11.782 1.191 7.855 1.192-3.928 2.382 7.855 1.192-3.927h5.957l1.191 7.854h2.383l1.192-11.782 1.191 3.928h1.191l1.192 3.927h2.383l1.191-3.927h1.191l1.192-3.928 1.191 3.928 1.192-3.928 1.191-7.854 1.192 11.782 1.19 3.927 1.192-7.855 2.383 7.855h1.192l1.191-7.855 1.191 11.782 1.192-11.782 1.191 7.855 1.192-3.927h2.382l1.192-11.782 1.191 15.709 1.192 11.781 1.191 23.563 2.384-7.854h1.191l1.192 7.854 1.191 3.927 1.192-7.854 1.191 7.854 1.192-3.927h1.192l1.191 3.927h1.192l1.191-3.927 1.192 7.855h2.383l1.192-3.928h1.191l1.192 3.928 1.192 7.854 1.191-3.927h2.383l1.192 3.927h1.192l2.383-7.854 2.383 15.708 1.191-7.854 1.192-19.636 1.192 23.563 1.191-11.781 1.192 11.781 1.191-3.927 1.192 7.854 1.192-15.708 2.383 15.708 1.191-3.927 1.192 7.854 1.192-7.854 1.191 3.927 1.192-3.927 1.191 3.927h5.958l1.192 11.782 1.191-19.636 1.192 15.709 1.191-3.928 1.192 3.928 1.192-11.782 1.191 7.854h1.192l1.191-3.927 2.384 7.855 1.191-3.928 1.192 3.928h1.191l1.192-7.855h1.192l1.191 3.927 1.192 11.782 1.191-7.854 1.192-3.928 1.191 3.928 1.192 7.854 1.192-3.927h0" fill="none" stroke="#ff7f0e" stroke-linecap="square" stroke-width="1.5" id="line2d_20"/><path clip-path="url(#pc20424900e)" d="M46.985 128.16l1.223-16.128 2.422 16.128 2.434-16.128 1.208 16.128 2.408-16.128 1.204 8.064h6.06l1.217 8.064 1.217-8.064h1.204l1.217-8.064h1.204l1.205 8.064h8.497l1.217-8.064 2.438 16.128 1.217-16.128H87l1.22 8.064h1.208l1.22-8.064 1.203 8.064h1.218l1.204 8.064 2.434-16.128 1.217 8.064h4.855l1.22-8.064 2.435 16.128 1.203-16.128 1.214 8.064h2.436l1.217-8.064 2.434 16.128 1.217-8.064h1.204l1.217-8.064 1.22 8.064h1.217l1.218 8.064 1.217-16.128 1.218 8.064h2.421l1.218-8.064 2.408 16.128 1.217-8.064h3.653l1.217-24.192 1.252-16.128 1.245-8.064h2.495l1.245-8.064h1.239l1.244-16.128 1.245 8.064h2.49l1.238-8.064h2.478l1.25-8.064 1.24 8.064h1.238l1.245-8.064 1.239 8.064h1.245l1.25-16.128 2.478 16.128 1.24-8.064 1.25 8.064 1.245-16.128 1.251 8.064 1.244-8.064 1.239 16.128 1.239-8.064h2.495l1.262-8.064h1.24l1.25 8.064h3.729l1.25-8.064h3.74l1.24 16.128 1.257-16.128h2.495l1.244-8.064 1.246 16.128h1.238l1.24-8.064 1.243 8.064 1.24-8.064h2.5l1.245 8.064 1.245-16.128 1.239 16.128 2.501-16.128 1.24 8.064h1.256l1.239-8.064L214 31.392h1.251l1.25-8.064 1.246 8.064 1.247-8.064h4.977l1.244 8.064h1.245l1.245-8.064h1.25l1.24 8.064 1.25-8.064h6.206l1.239-8.064h1.245l2.495 16.128 1.239-8.064h3.74l1.239-8.064h1.25l1.245 8.064h3.753l1.238-8.064 1.257 8.064 1.245-8.064h1.245l1.238 8.064 1.251-8.064h1.245l1.239 8.064h1.239l1.244-8.064 1.245 8.064 1.239-8.064h3.752l1.245 8.064h1.251l1.239-8.064 1.25 8.064h2.484L282.48 7.2l1.245 16.128 1.245-8.064h2.49l1.25 8.064 1.239-8.064h2.496l1.25 8.064 1.245-8.064 1.245 8.064 1.239-8.064h7.475l1.244-8.064 1.239 8.064h3.728l1.245-8.064 1.245 8.064 1.26-8.064 1.235 40.32h1.218l1.217 8.064h1.218l3.651 24.192 1.217-8.064h1.218l1.217 8.064h7.278l1.219 8.064 1.217-8.064 1.22 8.064h1.216l1.219-8.064h1.204l1.217 8.064 1.217-8.064 1.217 8.064h2.434l1.204 8.064 1.215-8.064 1.217 8.064 1.217-8.064 1.22 8.064 1.203-8.064h3.636l1.217 16.128 1.217-16.128 1.218 8.064h2.435l1.217-8.064 2.408 16.128 1.219-16.128 1.217 8.064h1.219l1.204-8.064 2.42 16.128h1.218l1.204-16.128 1.214 8.064h2.425l1.204 8.064 1.217-8.064h2.418l1.22 8.064 1.204-8.064h1.217l1.204 8.064h1.219l1.204-8.064h1.218l1.218 8.064h3.652l1.219-8.064 1.204 8.064 1.217-8.064h0" fill="none" stroke="#2ca02c" stroke-linecap="square" stroke-width="1.5" id="line2d_21"/><path clip-path="url(#pc20424900e)" d="M46.985 257.184h4.863l1.216-8.064 1.215 16.128 2.432-16.128 1.215 8.064 1.216-8.064h1.216l1.215 16.128h1.216l2.432-16.128 2.432 16.128 1.216-8.064 1.216 8.064 2.432-16.128 1.215 16.128 1.216-8.064h1.216l1.216 8.064 1.215-8.064h1.216l1.216 8.064 1.216-16.128 1.216 8.064h1.215l1.216 8.064 1.216-8.064h3.647l1.216 16.128 1.216-16.128H94.4l1.216-8.064 1.215 8.064h2.432l1.216 8.064 1.215-8.064h1.216l1.217-8.064 2.431 16.128h2.432l1.215-8.064 1.217 8.064 1.216-8.064 1.216 8.064 1.215-8.064h2.432l1.215-8.064 1.217 8.064h2.431l1.216 8.064h1.216l1.215-16.128 1.216 8.064h7.295l1.216-8.064 1.216-16.128 1.237-8.064 1.239-16.128 1.233 8.064h2.471l2.466-16.128 2.466 16.128 2.472-16.128 1.232 8.064h1.24l1.232-8.064h1.233l1.233 8.064 1.239-8.064 1.232 8.064 1.233-8.064h4.932l1.232 8.064 1.233-8.064h13.586l1.239 8.064 1.227-8.064h6.175l1.233-8.064 1.233 8.064 1.233-8.064h2.466l1.233 8.064h3.704l1.233-8.064 1.239 8.064h2.466l1.233-8.064h2.465l1.239 8.064h1.233l1.239-8.064h1.233l1.232 8.064h2.472l1.239-8.064h1.233l1.232 8.064 1.233-8.064h1.227l1.233 8.064h6.17l1.233-8.064 1.24 8.064h3.698l1.232-8.064 1.233 8.064h1.24l1.232-8.064h1.233l1.233 8.064 1.232-8.064h2.466l1.233 8.064 1.239-8.064h3.704l1.233 8.064 1.24-8.064h4.954l1.24 8.064 2.465-16.128 1.233 16.128 1.232-8.064 1.233 8.064 1.24-16.128 1.232 8.064h6.176l1.24 8.064 1.232-16.128 1.233 16.128 1.233-8.064h3.698l1.233 8.064 1.233-16.128 1.233 8.064h7.409l1.233-8.064h1.232l2.472 16.128 2.472-16.128 1.233 8.064H311l1.24-8.064 1.238 8.064h1.233l1.233 24.192 2.432 16.128 1.215-8.064 1.216 8.064h1.216l1.216 8.064h1.215l1.216 8.064 1.216-8.064 1.215-16.128 1.217 24.192 1.216-8.064h7.294l1.216 8.064 1.217-8.064h1.215l1.216 8.064h1.217l1.216-8.064 1.217 8.064 1.216-8.064 1.216 8.064h2.432l1.216 8.064 1.215-8.064h1.216l1.216 8.064h1.216l1.216-16.128 1.216 8.064 1.215-8.064 1.216 8.064h2.433l1.216-8.064 1.216 16.128h2.432l1.215-8.064h4.863l1.217 8.064 1.216-8.064 1.215 16.128 1.217-16.128h1.216l1.215 8.064 1.216-8.064h2.432l1.216 8.064 1.216-8.064 2.43 16.128 1.216-16.128h1.216l1.215 8.064 1.217-8.064h1.215l1.216 8.064 1.215-8.064h1.217l1.216 8.064h1.216" fill="none" stroke="#d62728" stroke-linecap="square" stroke-width="1.5" id="line2d_22"/><g id="text_15"><defs><path d="M12.703 26.219q0-8.735 3.953-14.375 3.953-5.64 11.219-5.64 7.531 0 11.438 5.905 3.906 5.907 3.906 14.11 0 8.297-3.907 14.078-3.906 5.797-11.437 5.797-6.969 0-11.078-5.453-4.094-5.438-4.094-14.422zm-8.984 0q0 11.672 6.484 19.625 6.5 7.968 17.672 7.968 11.438 0 17.875-8.062 6.453-8.047 6.453-19.531 0-11.516-6.406-19.625-6.39-8.11-17.922-8.11-11.078 0-17.625 7.86-6.531 7.86-6.531 19.875z" id="HelveticaWorld-Regular-111"/><path d="M15.375 0H6.594v71.781h8.781z" id="HelveticaWorld-Regular-108"/><path d="M17.828 38.625H37.11q7.282 0 10.938 3.188 3.656 3.203 3.656 9.703 0 5.812-3.516 8.89-3.515 3.078-10.687 3.078H17.828zm0-38.625H8.11v71.781h32.266q9.625 0 15.484-5.594 5.86-5.593 5.86-14.578 0-9.328-5.672-15.312-5.656-5.969-15.672-5.969H17.828z" id="HelveticaWorld-Regular-80"/><path d="M29.781 73.297q-8.875-15.875-11.218-25.844-2.344-9.953-2.344-21.969 0-11.859 3.187-22.125Q22.61-6.89 29.891-20.703h-5.86Q15.72-8.593 11.25 2.187 6.781 12.985 6.781 26.125q0 12.36 4.047 23.563 4.063 11.203 12.86 23.609z" id="HelveticaWorld-Regular-40"/><path d="M17.188 45.016V0H8.405v45.016H1.22v7.28h7.187v8.985q0 5.907 3.578 8.703 3.594 2.813 10.032 2.813 2.203 0 3.968-.188v-7.906q-1.562.188-3.578.188-2.922 0-4.078-1.438-1.14-1.437-1.14-4.656v-6.5h8.796v-7.281z" id="HelveticaWorld-Regular-102"/><path d="M49.219 0h-8.844v32.172q0 7.422-2.594 10.578-2.578 3.156-8.578 3.156-5.906 0-9.875-4.5-3.953-4.484-3.953-12.89V0H6.594v52.297h8.297v-7.375h.203q6.203 8.89 15.812 8.89 8.89 0 13.594-4.718 4.719-4.703 4.719-13.5z" id="HelveticaWorld-Regular-110"/><path d="M3.516-20.703q8.796 15.922 11.14 25.86Q17 15.093 17 27.093q0 11.922-3.156 22.172T3.422 73.296h5.765q8.391-12.109 12.86-22.905 4.469-10.797 4.469-23.875 0-12.407-4.063-23.61-4.047-11.203-12.828-23.61z" id="HelveticaWorld-Regular-41"/></defs><g transform="matrix(.14 0 0 -.14 407.677 271.925)" fill="#1f77b4"><use xlink:href="#HelveticaWorld-Regular-67"/><use x="72.314" xlink:href="#HelveticaWorld-Regular-111"/><use x="128.223" xlink:href="#HelveticaWorld-Regular-111"/><use x="184.131" xlink:href="#HelveticaWorld-Regular-108"/><use x="206.152" xlink:href="#HelveticaWorld-Regular-105"/><use x="228.174" xlink:href="#HelveticaWorld-Regular-80"/><use x="292.822" xlink:href="#HelveticaWorld-Regular-105"/><use x="314.844" xlink:href="#HelveticaWorld-Regular-32"/><use x="339.258" xlink:href="#HelveticaWorld-Regular-40"/><use x="372.559" xlink:href="#HelveticaWorld-Regular-102"/><use x="398.244" xlink:href="#HelveticaWorld-Regular-97"/><use x="453.176" xlink:href="#HelveticaWorld-Regular-110"/><use x="508.352" xlink:href="#HelveticaWorld-Regular-32"/><use x="532.766" xlink:href="#HelveticaWorld-Regular-111"/><use x="588.674" xlink:href="#HelveticaWorld-Regular-110"/><use x="643.85" xlink:href="#HelveticaWorld-Regular-41"/></g></g><g id="text_16"><defs><path d="M39.016 52.297h9.562L29.891.984q-.5-1.375-.985-2.593-4.25-11.329-7.328-15.547-3.078-4.235-9.953-4.235-3.61 0-5.906.782v8.015q2.484-.89 5.468-.89 3.22 0 4.704 2.03 1.5 2.032 4.421 9.938L.875 52.297h9.922L24.812 9.719H25z" id="HelveticaWorld-Regular-121"/><path d="M12.984 26.313q0-9.61 3.813-14.907Q20.609 6.11 27.094 6.11q6.312 0 10.312 4.579 4 4.593 4 13 0 11.03-3.5 16.625-3.484 5.593-10.61 5.593-7.171 0-10.75-4.765-3.562-4.766-3.562-14.828zM49.812 2.983q0-12.609-6.062-18.797-6.047-6.203-18.266-6.203-8.78 0-13.984 4.047Q6.297-13.922 5.516-6.39h8.796q.672-3.812 3.532-6.062 2.86-2.25 8.281-2.25 7.375 0 11.125 3.969 3.766 3.953 3.766 12.828v3.719h-.188q-4.937-7.329-13.922-7.329-11.187 0-17.093 8.25-5.907 8.25-5.907 20.953 0 11.625 5.953 18.875 5.97 7.25 15.829 7.25 9.906 0 15.625-8.89h.187v7.375h8.313z" id="HelveticaWorld-Regular-103"/></defs><g transform="matrix(.14 0 0 -.14 407.677 227.485)" fill="#ff7f0e"><use xlink:href="#HelveticaWorld-Regular-102"/><use x="27.686" xlink:href="#HelveticaWorld-Regular-108"/><use x="49.707" xlink:href="#HelveticaWorld-Regular-121"/><use x="99.316" xlink:href="#HelveticaWorld-Regular-105"/><use x="121.338" xlink:href="#HelveticaWorld-Regular-110"/><use x="176.514" xlink:href="#HelveticaWorld-Regular-103"/><use x="232.422" xlink:href="#HelveticaWorld-Regular-102"/><use x="258.107" xlink:href="#HelveticaWorld-Regular-101"/><use x="313.527" xlink:href="#HelveticaWorld-Regular-114"/><use x="346.096" xlink:href="#HelveticaWorld-Regular-114"/><use x="377.664" xlink:href="#HelveticaWorld-Regular-101"/><use x="433.084" xlink:href="#HelveticaWorld-Regular-116"/><use x="460.77" xlink:href="#HelveticaWorld-Regular-32"/><use x="485.184" xlink:href="#HelveticaWorld-Regular-40"/><use x="518.484" xlink:href="#HelveticaWorld-Regular-102"/><use x="544.17" xlink:href="#HelveticaWorld-Regular-97"/><use x="599.102" xlink:href="#HelveticaWorld-Regular-110"/><use x="654.277" xlink:href="#HelveticaWorld-Regular-115"/><use x="704.277" xlink:href="#HelveticaWorld-Regular-32"/><use x="728.691" xlink:href="#HelveticaWorld-Regular-111"/><use x="784.6" xlink:href="#HelveticaWorld-Regular-110"/><use x="839.775" xlink:href="#HelveticaWorld-Regular-41"/></g></g><g id="text_17"><defs><path d="M49.219 0h-8.844v34.188q0 6.296-2.438 9-2.437 2.718-7.953 2.718-6.797 0-10.703-4.406-3.906-4.39-3.906-12.984V0H6.594v71.781h8.781V45.312h.203q6 8.5 15.328 8.5 8.594 0 13.453-4.5 4.86-4.484 4.86-13.718z" id="HelveticaWorld-Regular-104"/><path d="M49.031 0H37.703l-12.89 19.672L12.203 0H1.125l18.266 26.906L2 52.296h11.188l12.109-18.405L37.5 52.297h10.688l-17.579-25.39z" id="HelveticaWorld-Regular-120"/><path d="M25.594 0h-8.985L1.516 52.297h9.468L21 11.187h.188l10.109 41.11h9.922l10.203-41.11h.187l10.594 41.11h8.703L55.812 0h-9.234L35.984 40.484h-.187z" id="HelveticaWorld-Regular-119"/><path d="M39.594 34.719q-1.89 11.187-12.39 11.187-6.5 0-10.454-5.203-3.953-5.203-3.953-14.484 0-10.11 3.656-15.11 3.672-5 10.64-5 4.688 0 8.11 3.438 3.422 3.437 4.39 8.953h8.5q-1.312-9.703-6.859-14.86-5.547-5.156-14.328-5.156-10.297 0-16.89 7.047-6.594 7.063-6.594 19.172 0 13.281 6.594 21.188 6.593 7.922 18.5 7.922 8.687 0 13.843-5.204 5.157-5.203 5.735-13.89z" id="HelveticaWorld-Regular-99"/></defs><g transform="matrix(.14 0 0 -.14 407.677 99.48)" fill="#2ca02c"><use xlink:href="#HelveticaWorld-Regular-104"/><use x="55.176" xlink:href="#HelveticaWorld-Regular-101"/><use x="107.721" xlink:href="#HelveticaWorld-Regular-120"/><use x="157.721" xlink:href="#HelveticaWorld-Regular-32"/><use x="182.135" xlink:href="#HelveticaWorld-Regular-119"/><use x="254.547" xlink:href="#HelveticaWorld-Regular-114"/><use x="286.115" xlink:href="#HelveticaWorld-Regular-101"/><use x="341.535" xlink:href="#HelveticaWorld-Regular-110"/><use x="396.711" xlink:href="#HelveticaWorld-Regular-99"/><use x="447.98" xlink:href="#HelveticaWorld-Regular-104"/></g></g><g id="text_18"><defs><path d="M17.828 0H8.11v71.781h9.72z" id="HelveticaWorld-Regular-73"/><path d="M25.39 63.188H1.22v8.593h58.297v-8.594H35.109V0h-9.718z" id="HelveticaWorld-Regular-84"/></defs><g transform="matrix(.14 0 0 -.14 407.677 257.898)" fill="#d62728"><use xlink:href="#HelveticaWorld-Regular-73"/><use x="25.781" xlink:href="#HelveticaWorld-Regular-99"/><use x="77.051" xlink:href="#HelveticaWorld-Regular-101"/><use x="132.471" xlink:href="#HelveticaWorld-Regular-32"/><use x="151.885" xlink:href="#HelveticaWorld-Regular-84"/><use x="200.377" xlink:href="#HelveticaWorld-Regular-111"/><use x="254.785" xlink:href="#HelveticaWorld-Regular-119"/><use x="325.697" xlink:href="#HelveticaWorld-Regular-101"/><use x="381.117" xlink:href="#HelveticaWorld-Regular-114"/><use x="413.686" xlink:href="#HelveticaWorld-Regular-32"/><use x="438.1" xlink:href="#HelveticaWorld-Regular-40"/><use x="471.4" xlink:href="#HelveticaWorld-Regular-102"/><use x="497.086" xlink:href="#HelveticaWorld-Regular-97"/><use x="552.018" xlink:href="#HelveticaWorld-Regular-110"/><use x="607.193" xlink:href="#HelveticaWorld-Regular-32"/><use x="631.607" xlink:href="#HelveticaWorld-Regular-111"/><use x="687.516" xlink:href="#HelveticaWorld-Regular-110"/><use x="742.691" xlink:href="#HelveticaWorld-Regular-41"/></g></g></g></g><defs><clipPath id="pc20424900e"><path d="M46.985 7.2h357.12v266.112H46.985z"/></clipPath></defs></svg>