<svg height="423.21" viewBox="0 0 580.184 317.408" width="773.578" xmlns="http://www.w3.org/2000/svg" xmlns:xlink="http://www.w3.org/1999/xlink"><defs><style>*{stroke-linecap:butt;stroke-linejoin:round}</style></defs><g id="figure_1"><path d="M0 317.408h580.184V0H0z" fill="none" id="patch_1"/><g id="axes_1"><path d="M46.985 273.312h357.12V7.2H46.985z" fill="none" id="patch_2"/><g id="matplotlib.axis_1"><g id="xtick_1"><g id="line2d_1"><defs><path d="M0 0v3.5" id="m9e040e8034" stroke="#969696" stroke-width=".4"/></defs><use x="46.985" xlink:href="#m9e040e8034" y="273.312" fill="#969696" stroke="#969696" stroke-width=".4"/></g><g id="text_1"><defs><path d="M42.484 34.188q0 14.109-3.734 21.156-3.734 7.062-10.969 7.062-7.078 0-10.89-7.062-3.797-7.047-3.797-21.157 0-13.671 3.75-20.937Q20.609 6 27.78 6q7.235 0 10.969 7 3.734 7.016 3.734 21.188zm9.422 0q0-17.297-6.25-26.704-6.25-9.39-17.875-9.39-12.062 0-18.062 9.734-6 9.75-6 26.36 0 17.03 6.14 26.578 6.157 9.547 17.922 9.547 11.625 0 17.875-9.5t6.25-26.626z" id="HelveticaWorld-Regular-48"/></defs><use xlink:href="#HelveticaWorld-Regular-48" transform="matrix(.14 0 0 -.14 43.093 290.361)" fill="#969696"/></g></g><g id="xtick_2"><use x="106.485" xlink:href="#m9e040e8034" y="273.312" fill="#969696" stroke="#969696" stroke-width=".4" id="line2d_2"/><g id="text_2"><defs><path d="M35.89 0h-9.374v49.906H10.109v6.985q8.594.28 12.782 2.75Q27.094 62.109 29 70.313h6.89z" id="HelveticaWorld-Regular-49"/></defs><g transform="matrix(.14 0 0 -.14 94.807 290.361)" fill="#969696"><use xlink:href="#HelveticaWorld-Regular-49"/><use x="55.615" xlink:href="#HelveticaWorld-Regular-48"/><use x="111.23" xlink:href="#HelveticaWorld-Regular-48"/></g></g></g><g id="xtick_3"><use x="165.984" xlink:href="#m9e040e8034" y="273.312" fill="#969696" stroke="#969696" stroke-width=".4" id="line2d_3"/><g id="text_3"><defs><path d="M4.39 45.125q0 12.39 6.391 18.781 6.406 6.407 17.938 6.407 9.656 0 15.812-5.86 6.157-5.86 6.157-15.14 0-7.22-3.547-12.188-3.532-4.953-10.422-8.703l-12.11-6.64Q13.922 15.921 12.5 8.296h38.188V0H2.593q.39 9.906 4.297 16.5 3.906 6.594 12.203 11.375l12.593 7.328q5.032 2.89 7.329 5.984 2.297 3.094 2.297 8.516 0 5.375-3.766 9.031-3.75 3.672-10.156 3.672-7.078 0-10.594-4.672-3.516-4.656-3.61-12.609z" id="HelveticaWorld-Regular-50"/></defs><g transform="matrix(.14 0 0 -.14 154.306 290.361)" fill="#969696"><use xlink:href="#HelveticaWorld-Regular-50"/><use x="55.615" xlink:href="#HelveticaWorld-Regular-48"/><use x="111.23" xlink:href="#HelveticaWorld-Regular-48"/></g></g></g><g id="xtick_4"><use x="225.483" xlink:href="#m9e040e8034" y="273.312" fill="#969696" stroke="#969696" stroke-width=".4" id="line2d_4"/><g id="text_4"><defs><path d="M22.406 39.984q2.203-.187 4.594-.187 6.203 0 9.781 2.86 3.594 2.859 3.594 8.656 0 4.687-3.344 7.89-3.343 3.203-9.64 3.203-6.985 0-10.235-4.11-3.234-4.093-3.437-10.983h-8.64q0 10.984 5.765 16.984 5.765 6.016 16.937 6.016 9.922 0 15.828-5.11 5.907-5.094 5.907-13.39 0-10.704-9.032-14.5v-.204q11.72-4 11.72-16.406 0-9.906-6.595-16.265-6.593-6.344-18.703-6.344-9.906 0-16.312 5.203Q4.204 8.5 3.422 21.484H12.5q.203-8.109 4-11.797Q20.313 6 27.484 6q6.938 0 11.141 3.86 4.203 3.859 4.203 9.718 0 6.406-4.016 9.672-4 3.266-12.39 3.266-2 0-4.016-.094z" id="HelveticaWorld-Regular-51"/></defs><g transform="matrix(.14 0 0 -.14 213.805 290.361)" fill="#969696"><use xlink:href="#HelveticaWorld-Regular-51"/><use x="55.615" xlink:href="#HelveticaWorld-Regular-48"/><use x="111.23" xlink:href="#HelveticaWorld-Regular-48"/></g></g></g><g id="xtick_5"><use x="284.982" xlink:href="#m9e040e8034" y="273.312" fill="#969696" stroke="#969696" stroke-width=".4" id="line2d_5"/><g id="text_5"><defs><path d="M10.594 24.703h22.61v31.89h-.188zM42 17.093V0h-8.797v17.094H2.484v8.593L34.72 70.314H42v-45.61h10.297v-7.61z" id="HelveticaWorld-Regular-52"/></defs><g transform="matrix(.14 0 0 -.14 273.304 290.361)" fill="#969696"><use xlink:href="#HelveticaWorld-Regular-52"/><use x="55.615" xlink:href="#HelveticaWorld-Regular-48"/><use x="111.23" xlink:href="#HelveticaWorld-Regular-48"/></g></g></g><g id="xtick_6"><use x="344.482" xlink:href="#m9e040e8034" y="273.312" fill="#969696" stroke="#969696" stroke-width=".4" id="line2d_6"/><g id="text_6"><defs><path d="M14.703 40.922q5.813 4.39 13.625 4.39 9.469 0 16.281-6.296 6.813-6.297 6.813-16.22 0-10.78-6.578-17.796-6.563-7-18.422-7-10.313 0-16.266 5.047Q4.203 8.109 3.22 17.39h9.094q.671-5.672 4.437-8.672 3.766-3 10.453-3 6.485 0 10.64 4.484Q42 14.703 42 21.688q0 7.125-4.36 11.421-4.343 4.297-11.218 4.297-7.813 0-13.047-6.687l-7.563.39 5.266 37.594h36.438v-8.5H17.672z" id="HelveticaWorld-Regular-53"/></defs><g transform="matrix(.14 0 0 -.14 332.804 290.361)" fill="#969696"><use xlink:href="#HelveticaWorld-Regular-53"/><use x="55.615" xlink:href="#HelveticaWorld-Regular-48"/><use x="111.23" xlink:href="#HelveticaWorld-Regular-48"/></g></g></g><g id="xtick_7"><use x="403.981" xlink:href="#m9e040e8034" y="273.312" fill="#969696" stroke="#969696" stroke-width=".4" id="line2d_7"/><g id="text_7"><defs><path d="M14.11 21.578q0-6.875 4.093-11.234Q22.313 6 28.906 6q6.297 0 10.032 4.438 3.734 4.453 3.734 11.687 0 6.297-3.688 10.547-3.687 4.25-10.468 4.25-6.594 0-10.5-4.156-3.907-4.157-3.907-11.188zM41.702 51.61q-.984 5.375-3.984 8.078-3 2.72-8.125 2.72-8.11 0-12.36-7.923-4.25-7.906-4.343-18.109l.203-.188q5.61 8.641 16.687 8.641 8.844 0 15.438-5.86 6.593-5.859 6.593-16.452 0-10.5-6.25-17.47-6.25-6.952-16.843-6.952-12.219 0-18.563 8.687-6.344 8.703-6.344 25.938 0 16.593 6.485 27.093 6.5 10.5 19.484 10.5 8.407 0 14.219-5.015 5.813-5 6.297-13.688z" id="HelveticaWorld-Regular-54"/></defs><g transform="matrix(.14 0 0 -.14 392.303 290.361)" fill="#969696"><use xlink:href="#HelveticaWorld-Regular-54"/><use x="55.615" xlink:href="#HelveticaWorld-Regular-48"/><use x="111.23" xlink:href="#HelveticaWorld-Regular-48"/></g></g></g><g id="text_8"><defs><path d="M17.188 45.016V10.984q0-2 1.093-3.046 1.11-1.047 3.938-1.047h3.375V0Q20.797-.688 19-.688q-5.516 0-8.063 2.641-2.53 2.64-2.53 8.547v34.516H1.311v7.28h7.094v14.595h8.781V52.297h8.407v-7.281z" id="HelveticaWorld-Regular-116"/><path d="M6.594 61.813v9.968h8.781v-9.969zM15.375 0H6.594v52.297h8.781z" id="HelveticaWorld-Regular-105"/><path d="M6.594 52.297h8.297v-7.375h.203q5.906 8.89 15.812 8.89 9.813 0 13.922-8.5 3.75 4.594 7.266 6.547 3.515 1.953 8.703 1.953 6.781 0 11.484-4.453Q77 44.922 77 36.187V0h-8.781v33.797q0 6.094-2.297 9.094-2.297 3.015-7.422 3.015-5.172 0-8.75-4.203-3.563-4.203-3.563-9.812V0h-8.78v36.188q0 4.53-2.11 7.124-2.094 2.594-6.094 2.594-6.297 0-10.062-4.687-3.766-4.688-3.766-12.703V0H6.594z" id="HelveticaWorld-Regular-109"/><path d="M42.484 30.328q-.687 8.485-4.5 12.031-3.797 3.547-10.109 3.547-6.39 0-10.328-4.5-3.922-4.484-4.172-11.078zm8.391-13.922q-1.453-8.11-7.953-13.422-5.719-4.5-15.047-4.593-10.984.093-17.438 7.203Q4 12.704 4 24.704q0 13.78 6.64 21.437 6.641 7.672 18.47 7.672 10.593 0 16.546-7.922 5.953-7.907 5.953-22.594H13.375q0-8.203 3.813-12.703Q21 6.109 28.608 6.109q5.375 0 9.235 3.235 3.86 3.25 4.25 7.062z" id="HelveticaWorld-Regular-101"/><path d="M14.203-12.5H25v-7.078H6.297v91.797H25v-7.125H14.203z" id="HelveticaWorld-Regular-91"/><path d="M36.078 37.406q-.187 4.688-3.344 6.735-3.14 2.047-9.047 2.047-4.296 0-7.359-1.907-3.047-1.89-3.047-5.468 0-2.829 1.797-4.172 1.813-1.344 7.828-2.86l8.688-2.187q7.906-2 11.297-5.11 3.406-3.093 3.406-8.656 0-7.719-5.64-12.531-5.641-4.813-15.063-4.813-11 0-16.64 4.563-5.626 4.578-5.735 13.75h8.5q.203-5.422 3.594-8.063 3.39-2.625 10.171-2.625 5.516 0 8.766 2.188 3.25 2.203 3.25 6.11 0 2.78-2.11 4.437-2.093 1.672-8.296 3.078l-10.203 2.5q-6.203 1.562-9.157 4.656-2.953 3.094-2.953 8.031 0 7.72 5.516 12.203 5.531 4.5 14.406 4.5 9.485 0 14.531-4.624 5.047-4.61 5.344-11.782z" id="HelveticaWorld-Regular-115"/><path d="M13.625 65.094H2.781v7.125h18.703v-91.797H2.781v7.078h10.844z" id="HelveticaWorld-Regular-93"/></defs><g transform="matrix(.14 0 0 -.14 203.277 307.31)" fill="#969696"><use xlink:href="#HelveticaWorld-Regular-116"/><use x="27.686" xlink:href="#HelveticaWorld-Regular-105"/><use x="49.707" xlink:href="#HelveticaWorld-Regular-109"/><use x="132.715" xlink:href="#HelveticaWorld-Regular-101"/><use x="188.135" xlink:href="#HelveticaWorld-Regular-32"/><use x="212.549" xlink:href="#HelveticaWorld-Regular-91"/><use x="240.332" xlink:href="#HelveticaWorld-Regular-115"/><use x="290.332" xlink:href="#HelveticaWorld-Regular-93"/></g></g></g><g id="matplotlib.axis_2"><g id="ytick_1"><path clip-path="url(#pbad36bae3e)" d="M46.985 250.172h357.12" fill="none" stroke="#969696" stroke-linecap="square" stroke-width=".3" id="line2d_8"/><g id="line2d_9"><defs><path d="M0 0h-3.5" id="meb09e1d1c9" stroke="#969696" stroke-width=".3"/></defs><use x="46.985" xlink:href="#meb09e1d1c9" y="250.172" fill="#969696" stroke="#969696" stroke-width=".3"/></g><g transform="matrix(.14 0 0 -.14 24.415 255.197)" fill="#969696" id="text_9"><use xlink:href="#HelveticaWorld-Regular-51"/><use x="55.615" xlink:href="#HelveticaWorld-Regular-48"/></g></g><g id="ytick_2"><path clip-path="url(#pbad36bae3e)" d="M46.985 192.321h357.12" fill="none" stroke="#969696" stroke-linecap="square" stroke-width=".3" id="line2d_10"/><use x="46.985" xlink:href="#meb09e1d1c9" y="192.321" fill="#969696" stroke="#969696" stroke-width=".3" id="line2d_11"/><g transform="matrix(.14 0 0 -.14 24.415 197.346)" fill="#969696" id="text_10"><use xlink:href="#HelveticaWorld-Regular-52"/><use x="55.615" xlink:href="#HelveticaWorld-Regular-48"/></g></g><g id="ytick_3"><path clip-path="url(#pbad36bae3e)" d="M46.985 134.471h357.12" fill="none" stroke="#969696" stroke-linecap="square" stroke-width=".3" id="line2d_12"/><use x="46.985" xlink:href="#meb09e1d1c9" y="134.471" fill="#969696" stroke="#969696" stroke-width=".3" id="line2d_13"/><g transform="matrix(.14 0 0 -.14 24.415 139.496)" fill="#969696" id="text_11"><use xlink:href="#HelveticaWorld-Regular-53"/><use x="55.615" xlink:href="#HelveticaWorld-Regular-48"/></g></g><g id="ytick_4"><path clip-path="url(#pbad36bae3e)" d="M46.985 76.62h357.12" fill="none" stroke="#969696" stroke-linecap="square" stroke-width=".3" id="line2d_14"/><use x="46.985" xlink:href="#meb09e1d1c9" y="76.621" fill="#969696" stroke="#969696" stroke-width=".3" id="line2d_15"/><g transform="matrix(.14 0 0 -.14 24.415 81.645)" fill="#969696" id="text_12"><use xlink:href="#HelveticaWorld-Regular-54"/><use x="55.615" xlink:href="#HelveticaWorld-Regular-48"/></g></g><g id="ytick_5"><path clip-path="url(#pbad36bae3e)" d="M46.985 18.77h357.12" fill="none" stroke="#969696" stroke-linecap="square" stroke-width=".3" id="line2d_16"/><use x="46.985" xlink:href="#meb09e1d1c9" y="18.77" fill="#969696" stroke="#969696" stroke-width=".3" id="line2d_17"/><g id="text_13"><defs><path d="M3.719 68.797h48.578v-7.719Q42.28 50.875 33.984 33.484 25.687 16.11 23.391 0h-9.672q1.469 13.281 9.719 30.531 8.25 17.266 18.953 29.672H3.719z" id="HelveticaWorld-Regular-55"/></defs><g transform="matrix(.14 0 0 -.14 24.415 23.795)" fill="#969696"><use xlink:href="#HelveticaWorld-Regular-55"/><use x="55.615" xlink:href="#HelveticaWorld-Regular-48"/></g></g></g><g id="text_14"><defs><path d="M14.984 23.688q0-8.407 4.094-13 4.11-4.579 10.219-4.579 6.687 0 10.39 5.438 3.72 5.453 3.72 14.765 0 10.22-3.563 14.907-3.563 4.687-10.735 4.687-6.984 0-10.562-5.5-3.563-5.5-3.563-16.718zm-8.39 28.609h8.297v-7.375h.203q5.61 8.89 15.625 8.89 10.11 0 15.937-7.359 5.828-7.344 5.828-18.766 0-12.796-5.953-21Q40.578-1.515 29.5-1.515q-9.094 0-13.922 7.032h-.203v-26.22H6.594z" id="HelveticaWorld-Regular-112"/><path d="M15.375 0H6.594v52.297h8.297v-8.688h.203q5.703 10.203 14.687 10.203 1.422 0 2.297-.296V44.39h-3.266q-5.906 0-9.671-4.016-3.766-4-3.766-9.953z" id="HelveticaWorld-Regular-114"/><path d="M38.375 26.703q-.969-1.015-3.828-1.656-2.86-.625-10.672-1.656-5.766-.688-8.469-2.844-2.703-2.14-2.703-5.656 0-4.297 2.281-6.688 2.297-2.39 7.329-2.39 6.296 0 11.171 3.578 4.891 3.593 4.891 8.718zM6.203 36.375q.297 8.844 5.734 13.14 5.454 4.297 15.844 4.297 8.297 0 13.907-3.765 5.624-3.75 5.624-10.844V9.078Q47.313 6 50.094 6q1.125 0 2.89.39V0Q50.594-.984 48-.984q-4.5 0-6.703 1.921-2.188 1.938-2.281 6.047-7.516-8.5-18.891-8.5-7.422 0-11.922 4.204Q3.72 6.89 3.72 13.624q0 6.89 3.906 11.125Q11.531 29 19 29.89l15.516 1.891q4.203.64 4.203 6.203 0 4.11-3.047 6.297-3.047 2.203-9.25 2.203-5.516 0-8.485-2.437-2.953-2.438-3.53-7.672z" id="HelveticaWorld-Regular-97"/><path d="M6.11 52.297h8.78V17.578q0-5.765 2.61-8.625Q20.125 6.11 25 6.11q6.781 0 10.594 4.797 3.812 4.813 3.812 12.578v28.813h8.782V0H39.89v7.625l-.188.188q-4.984-9.329-16.61-9.329-7.515 0-12.25 4.094Q6.11 6.688 6.11 14.703z" id="HelveticaWorld-Regular-117"/><path d="M20.016 66.016q-2 0-3.766-.86-1.75-.844-3.094-2.312-1.344-1.469-2.156-3.297-.797-1.828-.797-3.828 0-2 .797-3.86.813-1.859 2.156-3.297 1.344-1.437 3.094-2.296 1.766-.86 3.766-.86t3.734.86q1.734.859 3.094 2.297Q28.219 50 29 51.858q.781 1.86.781 3.86 0 2-.781 3.828-.781 1.828-2.156 3.297-1.36 1.468-3.094 2.312-1.734.86-3.734.86zm14.562-10.297q0-3.125-1.078-5.766-1.078-2.64-3.031-4.594-1.953-1.953-4.672-3.109-2.703-1.14-5.781-1.14-3.125 0-5.766 1.14-2.625 1.156-4.578 3.11-1.953 1.953-3.11 4.593-1.14 2.64-1.14 5.766 0 3.078 1.14 5.781 1.157 2.703 3.11 4.656 1.953 1.953 4.578 3.047 2.64 1.11 5.766 1.11 3.078 0 5.78-1.11 2.72-1.094 4.673-3.047 1.953-1.953 3.031-4.656 1.078-2.703 1.078-5.781z" id="HelveticaWorld-Regular-176"/><path d="M58.016 50.203q-1.625 7.313-6.782 11.094-5.14 3.797-13.343 3.797-10.594 0-17.047-7.703-6.438-7.688-6.438-20.766 0-15.14 6.094-22.547 6.11-7.39 17.688-7.39 7.609 0 13.093 5.046 5.5 5.063 7.407 14.688h9.421Q66.22 12.594 57.625 5.344t-20.906-7.25q-14.703 0-23.516 10.11Q4.391 18.311 4.391 36.28q0 17.328 9.203 27.36 9.203 10.047 24.297 10.047 12.5 0 20.265-6.454 7.766-6.437 9.235-17.03z" id="HelveticaWorld-Regular-67"/></defs><g transform="matrix(0 -.14 -.14 0 17.516 191.096)" fill="#969696"><use xlink:href="#HelveticaWorld-Regular-116"/><use x="27.686" xlink:href="#HelveticaWorld-Regular-101"/><use x="83.105" xlink:href="#HelveticaWorld-Regular-109"/><use x="166.113" xlink:href="#HelveticaWorld-Regular-112"/><use x="222.607" xlink:href="#HelveticaWorld-Regular-101"/><use x="278.027" xlink:href="#HelveticaWorld-Regular-114"/><use x="309.596" xlink:href="#HelveticaWorld-Regular-97"/><use x="364.527" xlink:href="#HelveticaWorld-Regular-116"/><use x="392.213" xlink:href="#HelveticaWorld-Regular-117"/><use x="446.998" xlink:href="#HelveticaWorld-Regular-114"/><use x="478.566" xlink:href="#HelveticaWorld-Regular-101"/><use x="533.986" xlink:href="#HelveticaWorld-Regular-32"/><use x="558.4" xlink:href="#HelveticaWorld-Regular-91"/><use x="586.184" xlink:href="#HelveticaWorld-Regular-176"/><use x="626.174" xlink:href="#HelveticaWorld-Regular-67"/><use x="698.488" xlink:href="#HelveticaWorld-Regular-93"/></g></g></g><path clip-path="url(#pbad36bae3e)" d="M46.985 164.611l1.19 5.635h1.191l1.19 2.817h1.191l1.19-2.817h3.572l1.19 2.817h1.19l1.191-5.635 1.19 5.635h1.191l1.19-2.817 1.191 2.817 1.19-8.452 1.19 2.817h2.382l1.19 2.818 1.19-2.818h1.191l1.19 5.635h1.191l1.19-5.635 1.191 5.635h1.19l2.381-5.635 1.19 5.635 2.382-5.635 1.19 2.818 1.19 5.634 1.191-2.817 1.19-5.635 2.381 5.635h3.572l1.19-5.635 1.19 2.818 1.191 5.634 1.19-2.817h2.382l1.19 2.817 1.19-2.817 1.19 5.635 1.191-8.452 1.19 8.452h2.382l1.19-2.818h2.381l1.19 2.818 1.191-8.452h1.19l1.19 5.634 1.191 2.818 1.19-5.635 1.191 2.817h1.19l1.191 2.818h1.19l1.191-8.452 1.19 8.452 1.19-5.635 2.382 5.635 1.19 5.634 2.387-5.634 1.19-19.722 1.191-11.269h1.19l2.38-11.27 1.191-2.816h1.19l1.19 2.817h1.19l1.191-5.635 1.19 2.818 1.19-5.635 1.19 11.27 1.191-8.453 1.19 2.818 2.38-5.635h1.191l1.19 2.817 1.19-5.634h2.381l1.19 2.817h2.38l1.191-5.635h4.761l1.19 5.635 1.19-5.635 1.19-2.817 1.191 8.452 1.19-8.452 1.19 5.635 1.19-5.635 1.191 8.452 1.19-2.817h1.19l1.19 2.817 3.571-8.452 1.19 5.635 2.381-5.635h2.38l1.191 2.817h1.19l1.19-5.634 1.19 5.634h2.381l1.19-2.817h2.381l1.19-5.635 2.38 11.27 1.191-8.452 1.19-5.635 1.19 5.635 1.19 2.817 2.381-5.635 1.19 2.818 1.19-2.818 2.381 5.635h1.19l1.19-2.817h7.142l1.19-2.818 1.19-5.634 1.191 5.634 1.19 2.818 1.19 5.634 1.19-5.634h1.191l1.19-5.635 1.19 2.817 1.19-2.817h4.762l1.19 2.817 1.19-2.817 1.19 2.817h1.19l1.19-2.817h1.191l1.19 2.817 1.19-2.817 1.19 5.635 1.191 2.817 1.19-5.635h1.19l1.19-2.817 1.191 5.635 1.19-2.818 1.19 2.818 1.19-5.635 1.19 5.635 1.191-2.818h1.19l1.19-5.634 1.19 8.452 1.191-2.818 1.19 2.818 1.19-5.635 1.19-2.817 1.191 5.634 1.19-5.634 1.19 5.634h1.19l1.191-5.634 1.19 2.817 1.19-2.817h1.19l1.191 8.452 1.19-2.818 1.19-11.269 1.19 11.27h1.191l1.19-2.818 1.19 5.635 1.19-2.818h2.381l1.19-5.634 1.19-2.818h1.19l1.191 2.818h2.38l1.19 8.452 1.191-5.635 1.19-2.817 1.19 2.817 1.19-2.817 1.191 5.634 1.19 2.818 1.19 19.72 1.191 5.636 1.19 2.817 1.19 5.634h2.382l1.19 2.818h3.572l1.19 2.817h1.19l1.191 2.817h1.19l1.19 2.818 1.191-5.635 1.19 8.452 1.191-5.635 1.19-2.817 1.191 5.635 1.19 2.817 1.191-2.817 1.19 2.817 1.191-5.635 2.38 5.635h1.191l1.19 2.817 1.191 5.635 1.19-11.27 1.191-2.817 1.19 8.452h1.191l1.19 2.818 1.19-5.635h2.382l1.19 2.817h1.19l1.191-2.817 1.19 2.817h3.572l1.19 5.635 1.191-5.635 1.19 2.818 1.191-5.635 1.19 2.817h1.191l1.19-2.817h1.191l1.19 2.817h1.191l1.19-2.817h1.19l1.191 5.635 1.19-2.818 1.191 2.818 1.19-2.818h1.191l2.381 5.635 2.381-5.635 1.19 5.635 1.19-2.817 1.191 5.634 1.19-5.634h3.572l1.19 5.634 1.191-2.817h0" fill="none" stroke="#1f77b4" stroke-linecap="square" stroke-width="1.5" id="line2d_18"/><path clip-path="url(#pbad36bae3e)" d="M46.985 215.462l1.221-5.785h1.22l1.22 5.785 1.22-5.785h3.662l1.22 5.785 1.222-5.785 1.22 5.785h3.662l1.22-5.785h3.662l1.22 5.785 1.221-5.785 1.22 5.785h1.222l1.22-5.785h2.441l1.22 5.785h2.442l1.22-5.785 1.22 5.785 1.222-11.57 2.44 11.57 1.222-5.785 1.22 5.785h1.221l1.221-5.785h3.662l1.22 5.785 1.222-5.785 1.22 5.785 1.221-11.57 2.442 11.57 1.22-5.785h1.221l1.221 5.785h2.44l1.221-5.785 1.221 5.785 1.22-5.785 1.222 5.785h1.22l1.22-5.785 2.442 11.57 2.443-11.57h2.441l1.22 5.785h2.442l1.22-5.785 1.221 5.785h2.441l1.22 5.785 1.221-11.57h2.441l1.22-28.926 1.24-5.785h1.243l1.243-11.57h1.244l1.237-5.785 1.245 5.785 1.236-5.785 1.238 5.785 1.238-5.785h3.712l1.238-5.785h2.487l1.238 5.785 1.237-11.57 1.244 5.785 1.237-5.785 1.238 5.785 1.237-5.785 1.238 5.785 2.488-11.57h1.237l2.487 11.57 1.237-11.57 1.238 5.785 1.237-5.785 1.238 5.785h3.725l1.237-5.785 1.244 5.785 1.243-5.785h2.482l1.243 5.785 1.238-5.785 1.243 5.785 2.487-11.57 1.238 5.785h2.48l1.244-5.785h2.482l1.237 5.785h1.244l1.237-5.785 1.238 5.785h2.47l1.249-5.785 1.237 5.785 2.487-11.57 1.238 11.57h1.238l1.243-5.785h1.238l1.243 5.785h1.238l1.243-5.785 1.244 5.785h1.243l1.238-5.785h3.73l1.244-11.57 1.238 11.57h7.443l1.237-5.785 1.238 5.785 1.244-5.785h3.724l1.238 5.785 1.237-5.785 1.238 5.785 2.481-11.57 1.256 11.57 1.243-5.785h1.244l1.237 5.785 1.238-5.785h1.237l1.238 5.785 1.238-5.785h1.243l1.238-5.785h1.237l1.238 11.57 1.25-5.785h6.2l1.249-5.785 2.475 11.57 1.25-5.785h3.724l1.238-5.785h1.237l1.25 5.785 2.475-11.57 1.237 11.57 1.238-5.785h7.45l1.237 5.785 1.243-5.785 1.244 5.785 1.237-5.785 1.238 5.785 1.238-5.785h3.718l1.238 5.785h1.237l1.244-11.57 1.244 11.57 1.237 28.925 1.22 5.785h2.44l1.22 11.57h1.22l1.22 5.785h1.22l1.221-5.785h2.44l1.22 5.785h1.22l1.22 5.785 1.22-11.57 1.22 5.785h1.22l1.22 5.785h9.761l1.22 5.785h1.22l1.22-11.57 1.22 11.57 1.22-11.57 1.22 11.57 1.22-5.785 1.22 5.785h7.321l1.22 5.785 1.22-5.785h3.662l1.22 5.785 1.22-5.785 1.22 5.785 1.22-5.785h3.66l1.22 5.785h1.22l1.22-5.785 1.22 5.785h6.101l1.22-5.785 2.44 11.57 1.22-5.785h1.22l1.22-5.785 1.22 5.785 1.221-5.785h1.22l1.22 5.785 1.22-5.785h1.221" fill="none" stroke="#ff7f0e" stroke-linecap="square" stroke-width="1.5" id="line2d_19"/><path clip-path="url(#pbad36bae3e)" d="M46.985 221.247l1.208 5.785 1.207-5.785h2.413l1.207 5.785h1.207l1.206-5.785h4.829l1.206 5.785 1.207-5.785h2.413l1.207-5.785 1.207 5.785h1.206l1.207 5.785 1.206-5.785h1.207l1.207-5.785 1.206 5.785 1.208-5.785h1.207l1.207 5.785h3.62l1.207-5.785 1.207 5.785h10.861l1.207-5.785h1.207l1.206 5.785h4.828l1.207-5.785 1.207 5.785h1.207l1.207-5.785h1.206l1.207 5.785 1.207-5.785 1.206 5.785h2.414l1.207-5.785 1.207 5.785 1.206-5.785h2.413l1.207 5.785h1.206l1.206-11.57 1.207 11.57h4.827l1.207-5.785h3.621l1.21-23.14 1.248-5.786h1.227l2.468-11.57h8.634l1.231 5.785 1.232-5.785h2.475l1.232-5.785h2.463l1.232 5.785h2.463l1.238-5.785h1.234l1.24-5.785 1.232 5.785h7.39l1.238-5.785h1.231l1.232-5.785 1.232 5.785 1.231-5.785h1.232l1.232 5.785 1.231-5.785 1.238 5.785 1.231-5.785h3.692l1.24 5.785h1.235l1.237-5.785h7.406l2.469-11.57 2.475 11.57h1.24l1.235-5.785h1.232l1.232 5.785 1.231-5.785 1.234 5.785 1.235-5.785h1.232l1.227 5.785h1.23l1.232 5.785 1.232-17.355 1.231 5.785h7.396l1.232-5.785 1.226 5.785h1.231l1.238-5.785h8.627l1.232 5.785 1.234-11.57 1.235 5.785h1.232l1.245 5.785 1.236-11.57h1.231l2.464 11.57 2.463-11.57h1.231l1.234 5.785 1.236-5.785h1.231l1.232-5.785 2.463 11.57 1.232-11.57 2.469 11.57 1.232-5.785h2.465l1.236 5.785 2.469-11.57 1.231 5.785h1.232l1.232 5.785 1.234-5.785h1.235l1.231-5.785 1.232 5.785h4.933l1.237-5.785h3.697l1.242 5.785 1.231-5.785h1.234l1.238 5.785 1.241-5.785h1.238l1.234-5.785 1.237 5.785 1.244-5.785 1.235 5.785h2.463l1.232-5.785 1.231 5.785 1.234 17.355h1.201l1.207 11.57h1.207l1.207 5.785h4.83l1.208-5.785 1.207 5.785 1.207-5.785 1.207 5.785h2.414l1.208 5.785h3.622l1.206-5.785 1.208 11.57 1.208-5.785h6.036l1.207 5.785 1.207-11.57 1.208 5.785h1.207l1.207-5.785h2.414l1.207 11.57h1.207l1.208-5.785 1.208 5.785 2.413-11.57 2.414 11.57h1.206l1.207-5.785h4.829l1.206 5.785h1.208l1.207-5.785h3.622l1.207-5.785 1.207 11.57 1.207-5.785 1.207 5.785h1.207l1.207-5.785h2.415l1.207 5.785 1.207-5.785h2.415l1.207 5.785h1.207l1.208-11.57 2.415 11.57h1.207l1.207-5.785h1.208" fill="none" stroke="#2ca02c" stroke-linecap="square" stroke-width="1.5" id="line2d_20"/><path clip-path="url(#pbad36bae3e)" d="M46.985 215.462h6.101l1.22-5.785h1.22l1.22 11.57 1.22-5.785h2.441l1.22-5.785h1.22l1.22 5.785h1.22l1.22 5.785 1.22-11.57 1.22 5.785h3.658l1.22-5.785h2.44l1.22 5.785h2.439l1.22 5.785 1.22-5.785h3.66l1.22-5.785 1.22 5.785h1.221l1.22-5.785h1.22l1.22 5.785h1.22l1.22-5.785h2.443l1.22 5.785h1.22l1.22-5.785 1.22 5.785h2.439l1.22-5.785 1.22 5.785h1.22l1.222 5.785 1.22-5.785h4.88l1.22 5.785 1.22-11.57h1.22l1.22 5.785h2.442l1.22-5.785 1.22 11.57 1.22-5.785h2.44l1.22-5.785 1.22 5.785h3.66l1.22-23.14h9.924l1.237-5.786 1.239 5.785h6.223l1.243-11.57 1.244 11.57 1.243-5.785 1.25 5.785 1.25-5.785h1.249l1.25-5.785h1.243l1.231 5.785 1.244-5.785 2.469 11.57 2.475-11.57 1.238 11.57h1.237l1.238-5.785h2.481l1.244-5.785 1.232 5.785h1.243l1.237 5.785 2.487-11.57h1.25l2.475 11.57 1.244-5.785h1.237l1.244 5.785 1.243-11.57 1.238 11.57 1.243-11.57h1.238l1.244 5.785h2.475l1.25-5.785 1.237 5.785h1.237l2.476-11.57 1.243 5.785 1.238 11.57 1.243-11.57h6.212l1.243 5.785h1.238l2.475-11.57 2.481 11.57 1.232-11.57 1.238 11.57 1.243-11.57 2.476 11.57 1.237-5.785h1.237l1.238-5.785 1.244 11.57 1.243-11.57 1.244 5.785h2.48l1.238-5.785 1.238 5.785 1.237-5.785h1.244l1.238 5.785 1.243-5.785h2.481l1.238 5.785h4.962l1.238-5.785h2.48l1.25 5.785h1.238l1.237-5.785 1.238 5.785 1.238-5.785h2.487l1.237 5.785h4.95l1.239-5.785h2.474l1.238 5.785h2.47l1.237-5.785 1.25 5.785 1.237-5.785h16.112l1.238-5.785 1.243 5.785h1.244l1.243-5.785 1.244 5.785h2.487l1.25 5.785 1.243 11.57 2.44 11.57 1.22-5.785h3.663l1.22 5.785 1.22-5.785h3.659l1.22 5.785h1.22l1.219-5.785 1.22 5.785h1.22l1.22-5.785h1.22l1.22-5.785 1.219 11.57 1.22-5.785h1.22l1.22 5.785 1.22-5.785h1.22l1.22-5.785 1.22 11.57 1.22-5.785h2.44l1.22 5.785 1.22-5.785 1.22 5.785h2.446l1.22-5.785h1.22l1.22 5.785 1.22-5.785h3.662l1.22 5.785h1.22l1.22-5.785h1.22l1.22 5.785 1.22-5.785 1.22 5.785 1.223-5.785 1.22 5.785 1.22-5.785h2.44l1.22 5.785h9.76l1.222-5.785 2.441 11.57 1.22-11.57h2.44l1.221 5.785h1.22l1.22 5.786h0" fill="none" stroke="#d62728" stroke-linecap="square" stroke-width="1.5" id="line2d_21"/><path clip-path="url(#pbad36bae3e)" d="M46.985 267.527l1.222-5.785 1.203 5.785 1.22-5.785h1.22l1.22 5.785 2.443-11.57 1.22 5.785h1.22l1.219-5.785 1.22 11.57h1.22l1.219-5.785 1.22 5.785 1.22-5.785 1.22 5.785 1.22-5.785h2.44l1.22 5.785 1.22-5.785h1.22l1.22-5.785 1.202 11.57 1.22-11.57 1.22 11.57h1.22l1.22-5.785 1.219 5.785h3.661l1.22-5.785 1.22 5.785h4.88l1.22-5.785 1.22 5.785h2.442l1.22-5.785 1.22 5.785h1.219l1.202-5.785h3.659l1.22 5.785 1.22-5.785 1.22 5.785 1.22-11.57 1.219 11.57h1.22l1.22-5.785h1.202l1.22 5.785h1.22l1.219-5.785 1.22 5.785 2.44-11.57 1.22 17.355 1.219-11.57 1.22 5.785h1.225l1.203 5.785 1.22-5.785h2.442l1.22 5.785h1.22l1.22-28.925 1.25-5.785h1.249l1.25 5.785h1.243l1.238 5.785 2.487-11.57h1.243l1.256 11.57 1.243-5.785h7.461l1.238-5.785 1.243 5.785h1.238l1.243-5.785 1.25 5.785h1.244l1.243-5.785h1.244l1.243 5.785 1.244-5.785 1.243 5.785 1.244-5.785 1.243 11.57 1.233-11.57 1.242 5.785 1.244-5.785h1.249l1.238 5.785 1.244-5.785h1.237l1.238-5.785 1.243 5.785 1.238-5.785 1.243 11.57 1.238-5.785h2.481l1.238-5.785 1.243 5.785 1.238-5.785 2.487 11.57 1.238-11.57 1.243 5.785h3.72l1.236-5.785 1.244 5.785h7.461l1.244-5.785h2.487l1.243 5.785 1.25-5.785h3.716l1.24 5.785 1.243-5.785h2.476l1.237 5.785 1.25-5.785h2.499l1.237 5.785 1.238-5.785h1.237l1.244 5.785 1.238-5.785 1.243 5.785 1.244-5.785h2.48l1.244 5.785 1.238-5.785 1.243 5.785 1.238-5.785h3.719l1.237 5.785 1.238-5.785 1.237 5.785h2.493l1.239-5.785h4.956l1.237 5.785h2.481l1.244-5.785h1.248l1.269-5.785 1.243 11.57 1.244-5.785h1.243l1.244 5.785 2.47-11.57 1.236 5.785h1.238l1.243 5.785 1.244-5.785h1.243l1.244 5.785 1.244-5.785h2.493l1.243-5.785 1.244 11.57 1.255-11.57 1.238 5.785h2.493l1.244 5.785 1.243-5.785h1.243l1.25 5.785 1.243-5.785h6.2l1.267-5.785 1.244 5.785 2.446 23.14h9.742l1.22 5.785 1.22-5.785h2.423l1.22 5.785h3.66l1.22-5.785 1.22 5.785h3.66l1.22-5.785 1.222 5.785h2.44l1.22-5.785 1.22 11.57 2.44-11.57 1.203 5.785h2.44l1.22-5.785 1.203 5.785 1.22-5.785 1.22 11.57h1.22l1.22-5.785h1.22l1.221-5.785 1.22 5.785h3.659l1.202 5.785 1.218-5.785 1.217 5.785 1.218-5.785h1.217l1.218 5.785h1.218l1.218-5.785h1.218l1.217 5.785 1.218-5.785 1.22 5.785 1.217-5.785h9.746l1.217-5.785 2.42 11.57 2.436-11.57 1.217 11.57h1.218" fill="none" stroke="#9467bd" stroke-linecap="square" stroke-width="1.5" id="line2d_22"/><path clip-path="url(#pbad36bae3e)" d="M46.985 209.677l1.208-5.786 1.207 5.786 1.207-5.786h1.207l1.208 5.786h2.415l1.208-5.786h1.207l1.208 5.786h1.207l1.207-5.786h1.208l1.206 5.786 1.207-5.786h2.416l2.416 11.57 1.208-5.784h1.207l1.21-5.786 1.209 5.786h6.038l1.208-5.786h3.622l1.208 5.786h6.036l1.207-5.786h1.207l1.208 5.786 1.207-5.786 1.208 5.786h2.415l1.204-5.786h4.83l1.208 5.786h1.207l1.208-5.786h1.207l1.207 5.786 1.204-5.786 1.208 5.786 1.207-5.786 1.208 5.786h1.207l1.208-5.786 1.207 5.786h1.208l1.209-5.786 1.207 5.786 1.208-5.786 1.207 5.786h2.417l1.208-5.786h3.622l1.208 5.786 1.227-28.926h1.231l2.476-11.57 1.237 5.785 1.232-5.785h2.47l1.237-5.785h1.243l1.244 5.785 1.243-5.785 1.238 5.785h1.243l1.244-5.785h8.675l1.243-5.785 1.244 5.785 1.238-5.785h1.231l1.232 11.57 1.237-11.57h1.238l1.244 5.785 1.231-5.785h2.464l1.231-5.785 1.232 5.785 1.232-5.785h2.463l1.231 5.785 1.244-5.785h1.232l1.231 5.785 1.238-5.785h3.695l1.237 5.785 2.487-11.57 1.232 11.57 1.232-5.785 1.231 5.785 1.238-5.785 1.232 5.785h1.231l1.232-11.57 1.231 5.785 1.232-5.785 1.232 5.785 1.231-5.785 1.232 5.785h6.158l1.232-5.785 1.231 5.785h1.238l1.232-5.785h1.237l1.232 5.785 1.231-5.785 1.238 5.785 1.232-5.785h1.231l1.227-5.785 1.237 11.57 1.231-5.785h2.464l1.231 5.785 1.232-5.785 1.231 5.785 1.232-5.785h1.232l1.231 5.785 1.232-11.57h1.226l1.231 11.57 1.232-5.785h2.463l1.232-5.785 1.231 5.785h4.933l1.232-5.785h1.226l1.243 5.785h2.463l1.232-5.785h2.463l1.237-5.785 2.481 11.57 1.238-5.785h3.73l1.232-5.785h1.232l1.232 5.785h1.231l1.232-5.785h1.237l1.244 5.785 1.243-5.785 1.244 5.785 1.238-5.785 1.243 5.785 1.244-5.785h1.237l1.238 5.785 1.243-11.57 1.244 11.57h3.725l1.243-5.785h2.475l1.232-5.785 2.481 11.57h2.487l1.238-5.785h2.487l1.243 23.14 1.208 5.785 1.207-5.785 1.208 11.57h2.414l1.209 5.785 1.207-5.785 1.207 5.785h13.276l1.207-5.785 1.205 11.57 1.207-5.785h1.208l2.414 11.57 1.208-11.57 1.207 5.785h1.208l1.208-5.785 1.207 5.785h1.207l1.207-5.785h2.416l1.207 5.785h1.207l1.208 5.785 1.207-11.57 1.208 11.57 1.207-5.785h4.83l1.207-5.785 1.208 11.57 1.207-5.785h2.415l1.207 5.785 1.208-5.785 1.209 5.785h1.207l1.207-5.785h8.45l1.208 5.785 1.207-5.785h1.207l1.208 5.785 1.207-5.785 1.207 5.785 1.208-5.785h2.414l1.204 5.785h2.414" fill="none" stroke="#8c564b" stroke-linecap="square" stroke-width="1.5" id="line2d_23"/><path clip-path="url(#pbad36bae3e)" d="M46.985 161.794l1.19 2.817 1.191-2.817 1.19-8.452 1.19 2.817h2.382l1.19 5.635 1.19-8.452 1.19 8.452 1.191-8.452 1.19 2.817h2.382l1.19-2.817 1.195 5.634 2.38-5.634 1.191 5.634h1.19l1.191-2.817h3.571l1.19 2.817h2.381l1.19-5.634 1.191 8.452 2.381-11.27 1.19 8.452 1.19-8.452 1.191 5.635h1.19l1.191 5.635 1.19-11.27 1.19 5.635h1.191l1.19-2.817 1.191 5.634 1.19-5.634h1.19l1.191-2.818 1.19 5.635 1.191-2.817 2.38 5.634 2.382-5.634 1.19 5.634 1.19-8.452 1.191 2.818 2.38-5.635 1.191 5.635h1.19l1.191 2.817 1.19-8.452 1.19 2.817 1.191 5.635 1.19-8.452 1.191 5.635 1.19 2.817 1.191-5.635h1.19l1.191 2.818 2.381-5.635 2.38 5.635 1.191-2.818 1.19 5.635 1.191-11.27 1.19 8.453 1.191-2.818 1.19-19.72 2.381-5.635 1.19 2.817 1.19-5.635h1.191l1.19 2.818 1.19-2.818 1.19-5.634h1.191l1.19 2.817 1.19-8.452h1.191l1.19 5.635h1.19l2.381-5.635 1.19-5.635 1.19 5.635 1.19-5.635 1.191 5.635h1.19l1.19-5.635 1.19 2.818 1.191-2.818h1.19l1.19-2.817 1.19 2.817 1.191-2.817h1.19l1.19-5.635 2.381 5.635 1.19-5.635 1.19 2.818 2.381-5.635h2.38l1.191 5.635 1.19-5.635h1.19l1.191-2.817 1.19 2.817 1.19-5.635 1.19-2.817 1.191 5.635 1.19-2.818h3.571l2.38-5.634 1.191 2.817h1.19l1.19 2.817 2.381-5.634h2.38l1.19-5.635 1.191 5.635 1.19-5.635 1.19 5.635 1.19-5.635 1.191 2.818h5.952l1.19-2.818 1.191 2.818 1.19-5.635 1.191-2.817 1.19 2.817 1.19-5.635 1.191 5.635h2.381l1.19-2.817 1.19 2.817h2.382l1.19-2.817h1.19l1.191 2.817 1.19-2.817 1.19 2.817 1.191-2.817 1.19-5.635 1.191 5.635 1.19-5.635 1.191-2.817 1.19 5.634h2.381l1.19-2.817h1.191l1.19 2.817 1.191-5.634 1.19 2.817h1.19l1.191-2.817h1.19l2.382 5.634 1.19-5.634 1.19 2.817h1.19l1.191-8.452 1.19 5.635 1.191-5.635 2.38 5.635h1.191l1.19-2.818 1.191-5.634 1.19 2.817h1.19l1.191 5.635 1.19-5.635h1.191l1.19 5.635 1.191-8.452 1.19 2.817h1.19l1.191-2.817 2.381 5.634 2.381-5.634h1.19l1.19-2.818 1.191 2.818 1.19-5.635 1.191 5.635 1.19-2.818 1.191 5.635 1.19-5.635 1.19 5.635 1.191 2.817 2.381-11.269 1.19 2.817h1.19l1.191 5.635 1.19-5.635 1.191-2.817 1.19 5.635 1.191 25.356h1.191l1.19-5.635 1.19-2.817 1.191 11.269 1.19-8.452 1.191 2.817h2.38l2.382 5.635 1.19-2.817 2.38 5.634h1.191l1.19 5.635 1.191-8.452h1.19l1.19 2.817h1.191l1.19 2.817h1.191l1.19-2.817 1.19 5.635 1.191 2.817 1.19-8.452 1.191 2.817 1.19-2.817 1.19 5.635h2.382l1.19 2.817 1.19-5.635 1.19 8.452h2.382l1.19-5.634h1.19l1.19 5.634 1.191-2.817 1.19 2.817h1.191l1.19-2.817 1.19 5.635 1.191 2.817 1.19-8.452 1.191 2.817h5.952l1.19 2.818 1.191-2.818h1.19l1.19 5.635 1.191 2.817 1.19-5.634 1.191-2.818 1.19 8.452 1.19-5.634 1.191 5.634 1.19 2.818 1.19-5.635h1.191l1.19-5.635 1.191 8.452h1.19l1.19-5.634 1.191 5.634h2.381l1.19 2.818h1.19l1.191-5.635h0" fill="none" stroke="#e377c2" stroke-linecap="square" stroke-width="1.5" id="line2d_24"/><path clip-path="url(#pbad36bae3e)" d="M46.985 237.861l1.19 2.818h3.572l2.38 5.634 1.191-5.634 3.571 8.452 1.19-11.27 1.191-2.817 1.19 5.635h1.191l1.19 2.817 1.19-5.635h1.191l1.19 5.635 1.191-5.635 2.38 5.635 1.191-5.635 1.19 2.818 1.191-2.818 1.19 2.818h2.381l1.19 2.817 1.191-5.635 1.19 5.635h1.19l1.191-2.817 1.19 2.817 1.191-2.817h2.38l1.191-2.818 1.19 5.635 1.191-5.635h1.19l1.19 2.818 1.191 5.634 1.19-2.817 1.191 2.817 1.19-8.452h1.19l1.191 5.635h1.19l1.191-5.635h1.19l1.19 2.818 1.191-5.635h1.19l1.191 2.817 1.19 5.635 1.19-2.817h1.191l1.19 2.817 1.191-5.635 1.19 2.818 1.19-2.818 1.191 2.818 1.19-2.818 1.191 2.818 1.19 5.634 2.381-5.634 1.19 2.817 1.191-2.817h1.19l1.191-5.635 1.19 8.452h2.381l1.193-5.635 1.19-16.904 1.191-5.634 1.19 2.817h1.19l1.19-5.635h7.142l1.19-2.817 1.19 2.817 1.19-8.452 1.191 5.635 2.38-5.635 1.19 2.818 1.191-2.818h1.19l1.19 2.818 1.19-2.818 1.191-5.634 1.19 2.817h4.761l1.19-5.634 1.19 8.451 1.191-8.451 2.38 5.634 2.381-5.634 1.19 2.817 1.19-5.635 1.19 8.452 1.19-5.634 1.191-2.818 1.19 2.818h1.19l1.19-2.818 1.191 2.818 1.19-5.635 1.19 8.452 1.19-8.452 1.191 8.452 1.19-5.635 1.19-2.817 1.19 5.635 2.381-5.635 1.19 5.635 3.571-8.452 1.19 5.634 1.19 2.818 1.19-5.635h4.762l1.19-2.817h1.19l2.38 5.634 1.19-2.817h1.191l2.38 5.635 1.19-2.818h1.191l1.19-2.817 1.19-5.635 1.19 2.818 1.191 5.634h1.19l1.19-8.452 1.19 2.818h1.19l1.191 2.817h1.19l1.19-5.635 1.191 2.818h3.57l1.19 2.817 1.191-2.817h2.38l1.19 2.817 1.191-5.635h2.38l1.19 8.452 1.191-11.27 1.19 11.27 2.38-11.27h1.191l1.19 2.818 1.19 5.635 1.19-8.452 1.19 2.817h1.191l1.19 2.818 1.19-8.452 1.19 5.634 1.191-2.817 2.38 5.635 1.19-2.818h5.952l1.19 5.635h2.38l1.19-8.452 1.191 2.817h1.19l1.19 2.818h2.381l1.19-2.818h1.19l1.19-2.817 1.191 2.817 1.19-2.817 1.19-5.635 1.19 8.452 1.19 2.818 1.191-5.635 2.38 5.635h1.19l1.191-5.635 1.19 8.452 1.19-8.452 1.19 5.635 1.191-2.818h2.38l1.19-8.452 1.19 11.27 1.191 8.452 1.19 16.903 2.381-5.634h1.19l1.191 5.634 1.19 2.818 1.191-5.635 1.19 5.635 1.19-2.818h1.191l1.19 2.818h1.191l1.19-2.818 1.19 5.635h2.382l1.19-2.817h1.19l1.191 2.817 1.19 5.635 1.19-2.818h2.382l1.19 2.818h1.19l2.381-5.635 2.381 11.27 1.19-5.635 1.19-14.087 1.191 16.904 1.19-8.452 1.191 8.452 1.19-2.817 1.19 5.634 1.191-11.269 2.381 11.27 1.19-2.818 1.191 5.635 1.19-5.635 1.19 2.817 1.191-2.817 1.19 2.817h5.953l1.19 8.452 1.19-14.086 1.19 11.269 1.191-2.817 1.19 2.817 1.191-8.452 1.19 5.635h1.19l1.191-2.818 2.381 5.635 1.19-2.817 1.19 2.817h1.191l1.19-5.635h1.191l1.19 2.818 1.19 8.452 1.191-5.635 1.19-2.817 1.191 2.817 1.19 5.635 1.19-2.818h0" fill="none" stroke="#7f7f7f" stroke-linecap="square" stroke-width="1.5" id="line2d_25"/><path clip-path="url(#pbad36bae3e)" d="M46.985 169.181l1.222-11.57 2.419 11.57 2.432-11.57 1.206 11.57 2.406-11.57 1.203 5.785h6.054l1.216 5.785 1.216-5.785h1.203l1.216-5.785h1.202l1.204 5.785h8.488l1.216-5.785 2.436 11.57 1.216-11.57h2.42l1.22 5.785h1.206l1.218-5.785 1.203 5.785h1.216l1.203 5.785 2.432-11.57 1.216 5.785h4.85l1.218-5.785 2.433 11.57 1.202-11.57 1.213 5.785h2.433l1.216-5.785 2.432 11.57 1.215-5.785h1.203l1.216-5.785 1.218 5.785h1.217l1.216 5.785 1.216-11.57 1.218 5.785h2.418l1.217-5.785 2.405 11.57 1.216-5.785h3.649l1.216-17.355 1.25-11.57 1.245-5.785h2.492l1.244-5.785h1.237l1.244-11.57 1.243 5.785h2.487l1.238-5.785h2.475l1.25-5.785 1.237 5.785h1.238l1.243-5.785 1.238 5.785h1.244l1.25-11.57 2.474 11.57 1.238-5.785 1.25 5.785 1.243-11.57 1.25 5.785 1.243-5.785 1.238 11.57 1.237-5.785h2.493l1.26-5.785h1.239l1.25 5.785h3.724l1.25-5.785h3.736l1.238 11.57 1.256-11.57h2.492l1.244-5.785 1.244 11.57h1.237l1.24-5.785 1.24 5.785 1.24-5.785h2.497l1.244 5.785 1.244-11.57 1.237 11.57 2.5-11.57 1.237 5.785h1.255l1.238-5.785 1.261 5.785h1.25l1.25-5.785 1.243 5.785 1.245-5.785h4.973l1.243 5.785h1.243l1.244-5.785h1.25l1.237 5.785 1.25-5.785h6.2l1.237-5.785h1.243l2.493 11.57 1.238-5.785h3.736l1.238-5.785h1.25l1.243 5.785h3.749l1.237-5.785 1.256 5.785 1.243-5.785h1.244l1.237 5.785 1.25-5.785h1.243l1.238 5.785h1.237l1.244-5.785 1.243 5.785 1.238-5.785h3.749l1.243 5.785h1.25l1.237-5.785 1.25 5.785h2.481l1.237-11.57 1.244 11.57 1.243-5.785h2.487l1.25 5.785 1.238-5.785h2.493l1.249 5.785 1.244-5.785 1.243 5.785 1.238-5.785h7.467l1.243-5.785 1.238 5.785h3.725l1.243-5.785 1.244 5.785 1.26-5.785 1.233 28.925h1.216l1.217 5.785h1.216l3.648 17.355 1.216-5.785h1.216l1.216 5.785h7.27l1.218 5.785 1.216-5.785 1.218 5.785h1.216l1.217-5.785h1.203l1.216 5.785 1.216-5.785 1.216 5.785h2.431l1.203 5.785 1.214-5.785 1.216 5.785 1.215-5.785 1.219 5.785 1.202-5.785h3.632l1.217 11.57 1.216-11.57 1.216 5.785h2.432l1.216-5.785 2.406 11.57 1.218-11.57 1.216 5.785h1.217l1.203-5.785 2.418 11.57h1.216l1.203-11.57 1.213 5.785h2.423l1.202 5.785 1.216-5.785h2.416l1.219 5.785 1.202-5.785h1.217l1.202 5.785h1.218l1.203-5.785h1.216l1.217 5.785h3.648l1.218-5.785 1.203 5.785 1.216-5.785h0" fill="none" stroke="#bcbd22" stroke-linecap="square" stroke-width="1.5" id="line2d_26"/><path clip-path="url(#pbad36bae3e)" d="M46.985 244.387l1.215-5.785h1.215l1.214-5.785 1.215 5.785 1.215-5.785 1.215 5.785h1.215l1.215-5.785 1.215 11.57 1.216-11.57 1.215 5.785h4.86l2.43-11.57 1.214 5.785h1.215l1.216 5.785 1.215-5.785h1.214l1.215-5.785 1.215 5.785h1.215l1.215-5.785 1.215 5.785h2.43l1.215-5.785 1.215 5.785 1.215-5.785 1.215 5.785h1.215l1.215 5.785 2.43-11.57 1.215 5.785h1.215l1.215-5.785h9.719l1.215 5.785 1.214-5.785 1.216 5.785h2.43l2.43-11.57 1.215 11.57 1.214-11.57 1.215 11.57 1.215-5.785 1.215 5.785 1.215-11.57 1.215 11.57 1.214-5.785h6.076l1.215 5.785 1.215-5.785h2.43l1.214-5.785 1.215-11.57 1.235-5.786h2.475l1.232-5.785h2.463l1.232-5.785h2.463l1.232-5.785h1.231l1.232 5.785h1.232l1.231-5.785 1.232 5.785 1.238-5.785h1.231l1.232-5.785 1.231 5.785h3.701l1.232 5.785 1.232-11.57 1.231 5.785h2.458l1.237-11.57 1.232 5.785h3.695l1.226-5.785 1.237 5.785h2.463l1.238-5.785h2.463l1.232 5.785h4.932l1.232-5.785h1.232l1.237-5.785h1.226l1.237 5.785 1.232-5.785h3.7l1.233-5.785 2.469 11.57 2.469-11.57 1.232 5.785h1.237l1.238-5.785 1.231 5.785 1.232-5.785h1.232l1.231 5.785h2.463l1.232-5.785h2.463l1.232-5.785 1.232 5.785h2.475l1.238 5.785 1.243-5.785 1.232 5.785 1.231-5.785h2.47l1.231-11.57 1.238 5.785h1.231l1.232 5.785 1.232-5.785 1.231 11.57 2.464-11.57h2.463l1.231 5.785 1.244-5.785h2.47l1.243-5.785 2.469 11.57 1.231-5.785h1.232l1.232-5.785 1.231 5.785h1.232l1.232-5.785h9.865l1.231 5.785 2.464-11.57 1.237 5.785 1.232-5.785 1.238 5.785h1.237l1.238-5.785 1.231 11.57 1.238-5.785h1.232l1.237-5.785 1.232 5.785 1.231-5.785h1.232l1.231 5.785 1.238-5.785h1.232l1.231 5.785 1.244-5.785 1.232 5.785h2.469l1.237-5.785h1.232l1.244 5.785h1.237l2.463-11.57 1.232 5.785h3.695l1.238 17.355 3.645 17.355 1.215-5.785 1.215 11.57 1.216-11.57 1.215 5.785h2.43l1.215 5.785 1.215-11.57 1.215 5.785h2.43l1.216 5.785 1.215-5.785h2.43l1.215 5.785h8.505l1.215 5.785 1.214-5.785h4.86l1.216-5.785 1.215 5.785h1.214l1.215-5.785h1.215l1.215 11.57h6.076l1.216-5.785h4.86l1.216-5.785 1.215 5.785h1.215l2.43 11.57 1.214-11.57 1.215 11.57 1.215-5.785h1.215l1.215-5.785 1.215 5.785h1.215l1.215-5.785 1.215 11.57 1.215-11.57 1.215 11.57 1.216-11.57h1.214l1.215 11.57 1.215-5.785h2.43l1.216 5.785 1.215-5.785h0" fill="none" stroke="#17becf" stroke-linecap="square" stroke-width="1.5" id="line2d_27"/><path clip-path="url(#pbad36bae3e)" d="M46.985 261.742h4.858l1.215-5.785 1.214 11.57 2.43-11.57 1.213 5.785 1.215-5.785h1.214l1.215 11.57h1.214l2.43-11.57 2.43 11.57 1.214-5.785 1.215 5.785 2.43-11.57 1.214 11.57 1.214-5.785h1.215l1.215 5.785 1.214-5.785h1.215l1.215 5.785 1.214-11.57 1.214 5.785h1.215l1.215 5.785 1.214-5.785h3.644l1.215 11.57 1.214-11.57h1.215l1.214-5.785 1.215 5.785h2.43l1.214 5.785 1.214-5.785h1.215l1.215-5.785 2.43 11.57h2.428l1.215-5.785 1.215 5.785 1.215-5.785 1.214 5.785 1.215-5.785h2.429l1.214-5.785 1.216 5.785h2.429l1.215 5.785h1.214l1.214-11.57 1.215 5.785h7.288l1.214-5.785 1.215-11.57 1.236-5.785 1.237-11.57 1.232 5.785h2.47l2.463-11.57 2.463 11.57 2.47-11.57 1.23 5.785h1.238l1.232-5.785h1.231l1.232 5.785 1.238-5.785 1.231 5.785 1.232-5.785h4.926l1.232 5.785 1.232-5.785h13.572l1.237 5.785 1.226-5.785h6.17l1.232-5.785 1.231 5.785 1.232-5.785h2.463l1.232 5.785h3.7l1.232-5.785 1.238 5.785h2.463l1.232-5.785h2.463l1.238 5.785h1.231l1.238-5.785h1.232l1.231 5.785h2.47l1.237-5.785h1.232l1.231 5.785 1.232-5.785h1.226l1.231 5.785h6.164l1.232-5.785 1.237 5.785h3.695l1.232-5.785 1.232 5.785h1.237l1.232-5.785h1.231l1.232 5.785 1.232-5.785h2.463l1.232 5.785 1.237-5.785h3.701l1.232 5.785 1.237-5.785h4.95l1.238 5.785 2.463-11.57 1.232 11.57 1.232-5.785 1.231 5.785 1.238-11.57 1.232 5.785h6.17l1.237 5.785 1.232-11.57 1.231 11.57 1.232-5.785h3.695l1.232 5.785 1.231-11.57 1.232 5.785h7.402l1.231-5.785h1.232l2.47 11.57 2.468-11.57 1.232 5.785h3.695l1.238-5.785 1.237 5.785h1.232l1.231 17.355 2.43 11.57 1.215-5.785 1.214 5.785h1.214l1.215 5.785h1.214l1.215 5.785 1.215-5.785 1.214-11.57 1.215 17.355 1.215-5.785h7.288l1.214 5.785 1.215-5.785h1.215l1.215 5.785h1.215l1.214-5.785 1.217 5.785 1.214-5.785 1.215 5.785h2.43l1.214 5.785 1.215-5.785h1.214l1.215 5.785h1.215l1.214-11.57 1.215 5.785 1.214-5.785 1.215 5.785h2.43l1.215-5.785 1.215 11.57h2.43l1.214-5.785h4.858l1.215 5.785 1.215-5.785 1.214 11.57 1.216-11.57h1.215l1.214 5.785 1.215-5.785h2.43l1.214 5.785 1.215-5.785 2.428 11.57 1.214-11.57h1.214l1.215 5.785 1.215-5.785h1.214l1.214 5.785 1.215-5.785h1.215l1.215 5.785h1.215" fill="none" stroke="#aec7e8" stroke-linecap="square" stroke-width="1.5" id="line2d_28"/><path clip-path="url(#pbad36bae3e)" d="M46.985 157.611l2.443-11.57 1.22 5.785h2.442l1.22 5.785 1.221-5.785 1.22 5.785 1.22-5.785h1.221l1.22 5.785h1.22l1.22-5.785h1.22l1.22 5.785 1.221-5.785 1.22 5.785 2.44-11.57 1.22 5.785h4.879l1.22 5.785 1.219-5.785 1.22 5.785h2.439l1.22-5.785 2.439 11.57 2.438-11.57h1.22l1.219 5.785h1.22l1.218-5.785 1.22 5.785h1.219l1.22-5.785 1.218 5.785h2.438l1.22-5.785 1.218 5.785h1.22l1.218-11.57 1.219 5.785h6.092l1.219 5.785 1.219-5.785 1.219 5.785h1.218l1.218-5.785h2.436l1.219 5.785 1.218-5.785 1.218 5.785 1.217-5.785h2.436l1.217 5.785h1.218l1.217-5.785h3.652l1.218-23.14 1.238-5.785 1.237-11.57 3.725-17.355 1.237 5.785 1.238-11.57 1.243-5.785h4.957l1.243-5.785h2.475l1.238-5.786h1.238l1.243-5.785h4.962l1.244-11.57 1.237 11.57 2.476-11.57h1.237l1.238 5.785h1.237l2.482-11.57 1.237 5.785 1.238-5.785 1.237 5.785 1.238-5.785h1.243l1.238-5.785 1.238 5.785h1.243l1.244-5.785 1.237 5.785 2.487-11.57 1.244 5.785h1.237l1.244-11.57 1.244 5.785h3.718l1.238 5.785 1.237-5.785h9.907l1.238-5.785h2.48l1.244-5.785 1.238 5.785h2.48l1.239 5.785 2.475-11.57h2.48l1.238 5.785 1.238-5.785h9.9l1.244-5.785 1.244 5.785 1.237-5.785h1.238l1.237 5.785 1.238-5.785 1.244 5.785 1.243-5.785 1.238 5.785 1.25-5.785h8.668l1.244-5.785 1.237 5.785 1.238-5.785 1.238 5.785 1.237-5.785h2.475l1.238 5.785h1.237L273.53 7.2l1.237 11.57 1.238-11.57 2.475 11.57h1.243l1.238-5.785h1.238l1.237 5.785L284.68 7.2l1.237 5.785h6.212l1.238-5.785 1.237 11.57 1.244-11.57h1.243l1.238 5.785 1.243-5.785 1.238 5.785h1.25l1.237-5.785h1.238l1.243 5.785h2.475l1.238-5.785h1.238l1.243 5.785L313.21 7.2h1.237l1.238 23.14 1.217 11.57 2.435 11.57 1.217 11.57h1.218l2.435 11.57h2.435l1.217 11.57h3.652l1.218 5.786h3.652l1.217 5.785 1.217-5.785 1.218 5.785h2.435l1.218 5.785 1.217-5.785 1.218 5.785h2.436l1.217 5.785 1.217-11.57 1.217 5.785h3.652l1.217 5.785h7.303l1.217 5.785 1.218-5.785h2.435l1.218 5.785h1.217l1.217 5.785 1.217-5.785h8.521l1.218 5.785h2.434l1.217-5.785 1.218 11.57 1.218-5.785h2.435l1.217 5.785h2.435l1.217-5.785 1.217 5.785h4.869" fill="none" stroke="#ffbb78" stroke-linecap="square" stroke-width="1.5" id="line2d_29"/><g id="text_15"><defs><path d="M17.672 0H8.109v71.781h9.563V37.016L52.484 71.78h13.438L35.984 42.828 66.704 0h-12.5L29.108 35.984l-11.437-10.78z" id="HelveticaWorld-Regular-75"/><path d="M50.39 50.781q-.296 6.844-5.109 10.719-4.797 3.875-12.656 3.875-7.922 0-12.172-3.25-4.234-3.234-4.234-9.344 0-3.265 1.843-5.61 1.86-2.343 6.641-3.468l20.516-4.687q8.297-1.813 12.297-6.875 4.015-5.047 4.015-12.313 0-10.64-7.812-16.187-7.813-5.547-20.313-5.547-9.531 0-15.031 2.437-5.484 2.453-9.734 7.766-4.25 5.328-4.25 14.89h9.093q0-8 5.313-12.406 5.328-4.39 14.5-4.39 8.89 0 13.844 3.156 4.953 3.156 4.953 8.953 0 5.281-2.953 7.89Q46.188 29 37.594 31l-15.469 3.625q-7.719 1.75-11.531 6.125Q6.78 45.125 6.78 51.516q0 9.672 6.516 15.922 6.531 6.25 18.203 6.25 13.172 0 20.328-5.5 7.156-5.485 7.688-17.407z" id="HelveticaWorld-Regular-83"/><path d="M8.11 71.781h31.484q9.281 0 14.797-5.031 5.515-5.031 5.515-13.031 0-4.844-2.422-8.828-2.406-3.97-7.187-6.172 6.687-2.532 9.828-6.735 3.156-4.203 3.156-10.797 0-9.265-6.687-15.234Q49.906 0 38.922 0H8.109zm9.562-63.484h20.703q7.625 0 11.422 3.531 3.812 3.547 3.812 9.563 0 6.093-4.25 9.093Q45.125 33.5 36.812 33.5h-19.14zm0 33.11h17.625q7.719 0 11.312 2.796 3.594 2.813 3.594 8.781 0 5.125-3.406 7.813-3.39 2.687-11.39 2.687H17.671z" id="HelveticaWorld-Regular-66"/><path d="M39.594 34.719q-1.89 11.187-12.39 11.187-6.5 0-10.454-5.203-3.953-5.203-3.953-14.484 0-10.11 3.656-15.11 3.672-5 10.64-5 4.688 0 8.11 3.438 3.422 3.437 4.39 8.953h8.5q-1.312-9.703-6.859-14.86-5.547-5.156-14.328-5.156-10.297 0-16.89 7.047-6.594 7.063-6.594 19.172 0 13.281 6.594 21.188 6.593 7.922 18.5 7.922 8.687 0 13.843-5.204 5.157-5.203 5.735-13.89z" id="HelveticaWorld-Regular-99"/></defs><g transform="matrix(.14 0 0 -.14 407.677 157.961)" fill="#1f77b4"><use xlink:href="#HelveticaWorld-Regular-75"/><use x="67.188" xlink:href="#HelveticaWorld-Regular-75"/><use x="132.875" xlink:href="#HelveticaWorld-Regular-83"/><use x="199.086" xlink:href="#HelveticaWorld-Regular-66"/><use x="266.273" xlink:href="#HelveticaWorld-Regular-32"/><use x="290.688" xlink:href="#HelveticaWorld-Regular-99"/><use x="341.957" xlink:href="#HelveticaWorld-Regular-97"/><use x="396.889" xlink:href="#HelveticaWorld-Regular-115"/><use x="446.889" xlink:href="#HelveticaWorld-Regular-101"/></g></g><g id="text_16"><defs><path d="M44 29.5L33.406 61.078h-.203L21.687 29.5zm-25.297-8.594L11.188 0h-9.97l27 71.781h10.985L65.187 0H54.594l-7.078 20.906z" id="HelveticaWorld-Regular-65"/><path d="M12.984 26.313q0-9.61 3.813-14.907Q20.609 6.11 27.094 6.11q6.312 0 10.312 4.579 4 4.593 4 13 0 11.03-3.5 16.625-3.484 5.593-10.61 5.593-7.171 0-10.75-4.765-3.562-4.766-3.562-14.828zM49.812 2.983q0-12.609-6.062-18.797-6.047-6.203-18.266-6.203-8.78 0-13.984 4.047Q6.297-13.922 5.516-6.39h8.796q.672-3.812 3.532-6.062 2.86-2.25 8.281-2.25 7.375 0 11.125 3.969 3.766 3.953 3.766 12.828v3.719h-.188q-4.937-7.329-13.922-7.329-11.187 0-17.093 8.25-5.907 8.25-5.907 20.953 0 11.625 5.953 18.875 5.97 7.25 15.829 7.25 9.906 0 15.625-8.89h.187v7.375h8.313z" id="HelveticaWorld-Regular-103"/><path d="M12.703 26.219q0-8.735 3.953-14.375 3.953-5.64 11.219-5.64 7.531 0 11.438 5.905 3.906 5.907 3.906 14.11 0 8.297-3.907 14.078-3.906 5.797-11.437 5.797-6.969 0-11.078-5.453-4.094-5.438-4.094-14.422zm-8.984 0q0 11.672 6.484 19.625 6.5 7.968 17.672 7.968 11.438 0 17.875-8.062 6.453-8.047 6.453-19.531 0-11.516-6.406-19.625-6.39-8.11-17.922-8.11-11.078 0-17.625 7.86-6.531 7.86-6.531 19.875z" id="HelveticaWorld-Regular-111"/><path d="M49.219 0h-8.844v32.172q0 7.422-2.594 10.578-2.578 3.156-8.578 3.156-5.906 0-9.875-4.5-3.953-4.484-3.953-12.89V0H6.594v52.297h8.297v-7.375h.203q6.203 8.89 15.812 8.89 8.89 0 13.594-4.718 4.719-4.703 4.719-13.5z" id="HelveticaWorld-Regular-110"/><path d="M63.922 35.89q0 12.594-6.672 20.891-6.656 8.313-18.328 8.313-11.531 0-18.266-8.313-6.734-8.297-6.734-20.89 0-12.985 6.828-21.094 6.844-8.11 18.172-8.11 11.078 0 18.031 7.907 6.969 7.922 6.969 21.297zm9.953 0q0-16.062-9.281-26.937-9.266-10.86-25.672-10.86-16.516 0-25.766 10.86-9.25 10.875-9.25 26.938 0 16.109 9.25 26.953 9.25 10.843 25.766 10.843 16.89 0 25.922-11.046 9.031-11.032 9.031-26.75z" id="HelveticaWorld-Regular-79"/><path d="M8.688 10.594h10.406V.78q0-7.422-3.078-11.172-3.078-3.765-7.328-4.312v4.594Q14.015-9.422 14.015 0H8.687z" id="HelveticaWorld-Regular-44"/><path d="M17.188 45.016V0H8.405v45.016H1.22v7.28h7.187v8.985q0 5.907 3.578 8.703 3.594 2.813 10.032 2.813 2.203 0 3.968-.188v-7.906q-1.562.188-3.578.188-2.922 0-4.078-1.438-1.14-1.437-1.14-4.656v-6.5h8.796v-7.281z" id="HelveticaWorld-Regular-102"/><path d="M10.89 52.594q0-4.297 2.86-7.203 2.86-2.907 7.156-2.907 4.094 0 7.094 2.844 3 2.86 3 7.266 0 4.297-3 7.093-3 2.813-7 2.813-4.5 0-7.313-2.953-2.796-2.953-2.796-6.953zm16.407-54.5h-5.375l39.453 72.219h5.516zm-23.39 54.5q0 7.125 5.046 12 5.063 4.89 12.047 4.89 6.984 0 11.984-4.937 5-4.922 5-11.953 0-6.89-5-12Q27.984 35.5 21 35.5t-12.047 5q-5.047 5.016-5.047 12.094zm54-36.188q0-4.203 2.78-7.156 2.797-2.953 7.235-2.953 4.094 0 7.078 2.86 2.984 2.859 2.984 7.25 0 4.296-2.984 7.093-2.984 2.813-6.984 2.813-4.641 0-7.375-2.954-2.735-2.953-2.735-6.953zm-7.032 0q0 7.078 5 11.985 5.016 4.906 12.14 4.906Q75 33.297 80 28.344q5.016-4.953 5.016-11.938 0-6.89-5.016-12Q75-.687 68.016-.687q-7.125 0-12.141 4.984-5 4.984-5 12.11z" id="HelveticaWorld-Regular-37"/></defs><g transform="matrix(.14 0 0 -.14 407.677 214.003)" fill="#ff7f0e"><use xlink:href="#HelveticaWorld-Regular-65"/><use x="66.699" xlink:href="#HelveticaWorld-Regular-114"/><use x="98.268" xlink:href="#HelveticaWorld-Regular-103"/><use x="154.176" xlink:href="#HelveticaWorld-Regular-111"/><use x="210.084" xlink:href="#HelveticaWorld-Regular-110"/><use x="265.26" xlink:href="#HelveticaWorld-Regular-32"/><use x="289.674" xlink:href="#HelveticaWorld-Regular-79"/><use x="367.457" xlink:href="#HelveticaWorld-Regular-110"/><use x="422.633" xlink:href="#HelveticaWorld-Regular-101"/><use x="478.053" xlink:href="#HelveticaWorld-Regular-32"/><use x="502.467" xlink:href="#HelveticaWorld-Regular-99"/><use x="553.736" xlink:href="#HelveticaWorld-Regular-97"/><use x="608.668" xlink:href="#HelveticaWorld-Regular-115"/><use x="658.668" xlink:href="#HelveticaWorld-Regular-101"/><use x="712.588" xlink:href="#HelveticaWorld-Regular-44"/><use x="740.371" xlink:href="#HelveticaWorld-Regular-32"/><use x="764.785" xlink:href="#HelveticaWorld-Regular-102"/><use x="790.471" xlink:href="#HelveticaWorld-Regular-97"/><use x="845.402" xlink:href="#HelveticaWorld-Regular-110"/><use x="900.578" xlink:href="#HelveticaWorld-Regular-32"/><use x="924.992" xlink:href="#HelveticaWorld-Regular-49"/><use x="980.607" xlink:href="#HelveticaWorld-Regular-48"/><use x="1036.223" xlink:href="#HelveticaWorld-Regular-48"/><use x="1091.838" xlink:href="#HelveticaWorld-Regular-37"/></g></g><g transform="matrix(.14 0 0 -.14 407.677 171.961)" fill="#2ca02c" id="text_17"><use xlink:href="#HelveticaWorld-Regular-65"/><use x="66.699" xlink:href="#HelveticaWorld-Regular-114"/><use x="99.268" xlink:href="#HelveticaWorld-Regular-109"/><use x="182.275" xlink:href="#HelveticaWorld-Regular-111"/><use x="238.184" xlink:href="#HelveticaWorld-Regular-114"/><use x="270.752" xlink:href="#HelveticaWorld-Regular-32"/><use x="295.166" xlink:href="#HelveticaWorld-Regular-67"/><use x="366.48" xlink:href="#HelveticaWorld-Regular-97"/><use x="421.412" xlink:href="#HelveticaWorld-Regular-115"/><use x="471.412" xlink:href="#HelveticaWorld-Regular-101"/></g><g id="text_18"><defs><path d="M15.375 0H6.594v71.781h8.781z" id="HelveticaWorld-Regular-108"/><path d="M17.828 38.625H37.11q7.282 0 10.938 3.188 3.656 3.203 3.656 9.703 0 5.812-3.516 8.89-3.515 3.078-10.687 3.078H17.828zm0-38.625H8.11v71.781h32.266q9.625 0 15.484-5.594 5.86-5.593 5.86-14.578 0-9.328-5.672-15.312-5.656-5.969-15.672-5.969H17.828z" id="HelveticaWorld-Regular-80"/><path d="M29.781 73.297q-8.875-15.875-11.218-25.844-2.344-9.953-2.344-21.969 0-11.859 3.187-22.125Q22.61-6.89 29.891-20.703h-5.86Q15.72-8.593 11.25 2.187 6.781 12.985 6.781 26.125q0 12.36 4.047 23.563 4.063 11.203 12.86 23.609z" id="HelveticaWorld-Regular-40"/><path d="M3.516-20.703q8.796 15.922 11.14 25.86Q17 15.093 17 27.093q0 11.922-3.156 22.172T3.422 73.296h5.765q8.391-12.109 12.86-22.905 4.469-10.797 4.469-23.875 0-12.407-4.063-23.61-4.047-11.203-12.828-23.61z" id="HelveticaWorld-Regular-41"/></defs><g transform="matrix(.14 0 0 -.14 407.677 228.095)" fill="#d62728"><use xlink:href="#HelveticaWorld-Regular-67"/><use x="72.314" xlink:href="#HelveticaWorld-Regular-111"/><use x="128.223" xlink:href="#HelveticaWorld-Regular-111"/><use x="184.131" xlink:href="#HelveticaWorld-Regular-108"/><use x="206.152" xlink:href="#HelveticaWorld-Regular-105"/><use x="228.174" xlink:href="#HelveticaWorld-Regular-80"/><use x="292.822" xlink:href="#HelveticaWorld-Regular-105"/><use x="314.844" xlink:href="#HelveticaWorld-Regular-32"/><use x="339.258" xlink:href="#HelveticaWorld-Regular-40"/><use x="372.559" xlink:href="#HelveticaWorld-Regular-102"/><use x="398.244" xlink:href="#HelveticaWorld-Regular-97"/><use x="453.176" xlink:href="#HelveticaWorld-Regular-110"/><use x="508.352" xlink:href="#HelveticaWorld-Regular-32"/><use x="532.766" xlink:href="#HelveticaWorld-Regular-111"/><use x="588.674" xlink:href="#HelveticaWorld-Regular-102"/><use x="616.359" xlink:href="#HelveticaWorld-Regular-102"/><use x="644.045" xlink:href="#HelveticaWorld-Regular-41"/></g></g><g transform="matrix(.14 0 0 -.14 407.677 275.343)" fill="#9467bd" id="text_19"><use xlink:href="#HelveticaWorld-Regular-67"/><use x="72.314" xlink:href="#HelveticaWorld-Regular-111"/><use x="128.223" xlink:href="#HelveticaWorld-Regular-111"/><use x="184.131" xlink:href="#HelveticaWorld-Regular-108"/><use x="206.152" xlink:href="#HelveticaWorld-Regular-105"/><use x="228.174" xlink:href="#HelveticaWorld-Regular-80"/><use x="292.822" xlink:href="#HelveticaWorld-Regular-105"/><use x="314.844" xlink:href="#HelveticaWorld-Regular-32"/><use x="339.258" xlink:href="#HelveticaWorld-Regular-40"/><use x="372.559" xlink:href="#HelveticaWorld-Regular-102"/><use x="398.244" xlink:href="#HelveticaWorld-Regular-97"/><use x="453.176" xlink:href="#HelveticaWorld-Regular-110"/><use x="508.352" xlink:href="#HelveticaWorld-Regular-32"/><use x="532.766" xlink:href="#HelveticaWorld-Regular-111"/><use x="588.674" xlink:href="#HelveticaWorld-Regular-110"/><use x="643.85" xlink:href="#HelveticaWorld-Regular-41"/></g><g id="text_20"><defs><path d="M17.828 0H8.11v71.781h49.703v-8.594H17.828V41.22h35.156v-8.594H17.828z" id="HelveticaWorld-Regular-70"/></defs><g transform="matrix(.14 0 0 -.14 407.677 185.961)" fill="#8c564b"><use xlink:href="#HelveticaWorld-Regular-70"/><use x="59.766" xlink:href="#HelveticaWorld-Regular-108"/><use x="81.787" xlink:href="#HelveticaWorld-Regular-105"/><use x="103.809" xlink:href="#HelveticaWorld-Regular-114"/><use x="135.377" xlink:href="#HelveticaWorld-Regular-99"/></g></g><g id="text_21"><defs><path d="M39.016 52.297h9.562L29.891.984q-.5-1.375-.985-2.593-4.25-11.329-7.328-15.547-3.078-4.235-9.953-4.235-3.61 0-5.906.782v8.015q2.484-.89 5.468-.89 3.22 0 4.704 2.03 1.5 2.032 4.421 9.938L.875 52.297h9.922L24.812 9.719H25z" id="HelveticaWorld-Regular-121"/></defs><g transform="matrix(.14 0 0 -.14 407.677 106.22)" fill="#e377c2"><use xlink:href="#HelveticaWorld-Regular-102"/><use x="27.686" xlink:href="#HelveticaWorld-Regular-108"/><use x="49.707" xlink:href="#HelveticaWorld-Regular-121"/><use x="99.316" xlink:href="#HelveticaWorld-Regular-105"/><use x="121.338" xlink:href="#HelveticaWorld-Regular-110"/><use x="176.514" xlink:href="#HelveticaWorld-Regular-103"/><use x="232.422" xlink:href="#HelveticaWorld-Regular-102"/><use x="258.107" xlink:href="#HelveticaWorld-Regular-101"/><use x="313.527" xlink:href="#HelveticaWorld-Regular-114"/><use x="346.096" xlink:href="#HelveticaWorld-Regular-114"/><use x="377.664" xlink:href="#HelveticaWorld-Regular-101"/><use x="433.084" xlink:href="#HelveticaWorld-Regular-116"/><use x="460.77" xlink:href="#HelveticaWorld-Regular-32"/><use x="485.184" xlink:href="#HelveticaWorld-Regular-40"/><use x="518.484" xlink:href="#HelveticaWorld-Regular-102"/><use x="544.17" xlink:href="#HelveticaWorld-Regular-97"/><use x="599.102" xlink:href="#HelveticaWorld-Regular-110"/><use x="654.277" xlink:href="#HelveticaWorld-Regular-115"/><use x="704.277" xlink:href="#HelveticaWorld-Regular-32"/><use x="728.691" xlink:href="#HelveticaWorld-Regular-111"/><use x="784.6" xlink:href="#HelveticaWorld-Regular-102"/><use x="812.285" xlink:href="#HelveticaWorld-Regular-102"/><use x="839.971" xlink:href="#HelveticaWorld-Regular-41"/></g></g><g transform="matrix(.14 0 0 -.14 407.677 241.976)" fill="#7f7f7f" id="text_22"><use xlink:href="#HelveticaWorld-Regular-102"/><use x="27.686" xlink:href="#HelveticaWorld-Regular-108"/><use x="49.707" xlink:href="#HelveticaWorld-Regular-121"/><use x="99.316" xlink:href="#HelveticaWorld-Regular-105"/><use x="121.338" xlink:href="#HelveticaWorld-Regular-110"/><use x="176.514" xlink:href="#HelveticaWorld-Regular-103"/><use x="232.422" xlink:href="#HelveticaWorld-Regular-102"/><use x="258.107" xlink:href="#HelveticaWorld-Regular-101"/><use x="313.527" xlink:href="#HelveticaWorld-Regular-114"/><use x="346.096" xlink:href="#HelveticaWorld-Regular-114"/><use x="377.664" xlink:href="#HelveticaWorld-Regular-101"/><use x="433.084" xlink:href="#HelveticaWorld-Regular-116"/><use x="460.77" xlink:href="#HelveticaWorld-Regular-32"/><use x="485.184" xlink:href="#HelveticaWorld-Regular-40"/><use x="518.484" xlink:href="#HelveticaWorld-Regular-102"/><use x="544.17" xlink:href="#HelveticaWorld-Regular-97"/><use x="599.102" xlink:href="#HelveticaWorld-Regular-110"/><use x="654.277" xlink:href="#HelveticaWorld-Regular-115"/><use x="704.277" xlink:href="#HelveticaWorld-Regular-32"/><use x="728.691" xlink:href="#HelveticaWorld-Regular-111"/><use x="784.6" xlink:href="#HelveticaWorld-Regular-110"/><use x="839.775" xlink:href="#HelveticaWorld-Regular-41"/></g><g id="text_23"><defs><path d="M49.219 0h-8.844v34.188q0 6.296-2.438 9-2.437 2.718-7.953 2.718-6.797 0-10.703-4.406-3.906-4.39-3.906-12.984V0H6.594v71.781h8.781V45.312h.203q6 8.5 15.328 8.5 8.594 0 13.453-4.5 4.86-4.484 4.86-13.718z" id="HelveticaWorld-Regular-104"/><path d="M49.031 0H37.703l-12.89 19.672L12.203 0H1.125l18.266 26.906L2 52.296h11.188l12.109-18.405L37.5 52.297h10.688l-17.579-25.39z" id="HelveticaWorld-Regular-120"/><path d="M25.594 0h-8.985L1.516 52.297h9.468L21 11.187h.188l10.109 41.11h9.922l10.203-41.11h.187l10.594 41.11h8.703L55.812 0h-9.234L35.984 40.484h-.187z" id="HelveticaWorld-Regular-119"/></defs><g transform="matrix(.14 0 0 -.14 407.677 143.961)" fill="#bcbd22"><use xlink:href="#HelveticaWorld-Regular-104"/><use x="55.176" xlink:href="#HelveticaWorld-Regular-101"/><use x="107.721" xlink:href="#HelveticaWorld-Regular-120"/><use x="157.721" xlink:href="#HelveticaWorld-Regular-32"/><use x="182.135" xlink:href="#HelveticaWorld-Regular-119"/><use x="254.547" xlink:href="#HelveticaWorld-Regular-114"/><use x="286.115" xlink:href="#HelveticaWorld-Regular-101"/><use x="341.535" xlink:href="#HelveticaWorld-Regular-110"/><use x="396.711" xlink:href="#HelveticaWorld-Regular-99"/><use x="447.98" xlink:href="#HelveticaWorld-Regular-104"/></g></g><g id="text_24"><defs><path d="M17.828 0H8.11v71.781h9.72z" id="HelveticaWorld-Regular-73"/><path d="M25.39 63.188H1.22v8.593h58.297v-8.594H35.109V0h-9.718z" id="HelveticaWorld-Regular-84"/></defs><g transform="matrix(.14 0 0 -.14 407.677 200.067)" fill="#17becf"><use xlink:href="#HelveticaWorld-Regular-73"/><use x="25.781" xlink:href="#HelveticaWorld-Regular-99"/><use x="77.051" xlink:href="#HelveticaWorld-Regular-101"/><use x="132.471" xlink:href="#HelveticaWorld-Regular-32"/><use x="151.885" xlink:href="#HelveticaWorld-Regular-84"/><use x="200.377" xlink:href="#HelveticaWorld-Regular-111"/><use x="254.785" xlink:href="#HelveticaWorld-Regular-119"/><use x="325.697" xlink:href="#HelveticaWorld-Regular-101"/><use x="381.117" xlink:href="#HelveticaWorld-Regular-114"/><use x="413.686" xlink:href="#HelveticaWorld-Regular-32"/><use x="438.1" xlink:href="#HelveticaWorld-Regular-40"/><use x="471.4" xlink:href="#HelveticaWorld-Regular-102"/><use x="497.086" xlink:href="#HelveticaWorld-Regular-97"/><use x="552.018" xlink:href="#HelveticaWorld-Regular-110"/><use x="607.193" xlink:href="#HelveticaWorld-Regular-32"/><use x="631.607" xlink:href="#HelveticaWorld-Regular-111"/><use x="687.516" xlink:href="#HelveticaWorld-Regular-102"/><use x="715.201" xlink:href="#HelveticaWorld-Regular-102"/><use x="742.887" xlink:href="#HelveticaWorld-Regular-41"/></g></g><g transform="matrix(.14 0 0 -.14 407.677 261.316)" fill="#aec7e8" id="text_25"><use xlink:href="#HelveticaWorld-Regular-73"/><use x="25.781" xlink:href="#HelveticaWorld-Regular-99"/><use x="77.051" xlink:href="#HelveticaWorld-Regular-101"/><use x="132.471" xlink:href="#HelveticaWorld-Regular-32"/><use x="151.885" xlink:href="#HelveticaWorld-Regular-84"/><use x="200.377" xlink:href="#HelveticaWorld-Regular-111"/><use x="254.785" xlink:href="#HelveticaWorld-Regular-119"/><use x="325.697" xlink:href="#HelveticaWorld-Regular-101"/><use x="381.117" xlink:href="#HelveticaWorld-Regular-114"/><use x="413.686" xlink:href="#HelveticaWorld-Regular-32"/><use x="438.1" xlink:href="#HelveticaWorld-Regular-40"/><use x="471.4" xlink:href="#HelveticaWorld-Regular-102"/><use x="497.086" xlink:href="#HelveticaWorld-Regular-97"/><use x="552.018" xlink:href="#HelveticaWorld-Regular-110"/><use x="607.193" xlink:href="#HelveticaWorld-Regular-32"/><use x="631.607" xlink:href="#HelveticaWorld-Regular-111"/><use x="687.516" xlink:href="#HelveticaWorld-Regular-110"/><use x="742.691" xlink:href="#HelveticaWorld-Regular-41"/></g><g transform="matrix(.14 0 0 -.14 407.677 129.961)" fill="#ffbb78" id="text_26"><use xlink:href="#HelveticaWorld-Regular-110"/><use x="55.176" xlink:href="#HelveticaWorld-Regular-111"/><use x="111.084" xlink:href="#HelveticaWorld-Regular-32"/><use x="135.498" xlink:href="#HelveticaWorld-Regular-99"/><use x="186.768" xlink:href="#HelveticaWorld-Regular-97"/><use x="241.699" xlink:href="#HelveticaWorld-Regular-115"/><use x="291.699" xlink:href="#HelveticaWorld-Regular-101"/></g></g></g><defs><clipPath id="pbad36bae3e"><path d="M46.985 7.2h357.12v266.112H46.985z"/></clipPath></defs></svg>