<svg height="429.275" viewBox="0 0 553.422 321.956" width="737.895" xmlns="http://www.w3.org/2000/svg" xmlns:xlink="http://www.w3.org/1999/xlink"><defs><style>*{stroke-linecap:butt;stroke-linejoin:round}</style></defs><g id="figure_1"><path d="M0 321.956h553.422V0H0z" fill="none" id="patch_1"/><g id="axes_1"><path d="M37.103 284.4h372V7.2h-372z" fill="none" id="patch_2"/><path clip-path="url(#p8324959220)" d="M37.103 163.878l2.544-12.052 1.272 6.026h2.543l1.271 6.026 1.272-6.026 1.271 6.026 1.271-6.026h1.271l1.271 6.026h1.271l1.271-6.026h1.271l1.271 6.026 1.272-6.026 1.27 6.026 2.542-12.052 1.27 6.026h5.083l1.27 6.026 1.27-6.026 1.271 6.026h2.541l1.27-6.026 2.542 12.052 2.54-12.052h1.27l1.27 6.026h1.27l1.27-6.026 1.27 6.026h1.27l1.27-6.026 1.27 6.026h2.54l1.27-6.026 1.269 6.026h1.27l1.27-12.052 1.269 6.026h6.346l1.27 6.026 1.27-6.026 1.27 6.026h1.268l1.27-6.026h2.537l1.269 6.026 1.269-6.026 1.268 6.026 1.269-6.026h2.537l1.268 6.026h1.268l1.268-6.026h3.804l1.269-24.104 1.29-6.026 1.288-12.052 3.88-18.079 1.29 6.026 1.288-12.052 1.296-6.026h5.162l1.296-6.026h2.578l1.29-6.026h1.288l1.296-6.026h5.169l1.295-12.052 1.29 12.052 2.578-12.052h1.289l1.289 6.026h1.289l2.585-12.052 1.289 6.026 1.289-6.026 1.289 6.026 1.29-6.026h1.294l1.29-6.026 1.289 6.026h1.295l1.295-6.026 1.29 6.026 2.59-12.053 1.296 6.027h1.289l1.295-12.053 1.296 6.026h3.873l1.29 6.027 1.288-6.027h10.32l1.29-6.026h2.584l1.295-6.026 1.289 6.026h2.585l1.289 6.026 2.578-12.052h2.585l1.289 6.026 1.289-6.026h10.313l1.295-6.026 1.296 6.026 1.289-6.026h1.289l1.29 6.026 1.288-6.026 1.296 6.026 1.295-6.026 1.29 6.026 1.3-6.026h9.03l1.296-6.026 1.29 6.026 1.289-6.026 1.289 6.026 1.289-6.026h2.578l1.29 6.026h1.288L273.087 7.2l1.289 12.052L275.665 7.2l2.578 12.052h1.296l1.289-6.026h1.289l1.29 6.026L284.7 7.2l1.29 6.026h6.47l1.29-6.026 1.288 12.052L296.335 7.2h1.295l1.29 6.026 1.295-6.026 1.289 6.026h1.301l1.29-6.026h1.289l1.295 6.026h2.578l1.29-6.026h1.289l1.295 6.026 1.29-6.026h1.288L317 31.304l1.268 12.053 2.536 12.052 1.268 12.052h1.268l2.537 12.052h2.536l1.268 12.052h3.804l1.268 6.026h3.805l1.268 6.026 1.268-6.026 1.268 6.026h2.537l1.268 6.026 1.268-6.026 1.27 6.026h2.536l1.268 6.027 1.268-12.053 1.268 6.026h3.804l1.267 6.027h7.607l1.268 6.026 1.269-6.026h2.536l1.269 6.026h1.268l1.268 6.026 1.268-6.026h8.876l1.268 6.026h2.536l1.268-6.026 1.268 12.052 1.269-6.026h2.536l1.268 6.026h2.536l1.268-6.026 1.268 6.026h5.072" fill="none" stroke="#17becf" stroke-linecap="square" stroke-width="1.5" id="line2d_1"/><g id="matplotlib.axis_1"><g id="xtick_1"><g id="line2d_2"><defs><path d="M0 0v3.5" id="m667e51abee" stroke="#969696" stroke-width=".8"/></defs><use x="37.103" xlink:href="#m667e51abee" y="284.4" fill="#969696" stroke="#969696" stroke-width=".8"/></g><g id="text_1"><defs><path d="M31.781 66.406q-7.61 0-11.453-7.5Q16.5 51.422 16.5 36.375q0-14.984 3.828-22.484 3.844-7.5 11.453-7.5 7.672 0 11.5 7.5 3.844 7.5 3.844 22.484 0 15.047-3.844 22.531-3.828 7.5-11.5 7.5zm0 7.813q12.266 0 18.735-9.703 6.468-9.688 6.468-28.141 0-18.406-6.468-28.11-6.47-9.687-18.735-9.687-12.25 0-18.718 9.688-6.47 9.703-6.47 28.109 0 18.453 6.47 28.14Q19.53 74.22 31.78 74.22z" id="DejaVuSans-48"/></defs><use xlink:href="#DejaVuSans-48" transform="matrix(.1 0 0 -.1 33.922 298.998)" fill="#969696"/></g></g><g id="xtick_2"><use x="99.082" xlink:href="#m667e51abee" y="284.4" fill="#969696" stroke="#969696" stroke-width=".8" id="line2d_3"/><g id="text_2"><defs><path d="M12.406 8.297h16.11v55.625l-17.532-3.516v8.985l17.438 3.515h9.86V8.296H54.39V0H12.406z" id="DejaVuSans-49"/></defs><g transform="matrix(.1 0 0 -.1 89.538 298.998)" fill="#969696"><use xlink:href="#DejaVuSans-49"/><use x="63.623" xlink:href="#DejaVuSans-48"/><use x="127.246" xlink:href="#DejaVuSans-48"/></g></g></g><g id="xtick_3"><use x="161.06" xlink:href="#m667e51abee" y="284.4" fill="#969696" stroke="#969696" stroke-width=".8" id="line2d_4"/><g id="text_3"><defs><path d="M19.188 8.297h34.421V0H7.33v8.297q5.609 5.812 15.296 15.594 9.703 9.797 12.188 12.64 4.734 5.313 6.609 9 1.89 3.688 1.89 7.25 0 5.813-4.078 9.469-4.078 3.672-10.625 3.672-4.64 0-9.797-1.61-5.14-1.609-11-4.89v9.969Q13.767 71.78 18.938 73q5.188 1.219 9.485 1.219 11.328 0 18.062-5.672 6.735-5.656 6.735-15.125 0-4.5-1.688-8.531-1.672-4.016-6.125-9.485-1.218-1.422-7.765-8.187-6.532-6.766-18.453-18.922z" id="DejaVuSans-50"/></defs><g transform="matrix(.1 0 0 -.1 151.516 298.998)" fill="#969696"><use xlink:href="#DejaVuSans-50"/><use x="63.623" xlink:href="#DejaVuSans-48"/><use x="127.246" xlink:href="#DejaVuSans-48"/></g></g></g><g id="xtick_4"><use x="223.038" xlink:href="#m667e51abee" y="284.4" fill="#969696" stroke="#969696" stroke-width=".8" id="line2d_5"/><g id="text_4"><defs><path d="M40.578 39.313Q47.656 37.797 51.625 33q3.984-4.781 3.984-11.813 0-10.78-7.422-16.703-7.421-5.906-21.093-5.906-4.578 0-9.438.906-4.86.907-10.031 2.72v9.515q4.094-2.39 8.969-3.61 4.89-1.218 10.218-1.218 9.266 0 14.125 3.656 4.86 3.656 4.86 10.64 0 6.454-4.516 10.079-4.515 3.64-12.562 3.64h-8.5v8.11h8.89q7.266 0 11.125 2.906 3.86 2.906 3.86 8.375 0 5.61-3.985 8.61-3.968 3.015-11.39 3.015-4.063 0-8.703-.89-4.641-.876-10.203-2.72v8.782q5.624 1.562 10.53 2.344 4.907.78 9.25.78 11.235 0 17.766-5.109 6.547-5.093 6.547-13.78 0-6.063-3.468-10.235-3.47-4.172-9.86-5.782z" id="DejaVuSans-51"/></defs><g transform="matrix(.1 0 0 -.1 213.495 298.998)" fill="#969696"><use xlink:href="#DejaVuSans-51"/><use x="63.623" xlink:href="#DejaVuSans-48"/><use x="127.246" xlink:href="#DejaVuSans-48"/></g></g></g><g id="xtick_5"><use x="285.017" xlink:href="#m667e51abee" y="284.4" fill="#969696" stroke="#969696" stroke-width=".8" id="line2d_6"/><g id="text_5"><defs><path d="M37.797 64.313L12.89 25.39h24.906zm-2.594 8.593H47.61V25.391h10.407v-8.203H47.609V0h-9.812v17.188H4.89v9.515z" id="DejaVuSans-52"/></defs><g transform="matrix(.1 0 0 -.1 275.473 298.998)" fill="#969696"><use xlink:href="#DejaVuSans-52"/><use x="63.623" xlink:href="#DejaVuSans-48"/><use x="127.246" xlink:href="#DejaVuSans-48"/></g></g></g><g id="xtick_6"><use x="346.995" xlink:href="#m667e51abee" y="284.4" fill="#969696" stroke="#969696" stroke-width=".8" id="line2d_7"/><g id="text_6"><defs><path d="M10.797 72.906h38.719v-8.312H19.828v-17.86q2.14.735 4.281 1.094 2.157.36 4.313.36 12.203 0 19.328-6.688 7.14-6.688 7.14-18.11 0-11.765-7.328-18.296-7.328-6.516-20.656-6.516-4.593 0-9.36.781-4.75.782-9.827 2.344v9.922q4.39-2.39 9.078-3.563 4.687-1.171 9.906-1.171 8.453 0 13.375 4.437 4.938 4.438 4.938 12.063 0 7.609-4.938 12.047-4.922 4.453-13.375 4.453-3.953 0-7.89-.875-3.922-.875-8.016-2.735z" id="DejaVuSans-53"/></defs><g transform="matrix(.1 0 0 -.1 337.451 298.998)" fill="#969696"><use xlink:href="#DejaVuSans-53"/><use x="63.623" xlink:href="#DejaVuSans-48"/><use x="127.246" xlink:href="#DejaVuSans-48"/></g></g></g><g id="xtick_7"><use x="408.973" xlink:href="#m667e51abee" y="284.4" fill="#969696" stroke="#969696" stroke-width=".8" id="line2d_8"/><g id="text_7"><defs><path d="M33.016 40.375q-6.641 0-10.532-4.547-3.875-4.531-3.875-12.437 0-7.86 3.875-12.438 3.891-4.562 10.532-4.562 6.64 0 10.515 4.562 3.875 4.578 3.875 12.438 0 7.906-3.875 12.437-3.875 4.547-10.515 4.547zm19.578 30.922v-8.984q-3.719 1.75-7.5 2.671-3.782.938-7.5.938-9.766 0-14.922-6.594-5.14-6.594-5.875-19.922 2.875 4.25 7.219 6.516 4.359 2.266 9.578 2.266 10.984 0 17.36-6.672 6.374-6.657 6.374-18.125 0-11.235-6.64-18.032-6.641-6.78-17.672-6.78-12.657 0-19.344 9.687-6.688 9.703-6.688 28.109 0 17.281 8.204 27.563 8.203 10.28 22.015 10.28 3.719 0 7.5-.734t7.89-2.187z" id="DejaVuSans-54"/></defs><g transform="matrix(.1 0 0 -.1 399.43 298.998)" fill="#969696"><use xlink:href="#DejaVuSans-54"/><use x="63.623" xlink:href="#DejaVuSans-48"/><use x="127.246" xlink:href="#DejaVuSans-48"/></g></g></g><g id="text_8"><defs><path d="M18.313 70.219V54.688h18.5v-6.985h-18.5V18.016q0-6.688 1.828-8.594 1.828-1.906 7.453-1.906h9.218V0h-9.218q-10.407 0-14.36 3.875-3.953 3.89-3.953 14.14v29.688H2.687v6.984h6.594V70.22z" id="DejaVuSans-116"/><path d="M9.422 54.688h8.984V0H9.422zm0 21.296h8.984v-11.39H9.422z" id="DejaVuSans-105"/><path d="M52 44.188q3.375 6.062 8.063 8.937Q64.75 56 71.093 56q8.548 0 13.188-5.984 4.64-5.97 4.64-17V0h-9.03v32.719q0 7.86-2.797 11.656-2.781 3.813-8.485 3.813-6.984 0-11.046-4.641-4.047-4.625-4.047-12.64V0h-9.032v32.719q0 7.906-2.78 11.687-2.782 3.782-8.595 3.782-6.89 0-10.953-4.657-4.047-4.656-4.047-12.625V0H9.08v54.688h9.03v-8.5q3.078 5.03 7.375 7.421Q29.781 56 35.687 56q5.97 0 10.141-3.031Q50 49.953 52 44.187z" id="DejaVuSans-109"/><path d="M56.203 29.594v-4.39H14.891q.593-9.282 5.593-14.142 5-4.859 13.938-4.859 5.172 0 10.031 1.266 4.86 1.265 9.656 3.812v-8.5Q49.266.734 44.187-.344 39.11-1.422 33.892-1.422q-13.094 0-20.735 7.61-7.64 7.625-7.64 20.625 0 13.421 7.25 21.296Q20.016 56 32.328 56q11.031 0 17.453-7.11 6.422-7.093 6.422-19.296zm-8.984 2.64q-.094 7.36-4.125 11.75-4.032 4.407-10.672 4.407-7.516 0-12.031-4.25-4.516-4.25-5.203-11.97z" id="DejaVuSans-101"/><path d="M8.594 75.984h20.703V69H17.578V-6.203h11.719v-6.984H8.594z" id="DejaVuSans-91"/><path d="M44.281 53.078v-8.5q-3.797 1.953-7.906 2.922-4.094.984-8.5.984-6.688 0-10.031-2.047-3.344-2.046-3.344-6.156 0-3.125 2.39-4.906 2.391-1.781 9.626-3.39l3.078-.688q9.562-2.047 13.593-5.781 4.032-3.735 4.032-10.422 0-7.625-6.032-12.078-6.03-4.438-16.578-4.438-4.39 0-9.156.86Q10.688.296 5.422 2v9.281q4.984-2.594 9.812-3.89 4.829-1.282 9.579-1.282 6.343 0 9.75 2.172 3.421 2.172 3.421 6.125 0 3.656-2.468 5.61-2.453 1.953-10.813 3.765l-3.125.735q-8.344 1.75-12.062 5.39-3.704 3.64-3.704 9.985 0 7.718 5.47 11.906Q16.75 56 26.811 56q4.97 0 9.36-.734 4.406-.72 8.11-2.188z" id="DejaVuSans-115"/><path d="M30.422 75.984v-89.171H9.719v6.984H21.39V69H9.719v6.984z" id="DejaVuSans-93"/></defs><g transform="matrix(.1 0 0 -.1 203.712 312.677)" fill="#969696"><use xlink:href="#DejaVuSans-116"/><use x="39.209" xlink:href="#DejaVuSans-105"/><use x="66.992" xlink:href="#DejaVuSans-109"/><use x="164.404" xlink:href="#DejaVuSans-101"/><use x="225.928" xlink:href="#DejaVuSans-32"/><use x="257.715" xlink:href="#DejaVuSans-91"/><use x="296.729" xlink:href="#DejaVuSans-115"/><use x="348.828" xlink:href="#DejaVuSans-93"/></g></g></g><g id="matplotlib.axis_2"><g id="ytick_1"><path clip-path="url(#p8324959220)" d="M37.103 260.296h372" fill="none" stroke="#969696" stroke-dasharray="5,5" stroke-width=".5" id="line2d_9"/><g transform="matrix(.1 0 0 -.1 20.878 264.095)" fill="#969696" id="text_9"><use xlink:href="#DejaVuSans-51"/><use x="63.623" xlink:href="#DejaVuSans-48"/></g></g><g id="ytick_2"><path clip-path="url(#p8324959220)" d="M37.103 200.035h372" fill="none" stroke="#969696" stroke-dasharray="5,5" stroke-width=".5" id="line2d_11"/><g transform="matrix(.1 0 0 -.1 20.878 203.834)" fill="#969696" id="text_10"><use xlink:href="#DejaVuSans-52"/><use x="63.623" xlink:href="#DejaVuSans-48"/></g></g><g id="ytick_3"><path clip-path="url(#p8324959220)" d="M37.103 139.774h372" fill="none" stroke="#969696" stroke-dasharray="5,5" stroke-width=".5" id="line2d_13"/><g transform="matrix(.1 0 0 -.1 20.878 143.573)" fill="#969696" id="text_11"><use xlink:href="#DejaVuSans-53"/><use x="63.623" xlink:href="#DejaVuSans-48"/></g></g><g id="ytick_4"><path clip-path="url(#p8324959220)" d="M37.103 79.513h372" fill="none" stroke="#969696" stroke-dasharray="5,5" stroke-width=".5" id="line2d_15"/><g transform="matrix(.1 0 0 -.1 20.878 83.312)" fill="#969696" id="text_12"><use xlink:href="#DejaVuSans-54"/><use x="63.623" xlink:href="#DejaVuSans-48"/></g></g><g id="ytick_5"><path clip-path="url(#p8324959220)" d="M37.103 19.252h372" fill="none" stroke="#969696" stroke-dasharray="5,5" stroke-width=".5" id="line2d_17"/><g id="text_13"><defs><path d="M8.203 72.906h46.875v-4.203L28.61 0H18.312L43.22 64.594H8.203z" id="DejaVuSans-55"/></defs><g transform="matrix(.1 0 0 -.1 20.878 23.051)" fill="#969696"><use xlink:href="#DejaVuSans-55"/><use x="63.623" xlink:href="#DejaVuSans-48"/></g></g></g><g id="text_14"><defs><path d="M18.11 8.203v-29H9.077v75.484h9.031v-8.296q2.844 4.875 7.157 7.234Q29.594 56 35.594 56q9.968 0 16.187-7.906 6.235-7.907 6.235-20.797T51.78 6.484q-6.218-7.906-16.187-7.906-6 0-10.328 2.375-4.313 2.375-7.157 7.25zm30.578 19.094q0 9.906-4.079 15.547-4.078 5.64-11.203 5.64-7.14 0-11.218-5.64-4.079-5.64-4.079-15.547 0-9.906 4.078-15.547 4.079-5.64 11.22-5.64 7.124 0 11.202 5.64t4.078 15.547z" id="DejaVuSans-112"/><path d="M41.11 46.297q-1.516.875-3.297 1.281Q36.03 48 33.89 48q-7.625 0-11.703-4.953-4.079-4.953-4.079-14.234V0H9.08v54.688h9.03v-8.5q2.844 4.984 7.375 7.39Q30.031 56 36.531 56q.922 0 2.047-.125 1.125-.11 2.484-.36z" id="DejaVuSans-114"/><path d="M34.281 27.484q-10.89 0-15.093-2.484-4.204-2.484-4.204-8.5 0-4.781 3.157-7.594 3.156-2.797 8.562-2.797 7.485 0 12 5.297 4.516 5.297 4.516 14.078v2zm17.922 3.72V0H43.22v8.297Q40.14 3.328 35.547.953q-4.594-2.375-11.234-2.375-8.391 0-13.36 4.719Q6 8.016 6 15.922q0 9.219 6.172 13.906 6.187 4.688 18.437 4.688h12.61v.89q0 6.203-4.078 9.594-4.078 3.39-11.453 3.39-4.688 0-9.141-1.124-4.438-1.125-8.531-3.375v8.312q4.921 1.906 9.562 2.844 4.64.953 9.031.953 11.875 0 17.735-6.156 5.86-6.14 5.86-18.64z" id="DejaVuSans-97"/><path d="M8.5 21.578v33.11h8.984V21.922q0-7.766 3.016-11.656 3.031-3.875 9.094-3.875 7.265 0 11.484 4.64 4.234 4.64 4.234 12.656v31h8.985V0h-8.984v8.406Q42.047 3.422 37.718 1q-4.313-2.422-10.032-2.422-9.421 0-14.312 5.86Q8.5 10.296 8.5 21.578zM31.11 56z" id="DejaVuSans-117"/><path d="M25 67.922q-3.906 0-6.594-2.719-2.687-2.703-2.687-6.61 0-3.859 2.687-6.515 2.688-2.656 6.594-2.656t6.594 2.656q2.687 2.656 2.687 6.516t-2.718 6.593Q28.858 67.922 25 67.922zm0 6.297q3.125 0 6-1.203 2.89-1.188 4.984-3.438 2.25-2.187 3.375-4.984 1.125-2.781 1.125-6 0-6.438-4.515-10.907-4.516-4.468-11.063-4.468-6.593 0-11 4.39Q9.516 52 9.516 58.594q0 6.547 4.484 11.078 4.5 4.547 11 4.547z" id="DejaVuSans-176"/><path d="M64.406 67.281v-10.39q-4.984 4.64-10.625 6.922-5.64 2.296-11.984 2.296-12.5 0-19.14-7.64-6.641-7.64-6.641-22.094 0-14.406 6.64-22.047 6.64-7.64 19.14-7.64 6.345 0 11.985 2.296 5.64 2.297 10.625 6.938V5.609Q59.234 2.094 53.437.33q-5.78-1.75-12.218-1.75-16.563 0-26.094 10.124-9.516 10.14-9.516 27.672 0 17.578 9.516 27.703 9.531 10.14 26.094 10.14 6.531 0 12.312-1.734 5.797-1.734 10.875-5.203z" id="DejaVuSans-67"/></defs><g transform="matrix(0 -.1 -.1 0 14.798 188.708)" fill="#969696"><use xlink:href="#DejaVuSans-116"/><use x="39.209" xlink:href="#DejaVuSans-101"/><use x="100.732" xlink:href="#DejaVuSans-109"/><use x="198.145" xlink:href="#DejaVuSans-112"/><use x="261.621" xlink:href="#DejaVuSans-101"/><use x="323.145" xlink:href="#DejaVuSans-114"/><use x="364.258" xlink:href="#DejaVuSans-97"/><use x="425.537" xlink:href="#DejaVuSans-116"/><use x="464.746" xlink:href="#DejaVuSans-117"/><use x="528.125" xlink:href="#DejaVuSans-114"/><use x="566.988" xlink:href="#DejaVuSans-101"/><use x="628.512" xlink:href="#DejaVuSans-32"/><use x="660.299" xlink:href="#DejaVuSans-91"/><use x="699.313" xlink:href="#DejaVuSans-176"/><use x="749.313" xlink:href="#DejaVuSans-67"/><use x="819.137" xlink:href="#DejaVuSans-93"/></g></g></g><path clip-path="url(#p8324959220)" d="M37.103 171.17l1.24 5.87h1.24l1.24 2.934h1.24l1.24-2.935h3.72l1.24 2.935h1.24l1.24-5.87 1.24 5.87h1.24l1.24-2.935 1.24 2.935 1.24-8.804 1.241 2.935h2.48l1.24 2.934 1.24-2.934h1.24l1.24 5.869h1.24l1.24-5.87 1.24 5.87h1.24l2.48-5.87 1.24 5.87 2.48-5.87 1.24 2.935 1.24 5.87 1.241-2.935 1.24-5.87 2.48 5.87h3.72l1.24-5.87 1.24 2.935 1.24 5.87 1.24-2.935h2.48l1.24 2.935 1.24-2.935 1.24 5.87 1.24-8.805 1.24 8.804h2.481l1.24-2.934h2.48l1.24 2.934 1.24-8.804h1.24l1.24 5.87 1.24 2.934 1.24-5.87 1.24 2.936h1.24l1.24 2.934h1.24l1.24-8.804 1.24 8.804 1.24-5.87 2.481 5.87 1.24 5.87 2.486-5.87 1.24-20.543 1.24-11.738h1.24l2.48-11.74 1.24-2.934h1.24l1.24 2.935h1.24l1.24-5.87 1.24 2.935 1.239-5.87 1.24 11.74 1.24-8.805 1.24 2.935 2.48-5.87h1.239l1.24 2.935 1.24-5.869h2.48l1.24 2.935h2.479l1.24-5.87h4.96l1.239 5.87 1.24-5.87 1.24-2.934 1.24 8.804 1.24-8.804 1.24 5.869 1.239-5.87 1.24 8.805 1.24-2.935h1.24l1.24 2.935 3.719-8.804 1.24 5.869 2.48-5.87h2.48l1.239 2.935h1.24l1.24-5.87 1.24 5.87h2.48l1.239-2.934h2.48l1.24-5.87 2.48 11.739 1.24-8.804 1.239-5.87 1.24 5.87 1.24 2.935 2.48-5.87 1.24 2.935 1.24-2.935 2.479 5.87h1.24l1.24-2.935h7.438l1.24-2.935 1.24-5.87 1.24 5.87 1.24 2.935 1.24 5.87 1.24-5.87h1.24l1.24-5.87 1.239 2.935 1.24-2.935h4.96l1.239 2.935 1.24-2.935 1.24 2.935h1.24l1.24-2.935h1.24l1.239 2.935 1.24-2.935 1.24 5.87 1.24 2.935 1.24-5.87h1.24l1.239-2.935 1.24 5.87 1.24-2.935 1.24 2.935 1.24-5.87 1.24 5.87 1.239-2.935h1.24l1.24-5.87 1.24 8.805 1.24-2.935 1.24 2.935 1.239-5.87 1.24-2.934 1.24 5.87 1.24-5.87 1.24 5.87h1.24l1.239-5.87 1.24 2.934 1.24-2.934h1.24l1.24 8.804 1.24-2.935 1.239-11.739 1.24 11.74h1.24l1.24-2.936 1.24 5.87 1.239-2.935h2.48l1.24-5.87 1.24-2.934h1.24l1.239 2.935h2.48l1.24 8.804 1.24-5.87 1.24-2.934 1.239 2.934 1.24-2.934 1.24 5.87 1.24 2.934 1.24 20.543 1.24 5.87 1.24 2.934 1.24 5.87h2.48l1.24 2.934h3.72l1.24 2.935h1.24l1.24 2.934h1.24l1.24 2.935 1.24-5.87 1.24 8.805 1.24-5.87 1.24-2.934 1.24 5.87 1.24 2.934 1.24-2.935 1.24 2.935 1.24-5.87 2.48 5.87h1.24l1.24 2.935 1.241 5.869 1.24-11.739 1.24-2.935 1.24 8.805h1.24l1.24 2.934 1.24-5.87h2.48l1.24 2.936h1.24l1.24-2.935 1.24 2.935h3.721l1.24 5.869 1.24-5.87 1.24 2.935 1.24-5.87 1.24 2.936h1.24l1.24-2.935h1.24l1.24 2.935h1.24l1.24-2.935h1.24l1.24 5.87 1.24-2.935 1.241 2.934 1.24-2.934h1.24l2.48 5.869 2.48-5.87 1.24 5.87 1.24-2.935 1.24 5.87 1.24-5.87h3.72l1.24 5.87 1.24-2.935h0" fill="none" stroke="#bcbd22" stroke-linecap="square" stroke-width="1.5" id="line2d_19"/><path clip-path="url(#p8324959220)" d="M37.103 272.348h5.06l1.266-6.026 1.264 12.052 2.53-12.052 1.266 6.026 1.265-6.026h1.265l1.265 12.052h1.265l2.531-12.052 2.53 12.052 1.266-6.026 1.265 6.026 2.531-12.052 1.265 12.052 1.265-6.026h1.265l1.266 6.026 1.265-6.026h1.265l1.265 6.026 1.265-12.052 1.266 6.026h1.265l1.265 6.026 1.265-6.026h3.795l1.266 12.052 1.265-12.052h1.265l1.266-6.026 1.265 6.026h2.53l1.265 6.026 1.265-6.026h1.266l1.265-6.026 2.53 12.052h2.531l1.265-6.026 1.266 6.026 1.265-6.026 1.266 6.026 1.265-6.026h2.53l1.265-6.026 1.266 6.026h2.53l1.266 6.026h1.264l1.265-12.052 1.266 6.026h7.591l1.265-6.026 1.266-12.052 1.287-6.027 1.29-12.052 1.282 6.026h2.572l2.566-12.052 2.566 12.052 2.572-12.052 1.283 6.026h1.29l1.282-6.026h1.283l1.283 6.026 1.29-6.026 1.282 6.026 1.283-6.026h5.132l1.283 6.026 1.283-6.026h14.137l1.29 6.026 1.276-6.026h6.427l1.283-6.026 1.283 6.026 1.283-6.026h2.566l1.283 6.026h3.855l1.283-6.026 1.29 6.026h2.565l1.283-6.026h2.566l1.29 6.026h1.282l1.29-6.026h1.282l1.283 6.026h2.572l1.29-6.026h1.282l1.283 6.026 1.283-6.026h1.277l1.283 6.026h6.42l1.284-6.026 1.29 6.026h3.848l1.283-6.026 1.283 6.026h1.289l1.283-6.026h1.283l1.283 6.026 1.283-6.026h2.566l1.283 6.026 1.289-6.026h3.855l1.283 6.026 1.289-6.026h5.157l1.289 6.026 2.565-12.052 1.283 12.052 1.283-6.026 1.283 6.026 1.29-12.052 1.283 6.026h6.427l1.289 6.026 1.283-12.052 1.283 12.052 1.283-6.026h3.848l1.283 6.026 1.283-12.052 1.283 6.026h7.71l1.283-6.026h1.283l2.573 12.052 2.572-12.052 1.283 6.026h3.848l1.29-6.026 1.289 6.026h1.283l1.283 18.078 2.53 12.053 1.266-6.027 1.265 6.027h1.265l1.265 6.026h1.265l1.265 6.026 1.266-6.026 1.264-12.053 1.266 18.079 1.265-6.026h7.592l1.265 6.026 1.266-6.026h1.265l1.265 6.026h1.266l1.265-6.026 1.268 6.026 1.265-6.026 1.265 6.026h2.53l1.266 6.026 1.265-6.026h1.265l1.266 6.026h1.265l1.265-12.052 1.265 6.026 1.265-6.026 1.266 6.026h2.531l1.266-6.026 1.265 12.052h2.531l1.265-6.026h5.06l1.266 6.026 1.266-6.026 1.265 12.052 1.265-12.052h1.266l1.265 6.026 1.265-6.026h2.531l1.265 6.026 1.266-6.026 2.53 12.052 1.264-12.052h1.265l1.265 6.026 1.266-6.026h1.265l1.264 6.026 1.266-6.026h1.266l1.265 6.026h1.265" fill="none" stroke="#7f7f7f" stroke-linecap="square" stroke-width="1.5" id="line2d_20"/><g id="text_15"><defs><path d="M34.188 63.188L20.797 26.906h26.812zm-5.579 9.718h11.188L67.578 0h-10.25l-6.64 18.703h-32.86L11.188 0H.78z" id="DejaVuSans-65"/><path d="M45.406 27.984q0 9.766-4.031 15.125-4.016 5.375-11.297 5.375-7.219 0-11.25-5.375-4.031-5.359-4.031-15.125 0-9.718 4.031-15.093t11.25-5.375q7.281 0 11.297 5.375 4.031 5.375 4.031 15.093zm8.985-21.203q0-13.953-6.203-20.765Q42-20.797 29.203-20.797q-4.734 0-8.937.703-4.203.703-8.157 2.172v8.735q3.954-2.141 7.813-3.157 3.86-1.031 7.86-1.031 8.843 0 13.234 4.61 4.39 4.609 4.39 13.937v4.453q-2.781-4.844-7.125-7.234Q33.938 0 27.875 0 17.828 0 11.672 7.656q-6.156 7.672-6.156 20.328 0 12.688 6.156 20.344Q17.828 56 27.875 56q6.063 0 10.406-2.39 4.344-2.391 7.125-7.22v8.297h8.985z" id="DejaVuSans-103"/><path d="M30.61 48.39q-7.22 0-11.422-5.64-4.204-5.64-4.204-15.453 0-9.813 4.172-15.453 4.188-5.64 11.453-5.64 7.188 0 11.375 5.655 4.203 5.672 4.203 15.438 0 9.719-4.203 15.406-4.187 5.688-11.375 5.688zm0 7.61q11.718 0 18.406-7.625 6.703-7.61 6.703-21.078 0-13.422-6.703-21.078-6.688-7.64-18.407-7.64-11.765 0-18.437 7.64-6.656 7.656-6.656 21.078 0 13.469 6.656 21.078Q18.844 56 30.609 56z" id="DejaVuSans-111"/><path d="M54.89 33.016V0h-8.984v32.719q0 7.765-3.031 11.61-3.031 3.858-9.078 3.858-7.281 0-11.484-4.64-4.204-4.625-4.204-12.64V0H9.08v54.688h9.03v-8.5q3.235 4.937 7.594 7.374Q30.078 56 35.797 56q9.422 0 14.25-5.828 4.844-5.828 4.844-17.156z" id="DejaVuSans-110"/><path d="M39.406 66.219q-10.75 0-17.078-8.016-6.312-8-6.312-21.828 0-13.766 6.312-21.781 6.328-8 17.078-8 10.735 0 17.016 8 6.281 8.015 6.281 21.781 0 13.828-6.281 21.828-6.281 8.016-17.016 8.016zm0 8q15.328 0 24.5-10.281 9.188-10.282 9.188-27.563 0-17.234-9.188-27.516-9.172-10.28-24.5-10.28-15.375 0-24.593 10.25-9.204 10.265-9.204 27.546t9.204 27.563q9.218 10.28 24.593 10.28z" id="DejaVuSans-79"/><path d="M48.781 52.594v-8.407q-3.812 2.11-7.64 3.157-3.828 1.047-7.735 1.047-8.75 0-13.593-5.547-4.829-5.532-4.829-15.547 0-10.016 4.829-15.563 4.843-5.53 13.593-5.53 3.907 0 7.735 1.046 3.828 1.047 7.64 3.156V2.094Q45.016.344 40.984-.531q-4.015-.89-8.562-.89-12.36 0-19.64 7.765-7.266 7.765-7.266 20.953 0 13.375 7.343 21.031Q20.22 56 33.016 56q4.14 0 8.093-.86 3.953-.843 7.672-2.546z" id="DejaVuSans-99"/><path d="M11.719 12.406h10.297V4l-8-15.625H7.719l4 15.625z" id="DejaVuSans-44"/><path d="M37.11 75.984V68.5h-8.594q-4.828 0-6.72-1.953-1.874-1.953-1.874-7.031v-4.828h14.797v-6.985H19.922V0H10.89v47.703H2.297v6.984h8.594V58.5q0 9.125 4.25 13.297 4.25 4.187 13.468 4.187z" id="DejaVuSans-102"/><path d="M72.703 32.078q-4.25 0-6.672-3.61-2.406-3.609-2.406-10.062 0-6.343 2.406-9.984 2.422-3.64 6.672-3.64 4.156 0 6.563 3.64 2.421 3.64 2.421 9.984 0 6.407-2.421 10.032-2.407 3.64-6.563 3.64zm0 6.203q7.719 0 12.25-5.375 4.547-5.36 4.547-14.5 0-9.125-4.563-14.484-4.562-5.344-12.234-5.344-7.812 0-12.36 5.344-4.53 5.36-4.53 14.484 0 9.188 4.562 14.532 4.563 5.343 12.328 5.343zm-50.39 29.735q-4.204 0-6.625-3.641-2.407-3.625-2.407-9.984 0-6.438 2.39-10.063 2.392-3.61 6.642-3.61t6.656 3.61q2.422 3.625 2.422 10.063 0 6.297-2.438 9.953-2.437 3.672-6.64 3.672zm44.093 6.203h7.813l-45.61-75.64h-7.812zm-44.094 0q7.72 0 12.297-5.344 4.594-5.344 4.594-14.484 0-9.22-4.562-14.547-4.563-5.328-12.328-5.328-7.766 0-12.282 5.343-4.515 5.36-4.515 14.532 0 9.093 4.53 14.453 4.548 5.375 12.267 5.375z" id="DejaVuSans-37"/></defs><g transform="matrix(.1 0 0 -.1 412.823 208.57)" fill="#1f77b4"><use xlink:href="#DejaVuSans-65"/><use x="68.408" xlink:href="#DejaVuSans-114"/><use x="107.771" xlink:href="#DejaVuSans-103"/><use x="171.248" xlink:href="#DejaVuSans-111"/><use x="232.43" xlink:href="#DejaVuSans-110"/><use x="295.809" xlink:href="#DejaVuSans-32"/><use x="327.596" xlink:href="#DejaVuSans-79"/><use x="406.307" xlink:href="#DejaVuSans-110"/><use x="469.686" xlink:href="#DejaVuSans-101"/><use x="531.209" xlink:href="#DejaVuSans-32"/><use x="562.996" xlink:href="#DejaVuSans-99"/><use x="617.977" xlink:href="#DejaVuSans-97"/><use x="679.256" xlink:href="#DejaVuSans-115"/><use x="731.355" xlink:href="#DejaVuSans-101"/><use x="792.879" xlink:href="#DejaVuSans-44"/><use x="824.666" xlink:href="#DejaVuSans-32"/><use x="856.453" xlink:href="#DejaVuSans-102"/><use x="891.658" xlink:href="#DejaVuSans-97"/><use x="952.938" xlink:href="#DejaVuSans-110"/><use x="1016.316" xlink:href="#DejaVuSans-32"/><use x="1048.104" xlink:href="#DejaVuSans-49"/><use x="1111.727" xlink:href="#DejaVuSans-48"/><use x="1175.35" xlink:href="#DejaVuSans-48"/><use x="1238.973" xlink:href="#DejaVuSans-37"/></g></g><g id="text_16"><defs><path d="M9.422 75.984h8.984V0H9.422z" id="DejaVuSans-108"/><path d="M19.672 64.797v-27.39h12.406q6.89 0 10.64 3.562 3.766 3.562 3.766 10.156 0 6.547-3.765 10.11-3.75 3.562-10.64 3.562zm-9.86 8.11h22.266q12.266 0 18.531-5.548 6.282-5.546 6.282-16.234 0-10.797-6.282-16.313-6.265-5.515-18.53-5.515H19.671V0h-9.86z" id="DejaVuSans-80"/><path d="M31 75.875q-6.531-11.219-9.719-22.219-3.172-10.984-3.172-22.265 0-11.266 3.203-22.328Q24.517-2 31-13.188h-7.813Q15.875-1.704 12.235 9.375q-3.64 11.078-3.64 22.016 0 10.89 3.61 21.922 3.624 11.046 10.983 22.562z" id="DejaVuSans-40"/><path d="M8.016 75.875h7.812q7.313-11.516 10.953-22.563 3.64-11.03 3.64-21.921 0-10.938-3.64-22.016-3.64-11.078-10.953-22.563H8.016Q14.5-2 17.703 9.063q3.203 11.063 3.203 22.329 0 11.28-3.203 22.265-3.203 11-9.687 22.219z" id="DejaVuSans-41"/></defs><g transform="matrix(.1 0 0 -.1 412.823 220.872)" fill="#ff7f0e"><use xlink:href="#DejaVuSans-67"/><use x="69.824" xlink:href="#DejaVuSans-111"/><use x="131.006" xlink:href="#DejaVuSans-111"/><use x="192.188" xlink:href="#DejaVuSans-108"/><use x="219.971" xlink:href="#DejaVuSans-105"/><use x="247.754" xlink:href="#DejaVuSans-80"/><use x="305.807" xlink:href="#DejaVuSans-105"/><use x="333.59" xlink:href="#DejaVuSans-32"/><use x="365.377" xlink:href="#DejaVuSans-40"/><use x="404.391" xlink:href="#DejaVuSans-102"/><use x="439.596" xlink:href="#DejaVuSans-97"/><use x="500.875" xlink:href="#DejaVuSans-110"/><use x="564.254" xlink:href="#DejaVuSans-32"/><use x="596.041" xlink:href="#DejaVuSans-111"/><use x="657.223" xlink:href="#DejaVuSans-102"/><use x="692.428" xlink:href="#DejaVuSans-102"/><use x="727.633" xlink:href="#DejaVuSans-41"/></g></g><g transform="matrix(.1 0 0 -.1 412.823 283.895)" fill="#2ca02c" id="text_17"><use xlink:href="#DejaVuSans-67"/><use x="69.824" xlink:href="#DejaVuSans-111"/><use x="131.006" xlink:href="#DejaVuSans-111"/><use x="192.188" xlink:href="#DejaVuSans-108"/><use x="219.971" xlink:href="#DejaVuSans-105"/><use x="247.754" xlink:href="#DejaVuSans-80"/><use x="305.807" xlink:href="#DejaVuSans-105"/><use x="333.59" xlink:href="#DejaVuSans-32"/><use x="365.377" xlink:href="#DejaVuSans-40"/><use x="404.391" xlink:href="#DejaVuSans-102"/><use x="439.596" xlink:href="#DejaVuSans-97"/><use x="500.875" xlink:href="#DejaVuSans-110"/><use x="564.254" xlink:href="#DejaVuSans-32"/><use x="596.041" xlink:href="#DejaVuSans-111"/><use x="657.223" xlink:href="#DejaVuSans-110"/><use x="720.602" xlink:href="#DejaVuSans-41"/></g><g id="text_18"><defs><path d="M32.172-5.078q-3.797-9.766-7.422-12.735-3.61-2.984-9.656-2.984H7.906v7.516h5.282q3.703 0 5.75 1.765Q21-9.766 23.483-3.219l1.61 4.094-22.11 53.813H12.5l17.094-42.766 17.093 42.766h9.516z" id="DejaVuSans-121"/></defs><g transform="matrix(.1 0 0 -.1 412.823 109.366)" fill="#d62728"><use xlink:href="#DejaVuSans-102"/><use x="35.205" xlink:href="#DejaVuSans-108"/><use x="62.988" xlink:href="#DejaVuSans-121"/><use x="122.168" xlink:href="#DejaVuSans-105"/><use x="149.951" xlink:href="#DejaVuSans-110"/><use x="213.33" xlink:href="#DejaVuSans-103"/><use x="276.807" xlink:href="#DejaVuSans-102"/><use x="312.012" xlink:href="#DejaVuSans-101"/><use x="373.535" xlink:href="#DejaVuSans-114"/><use x="412.898" xlink:href="#DejaVuSans-114"/><use x="451.762" xlink:href="#DejaVuSans-101"/><use x="513.285" xlink:href="#DejaVuSans-116"/><use x="552.494" xlink:href="#DejaVuSans-32"/><use x="584.281" xlink:href="#DejaVuSans-40"/><use x="623.295" xlink:href="#DejaVuSans-102"/><use x="658.5" xlink:href="#DejaVuSans-97"/><use x="719.779" xlink:href="#DejaVuSans-110"/><use x="783.158" xlink:href="#DejaVuSans-115"/><use x="835.258" xlink:href="#DejaVuSans-32"/><use x="867.045" xlink:href="#DejaVuSans-111"/><use x="928.227" xlink:href="#DejaVuSans-102"/><use x="963.432" xlink:href="#DejaVuSans-102"/><use x="998.637" xlink:href="#DejaVuSans-41"/></g></g><g transform="matrix(.1 0 0 -.1 412.823 250.232)" fill="#9467bd" id="text_19"><use xlink:href="#DejaVuSans-102"/><use x="35.205" xlink:href="#DejaVuSans-108"/><use x="62.988" xlink:href="#DejaVuSans-121"/><use x="122.168" xlink:href="#DejaVuSans-105"/><use x="149.951" xlink:href="#DejaVuSans-110"/><use x="213.33" xlink:href="#DejaVuSans-103"/><use x="276.807" xlink:href="#DejaVuSans-102"/><use x="312.012" xlink:href="#DejaVuSans-101"/><use x="373.535" xlink:href="#DejaVuSans-114"/><use x="412.898" xlink:href="#DejaVuSans-114"/><use x="451.762" xlink:href="#DejaVuSans-101"/><use x="513.285" xlink:href="#DejaVuSans-116"/><use x="552.494" xlink:href="#DejaVuSans-32"/><use x="584.281" xlink:href="#DejaVuSans-40"/><use x="623.295" xlink:href="#DejaVuSans-102"/><use x="658.5" xlink:href="#DejaVuSans-97"/><use x="719.779" xlink:href="#DejaVuSans-110"/><use x="783.158" xlink:href="#DejaVuSans-115"/><use x="835.258" xlink:href="#DejaVuSans-32"/><use x="867.045" xlink:href="#DejaVuSans-111"/><use x="928.227" xlink:href="#DejaVuSans-110"/><use x="991.605" xlink:href="#DejaVuSans-41"/></g><g id="text_20"><defs><path d="M54.89 33.016V0h-8.984v32.719q0 7.765-3.031 11.61-3.031 3.858-9.078 3.858-7.281 0-11.484-4.64-4.204-4.625-4.204-12.64V0H9.08v75.984h9.03V46.188q3.235 4.937 7.594 7.374Q30.078 56 35.797 56q9.422 0 14.25-5.828 4.844-5.828 4.844-17.156z" id="DejaVuSans-104"/><path d="M54.89 54.688l-19.78-26.61L55.905 0H45.313L29.39 21.484 13.484 0H2.875l21.25 28.61L4.687 54.687h10.594l14.5-19.485 14.5 19.484z" id="DejaVuSans-120"/><path d="M4.203 54.688h8.985l11.234-42.672 11.172 42.672h10.593l11.235-42.672 11.187 42.672h8.985L63.28 0H52.688L40.922 44.828 29.109 0H18.5z" id="DejaVuSans-119"/></defs><g transform="matrix(.1 0 0 -.1 412.823 154.585)" fill="#8c564b"><use xlink:href="#DejaVuSans-104"/><use x="63.379" xlink:href="#DejaVuSans-101"/><use x="123.152" xlink:href="#DejaVuSans-120"/><use x="182.332" xlink:href="#DejaVuSans-32"/><use x="214.119" xlink:href="#DejaVuSans-119"/><use x="295.906" xlink:href="#DejaVuSans-114"/><use x="334.77" xlink:href="#DejaVuSans-101"/><use x="396.293" xlink:href="#DejaVuSans-110"/><use x="459.672" xlink:href="#DejaVuSans-99"/><use x="514.652" xlink:href="#DejaVuSans-104"/></g></g><g id="text_21"><defs><path d="M9.813 72.906h9.859V0h-9.86z" id="DejaVuSans-73"/><path d="M-.297 72.906h61.672v-8.312H35.5V0h-9.906v64.594H-.296z" id="DejaVuSans-84"/></defs><g transform="matrix(.1 0 0 -.1 412.823 197.02)" fill="#e377c2"><use xlink:href="#DejaVuSans-73"/><use x="29.492" xlink:href="#DejaVuSans-99"/><use x="84.473" xlink:href="#DejaVuSans-101"/><use x="145.996" xlink:href="#DejaVuSans-32"/><use x="177.783" xlink:href="#DejaVuSans-84"/><use x="221.867" xlink:href="#DejaVuSans-111"/><use x="283.049" xlink:href="#DejaVuSans-119"/><use x="364.836" xlink:href="#DejaVuSans-101"/><use x="426.359" xlink:href="#DejaVuSans-114"/><use x="467.473" xlink:href="#DejaVuSans-32"/><use x="499.26" xlink:href="#DejaVuSans-40"/><use x="538.273" xlink:href="#DejaVuSans-102"/><use x="573.479" xlink:href="#DejaVuSans-97"/><use x="634.758" xlink:href="#DejaVuSans-110"/><use x="698.137" xlink:href="#DejaVuSans-32"/><use x="729.924" xlink:href="#DejaVuSans-111"/><use x="791.105" xlink:href="#DejaVuSans-102"/><use x="826.311" xlink:href="#DejaVuSans-102"/><use x="861.516" xlink:href="#DejaVuSans-41"/></g></g><g transform="matrix(.1 0 0 -.1 412.823 272.345)" fill="#7f7f7f" id="text_22"><use xlink:href="#DejaVuSans-73"/><use x="29.492" xlink:href="#DejaVuSans-99"/><use x="84.473" xlink:href="#DejaVuSans-101"/><use x="145.996" xlink:href="#DejaVuSans-32"/><use x="177.783" xlink:href="#DejaVuSans-84"/><use x="221.867" xlink:href="#DejaVuSans-111"/><use x="283.049" xlink:href="#DejaVuSans-119"/><use x="364.836" xlink:href="#DejaVuSans-101"/><use x="426.359" xlink:href="#DejaVuSans-114"/><use x="467.473" xlink:href="#DejaVuSans-32"/><use x="499.26" xlink:href="#DejaVuSans-40"/><use x="538.273" xlink:href="#DejaVuSans-102"/><use x="573.479" xlink:href="#DejaVuSans-97"/><use x="634.758" xlink:href="#DejaVuSans-110"/><use x="698.137" xlink:href="#DejaVuSans-32"/><use x="729.924" xlink:href="#DejaVuSans-111"/><use x="791.105" xlink:href="#DejaVuSans-110"/><use x="854.484" xlink:href="#DejaVuSans-41"/></g><g id="text_23"><defs><path d="M9.813 72.906h9.859V42.094L52.39 72.906h12.703L28.906 38.922 67.672 0H54.688L19.672 35.11V0h-9.86z" id="DejaVuSans-75"/><path d="M53.516 70.516V60.89q-5.61 2.687-10.594 4-4.984 1.328-9.625 1.328-8.047 0-12.422-3.125t-4.375-8.89q0-4.845 2.906-7.313 2.907-2.453 11.016-3.97l5.953-1.218q11.031-2.11 16.281-7.406 5.25-5.297 5.25-14.172 0-10.61-7.11-16.078-7.093-5.469-20.812-5.469-5.172 0-11.015 1.172Q13.14.922 6.89 3.219v10.156q6-3.36 11.765-5.078 5.766-1.703 11.328-1.703 8.438 0 13.032 3.312 4.593 3.328 4.593 9.485 0 5.359-3.297 8.39-3.296 3.032-10.812 4.547L27.484 33.5q-11.03 2.188-15.968 6.875-4.922 4.688-4.922 13.047 0 9.672 6.812 15.234 6.813 5.563 18.766 5.563 5.14 0 10.453-.938 5.328-.922 10.89-2.765z" id="DejaVuSans-83"/><path d="M19.672 34.813V8.108H35.5q7.953 0 11.781 3.297 3.844 3.297 3.844 10.078 0 6.844-3.844 10.078-3.828 3.25-11.781 3.25zm0 29.984V42.828h14.61q7.218 0 10.75 2.703 3.546 2.719 3.546 8.282 0 5.515-3.547 8.25-3.531 2.734-10.75 2.734zm-9.86 8.11h25.204q11.28 0 17.375-4.688Q58.5 63.53 58.5 54.89q0-6.703-3.125-10.657-3.125-3.953-9.188-4.922 7.282-1.562 11.313-6.53 4.031-4.954 4.031-12.376 0-9.765-6.64-15.093Q48.25 0 35.984 0H9.812z" id="DejaVuSans-66"/></defs><g transform="matrix(.1 0 0 -.1 412.823 182.733)" fill="#bcbd22"><use xlink:href="#DejaVuSans-75"/><use x="65.576" xlink:href="#DejaVuSans-75"/><use x="131.152" xlink:href="#DejaVuSans-83"/><use x="194.629" xlink:href="#DejaVuSans-66"/><use x="263.232" xlink:href="#DejaVuSans-32"/><use x="295.02" xlink:href="#DejaVuSans-99"/><use x="350" xlink:href="#DejaVuSans-97"/><use x="411.279" xlink:href="#DejaVuSans-115"/><use x="463.379" xlink:href="#DejaVuSans-101"/></g></g><g transform="matrix(.1 0 0 -.1 412.823 136.507)" fill="#17becf" id="text_24"><use xlink:href="#DejaVuSans-110"/><use x="63.379" xlink:href="#DejaVuSans-111"/><use x="124.561" xlink:href="#DejaVuSans-32"/><use x="156.348" xlink:href="#DejaVuSans-99"/><use x="211.328" xlink:href="#DejaVuSans-97"/><use x="272.607" xlink:href="#DejaVuSans-115"/><use x="324.707" xlink:href="#DejaVuSans-101"/></g><path clip-path="url(#p8324959220)" d="M37.103 254.27l1.265-6.027h1.266l1.265-6.026 1.265 6.026 1.266-6.026 1.266 6.026h1.265l1.266-6.026 1.266 12.053 1.266-12.053 1.265 6.026h5.062l2.531-12.052 1.266 6.026h1.266l1.266 6.026 1.265-6.026h1.266l1.266-6.026 1.265 6.026h1.266l1.265-6.026 1.265 6.026h2.532l1.266-6.026 1.265 6.026 1.266-6.026 1.265 6.026h1.266l1.266 6.026 2.53-12.052 1.266 6.026h1.266l1.266-6.026H97.85l1.266 6.026 1.265-6.026 1.266 6.026h2.53l2.533-12.052 1.265 12.052 1.266-12.052 1.265 12.052 1.266-6.026 1.266 6.026 1.265-12.052 1.265 12.052 1.265-6.026h6.329l1.265 6.026 1.266-6.026h2.531l1.265-6.026 1.266-12.052 1.287-6.026h2.578l1.283-6.026h2.566l1.283-6.026h2.566l1.283-6.026h1.282l1.284 6.026h1.283l1.282-6.026 1.283 6.026 1.29-6.026h1.283l1.282-6.026 1.283 6.026h3.855l1.283 6.026 1.283-12.052 1.283 6.026h2.56l1.289-12.052 1.283 6.026h3.849l1.277-6.026 1.289 6.026h2.566l1.289-6.026h2.566l1.283 6.026h5.138l1.283-6.026h1.283l1.289-6.027h1.277l1.289 6.027 1.283-6.027h3.855l1.283-6.026 2.572 12.053 2.572-12.053 1.283 6.026h1.289l1.29-6.026 1.282 6.026 1.283-6.026h1.283l1.283 6.026h2.566l1.283-6.026h2.566l1.283-6.026 1.283 6.026h2.578l1.29 6.026 1.294-6.026 1.283 6.026 1.284-6.026h2.571l1.283-12.052 1.29 6.026h1.283l1.283 6.026 1.283-6.026 1.282 12.052 2.566-12.052h2.566l1.283 6.026 1.296-6.026h2.572l1.295-6.026 2.572 12.052 1.283-6.026h1.283l1.283-6.026 1.283 6.026h1.283l1.283-6.026h10.276l1.283 6.026 2.566-12.052 1.289 6.026 1.283-6.026 1.29 6.026h1.288l1.29-6.026 1.282 12.052 1.29-6.026h1.282l1.29-6.026 1.282 6.026 1.283-6.026h1.283l1.283 6.026 1.29-6.026h1.282l1.283 6.026 1.296-6.026 1.283 6.026h2.572l1.289-6.026h1.283l1.295 6.026h1.29l2.565-12.052 1.283 6.026h3.849l1.29 18.078 3.796 18.079 1.266-6.026 1.266 12.052 1.266-12.052 1.266 6.026h2.532l1.265 6.026 1.265-12.052 1.266 6.026h2.532l1.266 6.026 1.266-6.026h2.531l1.265 6.026h8.86l1.265 6.026 1.265-6.026h5.064l1.265-6.026 1.266 6.026h1.265l1.265-6.026h1.266l1.266 12.052h6.329l1.266-6.026h5.063l1.266-6.026 1.266 6.026h1.266l2.53 12.052 1.266-12.052 1.265 12.052 1.265-6.026h1.266l1.266-6.026 1.265 6.026h1.266l1.266-6.026 1.266 12.052 1.265-12.052 1.266 12.052 1.266-12.052h1.265l1.266 12.052 1.265-6.026h2.532l1.266 6.026 1.266-6.026h0" fill="none" stroke="#e377c2" stroke-linecap="square" stroke-width="1.5" id="line2d_21"/><path clip-path="url(#p8324959220)" d="M37.103 175.93l1.272-12.052 2.52 12.052 2.534-12.052 1.257 12.052 2.506-12.052 1.253 6.026h6.306l1.266 6.026 1.267-6.026h1.253l1.266-6.026h1.253l1.254 6.026h8.842l1.266-6.026 2.538 12.052 1.266-12.052h2.522l1.27 6.026h1.257l1.269-6.026 1.252 6.026h1.267l1.253 6.026 2.534-12.052 1.266 6.026h5.052l1.269-6.026 2.534 12.052 1.253-12.052 1.263 6.026h2.535l1.266-6.026 2.533 12.052 1.266-6.026h1.253l1.267-6.026 1.269 6.026h1.267l1.267 6.026 1.267-12.052 1.268 6.026h2.52l1.267-6.026 2.505 12.052 1.267-6.026h3.8l1.267-18.078 1.303-12.052 1.296-6.026h2.596l1.296-6.026h1.289l1.295-12.052 1.296 6.026h2.59l1.29-6.026h2.578l1.301-6.027 1.29 6.027h1.289l1.295-6.027 1.289 6.027h1.295l1.302-12.053 2.578 12.053 1.29-6.027 1.301 6.027 1.295-12.053 1.303 6.026 1.294-6.026 1.29 12.053 1.289-6.027h2.596l1.313-6.026h1.29l1.302 6.026h3.88l1.302-6.026h3.892l1.289 12.053 1.308-12.053h2.596l1.296-6.026 1.296 12.052h1.288l1.291-6.026 1.294 6.026 1.29-6.026h2.602l1.295 6.026 1.296-12.052 1.289 12.052 2.603-12.052 1.29 6.026h1.307l1.29-6.026 1.313 6.026h1.302l1.301-6.026 1.296 6.026 1.297-6.026h5.18l1.294 6.026h1.296l1.295-6.026h1.302l1.289 6.026 1.301-6.026h6.459l1.289-6.026h1.295l2.597 12.052 1.29-6.026h3.89l1.29-6.026h1.302l1.295 6.026h3.905l1.29-6.026 1.307 6.026 1.295-6.026h1.296l1.289 6.026 1.301-6.026h1.296l1.289 6.026h1.289l1.295-6.026 1.296 6.026 1.289-6.026h3.905l1.295 6.026h1.302l1.289-6.026 1.301 6.026h2.585l1.289-12.052 1.295 12.052 1.295-6.026h2.591l1.302 6.026 1.289-6.026h2.597l1.301 6.026 1.296-6.026 1.295 6.026 1.29-6.026h7.778l1.295-6.026 1.289 6.026h3.88l1.295-6.026 1.295 6.026 1.312-6.026 1.285 30.13h1.268l1.267 6.027h1.267l3.8 18.078 1.266-6.026h1.267l1.267 6.026h7.573l1.269 6.026 1.266-6.026 1.269 6.026h1.266l1.268-6.026h1.254l1.266 6.026 1.267-6.026 1.266 6.026h2.533l1.253 6.026 1.264-6.026 1.266 6.026 1.267-6.026 1.269 6.026 1.253-6.026h3.783l1.267 12.052 1.267-12.052 1.267 6.026h2.533l1.267-6.026 2.506 12.052 1.269-12.052 1.266 6.026h1.268l1.253-6.026 2.52 12.052h1.266l1.253-12.052 1.264 6.026h2.523l1.253 6.026 1.266-6.026h2.517l1.27 6.026 1.252-6.026h1.267l1.253 6.026h1.268l1.253-6.026h1.267l1.268 6.026h3.8l1.268-6.026 1.253 6.026 1.267-6.026h0" fill="none" stroke="#8c564b" stroke-linecap="square" stroke-width="1.5" id="line2d_22"/><path clip-path="url(#p8324959220)" d="M37.103 247.472l1.24 2.935h3.72l2.48 5.87 1.24-5.87 3.72 8.804 1.24-11.739 1.24-2.935 1.24 5.87h1.24l1.24 2.935 1.24-5.87h1.24l1.24 5.87 1.24-5.87 2.48 5.87 1.24-5.87 1.24 2.935 1.24-2.935 1.24 2.935h2.48l1.24 2.935 1.24-5.87 1.24 5.87h1.24l1.24-2.935 1.24 2.935 1.24-2.935h2.48l1.24-2.935 1.24 5.87 1.24-5.87h1.24l1.24 2.935 1.24 5.87 1.24-2.935 1.24 2.934 1.24-8.804h1.24l1.24 5.87h1.24l1.24-5.87h1.24l1.24 2.935 1.24-5.87h1.24l1.24 2.935 1.24 5.87 1.24-2.935h1.24l1.24 2.935 1.24-5.87 1.24 2.935 1.24-2.935 1.24 2.935 1.24-2.935 1.24 2.935 1.24 5.87 2.48-5.87 1.24 2.935 1.24-2.935h1.24l1.24-5.87 1.24 8.805h2.48l1.243-5.87 1.24-17.608 1.24-5.87 1.24 2.935h1.24l1.24-5.87h7.439l1.24-2.934 1.24 2.935 1.24-8.804 1.239 5.87 2.48-5.87 1.24 2.934 1.24-2.934h1.24l1.239 2.934 1.24-2.934 1.24-5.87 1.24 2.935h4.959l1.24-5.87 1.24 8.805 1.24-8.804 2.48 5.869 2.479-5.87 1.24 2.935 1.24-5.87 1.24 8.805 1.239-5.87 1.24-2.934 1.24 2.935h1.24l1.24-2.935 1.24 2.935 1.239-5.87 1.24 8.804 1.24-8.804 1.24 8.804 1.24-5.87 1.24-2.934 1.239 5.87 2.48-5.87 1.24 5.87 3.719-8.805 1.24 5.87 1.24 2.935 1.24-5.87h4.959l1.24-2.935h1.24l2.479 5.87 1.24-2.935h1.24l2.48 5.87 1.24-2.935h1.239l1.24-2.935 1.24-5.87 1.24 2.935 1.24 5.87h1.239l1.24-8.804 1.24 2.934h1.24l1.24 2.935h1.24l1.24-5.87 1.239 2.935h3.72l1.24 2.935 1.239-2.935h2.48l1.24 2.935 1.24-5.87h2.479l1.24 8.805 1.24-11.739 1.24 11.739 2.48-11.739h1.239l1.24 2.935 1.24 5.87 1.24-8.805 1.24 2.935h1.24l1.239 2.934 1.24-8.804 1.24 5.87 1.24-2.935 2.48 5.87 1.239-2.935h6.2l1.239 5.87h2.48l1.24-8.805 1.24 2.935h1.239l1.24 2.934h2.48l1.24-2.934h1.24l1.239-2.935 1.24 2.935 1.24-2.935 1.24-5.87 1.24 8.805 1.24 2.934 1.239-5.869 2.48 5.87h1.24l1.24-5.87 1.239 8.804 1.24-8.804 1.24 5.87 1.24-2.935h2.48l1.239-8.804 1.24 11.738 1.24 8.805 1.24 17.608 2.48-5.87h1.24l1.24 5.87 1.24 2.935 1.24-5.87 1.24 5.87 1.24-2.935h1.24l1.24 2.935h1.24l1.24-2.935 1.24 5.87h2.48l1.24-2.935h1.24l1.24 2.934 1.24 5.87 1.24-2.935h2.48l1.24 2.935h1.24l2.48-5.87 2.48 11.739 1.24-5.87 1.24-14.673 1.24 17.608 1.24-8.804 1.24 8.804 1.24-2.934 1.24 5.869 1.24-11.739 2.48 11.739 1.24-2.935 1.24 5.87 1.24-5.87 1.24 2.935 1.24-2.935 1.24 2.935h6.2l1.24 8.804 1.24-14.673 1.24 11.738 1.24-2.934 1.24 2.934 1.24-8.804 1.24 5.87h1.24l1.24-2.935 2.48 5.87 1.24-2.935 1.24 2.934h1.24l1.24-5.869h1.24l1.24 2.935 1.24 8.804 1.24-5.87 1.24-2.934 1.24 2.934 1.24 5.87 1.24-2.935h0" fill="none" stroke="#9467bd" stroke-linecap="square" stroke-width="1.5" id="line2d_23"/><path clip-path="url(#p8324959220)" d="M37.103 168.235l1.24 2.935 1.24-2.935 1.24-8.804 1.24 2.935h2.48l1.24 5.87 1.24-8.805 1.24 8.804 1.24-8.804 1.24 2.935h2.48l1.24-2.935 1.245 5.87 2.48-5.87 1.24 5.87h1.24l1.24-2.935h3.72l1.24 2.934h2.48l1.24-5.869 1.24 8.804 2.48-11.739 1.24 8.804 1.24-8.804 1.24 5.87h1.24l1.24 5.87 1.24-11.74 1.24 5.87h1.24l1.24-2.935 1.24 5.87 1.24-5.87h1.24l1.24-2.935 1.24 5.87 1.24-2.935 2.48 5.87 2.48-5.87 1.24 5.87 1.24-8.805 1.24 2.935 2.48-5.87 1.24 5.87h1.24l1.24 2.935 1.24-8.804 1.24 2.934 1.24 5.87 1.24-8.804 1.24 5.869 1.24 2.935 1.24-5.87h1.24l1.24 2.935 2.48-5.87 2.48 5.87 1.241-2.935 1.24 5.87 1.24-11.74 1.24 8.805 1.24-2.935 1.24-20.543 2.48-5.869 1.24 2.935 1.24-5.87h1.24l1.24 2.935 1.24-2.935 1.24-5.87h1.24l1.24 2.936 1.239-8.805h1.24l1.24 5.87h1.24l2.48-5.87 1.239-5.869 1.24 5.87 1.24-5.87 1.24 5.87h1.24l1.24-5.87 1.24 2.935 1.24-2.935h1.239l1.24-2.935 1.24 2.935 1.24-2.935h1.24l1.24-5.87 2.479 5.87 1.24-5.87 1.24 2.936 2.48-5.87h2.48l1.239 5.87 1.24-5.87h1.24l1.24-2.934 1.24 2.934 1.24-5.87 1.24-2.934 1.24 5.87 1.239-2.935h3.72l2.48-5.87 1.24 2.935h1.239l1.24 2.935 2.48-5.87h2.48l1.24-5.869 1.24 5.87 1.239-5.87 1.24 5.87 1.24-5.87 1.24 2.935h6.2l1.24-2.935 1.24 2.935 1.24-5.87 1.24-2.934 1.24 2.934 1.24-5.87 1.24 5.87h2.48l1.24-2.934 1.24 2.934h2.48l1.24-2.934h1.24l1.24 2.934 1.24-2.934 1.24 2.934 1.24-2.934 1.24-5.87 1.24 5.87 1.24-5.87 1.24-2.935 1.24 5.87h2.48l1.24-2.935h1.24l1.24 2.935 1.24-5.87 1.24 2.935h1.24l1.24-2.935h1.24l2.48 5.87 1.24-5.87 1.24 2.935h1.24l1.24-8.804 1.24 5.87 1.24-5.87 2.48 5.87h1.24l1.24-2.935 1.24-5.87 1.24 2.935h1.24l1.24 5.87 1.24-5.87h1.24l1.24 5.87 1.24-8.805 1.24 2.935h1.24l1.24-2.935 2.48 5.87 2.481-5.87h1.24l1.24-2.934 1.24 2.934 1.24-5.87 1.24 5.87 1.24-2.934 1.24 5.87 1.24-5.87 1.24 5.87 1.24 2.934 2.48-11.74 1.24 2.936h1.24l1.24 5.87 1.24-5.87 1.24-2.935 1.24 5.87 1.24 26.412h1.241l1.24-5.87 1.24-2.934 1.24 11.738 1.24-8.804 1.24 2.935h2.48l2.48 5.87 1.24-2.935 2.48 5.87h1.24l1.24 5.869 1.24-8.805h1.24l1.24 2.935h1.24l1.24 2.935h1.24l1.24-2.935 1.24 5.87 1.24 2.934 1.24-8.804 1.24 2.935 1.24-2.935 1.24 5.87h2.48l1.24 2.934 1.24-5.87 1.24 8.805h2.48l1.24-5.87h1.24l1.24 5.87 1.24-2.935 1.24 2.935h1.24l1.24-2.935 1.24 5.87 1.24 2.934 1.24-8.804 1.24 2.935h6.2l1.24 2.935 1.24-2.935h1.24l1.24 5.87 1.24 2.934 1.24-5.87 1.24-2.934 1.24 8.804 1.24-5.87 1.24 5.87 1.24 2.935 1.24-5.87h1.24l1.24-5.87 1.24 8.805h1.24l1.24-5.87 1.24 5.87h2.48l1.24 2.935h1.24l1.24-5.87h0" fill="none" stroke="#d62728" stroke-linecap="square" stroke-width="1.5" id="line2d_24"/><path clip-path="url(#p8324959220)" d="M37.103 278.374l1.273-6.026 1.252 6.026 1.272-6.026h1.27l1.272 6.026 2.544-12.052 1.27 6.026h1.271l1.27-6.026 1.27 12.052h1.272l1.27-6.026 1.27 6.026 1.27-6.026 1.272 6.026 1.271-6.026h2.542l1.27 6.026 1.271-6.026h1.27l1.271-6.026 1.253 12.052 1.27-12.052 1.271 12.052h1.271l1.271-6.026 1.27 6.026h3.814l1.27-6.026 1.272 6.026h5.083l1.27-6.026 1.271 6.026h2.545l1.27-6.026 1.27 6.026h1.271l1.252-6.026h3.812l1.27 6.026 1.271-6.026 1.27 6.026 1.27-12.052 1.272 12.052h1.27l1.27-6.026h1.253l1.27 6.026h1.271l1.27-6.026 1.271 6.026 2.542-12.052 1.27 18.078 1.27-12.052 1.273 6.026h1.275l1.253 6.026 1.27-6.026h2.545l1.271 6.026h1.27l1.271-30.13 1.302-6.027h1.301l1.302 6.027h1.295l1.29 6.026 2.59-12.053h1.295l1.308 12.053 1.295-6.026h7.772l1.29-6.027 1.295 6.027h1.289l1.295-6.027 1.302 6.027h1.295l1.296-6.027h1.295l1.295 6.027 1.296-6.027 1.295 6.027 1.295-6.027 1.296 12.053 1.283-12.053 1.295 6.027 1.295-6.027h1.301l1.29 6.027 1.296-6.027h1.289l1.289-6.026 1.295 6.026 1.29-6.026 1.295 12.053 1.289-6.027h2.584l1.29-6.026 1.295 6.026 1.289-6.026 2.59 12.053 1.29-12.053 1.295 6.026h3.874l1.289-6.026 1.295 6.026h7.772l1.296-6.026h2.59l1.296 6.026 1.301-6.026h3.872l1.291 6.026 1.295-6.026h2.579l1.289 6.026 1.301-6.026h2.603l1.29 6.026 1.29-6.026h1.288l1.296 6.026 1.289-6.026 1.295 6.026 1.295-6.026h2.585l1.295 6.026 1.29-6.026 1.295 6.026 1.289-6.026h3.873l1.29 6.026 1.289-6.026 1.289 6.026h2.597l1.29-6.026h5.162l1.289 6.026h2.584l1.296-6.026h1.3l1.321-6.026 1.296 12.052 1.295-6.026h1.295l1.296 6.026 2.572-12.052 1.289 6.026h1.289l1.295 6.026 1.296-6.026h1.295l1.295 6.026 1.296-6.026h2.597l1.295-6.026 1.295 12.052 1.308-12.052 1.29 6.026h2.596l1.296 6.026 1.295-6.026h1.295l1.302 6.026 1.295-6.026h6.458l1.32-6.026 1.296 6.026 2.548 24.105h10.147l1.271 6.026 1.271-6.026h2.524l1.27 6.026h3.813l1.271-6.026 1.271 6.026h3.813l1.27-6.026 1.273 6.026h2.542l1.272-6.026 1.27 12.052 2.542-12.052 1.253 6.026h2.54l1.272-6.026 1.254 6.026 1.27-6.026 1.271 12.052h1.271l1.27-6.026h1.272l1.272-6.026 1.27 6.026h3.812l1.252 6.026 1.268-6.026 1.268 6.026 1.269-6.026h1.268l1.269 6.026h1.268l1.268-6.026h1.27l1.267 6.026 1.269-6.026 1.27 6.026 1.269-6.026h10.151l1.269-6.026 2.52 12.052 2.537-12.052 1.269 12.052h1.268" fill="none" stroke="#2ca02c" stroke-linecap="square" stroke-width="1.5" id="line2d_25"/><path clip-path="url(#p8324959220)" d="M37.103 224.14h6.355l1.271-6.027h1.27l1.272 12.052 1.27-6.026h2.543l1.271-6.026h1.27l1.271 6.026h1.27l1.271 6.026 1.271-12.052 1.271 6.026h3.812l1.27-6.026h2.542l1.27 6.026h2.541l1.27 6.026 1.271-6.026h3.813l1.271-6.026 1.271 6.026h1.272l1.272-6.026h1.27l1.271 6.026h1.27l1.272-6.026h2.544l1.27 6.026h1.271l1.27-6.026 1.271 6.026h2.542l1.27-6.026 1.272 6.026h1.271l1.272 6.026 1.27-6.026h5.084l1.27 6.026 1.272-12.052h1.271l1.27 6.026h2.545l1.27-6.026 1.272 12.052 1.27-6.026h2.542l1.27-6.026 1.27 6.026h3.815l1.27-24.104h10.337l1.29-6.026 1.289 6.026h6.482l1.296-12.052 1.295 12.052 1.295-6.026 1.302 6.026 1.301-6.026h1.302l1.302-6.026h1.295l1.283 6.026 1.295-6.026 2.572 12.052 2.579-12.052 1.289 12.052h1.289l1.289-6.026h2.585l1.295-6.026 1.283 6.026h1.295l1.29 6.026 2.59-12.052h1.302l2.578 12.052 1.295-6.026h1.29l1.295 6.026 1.295-12.052 1.29 12.052 1.294-12.052h1.29l1.295 6.026h2.578l1.302-6.026 1.29 6.026h1.288l2.578-12.052 1.296 6.026 1.289 12.052 1.295-12.052h6.47l1.296 6.026h1.29l2.578-12.052 2.584 12.052 1.283-12.052 1.29 12.052 1.295-12.052 2.579 12.052 1.288-6.026h1.29l1.288-6.026 1.296 12.052 1.295-12.052 1.296 6.026h2.584l1.29-6.026 1.288 6.026 1.29-6.026h1.295l1.289 6.026 1.295-6.026h2.585l1.289 6.026h5.169l1.29-6.026h2.583l1.302 6.026h1.29l1.288-6.026 1.29 6.026 1.289-6.026h2.59l1.29 6.026h5.156l1.29-6.026h2.578l1.289 6.026h2.573l1.288-6.026 1.301 6.026 1.29-6.026h16.783l1.29-6.027 1.295 6.027h1.295l1.296-6.027 1.295 6.027h2.59l1.302 6.026 1.296 12.052 2.542 12.052 1.27-6.026h3.815l1.271 6.026 1.27-6.026h3.813l1.27 6.026h1.27l1.271-6.026 1.27 6.026h1.272l1.27-6.026h1.271l1.27-6.026 1.27 12.052 1.272-6.026h1.27l1.272 6.026 1.27-6.026h1.271l1.27-6.026 1.272 12.052 1.271-6.026h2.541l1.27 6.026 1.272-6.026 1.27 6.026h2.55l1.27-6.026h1.27l1.272 6.026 1.271-6.026h3.813l1.272 6.026h1.27l1.272-6.026h1.271l1.27 6.026 1.271-6.026 1.27 6.026 1.275-6.026 1.27 6.026 1.271-6.026h2.542l1.27 6.026h10.168l1.272-6.026 2.543 12.052 1.272-12.052h2.541l1.272 6.026h1.27l1.271 6.026h0" fill="none" stroke="#ff7f0e" stroke-linecap="square" stroke-width="1.5" id="line2d_26"/><path clip-path="url(#p8324959220)" d="M37.103 224.14l1.272-6.027h1.27l1.272 6.026 1.271-6.026h3.814l1.271 6.026 1.272-6.026 1.272 6.026h3.814l1.271-6.026h3.814l1.272 6.026 1.271-6.026 1.272 6.026h1.272l1.271-6.026h2.543l1.271 6.026h2.542l1.272-6.026 1.272 6.026 1.271-12.052 2.543 12.052 1.272-6.026 1.271 6.026h1.272l1.272-6.026h3.814l1.272 6.026 1.272-6.026 1.272 6.026 1.27-12.052 2.544 12.052 1.272-6.026h1.271l1.272 6.026h2.543l1.27-6.026 1.273 6.026 1.271-6.026 1.272 6.026h1.27l1.272-6.026 2.543 12.052 2.546-12.052h2.542l1.272 6.026h2.543l1.271-6.026 1.271 6.026h2.543l1.272 6.026 1.271-12.052h2.543l1.271-30.13 1.29-6.026h1.295l1.296-12.053h1.295l1.29-6.026 1.296 6.026 1.288-6.026 1.289 6.026 1.29-6.026h3.867l1.289-6.026h2.59l1.29 6.026 1.289-12.052 1.295 6.026 1.29-6.026 1.288 6.026 1.29-6.026 1.289 6.026 2.591-12.052h1.289l2.59 12.052 1.29-12.052 1.289 6.026 1.289-6.026 1.289 6.026h3.88l1.289-6.026 1.295 6.026 1.296-6.026h2.584l1.295 6.026 1.29-6.026 1.295 6.026 2.59-12.052 1.29 6.026h2.584l1.296-6.026h2.584l1.29 6.026h1.295l1.289-6.026 1.289 6.026h2.572l1.301-6.026 1.29 6.026 2.59-12.052L210 145.8h1.289l1.295-6.026h1.29l1.294 6.026h1.29l1.295-6.026 1.295 6.026h1.296l1.289-6.026h3.886l1.295-12.052 1.29 12.052h7.753l1.289-6.026 1.29 6.026 1.295-6.026h3.88l1.288 6.026 1.29-6.026 1.289 6.026 2.584-12.052 1.308 12.052 1.295-6.026h1.296l1.289 6.026 1.29-6.026h1.288l1.29 6.026 1.289-6.026h1.295l1.289-6.026h1.29l1.288 12.052 1.302-6.026h6.458l1.302-6.026 2.578 12.052 1.301-6.026h3.88l1.29-6.026h1.289l1.301 6.026 2.578-12.052 1.29 12.052 1.289-6.026h7.76l1.289 6.026 1.295-6.026 1.295 6.026 1.29-6.026 1.289 6.026 1.289-6.026h3.873l1.29 6.026h1.289l1.295-12.052 1.295 12.052 1.29 30.13 1.27 6.026h2.541l1.27 12.053h1.272l1.272 6.026h1.27l1.272-6.026h2.542l1.27 6.026h1.272l1.27 6.026 1.272-12.052 1.27 6.026h1.271l1.271 6.026h10.168l1.27 6.026h1.271l1.271-12.052 1.271 12.052 1.271-12.052 1.271 12.052 1.27-6.026 1.272 6.026h7.625l1.27 6.026 1.272-6.026h3.814l1.27 6.026 1.271-6.026L377 206.06l1.271-6.026h3.813l1.271 6.026h1.271l1.27-6.026 1.27 6.026h6.357l1.27-6.026 2.543 12.052 1.27-6.026h1.271l1.27-6.026 1.272 6.026 1.272-6.026h1.27l1.271 6.026 1.272-6.026h1.27" fill="none" stroke="#1f77b4" stroke-linecap="square" stroke-width="1.5" id="line2d_27"/></g></g><defs><clipPath id="p8324959220"><path d="M37.103 7.2h372v277.2h-372z"/></clipPath></defs></svg>