<?xml version="1.0" encoding="utf-8" standalone="no"?>
<!DOCTYPE svg PUBLIC "-//W3C//DTD SVG 1.1//EN"
  "http://www.w3.org/Graphics/SVG/1.1/DTD/svg11.dtd">
<!-- Created with matplotlib (https://matplotlib.org/) -->
<svg height="310.86825pt" version="1.1" viewBox="0 0 489.169537 310.86825" width="489.169537pt" xmlns="http://www.w3.org/2000/svg" xmlns:xlink="http://www.w3.org/1999/xlink">
 <defs>
  <style type="text/css">
*{stroke-linecap:butt;stroke-linejoin:round;}
  </style>
 </defs>
 <g id="figure_1">
  <g id="patch_1">
   <path d="M 0 310.86825 
L 489.169537 310.86825 
L 489.169537 0 
L 0 0 
z
" style="fill:none;"/>
  </g>
  <g id="axes_1">
   <g id="patch_2">
    <path d="M 40.603125 273.312 
L 397.723125 273.312 
L 397.723125 7.2 
L 40.603125 7.2 
z
" style="fill:none;"/>
   </g>
   <g id="matplotlib.axis_1">
    <g id="xtick_1">
     <g id="line2d_1">
      <path clip-path="url(#p5faedadfd5)" d="M 40.603125 273.312 
L 40.603125 7.2 
" style="fill:none;stroke:#b0b0b0;stroke-linecap:square;stroke-width:0.8;"/>
     </g>
     <g id="line2d_2">
      <defs>
       <path d="M 0 0 
L 0 3.5 
" id="m68acfb7fdb" style="stroke:#000000;stroke-width:0.8;"/>
      </defs>
      <g>
       <use style="stroke:#000000;stroke-width:0.8;" x="40.603125" xlink:href="#m68acfb7fdb" y="273.312"/>
      </g>
     </g>
     <g id="text_1">
      <!-- 0 -->
      <defs>
       <path d="M 31.78125 66.40625 
Q 24.171875 66.40625 20.328125 58.90625 
Q 16.5 51.421875 16.5 36.375 
Q 16.5 21.390625 20.328125 13.890625 
Q 24.171875 6.390625 31.78125 6.390625 
Q 39.453125 6.390625 43.28125 13.890625 
Q 47.125 21.390625 47.125 36.375 
Q 47.125 51.421875 43.28125 58.90625 
Q 39.453125 66.40625 31.78125 66.40625 
z
M 31.78125 74.21875 
Q 44.046875 74.21875 50.515625 64.515625 
Q 56.984375 54.828125 56.984375 36.375 
Q 56.984375 17.96875 50.515625 8.265625 
Q 44.046875 -1.421875 31.78125 -1.421875 
Q 19.53125 -1.421875 13.0625 8.265625 
Q 6.59375 17.96875 6.59375 36.375 
Q 6.59375 54.828125 13.0625 64.515625 
Q 19.53125 74.21875 31.78125 74.21875 
z
" id="DejaVuSans-48"/>
      </defs>
      <g transform="translate(37.421875 287.910437)scale(0.1 -0.1)">
       <use xlink:href="#DejaVuSans-48"/>
      </g>
     </g>
    </g>
    <g id="xtick_2">
     <g id="line2d_3">
      <path clip-path="url(#p5faedadfd5)" d="M 100.304881 273.312 
L 100.304881 7.2 
" style="fill:none;stroke:#b0b0b0;stroke-linecap:square;stroke-width:0.8;"/>
     </g>
     <g id="line2d_4">
      <g>
       <use style="stroke:#000000;stroke-width:0.8;" x="100.304881" xlink:href="#m68acfb7fdb" y="273.312"/>
      </g>
     </g>
     <g id="text_2">
      <!-- 100 -->
      <defs>
       <path d="M 12.40625 8.296875 
L 28.515625 8.296875 
L 28.515625 63.921875 
L 10.984375 60.40625 
L 10.984375 69.390625 
L 28.421875 72.90625 
L 38.28125 72.90625 
L 38.28125 8.296875 
L 54.390625 8.296875 
L 54.390625 0 
L 12.40625 0 
z
" id="DejaVuSans-49"/>
      </defs>
      <g transform="translate(90.761131 287.910437)scale(0.1 -0.1)">
       <use xlink:href="#DejaVuSans-49"/>
       <use x="63.623047" xlink:href="#DejaVuSans-48"/>
       <use x="127.246094" xlink:href="#DejaVuSans-48"/>
      </g>
     </g>
    </g>
    <g id="xtick_3">
     <g id="line2d_5">
      <path clip-path="url(#p5faedadfd5)" d="M 160.006637 273.312 
L 160.006637 7.2 
" style="fill:none;stroke:#b0b0b0;stroke-linecap:square;stroke-width:0.8;"/>
     </g>
     <g id="line2d_6">
      <g>
       <use style="stroke:#000000;stroke-width:0.8;" x="160.006637" xlink:href="#m68acfb7fdb" y="273.312"/>
      </g>
     </g>
     <g id="text_3">
      <!-- 200 -->
      <defs>
       <path d="M 19.1875 8.296875 
L 53.609375 8.296875 
L 53.609375 0 
L 7.328125 0 
L 7.328125 8.296875 
Q 12.9375 14.109375 22.625 23.890625 
Q 32.328125 33.6875 34.8125 36.53125 
Q 39.546875 41.84375 41.421875 45.53125 
Q 43.3125 49.21875 43.3125 52.78125 
Q 43.3125 58.59375 39.234375 62.25 
Q 35.15625 65.921875 28.609375 65.921875 
Q 23.96875 65.921875 18.8125 64.3125 
Q 13.671875 62.703125 7.8125 59.421875 
L 7.8125 69.390625 
Q 13.765625 71.78125 18.9375 73 
Q 24.125 74.21875 28.421875 74.21875 
Q 39.75 74.21875 46.484375 68.546875 
Q 53.21875 62.890625 53.21875 53.421875 
Q 53.21875 48.921875 51.53125 44.890625 
Q 49.859375 40.875 45.40625 35.40625 
Q 44.1875 33.984375 37.640625 27.21875 
Q 31.109375 20.453125 19.1875 8.296875 
z
" id="DejaVuSans-50"/>
      </defs>
      <g transform="translate(150.462887 287.910437)scale(0.1 -0.1)">
       <use xlink:href="#DejaVuSans-50"/>
       <use x="63.623047" xlink:href="#DejaVuSans-48"/>
       <use x="127.246094" xlink:href="#DejaVuSans-48"/>
      </g>
     </g>
    </g>
    <g id="xtick_4">
     <g id="line2d_7">
      <path clip-path="url(#p5faedadfd5)" d="M 219.708393 273.312 
L 219.708393 7.2 
" style="fill:none;stroke:#b0b0b0;stroke-linecap:square;stroke-width:0.8;"/>
     </g>
     <g id="line2d_8">
      <g>
       <use style="stroke:#000000;stroke-width:0.8;" x="219.708393" xlink:href="#m68acfb7fdb" y="273.312"/>
      </g>
     </g>
     <g id="text_4">
      <!-- 300 -->
      <defs>
       <path d="M 40.578125 39.3125 
Q 47.65625 37.796875 51.625 33 
Q 55.609375 28.21875 55.609375 21.1875 
Q 55.609375 10.40625 48.1875 4.484375 
Q 40.765625 -1.421875 27.09375 -1.421875 
Q 22.515625 -1.421875 17.65625 -0.515625 
Q 12.796875 0.390625 7.625 2.203125 
L 7.625 11.71875 
Q 11.71875 9.328125 16.59375 8.109375 
Q 21.484375 6.890625 26.8125 6.890625 
Q 36.078125 6.890625 40.9375 10.546875 
Q 45.796875 14.203125 45.796875 21.1875 
Q 45.796875 27.640625 41.28125 31.265625 
Q 36.765625 34.90625 28.71875 34.90625 
L 20.21875 34.90625 
L 20.21875 43.015625 
L 29.109375 43.015625 
Q 36.375 43.015625 40.234375 45.921875 
Q 44.09375 48.828125 44.09375 54.296875 
Q 44.09375 59.90625 40.109375 62.90625 
Q 36.140625 65.921875 28.71875 65.921875 
Q 24.65625 65.921875 20.015625 65.03125 
Q 15.375 64.15625 9.8125 62.3125 
L 9.8125 71.09375 
Q 15.4375 72.65625 20.34375 73.4375 
Q 25.25 74.21875 29.59375 74.21875 
Q 40.828125 74.21875 47.359375 69.109375 
Q 53.90625 64.015625 53.90625 55.328125 
Q 53.90625 49.265625 50.4375 45.09375 
Q 46.96875 40.921875 40.578125 39.3125 
z
" id="DejaVuSans-51"/>
      </defs>
      <g transform="translate(210.164643 287.910437)scale(0.1 -0.1)">
       <use xlink:href="#DejaVuSans-51"/>
       <use x="63.623047" xlink:href="#DejaVuSans-48"/>
       <use x="127.246094" xlink:href="#DejaVuSans-48"/>
      </g>
     </g>
    </g>
    <g id="xtick_5">
     <g id="line2d_9">
      <path clip-path="url(#p5faedadfd5)" d="M 279.41015 273.312 
L 279.41015 7.2 
" style="fill:none;stroke:#b0b0b0;stroke-linecap:square;stroke-width:0.8;"/>
     </g>
     <g id="line2d_10">
      <g>
       <use style="stroke:#000000;stroke-width:0.8;" x="279.41015" xlink:href="#m68acfb7fdb" y="273.312"/>
      </g>
     </g>
     <g id="text_5">
      <!-- 400 -->
      <defs>
       <path d="M 37.796875 64.3125 
L 12.890625 25.390625 
L 37.796875 25.390625 
z
M 35.203125 72.90625 
L 47.609375 72.90625 
L 47.609375 25.390625 
L 58.015625 25.390625 
L 58.015625 17.1875 
L 47.609375 17.1875 
L 47.609375 0 
L 37.796875 0 
L 37.796875 17.1875 
L 4.890625 17.1875 
L 4.890625 26.703125 
z
" id="DejaVuSans-52"/>
      </defs>
      <g transform="translate(269.8664 287.910437)scale(0.1 -0.1)">
       <use xlink:href="#DejaVuSans-52"/>
       <use x="63.623047" xlink:href="#DejaVuSans-48"/>
       <use x="127.246094" xlink:href="#DejaVuSans-48"/>
      </g>
     </g>
    </g>
    <g id="xtick_6">
     <g id="line2d_11">
      <path clip-path="url(#p5faedadfd5)" d="M 339.111906 273.312 
L 339.111906 7.2 
" style="fill:none;stroke:#b0b0b0;stroke-linecap:square;stroke-width:0.8;"/>
     </g>
     <g id="line2d_12">
      <g>
       <use style="stroke:#000000;stroke-width:0.8;" x="339.111906" xlink:href="#m68acfb7fdb" y="273.312"/>
      </g>
     </g>
     <g id="text_6">
      <!-- 500 -->
      <defs>
       <path d="M 10.796875 72.90625 
L 49.515625 72.90625 
L 49.515625 64.59375 
L 19.828125 64.59375 
L 19.828125 46.734375 
Q 21.96875 47.46875 24.109375 47.828125 
Q 26.265625 48.1875 28.421875 48.1875 
Q 40.625 48.1875 47.75 41.5 
Q 54.890625 34.8125 54.890625 23.390625 
Q 54.890625 11.625 47.5625 5.09375 
Q 40.234375 -1.421875 26.90625 -1.421875 
Q 22.3125 -1.421875 17.546875 -0.640625 
Q 12.796875 0.140625 7.71875 1.703125 
L 7.71875 11.625 
Q 12.109375 9.234375 16.796875 8.0625 
Q 21.484375 6.890625 26.703125 6.890625 
Q 35.15625 6.890625 40.078125 11.328125 
Q 45.015625 15.765625 45.015625 23.390625 
Q 45.015625 31 40.078125 35.4375 
Q 35.15625 39.890625 26.703125 39.890625 
Q 22.75 39.890625 18.8125 39.015625 
Q 14.890625 38.140625 10.796875 36.28125 
z
" id="DejaVuSans-53"/>
      </defs>
      <g transform="translate(329.568156 287.910437)scale(0.1 -0.1)">
       <use xlink:href="#DejaVuSans-53"/>
       <use x="63.623047" xlink:href="#DejaVuSans-48"/>
       <use x="127.246094" xlink:href="#DejaVuSans-48"/>
      </g>
     </g>
    </g>
    <g id="text_7">
     <!-- time (s) -->
     <defs>
      <path d="M 18.3125 70.21875 
L 18.3125 54.6875 
L 36.8125 54.6875 
L 36.8125 47.703125 
L 18.3125 47.703125 
L 18.3125 18.015625 
Q 18.3125 11.328125 20.140625 9.421875 
Q 21.96875 7.515625 27.59375 7.515625 
L 36.8125 7.515625 
L 36.8125 0 
L 27.59375 0 
Q 17.1875 0 13.234375 3.875 
Q 9.28125 7.765625 9.28125 18.015625 
L 9.28125 47.703125 
L 2.6875 47.703125 
L 2.6875 54.6875 
L 9.28125 54.6875 
L 9.28125 70.21875 
z
" id="DejaVuSans-116"/>
      <path d="M 9.421875 54.6875 
L 18.40625 54.6875 
L 18.40625 0 
L 9.421875 0 
z
M 9.421875 75.984375 
L 18.40625 75.984375 
L 18.40625 64.59375 
L 9.421875 64.59375 
z
" id="DejaVuSans-105"/>
      <path d="M 52 44.1875 
Q 55.375 50.25 60.0625 53.125 
Q 64.75 56 71.09375 56 
Q 79.640625 56 84.28125 50.015625 
Q 88.921875 44.046875 88.921875 33.015625 
L 88.921875 0 
L 79.890625 0 
L 79.890625 32.71875 
Q 79.890625 40.578125 77.09375 44.375 
Q 74.3125 48.1875 68.609375 48.1875 
Q 61.625 48.1875 57.5625 43.546875 
Q 53.515625 38.921875 53.515625 30.90625 
L 53.515625 0 
L 44.484375 0 
L 44.484375 32.71875 
Q 44.484375 40.625 41.703125 44.40625 
Q 38.921875 48.1875 33.109375 48.1875 
Q 26.21875 48.1875 22.15625 43.53125 
Q 18.109375 38.875 18.109375 30.90625 
L 18.109375 0 
L 9.078125 0 
L 9.078125 54.6875 
L 18.109375 54.6875 
L 18.109375 46.1875 
Q 21.1875 51.21875 25.484375 53.609375 
Q 29.78125 56 35.6875 56 
Q 41.65625 56 45.828125 52.96875 
Q 50 49.953125 52 44.1875 
z
" id="DejaVuSans-109"/>
      <path d="M 56.203125 29.59375 
L 56.203125 25.203125 
L 14.890625 25.203125 
Q 15.484375 15.921875 20.484375 11.0625 
Q 25.484375 6.203125 34.421875 6.203125 
Q 39.59375 6.203125 44.453125 7.46875 
Q 49.3125 8.734375 54.109375 11.28125 
L 54.109375 2.78125 
Q 49.265625 0.734375 44.1875 -0.34375 
Q 39.109375 -1.421875 33.890625 -1.421875 
Q 20.796875 -1.421875 13.15625 6.1875 
Q 5.515625 13.8125 5.515625 26.8125 
Q 5.515625 40.234375 12.765625 48.109375 
Q 20.015625 56 32.328125 56 
Q 43.359375 56 49.78125 48.890625 
Q 56.203125 41.796875 56.203125 29.59375 
z
M 47.21875 32.234375 
Q 47.125 39.59375 43.09375 43.984375 
Q 39.0625 48.390625 32.421875 48.390625 
Q 24.90625 48.390625 20.390625 44.140625 
Q 15.875 39.890625 15.1875 32.171875 
z
" id="DejaVuSans-101"/>
      <path id="DejaVuSans-32"/>
      <path d="M 31 75.875 
Q 24.46875 64.65625 21.28125 53.65625 
Q 18.109375 42.671875 18.109375 31.390625 
Q 18.109375 20.125 21.3125 9.0625 
Q 24.515625 -2 31 -13.1875 
L 23.1875 -13.1875 
Q 15.875 -1.703125 12.234375 9.375 
Q 8.59375 20.453125 8.59375 31.390625 
Q 8.59375 42.28125 12.203125 53.3125 
Q 15.828125 64.359375 23.1875 75.875 
z
" id="DejaVuSans-40"/>
      <path d="M 44.28125 53.078125 
L 44.28125 44.578125 
Q 40.484375 46.53125 36.375 47.5 
Q 32.28125 48.484375 27.875 48.484375 
Q 21.1875 48.484375 17.84375 46.4375 
Q 14.5 44.390625 14.5 40.28125 
Q 14.5 37.15625 16.890625 35.375 
Q 19.28125 33.59375 26.515625 31.984375 
L 29.59375 31.296875 
Q 39.15625 29.25 43.1875 25.515625 
Q 47.21875 21.78125 47.21875 15.09375 
Q 47.21875 7.46875 41.1875 3.015625 
Q 35.15625 -1.421875 24.609375 -1.421875 
Q 20.21875 -1.421875 15.453125 -0.5625 
Q 10.6875 0.296875 5.421875 2 
L 5.421875 11.28125 
Q 10.40625 8.6875 15.234375 7.390625 
Q 20.0625 6.109375 24.8125 6.109375 
Q 31.15625 6.109375 34.5625 8.28125 
Q 37.984375 10.453125 37.984375 14.40625 
Q 37.984375 18.0625 35.515625 20.015625 
Q 33.0625 21.96875 24.703125 23.78125 
L 21.578125 24.515625 
Q 13.234375 26.265625 9.515625 29.90625 
Q 5.8125 33.546875 5.8125 39.890625 
Q 5.8125 47.609375 11.28125 51.796875 
Q 16.75 56 26.8125 56 
Q 31.78125 56 36.171875 55.265625 
Q 40.578125 54.546875 44.28125 53.078125 
z
" id="DejaVuSans-115"/>
      <path d="M 8.015625 75.875 
L 15.828125 75.875 
Q 23.140625 64.359375 26.78125 53.3125 
Q 30.421875 42.28125 30.421875 31.390625 
Q 30.421875 20.453125 26.78125 9.375 
Q 23.140625 -1.703125 15.828125 -13.1875 
L 8.015625 -13.1875 
Q 14.5 -2 17.703125 9.0625 
Q 20.90625 20.125 20.90625 31.390625 
Q 20.90625 42.671875 17.703125 53.65625 
Q 14.5 64.65625 8.015625 75.875 
z
" id="DejaVuSans-41"/>
     </defs>
     <g transform="translate(199.771719 301.588562)scale(0.1 -0.1)">
      <use xlink:href="#DejaVuSans-116"/>
      <use x="39.208984" xlink:href="#DejaVuSans-105"/>
      <use x="66.992188" xlink:href="#DejaVuSans-109"/>
      <use x="164.404297" xlink:href="#DejaVuSans-101"/>
      <use x="225.927734" xlink:href="#DejaVuSans-32"/>
      <use x="257.714844" xlink:href="#DejaVuSans-40"/>
      <use x="296.728516" xlink:href="#DejaVuSans-115"/>
      <use x="348.828125" xlink:href="#DejaVuSans-41"/>
     </g>
    </g>
   </g>
   <g id="matplotlib.axis_2">
    <g id="ytick_1">
     <g id="line2d_13">
      <path clip-path="url(#p5faedadfd5)" d="M 40.603125 251.136 
L 397.723125 251.136 
" style="fill:none;stroke:#b0b0b0;stroke-linecap:square;stroke-width:0.8;"/>
     </g>
     <g id="line2d_14">
      <defs>
       <path d="M 0 0 
L -3.5 0 
" id="me49906bc58" style="stroke:#000000;stroke-width:0.8;"/>
      </defs>
      <g>
       <use style="stroke:#000000;stroke-width:0.8;" x="40.603125" xlink:href="#me49906bc58" y="251.136"/>
      </g>
     </g>
     <g id="text_8">
      <!-- 30 -->
      <g transform="translate(20.878125 254.935219)scale(0.1 -0.1)">
       <use xlink:href="#DejaVuSans-51"/>
       <use x="63.623047" xlink:href="#DejaVuSans-48"/>
      </g>
     </g>
    </g>
    <g id="ytick_2">
     <g id="line2d_15">
      <path clip-path="url(#p5faedadfd5)" d="M 40.603125 206.784 
L 397.723125 206.784 
" style="fill:none;stroke:#b0b0b0;stroke-linecap:square;stroke-width:0.8;"/>
     </g>
     <g id="line2d_16">
      <g>
       <use style="stroke:#000000;stroke-width:0.8;" x="40.603125" xlink:href="#me49906bc58" y="206.784"/>
      </g>
     </g>
     <g id="text_9">
      <!-- 40 -->
      <g transform="translate(20.878125 210.583219)scale(0.1 -0.1)">
       <use xlink:href="#DejaVuSans-52"/>
       <use x="63.623047" xlink:href="#DejaVuSans-48"/>
      </g>
     </g>
    </g>
    <g id="ytick_3">
     <g id="line2d_17">
      <path clip-path="url(#p5faedadfd5)" d="M 40.603125 162.432 
L 397.723125 162.432 
" style="fill:none;stroke:#b0b0b0;stroke-linecap:square;stroke-width:0.8;"/>
     </g>
     <g id="line2d_18">
      <g>
       <use style="stroke:#000000;stroke-width:0.8;" x="40.603125" xlink:href="#me49906bc58" y="162.432"/>
      </g>
     </g>
     <g id="text_10">
      <!-- 50 -->
      <g transform="translate(20.878125 166.231219)scale(0.1 -0.1)">
       <use xlink:href="#DejaVuSans-53"/>
       <use x="63.623047" xlink:href="#DejaVuSans-48"/>
      </g>
     </g>
    </g>
    <g id="ytick_4">
     <g id="line2d_19">
      <path clip-path="url(#p5faedadfd5)" d="M 40.603125 118.08 
L 397.723125 118.08 
" style="fill:none;stroke:#b0b0b0;stroke-linecap:square;stroke-width:0.8;"/>
     </g>
     <g id="line2d_20">
      <g>
       <use style="stroke:#000000;stroke-width:0.8;" x="40.603125" xlink:href="#me49906bc58" y="118.08"/>
      </g>
     </g>
     <g id="text_11">
      <!-- 60 -->
      <defs>
       <path d="M 33.015625 40.375 
Q 26.375 40.375 22.484375 35.828125 
Q 18.609375 31.296875 18.609375 23.390625 
Q 18.609375 15.53125 22.484375 10.953125 
Q 26.375 6.390625 33.015625 6.390625 
Q 39.65625 6.390625 43.53125 10.953125 
Q 47.40625 15.53125 47.40625 23.390625 
Q 47.40625 31.296875 43.53125 35.828125 
Q 39.65625 40.375 33.015625 40.375 
z
M 52.59375 71.296875 
L 52.59375 62.3125 
Q 48.875 64.0625 45.09375 64.984375 
Q 41.3125 65.921875 37.59375 65.921875 
Q 27.828125 65.921875 22.671875 59.328125 
Q 17.53125 52.734375 16.796875 39.40625 
Q 19.671875 43.65625 24.015625 45.921875 
Q 28.375 48.1875 33.59375 48.1875 
Q 44.578125 48.1875 50.953125 41.515625 
Q 57.328125 34.859375 57.328125 23.390625 
Q 57.328125 12.15625 50.6875 5.359375 
Q 44.046875 -1.421875 33.015625 -1.421875 
Q 20.359375 -1.421875 13.671875 8.265625 
Q 6.984375 17.96875 6.984375 36.375 
Q 6.984375 53.65625 15.1875 63.9375 
Q 23.390625 74.21875 37.203125 74.21875 
Q 40.921875 74.21875 44.703125 73.484375 
Q 48.484375 72.75 52.59375 71.296875 
z
" id="DejaVuSans-54"/>
      </defs>
      <g transform="translate(20.878125 121.879219)scale(0.1 -0.1)">
       <use xlink:href="#DejaVuSans-54"/>
       <use x="63.623047" xlink:href="#DejaVuSans-48"/>
      </g>
     </g>
    </g>
    <g id="ytick_5">
     <g id="line2d_21">
      <path clip-path="url(#p5faedadfd5)" d="M 40.603125 73.728 
L 397.723125 73.728 
" style="fill:none;stroke:#b0b0b0;stroke-linecap:square;stroke-width:0.8;"/>
     </g>
     <g id="line2d_22">
      <g>
       <use style="stroke:#000000;stroke-width:0.8;" x="40.603125" xlink:href="#me49906bc58" y="73.728"/>
      </g>
     </g>
     <g id="text_12">
      <!-- 70 -->
      <defs>
       <path d="M 8.203125 72.90625 
L 55.078125 72.90625 
L 55.078125 68.703125 
L 28.609375 0 
L 18.3125 0 
L 43.21875 64.59375 
L 8.203125 64.59375 
z
" id="DejaVuSans-55"/>
      </defs>
      <g transform="translate(20.878125 77.527219)scale(0.1 -0.1)">
       <use xlink:href="#DejaVuSans-55"/>
       <use x="63.623047" xlink:href="#DejaVuSans-48"/>
      </g>
     </g>
    </g>
    <g id="ytick_6">
     <g id="line2d_23">
      <path clip-path="url(#p5faedadfd5)" d="M 40.603125 29.376 
L 397.723125 29.376 
" style="fill:none;stroke:#b0b0b0;stroke-linecap:square;stroke-width:0.8;"/>
     </g>
     <g id="line2d_24">
      <g>
       <use style="stroke:#000000;stroke-width:0.8;" x="40.603125" xlink:href="#me49906bc58" y="29.376"/>
      </g>
     </g>
     <g id="text_13">
      <!-- 80 -->
      <defs>
       <path d="M 31.78125 34.625 
Q 24.75 34.625 20.71875 30.859375 
Q 16.703125 27.09375 16.703125 20.515625 
Q 16.703125 13.921875 20.71875 10.15625 
Q 24.75 6.390625 31.78125 6.390625 
Q 38.8125 6.390625 42.859375 10.171875 
Q 46.921875 13.96875 46.921875 20.515625 
Q 46.921875 27.09375 42.890625 30.859375 
Q 38.875 34.625 31.78125 34.625 
z
M 21.921875 38.8125 
Q 15.578125 40.375 12.03125 44.71875 
Q 8.5 49.078125 8.5 55.328125 
Q 8.5 64.0625 14.71875 69.140625 
Q 20.953125 74.21875 31.78125 74.21875 
Q 42.671875 74.21875 48.875 69.140625 
Q 55.078125 64.0625 55.078125 55.328125 
Q 55.078125 49.078125 51.53125 44.71875 
Q 48 40.375 41.703125 38.8125 
Q 48.828125 37.15625 52.796875 32.3125 
Q 56.78125 27.484375 56.78125 20.515625 
Q 56.78125 9.90625 50.3125 4.234375 
Q 43.84375 -1.421875 31.78125 -1.421875 
Q 19.734375 -1.421875 13.25 4.234375 
Q 6.78125 9.90625 6.78125 20.515625 
Q 6.78125 27.484375 10.78125 32.3125 
Q 14.796875 37.15625 21.921875 38.8125 
z
M 18.3125 54.390625 
Q 18.3125 48.734375 21.84375 45.5625 
Q 25.390625 42.390625 31.78125 42.390625 
Q 38.140625 42.390625 41.71875 45.5625 
Q 45.3125 48.734375 45.3125 54.390625 
Q 45.3125 60.0625 41.71875 63.234375 
Q 38.140625 66.40625 31.78125 66.40625 
Q 25.390625 66.40625 21.84375 63.234375 
Q 18.3125 60.0625 18.3125 54.390625 
z
" id="DejaVuSans-56"/>
      </defs>
      <g transform="translate(20.878125 33.175219)scale(0.1 -0.1)">
       <use xlink:href="#DejaVuSans-56"/>
       <use x="63.623047" xlink:href="#DejaVuSans-48"/>
      </g>
     </g>
    </g>
    <g id="text_14">
     <!-- temperature (°C) -->
     <defs>
      <path d="M 18.109375 8.203125 
L 18.109375 -20.796875 
L 9.078125 -20.796875 
L 9.078125 54.6875 
L 18.109375 54.6875 
L 18.109375 46.390625 
Q 20.953125 51.265625 25.265625 53.625 
Q 29.59375 56 35.59375 56 
Q 45.5625 56 51.78125 48.09375 
Q 58.015625 40.1875 58.015625 27.296875 
Q 58.015625 14.40625 51.78125 6.484375 
Q 45.5625 -1.421875 35.59375 -1.421875 
Q 29.59375 -1.421875 25.265625 0.953125 
Q 20.953125 3.328125 18.109375 8.203125 
z
M 48.6875 27.296875 
Q 48.6875 37.203125 44.609375 42.84375 
Q 40.53125 48.484375 33.40625 48.484375 
Q 26.265625 48.484375 22.1875 42.84375 
Q 18.109375 37.203125 18.109375 27.296875 
Q 18.109375 17.390625 22.1875 11.75 
Q 26.265625 6.109375 33.40625 6.109375 
Q 40.53125 6.109375 44.609375 11.75 
Q 48.6875 17.390625 48.6875 27.296875 
z
" id="DejaVuSans-112"/>
      <path d="M 41.109375 46.296875 
Q 39.59375 47.171875 37.8125 47.578125 
Q 36.03125 48 33.890625 48 
Q 26.265625 48 22.1875 43.046875 
Q 18.109375 38.09375 18.109375 28.8125 
L 18.109375 0 
L 9.078125 0 
L 9.078125 54.6875 
L 18.109375 54.6875 
L 18.109375 46.1875 
Q 20.953125 51.171875 25.484375 53.578125 
Q 30.03125 56 36.53125 56 
Q 37.453125 56 38.578125 55.875 
Q 39.703125 55.765625 41.0625 55.515625 
z
" id="DejaVuSans-114"/>
      <path d="M 34.28125 27.484375 
Q 23.390625 27.484375 19.1875 25 
Q 14.984375 22.515625 14.984375 16.5 
Q 14.984375 11.71875 18.140625 8.90625 
Q 21.296875 6.109375 26.703125 6.109375 
Q 34.1875 6.109375 38.703125 11.40625 
Q 43.21875 16.703125 43.21875 25.484375 
L 43.21875 27.484375 
z
M 52.203125 31.203125 
L 52.203125 0 
L 43.21875 0 
L 43.21875 8.296875 
Q 40.140625 3.328125 35.546875 0.953125 
Q 30.953125 -1.421875 24.3125 -1.421875 
Q 15.921875 -1.421875 10.953125 3.296875 
Q 6 8.015625 6 15.921875 
Q 6 25.140625 12.171875 29.828125 
Q 18.359375 34.515625 30.609375 34.515625 
L 43.21875 34.515625 
L 43.21875 35.40625 
Q 43.21875 41.609375 39.140625 45 
Q 35.0625 48.390625 27.6875 48.390625 
Q 23 48.390625 18.546875 47.265625 
Q 14.109375 46.140625 10.015625 43.890625 
L 10.015625 52.203125 
Q 14.9375 54.109375 19.578125 55.046875 
Q 24.21875 56 28.609375 56 
Q 40.484375 56 46.34375 49.84375 
Q 52.203125 43.703125 52.203125 31.203125 
z
" id="DejaVuSans-97"/>
      <path d="M 8.5 21.578125 
L 8.5 54.6875 
L 17.484375 54.6875 
L 17.484375 21.921875 
Q 17.484375 14.15625 20.5 10.265625 
Q 23.53125 6.390625 29.59375 6.390625 
Q 36.859375 6.390625 41.078125 11.03125 
Q 45.3125 15.671875 45.3125 23.6875 
L 45.3125 54.6875 
L 54.296875 54.6875 
L 54.296875 0 
L 45.3125 0 
L 45.3125 8.40625 
Q 42.046875 3.421875 37.71875 1 
Q 33.40625 -1.421875 27.6875 -1.421875 
Q 18.265625 -1.421875 13.375 4.4375 
Q 8.5 10.296875 8.5 21.578125 
z
M 31.109375 56 
z
" id="DejaVuSans-117"/>
      <path d="M 25 67.921875 
Q 21.09375 67.921875 18.40625 65.203125 
Q 15.71875 62.5 15.71875 58.59375 
Q 15.71875 54.734375 18.40625 52.078125 
Q 21.09375 49.421875 25 49.421875 
Q 28.90625 49.421875 31.59375 52.078125 
Q 34.28125 54.734375 34.28125 58.59375 
Q 34.28125 62.453125 31.5625 65.1875 
Q 28.859375 67.921875 25 67.921875 
z
M 25 74.21875 
Q 28.125 74.21875 31 73.015625 
Q 33.890625 71.828125 35.984375 69.578125 
Q 38.234375 67.390625 39.359375 64.59375 
Q 40.484375 61.8125 40.484375 58.59375 
Q 40.484375 52.15625 35.96875 47.6875 
Q 31.453125 43.21875 24.90625 43.21875 
Q 18.3125 43.21875 13.90625 47.609375 
Q 9.515625 52 9.515625 58.59375 
Q 9.515625 65.140625 14 69.671875 
Q 18.5 74.21875 25 74.21875 
z
" id="DejaVuSans-176"/>
      <path d="M 64.40625 67.28125 
L 64.40625 56.890625 
Q 59.421875 61.53125 53.78125 63.8125 
Q 48.140625 66.109375 41.796875 66.109375 
Q 29.296875 66.109375 22.65625 58.46875 
Q 16.015625 50.828125 16.015625 36.375 
Q 16.015625 21.96875 22.65625 14.328125 
Q 29.296875 6.6875 41.796875 6.6875 
Q 48.140625 6.6875 53.78125 8.984375 
Q 59.421875 11.28125 64.40625 15.921875 
L 64.40625 5.609375 
Q 59.234375 2.09375 53.4375 0.328125 
Q 47.65625 -1.421875 41.21875 -1.421875 
Q 24.65625 -1.421875 15.125 8.703125 
Q 5.609375 18.84375 5.609375 36.375 
Q 5.609375 53.953125 15.125 64.078125 
Q 24.65625 74.21875 41.21875 74.21875 
Q 47.75 74.21875 53.53125 72.484375 
Q 59.328125 70.75 64.40625 67.28125 
z
" id="DejaVuSans-67"/>
     </defs>
     <g transform="translate(14.798438 183.27475)rotate(-90)scale(0.1 -0.1)">
      <use xlink:href="#DejaVuSans-116"/>
      <use x="39.208984" xlink:href="#DejaVuSans-101"/>
      <use x="100.732422" xlink:href="#DejaVuSans-109"/>
      <use x="198.144531" xlink:href="#DejaVuSans-112"/>
      <use x="261.621094" xlink:href="#DejaVuSans-101"/>
      <use x="323.144531" xlink:href="#DejaVuSans-114"/>
      <use x="364.257812" xlink:href="#DejaVuSans-97"/>
      <use x="425.537109" xlink:href="#DejaVuSans-116"/>
      <use x="464.746094" xlink:href="#DejaVuSans-117"/>
      <use x="528.125" xlink:href="#DejaVuSans-114"/>
      <use x="569.207031" xlink:href="#DejaVuSans-101"/>
      <use x="630.730469" xlink:href="#DejaVuSans-32"/>
      <use x="662.517578" xlink:href="#DejaVuSans-40"/>
      <use x="701.53125" xlink:href="#DejaVuSans-176"/>
      <use x="751.53125" xlink:href="#DejaVuSans-67"/>
      <use x="821.355469" xlink:href="#DejaVuSans-41"/>
     </g>
    </g>
   </g>
   <g id="line2d_25">
    <path clip-path="url(#p5faedadfd5)" d="M 40.603125 183.37945 
L 41.797543 185.539392 
L 42.991991 183.37945 
L 44.186445 176.899622 
L 45.380901 179.059565 
L 47.769807 179.059565 
L 48.964255 183.37945 
L 50.158729 176.899622 
L 51.353182 183.37945 
L 52.547641 176.899622 
L 53.742099 179.059565 
L 56.131028 179.059565 
L 57.325478 176.899622 
L 58.524598 181.219507 
L 60.91352 176.899622 
L 62.10797 181.219507 
L 63.302415 181.219507 
L 64.496868 179.059565 
L 68.080206 179.059565 
L 69.274654 181.219507 
L 71.663554 181.219507 
L 72.858001 176.899622 
L 74.052444 183.37945 
L 76.441381 174.73968 
L 77.635839 181.219507 
L 78.83029 174.73968 
L 80.024749 179.059565 
L 81.219197 179.059565 
L 82.41364 183.37945 
L 83.608093 174.73968 
L 84.802533 179.059565 
L 85.996976 179.059565 
L 87.191419 176.899622 
L 88.385863 181.219507 
L 89.580316 176.899622 
L 90.774768 176.899622 
L 91.969217 174.73968 
L 93.16371 179.059565 
L 94.358236 176.899622 
L 96.747192 181.219507 
L 99.136233 176.899622 
L 100.330681 181.219507 
L 101.525125 174.73968 
L 102.71957 176.899622 
L 105.108477 172.579738 
L 106.302923 176.899622 
L 107.497375 176.899622 
L 108.691848 179.059565 
L 109.886348 172.579738 
L 111.080824 174.73968 
L 112.275301 179.059565 
L 113.469809 172.579738 
L 114.664279 176.899622 
L 115.858784 179.059565 
L 117.053292 174.73968 
L 118.247802 174.73968 
L 119.442314 176.899622 
L 121.831309 172.579738 
L 124.22034 176.899622 
L 125.414853 174.73968 
L 126.609362 179.059565 
L 127.803877 170.419795 
L 128.998386 176.899622 
L 130.192901 174.73968 
L 131.387443 159.620083 
L 133.776192 155.300198 
L 134.970511 157.460141 
L 136.164828 153.140256 
L 137.359144 153.140256 
L 138.553455 155.300198 
L 139.747769 153.140256 
L 140.942086 148.820371 
L 142.1364 148.820371 
L 143.330717 150.980314 
L 144.525039 144.500486 
L 145.719352 144.500486 
L 146.913664 148.820371 
L 148.107964 148.820371 
L 150.496585 144.500486 
L 151.690904 140.180602 
L 152.885228 144.500486 
L 154.079551 140.180602 
L 155.273866 144.500486 
L 156.468183 144.500486 
L 157.662499 140.180602 
L 158.856816 142.340544 
L 160.051131 140.180602 
L 161.245447 140.180602 
L 162.439767 138.020659 
L 163.634081 140.180602 
L 164.828397 138.020659 
L 166.022714 138.020659 
L 167.21703 133.700774 
L 169.605688 138.020659 
L 170.800003 133.700774 
L 171.99432 135.860717 
L 174.382949 131.540832 
L 176.771577 131.540832 
L 177.965866 135.860717 
L 179.160255 131.540832 
L 180.354585 131.540832 
L 181.548901 129.38089 
L 182.743218 131.540832 
L 183.937566 127.220947 
L 185.131882 125.061005 
L 186.3262 129.38089 
L 187.520515 127.220947 
L 191.103475 127.220947 
L 193.492123 122.901062 
L 194.686451 125.061005 
L 195.880768 125.061005 
L 197.075089 127.220947 
L 199.463718 122.901062 
L 201.852375 122.901062 
L 203.04669 118.581178 
L 204.241006 122.901062 
L 205.435321 118.581178 
L 206.629626 122.901062 
L 207.823943 118.581178 
L 209.018235 120.74112 
L 214.990645 120.74112 
L 216.185131 118.581178 
L 217.379601 120.74112 
L 218.574075 116.421235 
L 219.768551 114.261293 
L 220.963025 116.421235 
L 222.157498 112.10135 
L 223.35197 116.421235 
L 225.740907 116.421235 
L 226.935385 114.261293 
L 228.129859 116.421235 
L 230.518799 116.421235 
L 231.713278 114.261293 
L 232.907789 114.261293 
L 234.102259 116.421235 
L 235.296726 114.261293 
L 236.491198 116.421235 
L 237.685661 114.261293 
L 238.880102 109.941408 
L 240.074542 114.261293 
L 241.26904 109.941408 
L 242.46351 107.781466 
L 243.657977 112.10135 
L 246.04692 112.10135 
L 247.241395 109.941408 
L 248.435955 109.941408 
L 249.630431 112.10135 
L 250.824903 107.781466 
L 252.019379 109.941408 
L 253.213851 109.941408 
L 254.408318 107.781466 
L 255.60279 107.781466 
L 257.991754 112.10135 
L 259.186226 107.781466 
L 260.380699 109.941408 
L 261.575169 109.941408 
L 262.769641 103.461581 
L 263.964114 107.781466 
L 265.158598 103.461581 
L 267.54754 107.781466 
L 268.74201 107.781466 
L 269.936481 105.621523 
L 271.130944 101.301638 
L 272.32539 103.461581 
L 273.519829 103.461581 
L 274.714266 107.781466 
L 275.908736 103.461581 
L 277.103207 103.461581 
L 278.297681 107.781466 
L 279.492155 101.301638 
L 280.686639 103.461581 
L 281.881117 103.461581 
L 283.075596 101.301638 
L 285.464548 105.621523 
L 287.853511 101.301638 
L 289.047987 101.301638 
L 290.242483 99.141696 
L 291.436953 101.301638 
L 292.631426 96.981754 
L 293.825895 101.301638 
L 295.020368 99.141696 
L 296.214839 103.461581 
L 297.409312 99.141696 
L 298.603789 103.461581 
L 299.798258 105.621523 
L 302.187189 96.981754 
L 303.381656 99.141696 
L 304.576126 99.141696 
L 305.770567 103.461581 
L 306.965008 99.141696 
L 308.159505 96.981754 
L 309.353922 101.301638 
L 310.548671 120.74112 
L 311.743559 120.74112 
L 312.938009 116.421235 
L 314.132453 114.261293 
L 315.326897 122.901062 
L 316.52134 116.421235 
L 317.715786 118.581178 
L 320.104694 118.581178 
L 322.493596 122.901062 
L 323.688045 120.74112 
L 326.076944 125.061005 
L 327.271392 125.061005 
L 328.46584 129.38089 
L 329.660327 122.901062 
L 330.85478 122.901062 
L 332.049235 125.061005 
L 333.243693 125.061005 
L 334.438147 127.220947 
L 335.632601 127.220947 
L 336.827047 125.061005 
L 338.021492 129.38089 
L 339.215936 131.540832 
L 340.41038 125.061005 
L 341.604842 127.220947 
L 342.799296 125.061005 
L 343.993752 129.38089 
L 346.382686 129.38089 
L 347.577136 131.540832 
L 348.771678 127.220947 
L 349.966117 133.700774 
L 352.355044 133.700774 
L 353.549487 129.38089 
L 354.743932 129.38089 
L 355.93838 133.700774 
L 357.13283 131.540832 
L 358.327279 133.700774 
L 359.52173 133.700774 
L 360.71618 131.540832 
L 361.910654 135.860717 
L 363.105148 138.020659 
L 364.299616 131.540832 
L 365.494074 133.700774 
L 371.466299 133.700774 
L 372.660745 135.860717 
L 373.855194 133.700774 
L 375.049643 133.700774 
L 376.244098 138.020659 
L 377.438543 140.180602 
L 378.632992 135.860717 
L 379.827458 133.700774 
L 381.021911 140.180602 
L 382.216355 135.860717 
L 383.410801 140.180602 
L 384.605246 142.340544 
L 385.79969 138.020659 
L 386.994134 138.020659 
L 388.188581 133.700774 
L 389.383028 140.180602 
L 390.57747 140.180602 
L 391.771917 135.860717 
L 392.966357 140.180602 
L 395.35525 140.180602 
L 396.549691 142.340544 
L 397.744171 142.340544 
L 398.938622 138.020659 
L 398.938622 138.020659 
" style="fill:none;stroke:#1f77b4;stroke-linecap:square;stroke-width:1.5;"/>
   </g>
   <g id="line2d_26">
    <path clip-path="url(#p5faedadfd5)" d="M 40.603125 241.697894 
L 41.797562 243.857837 
L 45.380934 243.857837 
L 47.769848 248.177722 
L 48.964305 243.857837 
L 52.547683 250.337664 
L 53.742182 241.697894 
L 54.93665 239.537952 
L 56.131096 243.857837 
L 57.325551 243.857837 
L 58.52001 246.017779 
L 59.714468 241.697894 
L 60.908924 241.697894 
L 62.103373 246.017779 
L 63.297836 241.697894 
L 65.686757 246.017779 
L 66.881214 241.697894 
L 68.075664 243.857837 
L 69.270119 241.697894 
L 70.464607 243.857837 
L 72.853524 243.857837 
L 74.047974 246.017779 
L 75.242427 241.697894 
L 76.436878 246.017779 
L 77.631319 246.017779 
L 78.825767 243.857837 
L 80.020205 246.017779 
L 81.214649 243.857837 
L 83.603538 243.857837 
L 84.797986 241.697894 
L 85.992434 246.017779 
L 87.186875 241.697894 
L 88.381366 241.697894 
L 89.575821 243.857837 
L 90.77029 248.177722 
L 91.964752 246.017779 
L 93.159191 248.177722 
L 94.353636 241.697894 
L 95.548066 241.697894 
L 96.742504 246.017779 
L 97.936938 246.017779 
L 99.131381 241.697894 
L 100.325821 241.697894 
L 101.520279 243.857837 
L 102.714726 239.537952 
L 103.909175 239.537952 
L 105.103663 241.697894 
L 106.298118 246.017779 
L 107.492569 243.857837 
L 108.687021 243.857837 
L 109.88147 246.017779 
L 111.075918 241.697894 
L 112.270363 243.857837 
L 113.464812 241.697894 
L 114.65926 243.857837 
L 115.853726 241.697894 
L 117.048186 243.857837 
L 118.242652 248.177722 
L 120.631557 243.857837 
L 121.82605 246.017779 
L 123.020505 243.857837 
L 124.21497 243.857837 
L 125.409434 239.537952 
L 126.603891 246.017779 
L 128.992791 246.017779 
L 130.189324 241.697894 
L 131.384603 228.73824 
L 132.578885 224.418355 
L 133.773164 226.578298 
L 134.967445 226.578298 
L 136.161727 222.258413 
L 143.327434 222.258413 
L 144.521715 220.09847 
L 145.715998 222.258413 
L 146.910295 215.778586 
L 148.104575 220.09847 
L 150.493138 215.778586 
L 151.687421 217.938528 
L 152.881705 215.778586 
L 154.075986 215.778586 
L 155.270264 217.938528 
L 156.464544 215.778586 
L 157.658831 211.458701 
L 158.85312 213.618643 
L 163.630247 213.618643 
L 164.824528 209.298758 
L 166.018808 215.778586 
L 167.213324 209.298758 
L 169.601916 213.618643 
L 171.990482 209.298758 
L 173.184764 211.458701 
L 174.379045 207.138816 
L 175.573328 213.618643 
L 176.767612 209.298758 
L 177.961896 207.138816 
L 179.156176 209.298758 
L 180.350457 209.298758 
L 181.544737 207.138816 
L 182.73902 209.298758 
L 183.933313 204.978874 
L 185.127594 211.458701 
L 186.321881 204.978874 
L 187.516162 211.458701 
L 188.710445 207.138816 
L 189.904724 204.978874 
L 191.099011 209.298758 
L 193.487587 204.978874 
L 194.681871 209.298758 
L 198.264718 202.818931 
L 199.458998 207.138816 
L 200.653282 209.298758 
L 201.847566 204.978874 
L 206.624702 204.978874 
L 207.818992 202.818931 
L 209.013278 202.818931 
L 211.401841 207.138816 
L 212.596125 204.978874 
L 213.790406 204.978874 
L 216.178981 209.298758 
L 217.373263 207.138816 
L 218.567548 207.138816 
L 219.761831 204.978874 
L 220.956116 200.658989 
L 222.150401 202.818931 
L 223.344687 207.138816 
L 224.538968 207.138816 
L 225.733249 200.658989 
L 226.92753 202.818931 
L 228.121809 202.818931 
L 229.316103 204.978874 
L 230.51048 204.978874 
L 231.704763 200.658989 
L 232.899047 202.818931 
L 236.481892 202.818931 
L 237.676177 204.978874 
L 238.870458 202.818931 
L 241.259025 202.818931 
L 242.453305 204.978874 
L 243.64762 200.658989 
L 246.036187 200.658989 
L 247.230469 207.138816 
L 248.424757 198.499046 
L 249.61904 207.138816 
L 252.007607 198.499046 
L 253.201942 198.499046 
L 254.396229 200.658989 
L 255.590514 204.978874 
L 256.784795 198.499046 
L 257.979076 200.658989 
L 259.173357 200.658989 
L 260.367649 202.818931 
L 261.561958 196.339104 
L 262.75624 200.658989 
L 263.950524 198.499046 
L 266.339092 202.818931 
L 267.533372 200.658989 
L 273.50478 200.658989 
L 274.699065 204.978874 
L 277.087635 204.978874 
L 278.281923 198.499046 
L 279.476206 200.658989 
L 280.670489 200.658989 
L 281.864772 202.818931 
L 284.253335 202.818931 
L 285.447619 200.658989 
L 286.6419 200.658989 
L 287.836187 198.499046 
L 289.030469 200.658989 
L 290.224749 198.499046 
L 291.419026 194.179162 
L 292.613307 200.658989 
L 293.80759 202.818931 
L 295.001872 198.499046 
L 297.390435 202.818931 
L 298.584717 202.818931 
L 299.779006 198.499046 
L 300.973285 204.978874 
L 302.167569 198.499046 
L 303.361851 202.818931 
L 304.556133 200.658989 
L 306.9447 200.658989 
L 308.138984 194.179162 
L 309.333257 202.818931 
L 310.527601 209.298758 
L 311.722068 222.258413 
L 314.111005 217.938528 
L 315.305463 217.938528 
L 316.499931 222.258413 
L 317.69439 224.418355 
L 318.888849 220.09847 
L 320.083315 224.418355 
L 321.277819 222.258413 
L 322.472279 222.258413 
L 323.66673 224.418355 
L 324.861178 224.418355 
L 326.055631 222.258413 
L 327.250082 226.578298 
L 329.638983 226.578298 
L 330.833449 224.418355 
L 332.027917 224.418355 
L 333.222376 226.578298 
L 334.416848 230.898182 
L 335.611303 228.73824 
L 338.000247 228.73824 
L 339.194702 230.898182 
L 340.389162 230.898182 
L 342.778089 226.578298 
L 345.167004 235.218067 
L 346.361469 230.898182 
L 347.555935 220.09847 
L 348.750389 233.058125 
L 349.944838 226.578298 
L 351.139293 233.058125 
L 352.333752 230.898182 
L 353.528203 235.218067 
L 354.722714 226.578298 
L 357.111631 235.218067 
L 358.306084 233.058125 
L 359.500545 237.37801 
L 360.695002 233.058125 
L 361.889466 235.218067 
L 363.083932 233.058125 
L 364.278388 235.218067 
L 370.250639 235.218067 
L 371.445081 241.697894 
L 372.639536 230.898182 
L 373.833982 239.537952 
L 375.028421 237.37801 
L 376.222872 239.537952 
L 377.41733 233.058125 
L 378.611776 237.37801 
L 379.806233 237.37801 
L 381.000693 235.218067 
L 383.38961 239.537952 
L 384.584057 237.37801 
L 385.778504 239.537952 
L 386.972967 239.537952 
L 388.167463 235.218067 
L 389.361919 235.218067 
L 390.556376 237.37801 
L 391.750836 243.857837 
L 392.945291 239.537952 
L 394.13975 237.37801 
L 395.334206 239.537952 
L 396.528664 243.857837 
L 397.723125 241.697894 
L 397.723125 241.697894 
" style="fill:none;stroke:#ff7f0e;stroke-linecap:square;stroke-width:1.5;"/>
   </g>
   <g id="patch_3">
    <path d="M 40.603125 273.312 
L 40.603125 7.2 
" style="fill:none;stroke:#000000;stroke-linecap:square;stroke-linejoin:miter;stroke-width:0.8;"/>
   </g>
   <g id="patch_4">
    <path d="M 397.723125 273.312 
L 397.723125 7.2 
" style="fill:none;stroke:#000000;stroke-linecap:square;stroke-linejoin:miter;stroke-width:0.8;"/>
   </g>
   <g id="patch_5">
    <path d="M 40.603125 273.312 
L 397.723125 273.312 
" style="fill:none;stroke:#000000;stroke-linecap:square;stroke-linejoin:miter;stroke-width:0.8;"/>
   </g>
   <g id="patch_6">
    <path d="M 40.603125 7.2 
L 397.723125 7.2 
" style="fill:none;stroke:#000000;stroke-linecap:square;stroke-linejoin:miter;stroke-width:0.8;"/>
   </g>
   <g id="legend_1">
    <g id="patch_7">
     <path d="M 410.436725 39.55625 
L 479.969538 39.55625 
Q 481.969538 39.55625 481.969538 37.55625 
L 481.969538 9.2 
Q 481.969538 7.2 479.969538 7.2 
L 410.436725 7.2 
Q 408.436725 7.2 408.436725 9.2 
L 408.436725 37.55625 
Q 408.436725 39.55625 410.436725 39.55625 
z
" style="fill:#ffffff;opacity:0.8;stroke:#cccccc;stroke-linejoin:miter;"/>
    </g>
    <g id="line2d_27">
     <path d="M 412.436725 15.298437 
L 432.436725 15.298437 
" style="fill:none;stroke:#1f77b4;stroke-linecap:square;stroke-width:1.5;"/>
    </g>
    <g id="line2d_28"/>
    <g id="text_15">
     <!-- fans off -->
     <defs>
      <path d="M 37.109375 75.984375 
L 37.109375 68.5 
L 28.515625 68.5 
Q 23.6875 68.5 21.796875 66.546875 
Q 19.921875 64.59375 19.921875 59.515625 
L 19.921875 54.6875 
L 34.71875 54.6875 
L 34.71875 47.703125 
L 19.921875 47.703125 
L 19.921875 0 
L 10.890625 0 
L 10.890625 47.703125 
L 2.296875 47.703125 
L 2.296875 54.6875 
L 10.890625 54.6875 
L 10.890625 58.5 
Q 10.890625 67.625 15.140625 71.796875 
Q 19.390625 75.984375 28.609375 75.984375 
z
" id="DejaVuSans-102"/>
      <path d="M 54.890625 33.015625 
L 54.890625 0 
L 45.90625 0 
L 45.90625 32.71875 
Q 45.90625 40.484375 42.875 44.328125 
Q 39.84375 48.1875 33.796875 48.1875 
Q 26.515625 48.1875 22.3125 43.546875 
Q 18.109375 38.921875 18.109375 30.90625 
L 18.109375 0 
L 9.078125 0 
L 9.078125 54.6875 
L 18.109375 54.6875 
L 18.109375 46.1875 
Q 21.34375 51.125 25.703125 53.5625 
Q 30.078125 56 35.796875 56 
Q 45.21875 56 50.046875 50.171875 
Q 54.890625 44.34375 54.890625 33.015625 
z
" id="DejaVuSans-110"/>
      <path d="M 30.609375 48.390625 
Q 23.390625 48.390625 19.1875 42.75 
Q 14.984375 37.109375 14.984375 27.296875 
Q 14.984375 17.484375 19.15625 11.84375 
Q 23.34375 6.203125 30.609375 6.203125 
Q 37.796875 6.203125 41.984375 11.859375 
Q 46.1875 17.53125 46.1875 27.296875 
Q 46.1875 37.015625 41.984375 42.703125 
Q 37.796875 48.390625 30.609375 48.390625 
z
M 30.609375 56 
Q 42.328125 56 49.015625 48.375 
Q 55.71875 40.765625 55.71875 27.296875 
Q 55.71875 13.875 49.015625 6.21875 
Q 42.328125 -1.421875 30.609375 -1.421875 
Q 18.84375 -1.421875 12.171875 6.21875 
Q 5.515625 13.875 5.515625 27.296875 
Q 5.515625 40.765625 12.171875 48.375 
Q 18.84375 56 30.609375 56 
z
" id="DejaVuSans-111"/>
     </defs>
     <g transform="translate(440.436725 18.798437)scale(0.1 -0.1)">
      <use xlink:href="#DejaVuSans-102"/>
      <use x="35.205078" xlink:href="#DejaVuSans-97"/>
      <use x="96.484375" xlink:href="#DejaVuSans-110"/>
      <use x="159.863281" xlink:href="#DejaVuSans-115"/>
      <use x="211.962891" xlink:href="#DejaVuSans-32"/>
      <use x="243.75" xlink:href="#DejaVuSans-111"/>
      <use x="304.931641" xlink:href="#DejaVuSans-102"/>
      <use x="340.136719" xlink:href="#DejaVuSans-102"/>
     </g>
    </g>
    <g id="line2d_29">
     <path d="M 412.436725 29.976562 
L 432.436725 29.976562 
" style="fill:none;stroke:#ff7f0e;stroke-linecap:square;stroke-width:1.5;"/>
    </g>
    <g id="line2d_30"/>
    <g id="text_16">
     <!-- fans on -->
     <g transform="translate(440.436725 33.476562)scale(0.1 -0.1)">
      <use xlink:href="#DejaVuSans-102"/>
      <use x="35.205078" xlink:href="#DejaVuSans-97"/>
      <use x="96.484375" xlink:href="#DejaVuSans-110"/>
      <use x="159.863281" xlink:href="#DejaVuSans-115"/>
      <use x="211.962891" xlink:href="#DejaVuSans-32"/>
      <use x="243.75" xlink:href="#DejaVuSans-111"/>
      <use x="304.931641" xlink:href="#DejaVuSans-110"/>
     </g>
    </g>
   </g>
  </g>
 </g>
 <defs>
  <clipPath id="p5faedadfd5">
   <rect height="266.112" width="357.12" x="40.603125" y="7.2"/>
  </clipPath>
 </defs>
</svg>
