<svg height="414.491" viewBox="0 0 585.209 310.868" width="780.278" xmlns="http://www.w3.org/2000/svg" xmlns:xlink="http://www.w3.org/1999/xlink"><defs><style>*{stroke-linecap:butt;stroke-linejoin:round}</style></defs><g id="figure_1"><path d="M0 310.868h585.209V0H0z" fill="none" id="patch_1"/><g id="axes_1"><path d="M40.603 273.312h357.12V7.2H40.603z" fill="none" id="patch_2"/><g id="matplotlib.axis_1"><g id="xtick_1"><path clip-path="url(#p2e6d332f71)" d="M40.603 273.312V7.2" fill="none" stroke="#b0b0b0" stroke-linecap="square" stroke-width=".8" id="line2d_1"/><g id="line2d_2"><defs><path d="M0 0v3.5" id="ma00a5a0bdb" stroke="#000" stroke-width=".8"/></defs><use x="40.603" xlink:href="#ma00a5a0bdb" y="273.312" stroke="#000" stroke-width=".8"/></g><g id="text_1"><defs><path d="M31.781 66.406q-7.61 0-11.453-7.5Q16.5 51.422 16.5 36.375q0-14.984 3.828-22.484 3.844-7.5 11.453-7.5 7.672 0 11.5 7.5 3.844 7.5 3.844 22.484 0 15.047-3.844 22.531-3.828 7.5-11.5 7.5zm0 7.813q12.266 0 18.735-9.703 6.468-9.688 6.468-28.141 0-18.406-6.468-28.11-6.47-9.687-18.735-9.687-12.25 0-18.718 9.688-6.47 9.703-6.47 28.109 0 18.453 6.47 28.14Q19.53 74.22 31.78 74.22z" id="DejaVuSans-48"/></defs><use xlink:href="#DejaVuSans-48" transform="matrix(.1 0 0 -.1 37.422 287.91)"/></g></g><g id="xtick_2"><path clip-path="url(#p2e6d332f71)" d="M100.231 273.312V7.2" fill="none" stroke="#b0b0b0" stroke-linecap="square" stroke-width=".8" id="line2d_3"/><use x="100.231" xlink:href="#ma00a5a0bdb" y="273.312" stroke="#000" stroke-width=".8" id="line2d_4"/><g id="text_2"><defs><path d="M12.406 8.297h16.11v55.625l-17.532-3.516v8.985l17.438 3.515h9.86V8.296H54.39V0H12.406z" id="DejaVuSans-49"/></defs><g transform="matrix(.1 0 0 -.1 90.687 287.91)"><use xlink:href="#DejaVuSans-49"/><use x="63.623" xlink:href="#DejaVuSans-48"/><use x="127.246" xlink:href="#DejaVuSans-48"/></g></g></g><g id="xtick_3"><path clip-path="url(#p2e6d332f71)" d="M159.859 273.312V7.2" fill="none" stroke="#b0b0b0" stroke-linecap="square" stroke-width=".8" id="line2d_5"/><use x="159.859" xlink:href="#ma00a5a0bdb" y="273.312" stroke="#000" stroke-width=".8" id="line2d_6"/><g id="text_3"><defs><path d="M19.188 8.297h34.421V0H7.33v8.297q5.609 5.812 15.296 15.594 9.703 9.797 12.188 12.64 4.734 5.313 6.609 9 1.89 3.688 1.89 7.25 0 5.813-4.078 9.469-4.078 3.672-10.625 3.672-4.64 0-9.797-1.61-5.14-1.609-11-4.89v9.969Q13.767 71.78 18.938 73q5.188 1.219 9.485 1.219 11.328 0 18.062-5.672 6.735-5.656 6.735-15.125 0-4.5-1.688-8.531-1.672-4.016-6.125-9.485-1.218-1.422-7.765-8.187-6.532-6.766-18.453-18.922z" id="DejaVuSans-50"/></defs><g transform="matrix(.1 0 0 -.1 150.315 287.91)"><use xlink:href="#DejaVuSans-50"/><use x="63.623" xlink:href="#DejaVuSans-48"/><use x="127.246" xlink:href="#DejaVuSans-48"/></g></g></g><g id="xtick_4"><path clip-path="url(#p2e6d332f71)" d="M219.487 273.312V7.2" fill="none" stroke="#b0b0b0" stroke-linecap="square" stroke-width=".8" id="line2d_7"/><use x="219.487" xlink:href="#ma00a5a0bdb" y="273.312" stroke="#000" stroke-width=".8" id="line2d_8"/><g id="text_4"><defs><path d="M40.578 39.313Q47.656 37.797 51.625 33q3.984-4.781 3.984-11.813 0-10.78-7.422-16.703-7.421-5.906-21.093-5.906-4.578 0-9.438.906-4.86.907-10.031 2.72v9.515q4.094-2.39 8.969-3.61 4.89-1.218 10.218-1.218 9.266 0 14.125 3.656 4.86 3.656 4.86 10.64 0 6.454-4.516 10.079-4.515 3.64-12.562 3.64h-8.5v8.11h8.89q7.266 0 11.125 2.906 3.86 2.906 3.86 8.375 0 5.61-3.985 8.61-3.968 3.015-11.39 3.015-4.063 0-8.703-.89-4.641-.876-10.203-2.72v8.782q5.624 1.562 10.53 2.344 4.907.78 9.25.78 11.235 0 17.766-5.109 6.547-5.093 6.547-13.78 0-6.063-3.468-10.235-3.47-4.172-9.86-5.782z" id="DejaVuSans-51"/></defs><g transform="matrix(.1 0 0 -.1 209.943 287.91)"><use xlink:href="#DejaVuSans-51"/><use x="63.623" xlink:href="#DejaVuSans-48"/><use x="127.246" xlink:href="#DejaVuSans-48"/></g></g></g><g id="xtick_5"><path clip-path="url(#p2e6d332f71)" d="M279.115 273.312V7.2" fill="none" stroke="#b0b0b0" stroke-linecap="square" stroke-width=".8" id="line2d_9"/><use x="279.115" xlink:href="#ma00a5a0bdb" y="273.312" stroke="#000" stroke-width=".8" id="line2d_10"/><g id="text_5"><defs><path d="M37.797 64.313L12.89 25.39h24.906zm-2.594 8.593H47.61V25.391h10.407v-8.203H47.609V0h-9.812v17.188H4.89v9.515z" id="DejaVuSans-52"/></defs><g transform="matrix(.1 0 0 -.1 269.57 287.91)"><use xlink:href="#DejaVuSans-52"/><use x="63.623" xlink:href="#DejaVuSans-48"/><use x="127.246" xlink:href="#DejaVuSans-48"/></g></g></g><g id="xtick_6"><path clip-path="url(#p2e6d332f71)" d="M338.743 273.312V7.2" fill="none" stroke="#b0b0b0" stroke-linecap="square" stroke-width=".8" id="line2d_11"/><use x="338.743" xlink:href="#ma00a5a0bdb" y="273.312" stroke="#000" stroke-width=".8" id="line2d_12"/><g id="text_6"><defs><path d="M10.797 72.906h38.719v-8.312H19.828v-17.86q2.14.735 4.281 1.094 2.157.36 4.313.36 12.203 0 19.328-6.688 7.14-6.688 7.14-18.11 0-11.765-7.328-18.296-7.328-6.516-20.656-6.516-4.593 0-9.36.781-4.75.782-9.827 2.344v9.922q4.39-2.39 9.078-3.563 4.687-1.171 9.906-1.171 8.453 0 13.375 4.437 4.938 4.438 4.938 12.063 0 7.609-4.938 12.047-4.922 4.453-13.375 4.453-3.953 0-7.89-.875-3.922-.875-8.016-2.735z" id="DejaVuSans-53"/></defs><g transform="matrix(.1 0 0 -.1 329.199 287.91)"><use xlink:href="#DejaVuSans-53"/><use x="63.623" xlink:href="#DejaVuSans-48"/><use x="127.246" xlink:href="#DejaVuSans-48"/></g></g></g><g id="text_7"><defs><path d="M18.313 70.219V54.688h18.5v-6.985h-18.5V18.016q0-6.688 1.828-8.594 1.828-1.906 7.453-1.906h9.218V0h-9.218q-10.407 0-14.36 3.875-3.953 3.89-3.953 14.14v29.688H2.687v6.984h6.594V70.22z" id="DejaVuSans-116"/><path d="M9.422 54.688h8.984V0H9.422zm0 21.296h8.984v-11.39H9.422z" id="DejaVuSans-105"/><path d="M52 44.188q3.375 6.062 8.063 8.937Q64.75 56 71.093 56q8.548 0 13.188-5.984 4.64-5.97 4.64-17V0h-9.03v32.719q0 7.86-2.797 11.656-2.781 3.813-8.485 3.813-6.984 0-11.046-4.641-4.047-4.625-4.047-12.64V0h-9.032v32.719q0 7.906-2.78 11.687-2.782 3.782-8.595 3.782-6.89 0-10.953-4.657-4.047-4.656-4.047-12.625V0H9.08v54.688h9.03v-8.5q3.078 5.03 7.375 7.421Q29.781 56 35.687 56q5.97 0 10.141-3.031Q50 49.953 52 44.187z" id="DejaVuSans-109"/><path d="M56.203 29.594v-4.39H14.891q.593-9.282 5.593-14.142 5-4.859 13.938-4.859 5.172 0 10.031 1.266 4.86 1.265 9.656 3.812v-8.5Q49.266.734 44.187-.344 39.11-1.422 33.892-1.422q-13.094 0-20.735 7.61-7.64 7.625-7.64 20.625 0 13.421 7.25 21.296Q20.016 56 32.328 56q11.031 0 17.453-7.11 6.422-7.093 6.422-19.296zm-8.984 2.64q-.094 7.36-4.125 11.75-4.032 4.407-10.672 4.407-7.516 0-12.031-4.25-4.516-4.25-5.203-11.97z" id="DejaVuSans-101"/><path d="M31 75.875q-6.531-11.219-9.719-22.219-3.172-10.984-3.172-22.265 0-11.266 3.203-22.328Q24.517-2 31-13.188h-7.813Q15.875-1.704 12.235 9.375q-3.64 11.078-3.64 22.016 0 10.89 3.61 21.922 3.624 11.046 10.983 22.562z" id="DejaVuSans-40"/><path d="M44.281 53.078v-8.5q-3.797 1.953-7.906 2.922-4.094.984-8.5.984-6.688 0-10.031-2.047-3.344-2.046-3.344-6.156 0-3.125 2.39-4.906 2.391-1.781 9.626-3.39l3.078-.688q9.562-2.047 13.593-5.781 4.032-3.735 4.032-10.422 0-7.625-6.032-12.078-6.03-4.438-16.578-4.438-4.39 0-9.156.86Q10.688.296 5.422 2v9.281q4.984-2.594 9.812-3.89 4.829-1.282 9.579-1.282 6.343 0 9.75 2.172 3.421 2.172 3.421 6.125 0 3.656-2.468 5.61-2.453 1.953-10.813 3.765l-3.125.735q-8.344 1.75-12.062 5.39-3.704 3.64-3.704 9.985 0 7.718 5.47 11.906Q16.75 56 26.811 56q4.97 0 9.36-.734 4.406-.72 8.11-2.188z" id="DejaVuSans-115"/><path d="M8.016 75.875h7.812q7.313-11.516 10.953-22.563 3.64-11.03 3.64-21.921 0-10.938-3.64-22.016-3.64-11.078-10.953-22.563H8.016Q14.5-2 17.703 9.063q3.203 11.063 3.203 22.329 0 11.28-3.203 22.265-3.203 11-9.687 22.219z" id="DejaVuSans-41"/></defs><g transform="matrix(.1 0 0 -.1 199.772 301.589)"><use xlink:href="#DejaVuSans-116"/><use x="39.209" xlink:href="#DejaVuSans-105"/><use x="66.992" xlink:href="#DejaVuSans-109"/><use x="164.404" xlink:href="#DejaVuSans-101"/><use x="225.928" xlink:href="#DejaVuSans-32"/><use x="257.715" xlink:href="#DejaVuSans-40"/><use x="296.729" xlink:href="#DejaVuSans-115"/><use x="348.828" xlink:href="#DejaVuSans-41"/></g></g></g><g id="matplotlib.axis_2"><g id="ytick_1"><path clip-path="url(#p2e6d332f71)" d="M40.603 240.18h357.12" fill="none" stroke="#b0b0b0" stroke-linecap="square" stroke-width=".8" id="line2d_13"/><g id="line2d_14"><defs><path d="M0 0h-3.5" id="m4d06640d62" stroke="#000" stroke-width=".8"/></defs><use x="40.603" xlink:href="#m4d06640d62" y="240.179" stroke="#000" stroke-width=".8"/></g><g transform="matrix(.1 0 0 -.1 20.878 243.979)" id="text_8"><use xlink:href="#DejaVuSans-51"/><use x="63.623" xlink:href="#DejaVuSans-48"/></g></g><g id="ytick_2"><path clip-path="url(#p2e6d332f71)" d="M40.603 187.588h357.12" fill="none" stroke="#b0b0b0" stroke-linecap="square" stroke-width=".8" id="line2d_15"/><use x="40.603" xlink:href="#m4d06640d62" y="187.588" stroke="#000" stroke-width=".8" id="line2d_16"/><g transform="matrix(.1 0 0 -.1 20.878 191.387)" id="text_9"><use xlink:href="#DejaVuSans-52"/><use x="63.623" xlink:href="#DejaVuSans-48"/></g></g><g id="ytick_3"><path clip-path="url(#p2e6d332f71)" d="M40.603 134.997h357.12" fill="none" stroke="#b0b0b0" stroke-linecap="square" stroke-width=".8" id="line2d_17"/><use x="40.603" xlink:href="#m4d06640d62" y="134.997" stroke="#000" stroke-width=".8" id="line2d_18"/><g transform="matrix(.1 0 0 -.1 20.878 138.796)" id="text_10"><use xlink:href="#DejaVuSans-53"/><use x="63.623" xlink:href="#DejaVuSans-48"/></g></g><g id="ytick_4"><path clip-path="url(#p2e6d332f71)" d="M40.603 82.406h357.12" fill="none" stroke="#b0b0b0" stroke-linecap="square" stroke-width=".8" id="line2d_19"/><use x="40.603" xlink:href="#m4d06640d62" y="82.406" stroke="#000" stroke-width=".8" id="line2d_20"/><g id="text_11"><defs><path d="M33.016 40.375q-6.641 0-10.532-4.547-3.875-4.531-3.875-12.437 0-7.86 3.875-12.438 3.891-4.562 10.532-4.562 6.64 0 10.515 4.562 3.875 4.578 3.875 12.438 0 7.906-3.875 12.437-3.875 4.547-10.515 4.547zm19.578 30.922v-8.984q-3.719 1.75-7.5 2.671-3.782.938-7.5.938-9.766 0-14.922-6.594-5.14-6.594-5.875-19.922 2.875 4.25 7.219 6.516 4.359 2.266 9.578 2.266 10.984 0 17.36-6.672 6.374-6.657 6.374-18.125 0-11.235-6.64-18.032-6.641-6.78-17.672-6.78-12.657 0-19.344 9.687-6.688 9.703-6.688 28.109 0 17.281 8.204 27.563 8.203 10.28 22.015 10.28 3.719 0 7.5-.734t7.89-2.187z" id="DejaVuSans-54"/></defs><g transform="matrix(.1 0 0 -.1 20.878 86.205)"><use xlink:href="#DejaVuSans-54"/><use x="63.623" xlink:href="#DejaVuSans-48"/></g></g></g><g id="ytick_5"><path clip-path="url(#p2e6d332f71)" d="M40.603 29.814h357.12" fill="none" stroke="#b0b0b0" stroke-linecap="square" stroke-width=".8" id="line2d_21"/><use x="40.603" xlink:href="#m4d06640d62" y="29.814" stroke="#000" stroke-width=".8" id="line2d_22"/><g id="text_12"><defs><path d="M8.203 72.906h46.875v-4.203L28.61 0H18.312L43.22 64.594H8.203z" id="DejaVuSans-55"/></defs><g transform="matrix(.1 0 0 -.1 20.878 33.613)"><use xlink:href="#DejaVuSans-55"/><use x="63.623" xlink:href="#DejaVuSans-48"/></g></g></g><g id="text_13"><defs><path d="M18.11 8.203v-29H9.077v75.484h9.031v-8.296q2.844 4.875 7.157 7.234Q29.594 56 35.594 56q9.968 0 16.187-7.906 6.235-7.907 6.235-20.797T51.78 6.484q-6.218-7.906-16.187-7.906-6 0-10.328 2.375-4.313 2.375-7.157 7.25zm30.578 19.094q0 9.906-4.079 15.547-4.078 5.64-11.203 5.64-7.14 0-11.218-5.64-4.079-5.64-4.079-15.547 0-9.906 4.078-15.547 4.079-5.64 11.22-5.64 7.124 0 11.202 5.64t4.078 15.547z" id="DejaVuSans-112"/><path d="M41.11 46.297q-1.516.875-3.297 1.281Q36.03 48 33.89 48q-7.625 0-11.703-4.953-4.079-4.953-4.079-14.234V0H9.08v54.688h9.03v-8.5q2.844 4.984 7.375 7.39Q30.031 56 36.531 56q.922 0 2.047-.125 1.125-.11 2.484-.36z" id="DejaVuSans-114"/><path d="M34.281 27.484q-10.89 0-15.093-2.484-4.204-2.484-4.204-8.5 0-4.781 3.157-7.594 3.156-2.797 8.562-2.797 7.485 0 12 5.297 4.516 5.297 4.516 14.078v2zm17.922 3.72V0H43.22v8.297Q40.14 3.328 35.547.953q-4.594-2.375-11.234-2.375-8.391 0-13.36 4.719Q6 8.016 6 15.922q0 9.219 6.172 13.906 6.187 4.688 18.437 4.688h12.61v.89q0 6.203-4.078 9.594-4.078 3.39-11.453 3.39-4.688 0-9.141-1.124-4.438-1.125-8.531-3.375v8.312q4.921 1.906 9.562 2.844 4.64.953 9.031.953 11.875 0 17.735-6.156 5.86-6.14 5.86-18.64z" id="DejaVuSans-97"/><path d="M8.5 21.578v33.11h8.984V21.922q0-7.766 3.016-11.656 3.031-3.875 9.094-3.875 7.265 0 11.484 4.64 4.234 4.64 4.234 12.656v31h8.985V0h-8.984v8.406Q42.047 3.422 37.718 1q-4.313-2.422-10.032-2.422-9.421 0-14.312 5.86Q8.5 10.296 8.5 21.578zM31.11 56z" id="DejaVuSans-117"/><path d="M25 67.922q-3.906 0-6.594-2.719-2.687-2.703-2.687-6.61 0-3.859 2.687-6.515 2.688-2.656 6.594-2.656t6.594 2.656q2.687 2.656 2.687 6.516t-2.718 6.593Q28.858 67.922 25 67.922zm0 6.297q3.125 0 6-1.203 2.89-1.188 4.984-3.438 2.25-2.187 3.375-4.984 1.125-2.781 1.125-6 0-6.438-4.515-10.907-4.516-4.468-11.063-4.468-6.593 0-11 4.39Q9.516 52 9.516 58.594q0 6.547 4.484 11.078 4.5 4.547 11 4.547z" id="DejaVuSans-176"/><path d="M64.406 67.281v-10.39q-4.984 4.64-10.625 6.922-5.64 2.296-11.984 2.296-12.5 0-19.14-7.64-6.641-7.64-6.641-22.094 0-14.406 6.64-22.047 6.64-7.64 19.14-7.64 6.345 0 11.985 2.296 5.64 2.297 10.625 6.938V5.609Q59.234 2.094 53.437.33q-5.78-1.75-12.218-1.75-16.563 0-26.094 10.124-9.516 10.14-9.516 27.672 0 17.578 9.516 27.703 9.531 10.14 26.094 10.14 6.531 0 12.312-1.734 5.797-1.734 10.875-5.203z" id="DejaVuSans-67"/></defs><g transform="matrix(0 -.1 -.1 0 14.798 183.275)"><use xlink:href="#DejaVuSans-116"/><use x="39.209" xlink:href="#DejaVuSans-101"/><use x="100.732" xlink:href="#DejaVuSans-109"/><use x="198.145" xlink:href="#DejaVuSans-112"/><use x="261.621" xlink:href="#DejaVuSans-101"/><use x="323.145" xlink:href="#DejaVuSans-114"/><use x="364.258" xlink:href="#DejaVuSans-97"/><use x="425.537" xlink:href="#DejaVuSans-116"/><use x="464.746" xlink:href="#DejaVuSans-117"/><use x="528.125" xlink:href="#DejaVuSans-114"/><use x="569.207" xlink:href="#DejaVuSans-101"/><use x="630.73" xlink:href="#DejaVuSans-32"/><use x="662.518" xlink:href="#DejaVuSans-40"/><use x="701.531" xlink:href="#DejaVuSans-176"/><use x="751.531" xlink:href="#DejaVuSans-67"/><use x="821.355" xlink:href="#DejaVuSans-41"/></g></g></g><path clip-path="url(#p2e6d332f71)" d="M40.603 159.836l1.193 2.56 1.193-2.56 1.193-7.684 1.193 2.561h2.386l1.193 5.123 1.193-7.684 1.193 7.684 1.193-7.684 1.193 2.561h2.386l1.193-2.56 1.197 5.122 2.386-5.123 1.193 5.123h1.193l1.193-2.562h3.58l1.192 2.562h2.386l1.193-5.123 1.193 7.684 2.386-10.245 1.193 7.684 1.193-7.684 1.193 5.122h1.193l1.193 5.123 1.193-10.245 1.193 5.122h1.193l1.193-2.56 1.193 5.122 1.193-5.123h1.193l1.193-2.561 1.193 5.122 1.193-2.56 2.386 5.122 2.386-5.123 1.193 5.123 1.193-7.684 1.193 2.561 2.386-5.122 1.193 5.122h1.193l1.193 2.561 1.193-7.683 1.193 2.561 1.193 5.122 1.193-7.683 1.193 5.122 1.193 2.561 1.193-5.122h1.193l1.193 2.561 2.386-5.122 2.386 5.122 1.193-2.561 1.193 5.122 1.193-10.244 1.193 7.683 1.193-2.561 1.193-17.928 2.386-5.123 1.193 2.561 1.193-5.122h1.192l1.193 2.561 1.193-2.561 1.193-5.122h1.193l1.193 2.56 1.192-7.683h1.193l1.193 5.123h1.193l2.386-5.123 1.192-5.122 1.193 5.122 1.193-5.122 1.193 5.122h1.193l1.193-5.122 1.192 2.561 1.193-2.561h1.193l1.193-2.561 1.193 2.56 1.193-2.56h1.193l1.192-5.123 2.386 5.123 1.193-5.123 1.193 2.561 2.385-5.122h2.386l1.193 5.122 1.193-5.122h1.193l1.192-2.561 1.193 2.561 1.193-5.122 1.193-2.562 1.193 5.123 1.193-2.561h3.578l2.386-5.123 1.193 2.561h1.193l1.192 2.562 2.386-5.123h2.386L202.846 83l1.193 5.122L205.23 83l1.193 5.122L207.617 83l1.193 2.561h5.965L215.968 83l1.193 2.561 1.193-5.122 1.193-2.562 1.193 2.562 1.193-5.123 1.193 5.123h2.386l1.193-2.562 1.193 2.562h2.386l1.193-2.562h1.193l1.193 2.562 1.193-2.562 1.193 2.562 1.193-2.562 1.193-5.122 1.193 5.122 1.193-5.122 1.193-2.561 1.193 5.122h2.386l1.193-2.56h1.193l1.193 2.56 1.193-5.122 1.193 2.561h1.193l1.193-2.561h1.193l2.386 5.122 1.193-5.122 1.193 2.561h1.193l1.193-7.684 1.193 5.123 1.193-5.123 2.386 5.123h1.193l1.193-2.561 1.193-5.123 1.193 2.561h1.193l1.193 5.123 1.193-5.123h1.193l1.193 5.123 1.193-7.684 1.193 2.561h1.193l1.193-2.56 2.386 5.122 2.386-5.123h1.193l1.193-2.56 1.193 2.56 1.193-5.122 1.193 5.122 1.193-2.56 1.193 5.121 1.193-5.122 1.193 5.122 1.193 2.562 2.386-10.245 1.192 2.561h1.193l1.193 5.122 1.193-5.122 1.193-2.561 1.193 5.122 1.194 23.051h1.193l1.193-5.122 1.193-2.562 1.193 10.245 1.193-7.683 1.193 2.56h2.386l2.386 5.123 1.193-2.561 2.386 5.122h1.193l1.193 5.123 1.193-7.684h1.193l1.193 2.561h1.193l1.193 2.562h1.193l1.193-2.562 1.192 5.123 1.193 2.561 1.193-7.684 1.193 2.562 1.193-2.562 1.193 5.123h2.386l1.193 2.561 1.193-5.122 1.193 7.683h2.386l1.193-5.122h1.193l1.193 5.122 1.193-2.561 1.193 2.561h1.193l1.193-2.561 1.193 5.122 1.193 2.562 1.193-7.684 1.193 2.561h5.965l1.193 2.561 1.193-2.56h1.193l1.193 5.122 1.193 2.56 1.193-5.122 1.193-2.56 1.193 7.683 1.193-5.123 1.193 5.123 1.193 2.561 1.193-5.122h1.193l1.192-5.123 1.193 7.684h1.193l1.193-5.123 1.193 5.123h2.386l1.193 2.561h1.193l1.193-5.122h0" fill="none" stroke="#1f77b4" stroke-linecap="square" stroke-width="1.5" id="line2d_23"/><path clip-path="url(#p2e6d332f71)" d="M40.603 156.033l2.448-10.518 1.223 5.26h2.447l1.223 5.258 1.223-5.259 1.223 5.26 1.223-5.26h1.223l1.223 5.26h1.223l1.223-5.26h1.222l1.223 5.26 1.223-5.26 1.223 5.26 2.445-10.519 1.222 5.26h4.89l1.222 5.258 1.222-5.259 1.223 5.26h2.444l1.222-5.26 2.445 10.519 2.444-10.519h1.222l1.222 5.26h1.222l1.221-5.26 1.222 5.26h1.222l1.222-5.26 1.222 5.26h2.443l1.222-5.26 1.221 5.26h1.222l1.221-10.519 1.222 5.26h6.105l1.222 5.258 1.221-5.259 1.222 5.26h1.22l1.222-5.26h2.441l1.221 5.26 1.22-5.26 1.221 5.26 1.22-5.26h2.441l1.22 5.26h1.22l1.22-5.26h3.66l1.22-21.036 1.241-5.26 1.24-10.518 3.733-15.777 1.24 5.26 1.24-10.52 1.247-5.258h4.967l1.246-5.26h2.48l1.24-5.259h1.241l1.246-5.259h4.973l1.246-10.518 1.24 10.518 2.481-10.518h1.24l1.24 5.26h1.241l2.487-10.52 1.24 5.26 1.24-5.26 1.24 5.26 1.24-5.26h1.247l1.24-5.258 1.24 5.259h1.246l1.247-5.26 1.24 5.26 2.492-10.518 1.247 5.259h1.24l1.246-10.518 1.246 5.259h3.727l1.24 5.259 1.24-5.26h9.929l1.24-5.258h2.486l1.247-5.26 1.24 5.26h2.486l1.24 5.259 2.481-10.519h2.487l1.24 5.26 1.24-5.26h9.922l1.246-5.259 1.247 5.26 1.24-5.26h1.24l1.24 5.26 1.24-5.26 1.247 5.26 1.246-5.26 1.24 5.26 1.253-5.26h8.687l1.247-5.259 1.24 5.26 1.24-5.26 1.24 5.26 1.24-5.26h2.481l1.24 5.26h1.24l2.481-10.519 1.24 10.518 1.24-10.518 2.481 10.518h1.246l1.24-5.259h1.24l1.241 5.26 1.246-10.519 1.24 5.26h6.226l1.24-5.26 1.24 10.518 1.247-10.518h1.246l1.24 5.26 1.246-5.26 1.24 5.26h1.253l1.24-5.26h1.24l1.246 5.26h2.481l1.24-5.26h1.24l1.247 5.26 1.24-5.26h1.24l1.24 21.037 1.22 10.518 2.44 10.518 1.22 10.518h1.22l2.441 10.519h2.44l1.22 10.518h3.66l1.22 5.259h3.66l1.22 5.26 1.22-5.26 1.22 5.26h2.44l1.22 5.258 1.221-5.259 1.22 5.26h2.442l1.22 5.258 1.22-10.518 1.22 5.26h3.659l1.22 5.258h7.318l1.22 5.26 1.22-5.26h2.44l1.22 5.26h1.22l1.22 5.259 1.22-5.26h8.54l1.22 5.26h2.44l1.22-5.26 1.22 10.519 1.22-5.26h2.44l1.22 5.26h2.44l1.22-5.26 1.22 5.26h4.88" fill="none" stroke="#ff7f0e" stroke-linecap="square" stroke-width="1.5" id="line2d_24"/><path clip-path="url(#p2e6d332f71)" d="M40.603 166.552l1.224-10.519 2.425 10.519 2.437-10.519 1.209 10.519 2.411-10.519 1.205 5.26h6.068l1.218 5.259 1.219-5.26h1.205l1.219-5.259h1.205l1.206 5.26h8.507l1.218-5.26 2.441 10.519 1.219-10.519h2.426l1.221 5.26h1.21l1.22-5.26 1.206 5.26h1.219l1.205 5.259 2.437-10.519 1.219 5.26h4.86l1.22-5.26 2.439 10.519 1.205-10.519 1.215 5.26h2.439l1.218-5.26 2.437 10.519 1.219-5.26h1.205l1.219-5.259 1.22 5.26h1.22l1.218 5.259 1.219-10.519 1.22 5.26h2.424l1.22-5.26 2.41 10.519 1.218-5.26h3.657l1.219-15.777 1.253-10.518 1.247-5.26h2.498l1.246-5.258h1.24l1.246-10.519 1.247 5.26h2.492l1.24-5.26h2.48l1.253-5.259 1.24 5.26h1.24l1.247-5.26 1.24 5.26h1.246l1.253-10.519 2.48 10.518 1.24-5.259 1.253 5.26 1.246-10.519 1.253 5.26 1.245-5.26 1.24 10.518 1.24-5.259h2.5l1.262-5.259h1.241l1.253 5.26h3.732l1.253-5.26h3.744l1.24 10.518 1.26-10.518h2.497l1.246-5.259 1.247 10.518h1.24l1.242-5.259 1.244 5.26 1.241-5.26h2.504l1.246 5.26 1.246-10.519 1.24 10.518 2.505-10.518 1.24 5.26h1.258l1.24-5.26 1.265 5.26h1.252l1.252-5.26 1.246 5.26 1.249-5.26h4.983l1.246 5.26h1.246l1.246-5.26h1.252l1.24 5.26 1.253-5.26h6.213l1.24-5.26h1.246l2.499 10.52 1.24-5.26h3.744l1.24-5.26h1.253l1.246 5.26h3.757l1.24-5.26 1.258 5.26 1.247-5.26h1.246l1.24 5.26 1.252-5.26h1.246l1.24 5.26h1.24l1.247-5.26 1.246 5.26 1.24-5.26h3.757l1.247 5.26h1.252l1.24-5.26 1.252 5.26h2.487l1.24-10.518 1.246 10.518 1.246-5.26h2.493l1.252 5.26 1.24-5.26h2.499l1.252 5.26 1.246-5.26 1.246 5.26 1.24-5.26h7.484l1.246-5.258 1.24 5.259h3.733l1.246-5.26 1.246 5.26 1.263-5.26 1.236 26.296h1.219l1.219 5.26h1.219l3.655 15.777 1.22-5.26h1.218l1.219 5.26h7.286l1.22 5.259 1.219-5.26 1.22 5.26h1.219l1.22-5.26h1.205l1.22 5.26 1.217-5.26 1.219 5.26h2.437l1.205 5.26 1.216-5.26 1.219 5.26 1.218-5.26 1.221 5.26 1.205-5.26h3.64l1.22 10.518 1.218-10.518 1.219 5.26h2.437l1.219-5.26 2.41 10.518 1.221-10.518 1.219 5.26h1.22l1.205-5.26 2.424 10.518h1.219l1.205-10.518 1.216 5.26h2.427l1.206 5.258 1.218-5.259h2.421l1.221 5.26 1.206-5.26h1.219l1.205 5.26h1.22l1.206-5.26h1.219l1.22 5.26h3.655l1.22-5.26 1.206 5.26 1.219-5.26h0" fill="none" stroke="#2ca02c" stroke-linecap="square" stroke-width="1.5" id="line2d_25"/><path clip-path="url(#p2e6d332f71)" d="M40.603 162.397l1.193 5.122h1.193l1.193 2.562h1.193l1.193-2.562h3.58l1.192 2.562h1.193l1.193-5.123 1.193 5.123h1.193l1.193-2.562 1.193 2.562 1.193-7.684 1.194 2.561h2.386l1.193 2.561 1.193-2.56h1.193l1.193 5.122h1.193l1.193-5.123 1.193 5.123h1.193l2.386-5.123 1.193 5.123 2.386-5.123 1.193 2.561 1.193 5.123 1.193-2.561 1.193-5.123 2.386 5.123h3.58l1.192-5.123 1.193 2.561 1.193 5.123 1.193-2.561h2.386l1.193 2.56 1.193-2.56 1.193 5.122 1.193-7.684 1.193 7.684h2.386l1.194-2.561h2.386l1.193 2.56 1.193-7.683h1.193l1.193 5.123 1.193 2.56 1.193-5.121 1.193 2.56h1.193l1.193 2.562h1.193l1.193-7.684 1.193 7.684 1.193-5.122 2.386 5.122 1.193 5.122 2.392-5.122 1.193-17.928 1.193-10.245h1.193l2.386-10.245 1.192-2.561h1.193l1.193 2.561h1.193l1.193-5.122 1.193 2.56 1.192-5.122 1.193 10.245 1.193-7.683 1.193 2.56 2.385-5.122h1.193l1.193 2.562 1.193-5.123h2.386l1.192 2.561h2.386l1.193-5.122h4.771l1.193 5.122 1.193-5.122 1.193-2.561 1.192 7.683 1.193-7.683 1.193 5.122 1.193-5.122 1.193 7.683 1.192-2.56h1.193l1.193 2.56 3.579-7.683 1.192 5.122 2.386-5.122h2.386l1.193 2.561h1.192l1.193-5.122 1.193 5.122h2.386l1.192-2.561h2.386l1.193-5.123 2.386 10.245 1.192-7.683 1.193-5.123 1.193 5.123 1.193 2.56 2.386-5.122 1.192 2.562 1.193-2.562 2.386 5.123h1.193l1.193-2.561h7.156l1.193-2.562 1.193-5.122 1.193 5.122 1.193 2.562 1.193 5.122 1.192-5.122h1.193l1.193-5.123 1.193 2.561 1.193-2.56h4.77l1.194 2.56 1.192-2.56 1.193 2.56h1.193l1.193-2.56h1.193l1.193 2.56 1.192-2.56 1.193 5.122 1.193 2.56 1.193-5.122h1.193l1.192-2.56 1.193 5.122 1.193-2.562 1.193 2.562 1.193-5.123 1.192 5.123 1.193-2.562h1.193l1.193-5.122 1.193 7.684 1.192-2.562 1.193 2.562 1.193-5.123 1.193-2.561 1.193 5.122 1.193-5.122 1.192 5.122h1.193l1.193-5.122 1.193 2.561 1.193-2.561h1.192l1.193 7.684 1.193-2.562 1.193-10.244 1.193 10.244h1.192l1.193-2.56 1.193 5.122 1.193-2.562h2.386l1.192-5.122 1.193-2.561h1.193l1.193 2.561h2.385l1.193 7.684 1.193-5.123 1.193-2.561 1.193 2.561 1.192-2.561 1.193 5.122 1.193 2.562 1.193 17.928 1.193 5.122 1.193 2.562 1.193 5.122h2.386l1.193 2.561h3.58l1.192 2.561h1.193l1.193 2.562h1.193l1.193 2.56 1.193-5.122 1.193 7.684 1.193-5.122 1.193-2.562 1.193 5.123 1.194 2.56 1.193-2.56 1.193 2.56 1.193-5.121 2.386 5.122h1.193l1.193 2.561 1.193 5.123 1.193-10.245 1.193-2.561 1.193 7.683h1.193l1.193 2.561 1.193-5.122h2.386l1.193 2.561h1.193l1.193-2.561 1.193 2.561h3.58l1.192 5.123 1.193-5.123 1.193 2.561 1.193-5.122 1.194 2.561h1.193l1.193-2.561h1.193l1.193 2.561h1.193l1.193-2.561h1.193l1.193 5.122 1.193-2.56 1.193 2.56 1.193-2.56h1.193l2.386 5.122 2.386-5.123 1.193 5.123 1.193-2.562 1.193 5.123 1.193-5.123h3.58l1.192 5.123 1.193-2.561h0" fill="none" stroke="#d62728" stroke-linecap="square" stroke-width="1.5" id="line2d_26"/><path clip-path="url(#p2e6d332f71)" d="M40.603 234.92l1.217-5.259h1.218l1.217-5.259 1.217 5.26 1.218-5.26 1.218 5.26h1.217l1.218-5.26 1.218 10.518 1.218-10.518 1.217 5.26h4.87l2.436-10.519 1.217 5.26h1.218l1.218 5.258 1.218-5.259h1.217l1.218-5.259 1.217 5.26h1.218l1.217-5.26 1.217 5.26h2.436l1.218-5.26 1.217 5.26 1.218-5.26 1.218 5.26H82l1.218 5.258 2.434-10.518 1.219 5.26h1.217l1.218-5.26h9.74l1.217 5.26 1.218-5.26 1.217 5.26h2.435l2.436-10.52 1.217 10.52 1.218-10.52 1.217 10.52 1.218-5.26 1.218 5.26 1.217-10.52 1.218 10.52 1.217-5.26h6.088l1.218 5.26 1.217-5.26h2.435l1.217-5.26 1.218-10.517 1.238-5.26h2.48l1.235-5.259h2.469l1.234-5.259h2.468l1.235-5.259h1.234l1.234 5.26h1.235l1.234-5.26 1.234 5.26 1.24-5.26h1.235l1.234-5.26 1.234 5.26h3.71l1.234 5.26 1.234-10.52 1.234 5.26h2.463l1.24-10.518 1.234 5.259h3.703l1.23-5.26 1.239 5.26h2.468l1.24-5.26h2.47l1.234 5.26h4.943l1.234-5.26h1.234l1.24-5.258h1.23l1.239 5.259 1.235-5.26h3.708l1.235-5.258 2.474 10.518 2.475-10.518 1.234 5.259h1.24l1.24-5.26 1.235 5.26 1.234-5.26h1.234l1.235 5.26h2.468l1.235-5.26h2.468l1.234-5.259 1.235 5.26h2.48l1.24 5.259 1.247-5.26 1.234 5.26 1.235-5.26h2.474l1.234-10.518 1.24 5.26h1.235l1.234 5.259 1.235-5.26 1.234 10.519 2.468-10.519h2.469l1.234 5.26 1.246-5.26h2.475l1.246-5.259 2.475 10.519 1.234-5.26h1.234l1.235-5.259 1.234 5.26h1.234l1.235-5.26h9.886l1.234 5.26 2.469-10.519 1.24 5.26 1.234-5.26 1.24 5.26h1.24l1.241-5.26 1.234 10.518 1.24-5.259h1.235l1.24-5.259 1.235 5.26 1.234-5.26h1.234l1.234 5.26 1.24-5.26h1.235l1.234 5.26 1.246-5.26 1.235 5.26h2.474l1.24-5.26h1.235l1.246 5.26h1.24l2.469-10.519 1.234 5.26h3.703l1.24 15.777 3.653 15.777 1.218-5.26 1.218 10.519 1.218-10.518 1.218 5.259h2.436l1.217 5.259 1.217-10.518 1.218 5.259h2.436l1.218 5.259 1.218-5.26h2.435l1.218 5.26h8.523l1.217 5.26 1.218-5.26h4.87l1.219-5.26 1.217 5.26h1.217l1.218-5.26h1.217l1.218 10.52h6.089l1.218-5.26h4.871l1.218-5.26 1.218 5.26h1.218l2.434 10.518 1.218-10.518 1.217 10.518 1.218-5.259h1.217l1.218-5.259 1.218 5.26h1.217l1.218-5.26 1.218 10.518 1.218-10.518 1.217 10.518 1.218-10.518h1.218l1.217 10.518 1.217-5.259h2.437l1.217 5.26 1.218-5.26h0" fill="none" stroke="#9467bd" stroke-linecap="square" stroke-width="1.5" id="line2d_27"/><path clip-path="url(#p2e6d332f71)" d="M40.603 208.625l1.223-5.26h1.223l1.223 5.26 1.223-5.26h3.67l1.223 5.26 1.223-5.26 1.224 5.26h3.67l1.222-5.26h3.67l1.223 5.26 1.223-5.26 1.224 5.26h1.223l1.223-5.26h2.447l1.223 5.26h2.446l1.223-5.26 1.223 5.26 1.224-10.519 2.446 10.519 1.224-5.26 1.223 5.26h1.223l1.224-5.26h3.67l1.223 5.26 1.224-5.26 1.224 5.26 1.222-10.519 2.447 10.519 1.224-5.26h1.223l1.224 5.26h2.446l1.223-5.26 1.223 5.26 1.224-5.26 1.223 5.26h1.223l1.223-5.26 2.447 10.519L114 203.366h2.447l1.223 5.259h2.446l1.224-5.26 1.223 5.26h2.446l1.223 5.259 1.223-10.518h2.447l1.223-26.296 1.24-5.26h1.247l1.246-10.517h1.247l1.24-5.26 1.247 5.26 1.24-5.26 1.24 5.26 1.24-5.26h3.72l1.24-5.259h2.493l1.24 5.26 1.24-10.519 1.247 5.26 1.24-5.26 1.24 5.26 1.24-5.26 1.241 5.26 2.493-10.519h1.24l2.492 10.518 1.24-10.518 1.24 5.26 1.241-5.26 1.24 5.26h3.733l1.24-5.26 1.246 5.26 1.247-5.26h2.486l1.246 5.26 1.24-5.26 1.247 5.26 2.492-10.52 1.24 5.26h2.487l1.246-5.26h2.487l1.24 5.26h1.246l1.24-5.26 1.24 5.26h2.475l1.253-5.26 1.24 5.26 2.492-10.518 1.24 10.518h1.241l1.246-5.26h1.24l1.246 5.26h1.24l1.247-5.26 1.246 5.26h1.246l1.24-5.26h3.74l1.246-10.517 1.24 10.518h7.46l1.24-5.26 1.24 5.26 1.246-5.26h3.733l1.24 5.26 1.24-5.26 1.24 5.26 2.487-10.518 1.258 10.518 1.246-5.26h1.247l1.24 5.26 1.24-5.26h1.24l1.24 5.26 1.24-5.26h1.247l1.24-5.258h1.24l1.24 10.518 1.253-5.26h6.213l1.252-5.258 2.481 10.518 1.252-5.26h3.733l1.24-5.258h1.24l1.253 5.259 2.48-10.519 1.24 10.519 1.24-5.26h7.466l1.24 5.26 1.247-5.26 1.246 5.26 1.24-5.26 1.24 5.26 1.24-5.26h3.727l1.24 5.26h1.24l1.247-10.519 1.246 10.519 1.24 26.295 1.223 5.26h2.445l1.222 10.518h1.223l1.224 5.259h1.223l1.222-5.26h2.446l1.223 5.26h1.222l1.223 5.259 1.223-10.518 1.222 5.259h1.223l1.223 5.259h9.782l1.222 5.26h1.223l1.223-10.52 1.223 10.52 1.222-10.52 1.223 10.52 1.222-5.26 1.223 5.26h7.336l1.223 5.258 1.223-5.259h3.669l1.223 5.26 1.222-5.26 1.223 5.26 1.222-5.26h3.669l1.223 5.26h1.222l1.223-5.26 1.222 5.26h6.115l1.222-5.26 2.446 10.518 1.223-5.259h1.222l1.223-5.259 1.223 5.26 1.223-5.26h1.222l1.223 5.26 1.223-5.26h1.223" fill="none" stroke="#8c564b" stroke-linecap="square" stroke-width="1.5" id="line2d_28"/><path clip-path="url(#p2e6d332f71)" d="M40.603 208.625h6.114l1.223-5.26h1.222l1.223 10.519 1.223-5.26h2.446l1.223-5.258h1.222l1.222 5.259h1.223l1.222 5.259 1.223-10.518 1.223 5.259h3.667l1.222-5.26h2.445l1.222 5.26h2.445l1.222 5.259 1.223-5.26h3.668l1.223-5.258 1.223 5.259h1.223l1.223-5.26h1.223l1.223 5.26h1.222l1.223-5.26h2.447l1.223 5.26H94.4l1.223-5.26 1.222 5.26h2.445l1.223-5.26 1.223 5.26h1.223l1.224 5.259 1.222-5.26h4.89l1.223 5.26 1.223-10.518h1.223l1.223 5.259h2.447l1.223-5.26 1.223 10.519 1.222-5.26h2.445l1.223-5.258 1.222 5.259h3.67l1.221-21.037h9.945l1.24-5.259 1.241 5.26h6.237l1.246-10.52 1.246 10.52 1.247-5.26 1.252 5.26 1.252-5.26h1.252l1.252-5.26h1.246l1.235 5.26 1.246-5.26 2.475 10.52 2.48-10.52 1.24 10.52h1.24l1.24-5.26h2.487l1.247-5.26 1.234 5.26h1.246l1.24 5.26 2.493-10.52h1.252l2.48 10.52 1.247-5.26h1.24l1.246 5.26 1.246-10.52 1.24 10.52 1.247-10.52h1.24l1.247 5.26h2.48l1.252-5.26 1.24 5.26h1.24l2.481-10.518 1.246 5.259 1.24 10.518 1.247-10.518h6.225l1.246 5.259h1.24l2.481-10.518 2.487 10.518 1.234-10.518 1.24 10.518 1.246-10.518 2.481 10.518 1.24-5.26h1.24l1.24-5.258 1.247 10.518 1.246-10.518 1.246 5.259h2.487l1.24-5.26 1.24 5.26 1.24-5.26h1.247l1.24 5.26 1.246-5.26h2.487l1.24 5.26h4.973l1.24-5.26h2.487l1.252 5.26h1.24l1.24-5.26 1.24 5.26 1.24-5.26h2.493l1.24 5.26h4.962l1.24-5.26h2.48l1.24 5.26h2.476l1.24-5.26 1.252 5.26 1.24-5.26h16.147l1.24-5.258 1.247 5.259h1.246l1.246-5.26 1.246 5.26h2.493l1.252 5.259 1.246 10.518 2.446 10.518 1.222-5.259h3.67l1.224 5.26 1.222-5.26h3.667l1.222 5.26h1.223l1.222-5.26 1.222 5.26h1.224l1.222-5.26h1.222l1.223-5.259 1.222 10.518 1.222-5.259h1.223l1.223 5.26 1.222-5.26h1.223l1.222-5.259 1.223 10.518 1.223-5.259h2.445l1.222 5.26 1.223-5.26 1.223 5.26h2.452l1.222-5.26h1.223l1.223 5.26 1.223-5.26h3.669l1.223 5.26h1.222l1.223-5.26h1.223l1.223 5.26 1.222-5.26 1.223 5.26 1.226-5.26 1.222 5.26 1.222-5.26h2.445l1.223 5.26h9.782l1.224-5.26 2.447 10.519 1.223-10.519h2.445l1.223 5.26h1.223l1.222 5.259h0" fill="none" stroke="#e377c2" stroke-linecap="square" stroke-width="1.5" id="line2d_29"/><path clip-path="url(#p2e6d332f71)" d="M40.603 228.988l1.193 2.561h3.579l2.386 5.123 1.193-5.123 3.579 7.684 1.193-10.245 1.193-2.561 1.193 5.122h1.193l1.193 2.561 1.193-5.122h1.193l1.193 5.122 1.193-5.122 2.386 5.122 1.193-5.122 1.193 2.561 1.193-2.561 1.193 2.561h2.386l1.193 2.561 1.193-5.122 1.193 5.122h1.193l1.192-2.56 1.193 2.56 1.193-2.56h2.386l1.193-2.562 1.193 5.122 1.193-5.122h1.193l1.193 2.561 1.193 5.123 1.193-2.562 1.193 2.562 1.193-7.684h1.193l1.193 5.122h1.193l1.193-5.122h1.193l1.193 2.561 1.193-5.122h1.193l1.193 2.561 1.193 5.122 1.193-2.56h1.193l1.193 2.56 1.193-5.122 1.193 2.561 1.193-2.561 1.193 2.561 1.193-2.561 1.193 2.561 1.193 5.123 2.386-5.123 1.193 2.561 1.193-2.56h1.193l1.192-5.123 1.193 7.683h2.386l1.195-5.122 1.194-15.367 1.193-5.123 1.193 2.562h1.193l1.192-5.123h7.157l1.193-2.56 1.193 2.56 1.193-7.683 1.193 5.122 2.385-5.122 1.193 2.56 1.193-2.56h1.193l1.192 2.56 1.193-2.56 1.193-5.123 1.193 2.561h4.771l1.193-5.122 1.193 7.684 1.193-7.684 2.385 5.122 2.386-5.122 1.193 2.561 1.193-5.122 1.192 7.683 1.193-5.122 1.193-2.561 1.193 2.561h1.193l1.192-2.561 1.193 2.561 1.193-5.122 1.193 7.683 1.193-7.683 1.192 7.683 1.193-5.122 1.193-2.561 1.193 5.122 2.385-5.122 1.193 5.122 3.579-7.683 1.192 5.122 1.193 2.561 1.193-5.122h4.771l1.193-2.561h1.193l2.385 5.122 1.193-2.561h1.193l2.386 5.122 1.193-2.561h1.192l1.193-2.561 1.193-5.123 1.193 2.562 1.193 5.122h1.192l1.193-7.684 1.193 2.562h1.193l1.193 2.56h1.192l1.193-5.122 1.193 2.562h3.579l1.192 2.56 1.193-2.56h2.386l1.193 2.56 1.192-5.122h2.386l1.193 7.684 1.193-10.245 1.192 10.245 2.386-10.245h1.193l1.193 2.561 1.192 5.123 1.193-7.684 1.193 2.561h1.193l1.193 2.562 1.193-7.684 1.192 5.122 1.193-2.56 2.386 5.122 1.193-2.562h5.964l1.192 5.123h2.386l1.193-7.684 1.193 2.561h1.192l1.193 2.562h2.386l1.193-2.562h1.192l1.193-2.56 1.193 2.56 1.193-2.56 1.193-5.123 1.192 7.683 1.193 2.562 1.193-5.123 2.386 5.123h1.192l1.193-5.123 1.193 7.684 1.193-7.684 1.193 5.123 1.193-2.562h2.385l1.193-7.683L309 182.887l1.193 7.683 1.193 15.367 2.386-5.122h1.193l1.193 5.122 1.193 2.561 1.193-5.122 1.192 5.122 1.194-2.56h1.192l1.193 2.56h1.193l1.193-2.56 1.193 5.122h2.386l1.193-2.562h1.193l1.193 2.562 1.193 5.122 1.193-2.561h2.386l1.193 2.561h1.193l2.386-5.122 2.386 10.244 1.193-5.122 1.193-12.806 1.193 15.367 1.193-7.683 1.193 7.683 1.193-2.56 1.193 5.121 1.193-10.244 2.386 10.244 1.193-2.56 1.193 5.122 1.193-5.123 1.193 2.561 1.193-2.56 1.193 2.56h5.965l1.193 7.684 1.193-12.806 1.193 10.245 1.193-2.561 1.193 2.56 1.193-7.683 1.193 5.123h1.193l1.192-2.562 2.386 5.123 1.193-2.561 1.193 2.56h1.193l1.193-5.122h1.193l1.193 2.562 1.193 7.683 1.193-5.122 1.193-2.561 1.193 2.56 1.193 5.123 1.193-2.561h0" fill="none" stroke="#7f7f7f" stroke-linecap="square" stroke-width="1.5" id="line2d_30"/><path clip-path="url(#p2e6d332f71)" d="M40.603 250.698h4.869l1.217-5.26 1.217 10.519 2.434-10.518 1.217 5.259 1.217-5.26h1.217l1.217 10.519h1.217l2.435-10.518 2.435 10.518 1.217-5.26 1.218 5.26 2.434-10.518 1.217 10.518 1.217-5.26h1.218l1.217 5.26 1.217-5.26h1.218l1.217 5.26 1.217-10.518 1.217 5.259h1.217l1.217 5.259 1.217-5.26h3.652l1.218 10.519 1.217-10.518h1.217l1.217-5.26 1.218 5.26h2.434l1.217 5.259 1.217-5.26h1.218l1.217-5.258 2.435 10.518h2.434l1.217-5.26 1.218 5.26 1.217-5.26 1.218 5.26 1.217-5.26h2.434l1.217-5.258 1.218 5.259h2.434l1.218 5.259h1.217l1.216-10.518 1.218 5.259h7.304l1.217-5.26 1.217-10.518 1.239-5.259 1.24-10.518 1.234 5.26h2.475l2.468-10.52 2.469 10.52 2.475-10.52 1.234 5.26h1.24l1.234-5.26h1.235l1.234 5.26 1.24-5.26 1.234 5.26 1.235-5.26h4.937l1.234 5.26 1.235-5.26h13.6l1.241 5.26 1.229-5.26h6.183l1.234-5.258 1.234 5.259 1.235-5.26h2.468l1.234 5.26h3.71l1.234-5.26 1.24 5.26h2.469l1.234-5.26h2.468l1.24 5.26h1.235l1.24-5.26h1.235l1.234 5.26h2.474l1.24-5.26h1.235l1.234 5.26 1.234-5.26h1.229l1.234 5.26h6.178l1.234-5.26 1.24 5.26h3.703l1.234-5.26 1.235 5.26h1.24l1.234-5.26h1.234l1.235 5.26 1.234-5.26h2.469l1.234 5.26 1.24-5.26h3.709l1.234 5.26 1.24-5.26h4.962l1.24 5.26 2.468-10.518 1.235 10.518 1.234-5.26 1.234 5.26 1.24-10.518 1.235 5.259h6.183l1.24 5.259 1.235-10.518 1.234 10.518 1.235-5.26h3.702l1.235 5.26 1.234-10.518 1.234 5.259h7.418l1.234-5.26h1.235l2.474 10.519 2.475-10.518 1.234 5.259h3.703l1.24-5.26 1.24 5.26h1.235l1.234 15.777 2.435 10.518 1.217-5.259 1.217 5.26h1.217l1.218 5.258h1.217l1.217 5.26 1.217-5.26 1.217-10.518 1.218 15.778 1.217-5.26h7.304l1.217 5.26 1.218-5.26h1.217l1.217 5.26h1.218l1.217-5.26 1.22 5.26 1.216-5.26 1.218 5.26h2.435l1.217 5.259 1.217-5.26h1.217l1.218 5.26h1.217l1.217-10.519 1.217 5.26 1.217-5.26 1.218 5.26h2.435l1.218-5.26 1.217 10.519h2.435l1.217-5.26h4.869l1.217 5.26 1.218-5.26 1.217 10.519 1.217-10.518h1.218l1.217 5.259 1.218-5.26h2.434l1.217 5.26 1.218-5.26 2.434 10.519 1.216-10.518h1.217l1.217 5.259 1.218-5.26h1.217l1.217 5.26 1.217-5.26h1.218l1.218 5.26h1.217" fill="none" stroke="#bcbd22" stroke-linecap="square" stroke-width="1.5" id="line2d_31"/><path clip-path="url(#p2e6d332f71)" d="M40.603 255.957l1.225-5.26 1.205 5.26 1.223-5.26h1.222l1.223 5.26 2.448-10.518 1.223 5.259h1.222l1.222-5.26 1.222 10.519h1.223l1.222-5.26 1.222 5.26 1.223-5.26 1.222 5.26 1.223-5.26h2.446l1.222 5.26 1.223-5.26h1.222l1.223-5.258 1.205 10.518 1.222-10.518 1.223 10.518h1.223l1.222-5.26 1.222 5.26h3.67l1.222-5.26 1.222 5.26h4.89l1.223-5.26 1.223 5.26h2.448l1.222-5.26 1.222 5.26h1.222l1.205-5.26h3.667l1.222 5.26 1.223-5.26 1.222 5.26 1.223-10.518 1.222 10.518h1.223l1.222-5.26h1.205l1.222 5.26h1.222l1.223-5.26 1.222 5.26 2.446-10.518 1.222 15.777 1.222-10.518 1.223 5.259h1.227l1.206 5.259 1.222-5.26h2.448l1.223 5.26h1.222l1.223-26.296 1.252-5.259h1.252l1.252 5.26H136l1.24 5.258 2.492-10.518h1.246l1.259 10.518 1.246-5.259h7.477l1.24-5.259 1.247 5.26h1.24l1.246-5.26 1.252 5.26h1.247l1.246-5.26h1.246l1.246 5.26 1.247-5.26 1.246 5.26 1.246-5.26 1.246 10.518 1.235-10.518 1.246 5.26 1.246-5.26h1.251l1.241 5.26 1.247-5.26h1.24l1.24-5.259 1.246 5.26 1.24-5.26 1.247 10.518 1.24-5.259h2.487l1.24-5.259 1.246 5.26 1.24-5.26 2.493 10.518 1.24-10.518 1.246 5.26h3.728l1.24-5.26 1.245 5.26h7.478l1.246-5.26h2.492l1.247 5.26 1.252-5.26h3.724l1.243 5.26 1.246-5.26h2.48l1.24 5.26 1.253-5.26h2.504l1.24 5.26 1.241-5.26h1.24l1.247 5.26 1.24-5.26 1.246 5.26 1.246-5.26h2.487l1.246 5.26 1.24-5.26 1.246 5.26 1.24-5.26h3.727l1.24 5.26 1.24-5.26 1.241 5.26h2.499l1.24-5.26h4.967l1.24 5.26h2.487l1.246-5.26h1.251l1.271-5.259 1.246 10.518 1.246-5.259h1.247l1.246 5.26 2.475-10.519 1.24 5.26h1.24l1.246 5.258 1.246-5.259h1.247l1.246 5.26 1.246-5.26h2.498l1.247-5.259 1.246 10.518 1.258-10.518 1.24 5.26h2.499l1.246 5.258 1.246-5.259h1.246l1.253 5.26 1.246-5.26h6.213l1.27-5.259 1.246 5.26 2.452 21.036h9.762l1.223 5.259 1.223-5.26h2.428l1.222 5.26h3.668l1.223-5.26 1.223 5.26h3.668l1.223-5.26 1.224 5.26h2.446l1.223-5.26 1.222 10.519 2.446-10.518 1.205 5.259h2.444l1.223-5.26 1.206 5.26 1.223-5.26 1.223 10.519h1.222l1.223-5.26h1.222l1.224-5.258 1.223 5.259h3.667l1.204 5.259 1.22-5.26 1.22 5.26 1.22-5.26h1.221l1.22 5.26h1.22l1.221-5.26h1.22l1.221 5.26 1.22-5.26 1.222 5.26 1.22-5.26h9.767l1.22-5.258 2.425 10.518 2.441-10.518 1.22 10.518h1.22" fill="none" stroke="#17becf" stroke-linecap="square" stroke-width="1.5" id="line2d_32"/><path d="M40.603 273.312V7.2" fill="none" stroke="#000" stroke-linecap="square" stroke-width=".8" id="patch_3"/><path d="M397.723 273.312V7.2" fill="none" stroke="#000" stroke-linecap="square" stroke-width=".8" id="patch_4"/><path d="M40.603 273.312h357.12" fill="none" stroke="#000" stroke-linecap="square" stroke-width=".8" id="patch_5"/><path d="M40.603 7.2h357.12" fill="none" stroke="#000" stroke-linecap="square" stroke-width=".8" id="patch_6"/><g id="legend_1"><path d="M410.437 156.981h165.572q2 0 2-2V9.2q0-2-2-2H410.437q-2 0-2 2v145.781q0 2 2 2z" fill="#fff" opacity=".8" stroke="#ccc" id="patch_7"/><path d="M412.437 15.298h20" fill="none" stroke="#1f77b4" stroke-linecap="square" stroke-width="1.5" id="line2d_33"/><g id="text_14"><defs><path d="M37.11 75.984V68.5h-8.594q-4.828 0-6.72-1.953-1.874-1.953-1.874-7.031v-4.828h14.797v-6.985H19.922V0H10.89v47.703H2.297v6.984h8.594V58.5q0 9.125 4.25 13.297 4.25 4.187 13.468 4.187z" id="DejaVuSans-102"/><path d="M9.422 75.984h8.984V0H9.422z" id="DejaVuSans-108"/><path d="M32.172-5.078q-3.797-9.766-7.422-12.735-3.61-2.984-9.656-2.984H7.906v7.516h5.282q3.703 0 5.75 1.765Q21-9.766 23.483-3.219l1.61 4.094-22.11 53.813H12.5l17.094-42.766 17.093 42.766h9.516z" id="DejaVuSans-121"/><path d="M54.89 33.016V0h-8.984v32.719q0 7.765-3.031 11.61-3.031 3.858-9.078 3.858-7.281 0-11.484-4.64-4.204-4.625-4.204-12.64V0H9.08v54.688h9.03v-8.5q3.235 4.937 7.594 7.374Q30.078 56 35.797 56q9.422 0 14.25-5.828 4.844-5.828 4.844-17.156z" id="DejaVuSans-110"/><path d="M45.406 27.984q0 9.766-4.031 15.125-4.016 5.375-11.297 5.375-7.219 0-11.25-5.375-4.031-5.359-4.031-15.125 0-9.718 4.031-15.093t11.25-5.375q7.281 0 11.297 5.375 4.031 5.375 4.031 15.093zm8.985-21.203q0-13.953-6.203-20.765Q42-20.797 29.203-20.797q-4.734 0-8.937.703-4.203.703-8.157 2.172v8.735q3.954-2.141 7.813-3.157 3.86-1.031 7.86-1.031 8.843 0 13.234 4.61 4.39 4.609 4.39 13.937v4.453q-2.781-4.844-7.125-7.234Q33.938 0 27.875 0 17.828 0 11.672 7.656q-6.156 7.672-6.156 20.328 0 12.688 6.156 20.344Q17.828 56 27.875 56q6.063 0 10.406-2.39 4.344-2.391 7.125-7.22v8.297h8.985z" id="DejaVuSans-103"/><path d="M30.61 48.39q-7.22 0-11.422-5.64-4.204-5.64-4.204-15.453 0-9.813 4.172-15.453 4.188-5.64 11.453-5.64 7.188 0 11.375 5.655 4.203 5.672 4.203 15.438 0 9.719-4.203 15.406-4.187 5.688-11.375 5.688zm0 7.61q11.718 0 18.406-7.625 6.703-7.61 6.703-21.078 0-13.422-6.703-21.078-6.688-7.64-18.407-7.64-11.765 0-18.437 7.64-6.656 7.656-6.656 21.078 0 13.469 6.656 21.078Q18.844 56 30.609 56z" id="DejaVuSans-111"/></defs><g transform="matrix(.1 0 0 -.1 440.437 18.798)"><use xlink:href="#DejaVuSans-102"/><use x="35.205" xlink:href="#DejaVuSans-108"/><use x="62.988" xlink:href="#DejaVuSans-121"/><use x="122.168" xlink:href="#DejaVuSans-105"/><use x="149.951" xlink:href="#DejaVuSans-110"/><use x="213.33" xlink:href="#DejaVuSans-103"/><use x="276.807" xlink:href="#DejaVuSans-102"/><use x="312.012" xlink:href="#DejaVuSans-101"/><use x="373.535" xlink:href="#DejaVuSans-114"/><use x="414.633" xlink:href="#DejaVuSans-114"/><use x="455.715" xlink:href="#DejaVuSans-101"/><use x="517.238" xlink:href="#DejaVuSans-116"/><use x="556.447" xlink:href="#DejaVuSans-32"/><use x="588.234" xlink:href="#DejaVuSans-40"/><use x="627.248" xlink:href="#DejaVuSans-102"/><use x="662.453" xlink:href="#DejaVuSans-97"/><use x="723.732" xlink:href="#DejaVuSans-110"/><use x="787.111" xlink:href="#DejaVuSans-115"/><use x="839.211" xlink:href="#DejaVuSans-32"/><use x="870.998" xlink:href="#DejaVuSans-111"/><use x="932.18" xlink:href="#DejaVuSans-102"/><use x="967.385" xlink:href="#DejaVuSans-102"/><use x="1002.59" xlink:href="#DejaVuSans-41"/></g></g><path d="M412.437 29.977h20" fill="none" stroke="#ff7f0e" stroke-linecap="square" stroke-width="1.5" id="line2d_35"/><g id="text_15"><defs><path d="M48.781 52.594v-8.407q-3.812 2.11-7.64 3.157-3.828 1.047-7.735 1.047-8.75 0-13.593-5.547-4.829-5.532-4.829-15.547 0-10.016 4.829-15.563 4.843-5.53 13.593-5.53 3.907 0 7.735 1.046 3.828 1.047 7.64 3.156V2.094Q45.016.344 40.984-.531q-4.015-.89-8.562-.89-12.36 0-19.64 7.765-7.266 7.765-7.266 20.953 0 13.375 7.343 21.031Q20.22 56 33.016 56q4.14 0 8.093-.86 3.953-.843 7.672-2.546z" id="DejaVuSans-99"/></defs><g transform="matrix(.1 0 0 -.1 440.437 33.477)"><use xlink:href="#DejaVuSans-110"/><use x="63.379" xlink:href="#DejaVuSans-111"/><use x="124.561" xlink:href="#DejaVuSans-32"/><use x="156.348" xlink:href="#DejaVuSans-99"/><use x="211.328" xlink:href="#DejaVuSans-97"/><use x="272.607" xlink:href="#DejaVuSans-115"/><use x="324.707" xlink:href="#DejaVuSans-101"/></g></g><path d="M412.437 44.655h20" fill="none" stroke="#2ca02c" stroke-linecap="square" stroke-width="1.5" id="line2d_37"/><g id="text_16"><defs><path d="M54.89 33.016V0h-8.984v32.719q0 7.765-3.031 11.61-3.031 3.858-9.078 3.858-7.281 0-11.484-4.64-4.204-4.625-4.204-12.64V0H9.08v75.984h9.03V46.188q3.235 4.937 7.594 7.374Q30.078 56 35.797 56q9.422 0 14.25-5.828 4.844-5.828 4.844-17.156z" id="DejaVuSans-104"/><path d="M54.89 54.688l-19.78-26.61L55.905 0H45.313L29.39 21.484 13.484 0H2.875l21.25 28.61L4.687 54.687h10.594l14.5-19.485 14.5 19.484z" id="DejaVuSans-120"/><path d="M4.203 54.688h8.985l11.234-42.672 11.172 42.672h10.593l11.235-42.672 11.187 42.672h8.985L63.28 0H52.688L40.922 44.828 29.109 0H18.5z" id="DejaVuSans-119"/></defs><g transform="matrix(.1 0 0 -.1 440.437 48.155)"><use xlink:href="#DejaVuSans-104"/><use x="63.379" xlink:href="#DejaVuSans-101"/><use x="124.887" xlink:href="#DejaVuSans-120"/><use x="184.066" xlink:href="#DejaVuSans-32"/><use x="215.854" xlink:href="#DejaVuSans-119"/><use x="297.641" xlink:href="#DejaVuSans-114"/><use x="338.723" xlink:href="#DejaVuSans-101"/><use x="400.246" xlink:href="#DejaVuSans-110"/><use x="463.625" xlink:href="#DejaVuSans-99"/><use x="518.605" xlink:href="#DejaVuSans-104"/></g></g><path d="M412.437 59.333h20" fill="none" stroke="#d62728" stroke-linecap="square" stroke-width="1.5" id="line2d_39"/><g id="text_17"><defs><path d="M9.813 72.906h9.859V42.094L52.39 72.906h12.703L28.906 38.922 67.672 0H54.688L19.672 35.11V0h-9.86z" id="DejaVuSans-75"/><path d="M53.516 70.516V60.89q-5.61 2.687-10.594 4-4.984 1.328-9.625 1.328-8.047 0-12.422-3.125t-4.375-8.89q0-4.845 2.906-7.313 2.907-2.453 11.016-3.97l5.953-1.218q11.031-2.11 16.281-7.406 5.25-5.297 5.25-14.172 0-10.61-7.11-16.078-7.093-5.469-20.812-5.469-5.172 0-11.015 1.172Q13.14.922 6.89 3.219v10.156q6-3.36 11.765-5.078 5.766-1.703 11.328-1.703 8.438 0 13.032 3.312 4.593 3.328 4.593 9.485 0 5.359-3.297 8.39-3.296 3.032-10.812 4.547L27.484 33.5q-11.03 2.188-15.968 6.875-4.922 4.688-4.922 13.047 0 9.672 6.812 15.234 6.813 5.563 18.766 5.563 5.14 0 10.453-.938 5.328-.922 10.89-2.765z" id="DejaVuSans-83"/><path d="M19.672 34.813V8.108H35.5q7.953 0 11.781 3.297 3.844 3.297 3.844 10.078 0 6.844-3.844 10.078-3.828 3.25-11.781 3.25zm0 29.984V42.828h14.61q7.218 0 10.75 2.703 3.546 2.719 3.546 8.282 0 5.515-3.547 8.25-3.531 2.734-10.75 2.734zm-9.86 8.11h25.204q11.28 0 17.375-4.688Q58.5 63.53 58.5 54.89q0-6.703-3.125-10.657-3.125-3.953-9.188-4.922 7.282-1.562 11.313-6.53 4.031-4.954 4.031-12.376 0-9.765-6.64-15.093Q48.25 0 35.984 0H9.812z" id="DejaVuSans-66"/></defs><g transform="matrix(.1 0 0 -.1 440.437 62.833)"><use xlink:href="#DejaVuSans-75"/><use x="65.576" xlink:href="#DejaVuSans-75"/><use x="131.152" xlink:href="#DejaVuSans-83"/><use x="194.629" xlink:href="#DejaVuSans-66"/><use x="263.232" xlink:href="#DejaVuSans-32"/><use x="295.02" xlink:href="#DejaVuSans-99"/><use x="350" xlink:href="#DejaVuSans-97"/><use x="411.279" xlink:href="#DejaVuSans-115"/><use x="463.379" xlink:href="#DejaVuSans-101"/></g></g><path d="M412.437 74.01h20" fill="none" stroke="#9467bd" stroke-linecap="square" stroke-width="1.5" id="line2d_41"/><g id="text_18"><defs><path d="M9.813 72.906h9.859V0h-9.86z" id="DejaVuSans-73"/><path d="M-.297 72.906h61.672v-8.312H35.5V0h-9.906v64.594H-.296z" id="DejaVuSans-84"/></defs><g transform="matrix(.1 0 0 -.1 440.437 77.51)"><use xlink:href="#DejaVuSans-73"/><use x="29.492" xlink:href="#DejaVuSans-99"/><use x="84.473" xlink:href="#DejaVuSans-101"/><use x="145.996" xlink:href="#DejaVuSans-32"/><use x="177.783" xlink:href="#DejaVuSans-84"/><use x="238.602" xlink:href="#DejaVuSans-111"/><use x="299.783" xlink:href="#DejaVuSans-119"/><use x="381.57" xlink:href="#DejaVuSans-101"/><use x="443.094" xlink:href="#DejaVuSans-114"/><use x="484.207" xlink:href="#DejaVuSans-32"/><use x="515.994" xlink:href="#DejaVuSans-40"/><use x="555.008" xlink:href="#DejaVuSans-102"/><use x="590.213" xlink:href="#DejaVuSans-97"/><use x="651.492" xlink:href="#DejaVuSans-110"/><use x="714.871" xlink:href="#DejaVuSans-32"/><use x="746.658" xlink:href="#DejaVuSans-111"/><use x="807.84" xlink:href="#DejaVuSans-102"/><use x="843.045" xlink:href="#DejaVuSans-102"/><use x="878.25" xlink:href="#DejaVuSans-41"/></g></g><path d="M412.437 88.69h20" fill="none" stroke="#8c564b" stroke-linecap="square" stroke-width="1.5" id="line2d_43"/><g id="text_19"><defs><path d="M34.188 63.188L20.797 26.906h26.812zm-5.579 9.718h11.188L67.578 0h-10.25l-6.64 18.703h-32.86L11.188 0H.78z" id="DejaVuSans-65"/><path d="M39.406 66.219q-10.75 0-17.078-8.016-6.312-8-6.312-21.828 0-13.766 6.312-21.781 6.328-8 17.078-8 10.735 0 17.016 8 6.281 8.015 6.281 21.781 0 13.828-6.281 21.828-6.281 8.016-17.016 8.016zm0 8q15.328 0 24.5-10.281 9.188-10.282 9.188-27.563 0-17.234-9.188-27.516-9.172-10.28-24.5-10.28-15.375 0-24.593 10.25-9.204 10.265-9.204 27.546t9.204 27.563q9.218 10.28 24.593 10.28z" id="DejaVuSans-79"/><path d="M11.719 12.406h10.297V4l-8-15.625H7.719l4 15.625z" id="DejaVuSans-44"/><path d="M72.703 32.078q-4.25 0-6.672-3.61-2.406-3.609-2.406-10.062 0-6.343 2.406-9.984 2.422-3.64 6.672-3.64 4.156 0 6.563 3.64 2.421 3.64 2.421 9.984 0 6.407-2.421 10.032-2.407 3.64-6.563 3.64zm0 6.203q7.719 0 12.25-5.375 4.547-5.36 4.547-14.5 0-9.125-4.563-14.484-4.562-5.344-12.234-5.344-7.812 0-12.36 5.344-4.53 5.36-4.53 14.484 0 9.188 4.562 14.532 4.563 5.343 12.328 5.343zm-50.39 29.735q-4.204 0-6.625-3.641-2.407-3.625-2.407-9.984 0-6.438 2.39-10.063 2.392-3.61 6.642-3.61t6.656 3.61q2.422 3.625 2.422 10.063 0 6.297-2.438 9.953-2.437 3.672-6.64 3.672zm44.093 6.203h7.813l-45.61-75.64h-7.812zm-44.094 0q7.72 0 12.297-5.344 4.594-5.344 4.594-14.484 0-9.22-4.562-14.547-4.563-5.328-12.328-5.328-7.766 0-12.282 5.343-4.515 5.36-4.515 14.532 0 9.093 4.53 14.453 4.548 5.375 12.267 5.375z" id="DejaVuSans-37"/></defs><g transform="matrix(.1 0 0 -.1 440.437 92.19)"><use xlink:href="#DejaVuSans-65"/><use x="68.408" xlink:href="#DejaVuSans-114"/><use x="109.506" xlink:href="#DejaVuSans-103"/><use x="172.982" xlink:href="#DejaVuSans-111"/><use x="234.164" xlink:href="#DejaVuSans-110"/><use x="297.543" xlink:href="#DejaVuSans-32"/><use x="329.33" xlink:href="#DejaVuSans-79"/><use x="408.041" xlink:href="#DejaVuSans-110"/><use x="471.42" xlink:href="#DejaVuSans-101"/><use x="532.943" xlink:href="#DejaVuSans-32"/><use x="564.73" xlink:href="#DejaVuSans-99"/><use x="619.711" xlink:href="#DejaVuSans-97"/><use x="680.99" xlink:href="#DejaVuSans-115"/><use x="733.09" xlink:href="#DejaVuSans-101"/><use x="794.613" xlink:href="#DejaVuSans-44"/><use x="826.4" xlink:href="#DejaVuSans-32"/><use x="858.188" xlink:href="#DejaVuSans-102"/><use x="893.393" xlink:href="#DejaVuSans-97"/><use x="954.672" xlink:href="#DejaVuSans-110"/><use x="1018.051" xlink:href="#DejaVuSans-32"/><use x="1049.838" xlink:href="#DejaVuSans-49"/><use x="1113.461" xlink:href="#DejaVuSans-48"/><use x="1177.084" xlink:href="#DejaVuSans-48"/><use x="1240.707" xlink:href="#DejaVuSans-37"/></g></g><path d="M412.437 103.367h20" fill="none" stroke="#e377c2" stroke-linecap="square" stroke-width="1.5" id="line2d_45"/><g id="text_20"><defs><path d="M19.672 64.797v-27.39h12.406q6.89 0 10.64 3.562 3.766 3.562 3.766 10.156 0 6.547-3.765 10.11-3.75 3.562-10.64 3.562zm-9.86 8.11h22.266q12.266 0 18.531-5.548 6.282-5.546 6.282-16.234 0-10.797-6.282-16.313-6.265-5.515-18.53-5.515H19.671V0h-9.86z" id="DejaVuSans-80"/></defs><g transform="matrix(.1 0 0 -.1 440.437 106.867)"><use xlink:href="#DejaVuSans-67"/><use x="69.824" xlink:href="#DejaVuSans-111"/><use x="131.006" xlink:href="#DejaVuSans-111"/><use x="192.188" xlink:href="#DejaVuSans-108"/><use x="219.971" xlink:href="#DejaVuSans-105"/><use x="247.754" xlink:href="#DejaVuSans-80"/><use x="308.025" xlink:href="#DejaVuSans-105"/><use x="335.809" xlink:href="#DejaVuSans-32"/><use x="367.596" xlink:href="#DejaVuSans-40"/><use x="406.609" xlink:href="#DejaVuSans-102"/><use x="441.814" xlink:href="#DejaVuSans-97"/><use x="503.094" xlink:href="#DejaVuSans-110"/><use x="566.473" xlink:href="#DejaVuSans-32"/><use x="598.26" xlink:href="#DejaVuSans-111"/><use x="659.441" xlink:href="#DejaVuSans-102"/><use x="694.646" xlink:href="#DejaVuSans-102"/><use x="729.852" xlink:href="#DejaVuSans-41"/></g></g><path d="M412.437 118.045h20" fill="none" stroke="#7f7f7f" stroke-linecap="square" stroke-width="1.5" id="line2d_47"/><g transform="matrix(.1 0 0 -.1 440.437 121.545)" id="text_21"><use xlink:href="#DejaVuSans-102"/><use x="35.205" xlink:href="#DejaVuSans-108"/><use x="62.988" xlink:href="#DejaVuSans-121"/><use x="122.168" xlink:href="#DejaVuSans-105"/><use x="149.951" xlink:href="#DejaVuSans-110"/><use x="213.33" xlink:href="#DejaVuSans-103"/><use x="276.807" xlink:href="#DejaVuSans-102"/><use x="312.012" xlink:href="#DejaVuSans-101"/><use x="373.535" xlink:href="#DejaVuSans-114"/><use x="414.633" xlink:href="#DejaVuSans-114"/><use x="455.715" xlink:href="#DejaVuSans-101"/><use x="517.238" xlink:href="#DejaVuSans-116"/><use x="556.447" xlink:href="#DejaVuSans-32"/><use x="588.234" xlink:href="#DejaVuSans-40"/><use x="627.248" xlink:href="#DejaVuSans-102"/><use x="662.453" xlink:href="#DejaVuSans-97"/><use x="723.732" xlink:href="#DejaVuSans-110"/><use x="787.111" xlink:href="#DejaVuSans-115"/><use x="839.211" xlink:href="#DejaVuSans-32"/><use x="870.998" xlink:href="#DejaVuSans-111"/><use x="932.18" xlink:href="#DejaVuSans-110"/><use x="995.559" xlink:href="#DejaVuSans-41"/></g><path d="M412.437 132.723h20" fill="none" stroke="#bcbd22" stroke-linecap="square" stroke-width="1.5" id="line2d_49"/><g transform="matrix(.1 0 0 -.1 440.437 136.223)" id="text_22"><use xlink:href="#DejaVuSans-73"/><use x="29.492" xlink:href="#DejaVuSans-99"/><use x="84.473" xlink:href="#DejaVuSans-101"/><use x="145.996" xlink:href="#DejaVuSans-32"/><use x="177.783" xlink:href="#DejaVuSans-84"/><use x="238.602" xlink:href="#DejaVuSans-111"/><use x="299.783" xlink:href="#DejaVuSans-119"/><use x="381.57" xlink:href="#DejaVuSans-101"/><use x="443.094" xlink:href="#DejaVuSans-114"/><use x="484.207" xlink:href="#DejaVuSans-32"/><use x="515.994" xlink:href="#DejaVuSans-40"/><use x="555.008" xlink:href="#DejaVuSans-102"/><use x="590.213" xlink:href="#DejaVuSans-97"/><use x="651.492" xlink:href="#DejaVuSans-110"/><use x="714.871" xlink:href="#DejaVuSans-32"/><use x="746.658" xlink:href="#DejaVuSans-111"/><use x="807.84" xlink:href="#DejaVuSans-110"/><use x="871.219" xlink:href="#DejaVuSans-41"/></g><path d="M412.437 147.402h20" fill="none" stroke="#17becf" stroke-linecap="square" stroke-width="1.5" id="line2d_51"/><g transform="matrix(.1 0 0 -.1 440.437 150.902)" id="text_23"><use xlink:href="#DejaVuSans-67"/><use x="69.824" xlink:href="#DejaVuSans-111"/><use x="131.006" xlink:href="#DejaVuSans-111"/><use x="192.188" xlink:href="#DejaVuSans-108"/><use x="219.971" xlink:href="#DejaVuSans-105"/><use x="247.754" xlink:href="#DejaVuSans-80"/><use x="308.025" xlink:href="#DejaVuSans-105"/><use x="335.809" xlink:href="#DejaVuSans-32"/><use x="367.596" xlink:href="#DejaVuSans-40"/><use x="406.609" xlink:href="#DejaVuSans-102"/><use x="441.814" xlink:href="#DejaVuSans-97"/><use x="503.094" xlink:href="#DejaVuSans-110"/><use x="566.473" xlink:href="#DejaVuSans-32"/><use x="598.26" xlink:href="#DejaVuSans-111"/><use x="659.441" xlink:href="#DejaVuSans-110"/><use x="722.82" xlink:href="#DejaVuSans-41"/></g></g></g></g><defs><clipPath id="p2e6d332f71"><path d="M40.603 7.2h357.12v266.112H40.603z"/></clipPath></defs></svg>