<svg height="419.158" viewBox="0 0 530.782 314.368" width="707.709" xmlns="http://www.w3.org/2000/svg" xmlns:xlink="http://www.w3.org/1999/xlink"><defs><style>*{stroke-linecap:butt;stroke-linejoin:round}</style></defs><g id="figure_1"><path d="M0 314.368h530.782V0H0z" fill="none" id="patch_1"/><g id="axes_1"><path d="M40.603 276.812h357.12V10.7H40.603z" fill="none" id="patch_2"/><g id="matplotlib.axis_1"><g id="xtick_1"><path clip-path="url(#pad5f04d28c)" d="M40.603 276.812V10.7" fill="none" stroke="#b0b0b0" stroke-linecap="square" stroke-width=".8" id="line2d_1"/><g id="line2d_2"><defs><path d="M0 0v3.5" id="mdbfbce15ea" stroke="#000" stroke-width=".8"/></defs><use x="40.603" xlink:href="#mdbfbce15ea" y="276.812" stroke="#000" stroke-width=".8"/></g><g id="text_1"><defs><path d="M31.781 66.406q-7.61 0-11.453-7.5Q16.5 51.422 16.5 36.375q0-14.984 3.828-22.484 3.844-7.5 11.453-7.5 7.672 0 11.5 7.5 3.844 7.5 3.844 22.484 0 15.047-3.844 22.531-3.828 7.5-11.5 7.5zm0 7.813q12.266 0 18.735-9.703 6.468-9.688 6.468-28.141 0-18.406-6.468-28.11-6.47-9.687-18.735-9.687-12.25 0-18.718 9.688-6.47 9.703-6.47 28.109 0 18.453 6.47 28.14Q19.53 74.22 31.78 74.22z" id="DejaVuSans-48"/></defs><use xlink:href="#DejaVuSans-48" transform="matrix(.1 0 0 -.1 37.422 291.41)"/></g></g><g id="xtick_2"><path clip-path="url(#pad5f04d28c)" d="M100.28 276.812V10.7" fill="none" stroke="#b0b0b0" stroke-linecap="square" stroke-width=".8" id="line2d_3"/><use x="100.28" xlink:href="#mdbfbce15ea" y="276.812" stroke="#000" stroke-width=".8" id="line2d_4"/><g id="text_2"><defs><path d="M12.406 8.297h16.11v55.625l-17.532-3.516v8.985l17.438 3.515h9.86V8.296H54.39V0H12.406z" id="DejaVuSans-49"/></defs><g transform="matrix(.1 0 0 -.1 90.737 291.41)"><use xlink:href="#DejaVuSans-49"/><use x="63.623" xlink:href="#DejaVuSans-48"/><use x="127.246" xlink:href="#DejaVuSans-48"/></g></g></g><g id="xtick_3"><path clip-path="url(#pad5f04d28c)" d="M159.957 276.812V10.7" fill="none" stroke="#b0b0b0" stroke-linecap="square" stroke-width=".8" id="line2d_5"/><use x="159.957" xlink:href="#mdbfbce15ea" y="276.812" stroke="#000" stroke-width=".8" id="line2d_6"/><g id="text_3"><defs><path d="M19.188 8.297h34.421V0H7.33v8.297q5.609 5.812 15.296 15.594 9.703 9.797 12.188 12.64 4.734 5.313 6.609 9 1.89 3.688 1.89 7.25 0 5.813-4.078 9.469-4.078 3.672-10.625 3.672-4.64 0-9.797-1.61-5.14-1.609-11-4.89v9.969Q13.767 71.78 18.938 73q5.188 1.219 9.485 1.219 11.328 0 18.062-5.672 6.735-5.656 6.735-15.125 0-4.5-1.688-8.531-1.672-4.016-6.125-9.485-1.218-1.422-7.765-8.187-6.532-6.766-18.453-18.922z" id="DejaVuSans-50"/></defs><g transform="matrix(.1 0 0 -.1 150.414 291.41)"><use xlink:href="#DejaVuSans-50"/><use x="63.623" xlink:href="#DejaVuSans-48"/><use x="127.246" xlink:href="#DejaVuSans-48"/></g></g></g><g id="xtick_4"><path clip-path="url(#pad5f04d28c)" d="M219.635 276.812V10.7" fill="none" stroke="#b0b0b0" stroke-linecap="square" stroke-width=".8" id="line2d_7"/><use x="219.635" xlink:href="#mdbfbce15ea" y="276.812" stroke="#000" stroke-width=".8" id="line2d_8"/><g id="text_4"><defs><path d="M40.578 39.313Q47.656 37.797 51.625 33q3.984-4.781 3.984-11.813 0-10.78-7.422-16.703-7.421-5.906-21.093-5.906-4.578 0-9.438.906-4.86.907-10.031 2.72v9.515q4.094-2.39 8.969-3.61 4.89-1.218 10.218-1.218 9.266 0 14.125 3.656 4.86 3.656 4.86 10.64 0 6.454-4.516 10.079-4.515 3.64-12.562 3.64h-8.5v8.11h8.89q7.266 0 11.125 2.906 3.86 2.906 3.86 8.375 0 5.61-3.985 8.61-3.968 3.015-11.39 3.015-4.063 0-8.703-.89-4.641-.876-10.203-2.72v8.782q5.624 1.562 10.53 2.344 4.907.78 9.25.78 11.235 0 17.766-5.109 6.547-5.093 6.547-13.78 0-6.063-3.468-10.235-3.47-4.172-9.86-5.782z" id="DejaVuSans-51"/></defs><g transform="matrix(.1 0 0 -.1 210.09 291.41)"><use xlink:href="#DejaVuSans-51"/><use x="63.623" xlink:href="#DejaVuSans-48"/><use x="127.246" xlink:href="#DejaVuSans-48"/></g></g></g><g id="xtick_5"><path clip-path="url(#pad5f04d28c)" d="M279.312 276.812V10.7" fill="none" stroke="#b0b0b0" stroke-linecap="square" stroke-width=".8" id="line2d_9"/><use x="279.312" xlink:href="#mdbfbce15ea" y="276.812" stroke="#000" stroke-width=".8" id="line2d_10"/><g id="text_5"><defs><path d="M37.797 64.313L12.89 25.39h24.906zm-2.594 8.593H47.61V25.391h10.407v-8.203H47.609V0h-9.812v17.188H4.89v9.515z" id="DejaVuSans-52"/></defs><g transform="matrix(.1 0 0 -.1 269.768 291.41)"><use xlink:href="#DejaVuSans-52"/><use x="63.623" xlink:href="#DejaVuSans-48"/><use x="127.246" xlink:href="#DejaVuSans-48"/></g></g></g><g id="xtick_6"><path clip-path="url(#pad5f04d28c)" d="M338.989 276.812V10.7" fill="none" stroke="#b0b0b0" stroke-linecap="square" stroke-width=".8" id="line2d_11"/><use x="338.989" xlink:href="#mdbfbce15ea" y="276.812" stroke="#000" stroke-width=".8" id="line2d_12"/><g id="text_6"><defs><path d="M10.797 72.906h38.719v-8.312H19.828v-17.86q2.14.735 4.281 1.094 2.157.36 4.313.36 12.203 0 19.328-6.688 7.14-6.688 7.14-18.11 0-11.765-7.328-18.296-7.328-6.516-20.656-6.516-4.593 0-9.36.781-4.75.782-9.827 2.344v9.922q4.39-2.39 9.078-3.563 4.687-1.171 9.906-1.171 8.453 0 13.375 4.437 4.938 4.438 4.938 12.063 0 7.609-4.938 12.047-4.922 4.453-13.375 4.453-3.953 0-7.89-.875-3.922-.875-8.016-2.735z" id="DejaVuSans-53"/></defs><g transform="matrix(.1 0 0 -.1 329.445 291.41)"><use xlink:href="#DejaVuSans-53"/><use x="63.623" xlink:href="#DejaVuSans-48"/><use x="127.246" xlink:href="#DejaVuSans-48"/></g></g></g><g id="text_7"><defs><path d="M18.313 70.219V54.688h18.5v-6.985h-18.5V18.016q0-6.688 1.828-8.594 1.828-1.906 7.453-1.906h9.218V0h-9.218q-10.407 0-14.36 3.875-3.953 3.89-3.953 14.14v29.688H2.687v6.984h6.594V70.22z" id="DejaVuSans-116"/><path d="M9.422 54.688h8.984V0H9.422zm0 21.296h8.984v-11.39H9.422z" id="DejaVuSans-105"/><path d="M52 44.188q3.375 6.062 8.063 8.937Q64.75 56 71.093 56q8.548 0 13.188-5.984 4.64-5.97 4.64-17V0h-9.03v32.719q0 7.86-2.797 11.656-2.781 3.813-8.485 3.813-6.984 0-11.046-4.641-4.047-4.625-4.047-12.64V0h-9.032v32.719q0 7.906-2.78 11.687-2.782 3.782-8.595 3.782-6.89 0-10.953-4.657-4.047-4.656-4.047-12.625V0H9.08v54.688h9.03v-8.5q3.078 5.03 7.375 7.421Q29.781 56 35.687 56q5.97 0 10.141-3.031Q50 49.953 52 44.187z" id="DejaVuSans-109"/><path d="M56.203 29.594v-4.39H14.891q.593-9.282 5.593-14.142 5-4.859 13.938-4.859 5.172 0 10.031 1.266 4.86 1.265 9.656 3.812v-8.5Q49.266.734 44.187-.344 39.11-1.422 33.892-1.422q-13.094 0-20.735 7.61-7.64 7.625-7.64 20.625 0 13.421 7.25 21.296Q20.016 56 32.328 56q11.031 0 17.453-7.11 6.422-7.093 6.422-19.296zm-8.984 2.64q-.094 7.36-4.125 11.75-4.032 4.407-10.672 4.407-7.516 0-12.031-4.25-4.516-4.25-5.203-11.97z" id="DejaVuSans-101"/><path d="M31 75.875q-6.531-11.219-9.719-22.219-3.172-10.984-3.172-22.265 0-11.266 3.203-22.328Q24.517-2 31-13.188h-7.813Q15.875-1.704 12.235 9.375q-3.64 11.078-3.64 22.016 0 10.89 3.61 21.922 3.624 11.046 10.983 22.562z" id="DejaVuSans-40"/><path d="M44.281 53.078v-8.5q-3.797 1.953-7.906 2.922-4.094.984-8.5.984-6.688 0-10.031-2.047-3.344-2.046-3.344-6.156 0-3.125 2.39-4.906 2.391-1.781 9.626-3.39l3.078-.688q9.562-2.047 13.593-5.781 4.032-3.735 4.032-10.422 0-7.625-6.032-12.078-6.03-4.438-16.578-4.438-4.39 0-9.156.86Q10.688.296 5.422 2v9.281q4.984-2.594 9.812-3.89 4.829-1.282 9.579-1.282 6.343 0 9.75 2.172 3.421 2.172 3.421 6.125 0 3.656-2.468 5.61-2.453 1.953-10.813 3.765l-3.125.735q-8.344 1.75-12.062 5.39-3.704 3.64-3.704 9.985 0 7.718 5.47 11.906Q16.75 56 26.811 56q4.97 0 9.36-.734 4.406-.72 8.11-2.188z" id="DejaVuSans-115"/><path d="M8.016 75.875h7.812q7.313-11.516 10.953-22.563 3.64-11.03 3.64-21.921 0-10.938-3.64-22.016-3.64-11.078-10.953-22.563H8.016Q14.5-2 17.703 9.063q3.203 11.063 3.203 22.329 0 11.28-3.203 22.265-3.203 11-9.687 22.219z" id="DejaVuSans-41"/></defs><g transform="matrix(.1 0 0 -.1 199.772 305.089)"><use xlink:href="#DejaVuSans-116"/><use x="39.209" xlink:href="#DejaVuSans-105"/><use x="66.992" xlink:href="#DejaVuSans-109"/><use x="164.404" xlink:href="#DejaVuSans-101"/><use x="225.928" xlink:href="#DejaVuSans-32"/><use x="257.715" xlink:href="#DejaVuSans-40"/><use x="296.729" xlink:href="#DejaVuSans-115"/><use x="348.828" xlink:href="#DejaVuSans-41"/></g></g></g><g id="matplotlib.axis_2"><g id="ytick_1"><path clip-path="url(#pad5f04d28c)" d="M40.603 246.188h357.12" fill="none" stroke="#b0b0b0" stroke-linecap="square" stroke-width=".8" id="line2d_13"/><g id="line2d_14"><defs><path d="M0 0h-3.5" id="m855a5b27b9" stroke="#000" stroke-width=".8"/></defs><use x="40.603" xlink:href="#m855a5b27b9" y="246.188" stroke="#000" stroke-width=".8"/></g><g transform="matrix(.1 0 0 -.1 20.878 249.987)" id="text_8"><use xlink:href="#DejaVuSans-52"/><use x="63.623" xlink:href="#DejaVuSans-48"/></g></g><g id="ytick_2"><path clip-path="url(#pad5f04d28c)" d="M40.603 193.252h357.12" fill="none" stroke="#b0b0b0" stroke-linecap="square" stroke-width=".8" id="line2d_15"/><use x="40.603" xlink:href="#m855a5b27b9" y="193.252" stroke="#000" stroke-width=".8" id="line2d_16"/><g transform="matrix(.1 0 0 -.1 20.878 197.05)" id="text_9"><use xlink:href="#DejaVuSans-53"/><use x="63.623" xlink:href="#DejaVuSans-48"/></g></g><g id="ytick_3"><path clip-path="url(#pad5f04d28c)" d="M40.603 140.315h357.12" fill="none" stroke="#b0b0b0" stroke-linecap="square" stroke-width=".8" id="line2d_17"/><use x="40.603" xlink:href="#m855a5b27b9" y="140.315" stroke="#000" stroke-width=".8" id="line2d_18"/><g id="text_10"><defs><path d="M33.016 40.375q-6.641 0-10.532-4.547-3.875-4.531-3.875-12.437 0-7.86 3.875-12.438 3.891-4.562 10.532-4.562 6.64 0 10.515 4.562 3.875 4.578 3.875 12.438 0 7.906-3.875 12.437-3.875 4.547-10.515 4.547zm19.578 30.922v-8.984q-3.719 1.75-7.5 2.671-3.782.938-7.5.938-9.766 0-14.922-6.594-5.14-6.594-5.875-19.922 2.875 4.25 7.219 6.516 4.359 2.266 9.578 2.266 10.984 0 17.36-6.672 6.374-6.657 6.374-18.125 0-11.235-6.64-18.032-6.641-6.78-17.672-6.78-12.657 0-19.344 9.687-6.688 9.703-6.688 28.109 0 17.281 8.204 27.563 8.203 10.28 22.015 10.28 3.719 0 7.5-.734t7.89-2.187z" id="DejaVuSans-54"/></defs><g transform="matrix(.1 0 0 -.1 20.878 144.114)"><use xlink:href="#DejaVuSans-54"/><use x="63.623" xlink:href="#DejaVuSans-48"/></g></g></g><g id="ytick_4"><path clip-path="url(#pad5f04d28c)" d="M40.603 87.379h357.12" fill="none" stroke="#b0b0b0" stroke-linecap="square" stroke-width=".8" id="line2d_19"/><use x="40.603" xlink:href="#m855a5b27b9" y="87.379" stroke="#000" stroke-width=".8" id="line2d_20"/><g id="text_11"><defs><path d="M8.203 72.906h46.875v-4.203L28.61 0H18.312L43.22 64.594H8.203z" id="DejaVuSans-55"/></defs><g transform="matrix(.1 0 0 -.1 20.878 91.178)"><use xlink:href="#DejaVuSans-55"/><use x="63.623" xlink:href="#DejaVuSans-48"/></g></g></g><g id="ytick_5"><path clip-path="url(#pad5f04d28c)" d="M40.603 34.442h357.12" fill="none" stroke="#b0b0b0" stroke-linecap="square" stroke-width=".8" id="line2d_21"/><use x="40.603" xlink:href="#m855a5b27b9" y="34.442" stroke="#000" stroke-width=".8" id="line2d_22"/><g id="text_12"><defs><path d="M31.781 34.625q-7.031 0-11.062-3.766-4.016-3.765-4.016-10.343 0-6.594 4.016-10.36Q24.75 6.391 31.78 6.391q7.032 0 11.078 3.78 4.063 3.798 4.063 10.345 0 6.578-4.031 10.343-4.016 3.766-11.11 3.766zm-9.86 4.188q-6.343 1.562-9.89 5.906Q8.5 49.079 8.5 55.329q0 8.733 6.219 13.812 6.234 5.078 17.062 5.078 10.89 0 17.094-5.078 6.203-5.079 6.203-13.813 0-6.25-3.547-10.61-3.531-4.343-9.828-5.906 7.125-1.656 11.094-6.5 3.984-4.828 3.984-11.796 0-10.61-6.468-16.282-6.47-5.656-18.532-5.656-12.047 0-18.531 5.656-6.469 5.672-6.469 16.282 0 6.968 4 11.797 4.016 4.843 11.14 6.5zM18.314 54.39q0-5.657 3.53-8.828 3.548-3.172 9.938-3.172 6.36 0 9.938 3.172 3.593 3.171 3.593 8.828 0 5.672-3.593 8.843-3.578 3.172-9.938 3.172-6.39 0-9.937-3.172-3.532-3.172-3.532-8.843z" id="DejaVuSans-56"/></defs><g transform="matrix(.1 0 0 -.1 20.878 38.241)"><use xlink:href="#DejaVuSans-56"/><use x="63.623" xlink:href="#DejaVuSans-48"/></g></g></g><g id="text_13"><defs><path d="M18.11 8.203v-29H9.077v75.484h9.031v-8.296q2.844 4.875 7.157 7.234Q29.594 56 35.594 56q9.968 0 16.187-7.906 6.235-7.907 6.235-20.797T51.78 6.484q-6.218-7.906-16.187-7.906-6 0-10.328 2.375-4.313 2.375-7.157 7.25zm30.578 19.094q0 9.906-4.079 15.547-4.078 5.64-11.203 5.64-7.14 0-11.218-5.64-4.079-5.64-4.079-15.547 0-9.906 4.078-15.547 4.079-5.64 11.22-5.64 7.124 0 11.202 5.64t4.078 15.547z" id="DejaVuSans-112"/><path d="M41.11 46.297q-1.516.875-3.297 1.281Q36.03 48 33.89 48q-7.625 0-11.703-4.953-4.079-4.953-4.079-14.234V0H9.08v54.688h9.03v-8.5q2.844 4.984 7.375 7.39Q30.031 56 36.531 56q.922 0 2.047-.125 1.125-.11 2.484-.36z" id="DejaVuSans-114"/><path d="M34.281 27.484q-10.89 0-15.093-2.484-4.204-2.484-4.204-8.5 0-4.781 3.157-7.594 3.156-2.797 8.562-2.797 7.485 0 12 5.297 4.516 5.297 4.516 14.078v2zm17.922 3.72V0H43.22v8.297Q40.14 3.328 35.547.953q-4.594-2.375-11.234-2.375-8.391 0-13.36 4.719Q6 8.016 6 15.922q0 9.219 6.172 13.906 6.187 4.688 18.437 4.688h12.61v.89q0 6.203-4.078 9.594-4.078 3.39-11.453 3.39-4.688 0-9.141-1.124-4.438-1.125-8.531-3.375v8.312q4.921 1.906 9.562 2.844 4.64.953 9.031.953 11.875 0 17.735-6.156 5.86-6.14 5.86-18.64z" id="DejaVuSans-97"/><path d="M8.5 21.578v33.11h8.984V21.922q0-7.766 3.016-11.656 3.031-3.875 9.094-3.875 7.265 0 11.484 4.64 4.234 4.64 4.234 12.656v31h8.985V0h-8.984v8.406Q42.047 3.422 37.718 1q-4.313-2.422-10.032-2.422-9.421 0-14.312 5.86Q8.5 10.296 8.5 21.578zM31.11 56z" id="DejaVuSans-117"/><path d="M25 67.922q-3.906 0-6.594-2.719-2.687-2.703-2.687-6.61 0-3.859 2.687-6.515 2.688-2.656 6.594-2.656t6.594 2.656q2.687 2.656 2.687 6.516t-2.718 6.593Q28.858 67.922 25 67.922zm0 6.297q3.125 0 6-1.203 2.89-1.188 4.984-3.438 2.25-2.187 3.375-4.984 1.125-2.781 1.125-6 0-6.438-4.515-10.907-4.516-4.468-11.063-4.468-6.593 0-11 4.39Q9.516 52 9.516 58.594q0 6.547 4.484 11.078 4.5 4.547 11 4.547z" id="DejaVuSans-176"/><path d="M64.406 67.281v-10.39q-4.984 4.64-10.625 6.922-5.64 2.296-11.984 2.296-12.5 0-19.14-7.64-6.641-7.64-6.641-22.094 0-14.406 6.64-22.047 6.64-7.64 19.14-7.64 6.345 0 11.985 2.296 5.64 2.297 10.625 6.938V5.609Q59.234 2.094 53.437.33q-5.78-1.75-12.218-1.75-16.563 0-26.094 10.124-9.516 10.14-9.516 27.672 0 17.578 9.516 27.703 9.531 10.14 26.094 10.14 6.531 0 12.312-1.734 5.797-1.734 10.875-5.203z" id="DejaVuSans-67"/></defs><g transform="matrix(0 -.1 -.1 0 14.798 186.775)"><use xlink:href="#DejaVuSans-116"/><use x="39.209" xlink:href="#DejaVuSans-101"/><use x="100.732" xlink:href="#DejaVuSans-109"/><use x="198.145" xlink:href="#DejaVuSans-112"/><use x="261.621" xlink:href="#DejaVuSans-101"/><use x="323.145" xlink:href="#DejaVuSans-114"/><use x="364.258" xlink:href="#DejaVuSans-97"/><use x="425.537" xlink:href="#DejaVuSans-116"/><use x="464.746" xlink:href="#DejaVuSans-117"/><use x="528.125" xlink:href="#DejaVuSans-114"/><use x="569.207" xlink:href="#DejaVuSans-101"/><use x="630.73" xlink:href="#DejaVuSans-32"/><use x="662.518" xlink:href="#DejaVuSans-40"/><use x="701.531" xlink:href="#DejaVuSans-176"/><use x="751.531" xlink:href="#DejaVuSans-67"/><use x="821.355" xlink:href="#DejaVuSans-41"/></g></g></g><path clip-path="url(#pad5f04d28c)" d="M40.603 202.25l1.218 2.648 1.21-2.647h8.465l1.21 2.647 1.209-2.647h2.419l1.21 2.647 1.208-2.647h1.21l1.21 2.647 1.209-2.647 1.21 2.647h2.417l1.21-2.647h2.418l1.209 2.647 1.203-2.647h3.628l1.21 2.647 1.209-2.647h1.209l1.21 2.647 1.209 3.176 1.209-5.823 1.21 5.823 1.209-5.823 1.209 5.823h1.21l1.209-5.823 1.209 2.647h9.673l1.21 3.176h3.628l1.209-3.176 1.209-2.647 1.209 5.823 1.21-5.823 1.209 2.647h9.675l1.21-2.647 1.209 5.823h1.209l1.21-5.823 1.208 2.647 1.21 3.176h2.418l1.21-37.056 1.243-17.469 1.24-8.47 1.242-11.116 2.482-17.47 1.236-5.293 1.236-5.823h1.24l1.253-5.823 1.242-2.647 1.242-3.176 2.481-5.294 1.242-3.176 1.241-2.647h2.483l1.24-5.823 1.237-2.647 1.24-3.176h3.718l1.236-5.293 1.24 2.646h1.242l1.242-2.646 1.24-3.177h1.243l1.24-2.646h3.724l1.237-3.177h2.482l1.235-5.293 1.24 2.647h1.243l1.24-2.647h1.242l1.24-3.176h1.237l1.24-2.647 1.242 2.647h1.241l2.483-5.294h3.718l1.24-5.823 1.242 5.823 1.241-3.176h1.242l1.24-2.647h7.449l1.242-3.176h1.24l1.253 3.176 1.242-3.176h1.241l1.241-2.647h11.185l1.24 2.647 1.242-2.647h2.483l1.241-2.647 1.241 2.647 1.242-2.647h2.482l1.24 2.647 1.243-2.647h1.24l1.242 2.647 1.242-5.823h1.24l1.242 3.176h3.723l1.242-3.176 1.242 5.823 1.24-5.823 1.242 3.176 1.241 2.647h2.495l1.238-2.647 1.25-3.176 1.242 3.176 1.241-3.176h1.241l1.242 3.176h1.235l1.241-3.176h1.247l1.242-2.647 1.241 2.647h3.723l1.242 3.176 1.241-5.823 1.241 5.823h1.242l1.24-3.176h3.725l1.241 3.176 1.242-3.176 1.24-2.647 1.242 2.647 1.242-2.647 1.24 2.647h4.978l1.241 3.176 1.242-3.176h6.2l1.235-2.647 1.237 22.763 1.21 20.116 1.209 11.116 2.418 16.94 1.21 3.176 1.209 5.823 1.21 2.647 2.418 11.117 1.209-2.647 1.21 5.823 1.209 2.647 1.21 3.176 1.209 2.647h3.627l1.21 5.823h1.21l1.209 2.647h2.418l1.21 3.176h1.209l1.21-3.176 1.209 8.47h3.628l1.21 5.822 1.21-2.646 1.209 2.646h3.627l1.21 2.647h1.209l1.209 3.176 1.209-5.823h1.203l1.21 2.647 1.209 3.176h1.209l1.21-3.176 1.209 3.176h3.628l1.21 2.647h7.256l1.21 3.176h3.627l1.21 5.294 1.209-5.294 1.21 5.294 1.209-5.294 1.21 5.294h7.255l1.21 3.176 1.209-3.176h1.21" fill="none" stroke="#1f77b4" stroke-linecap="square" stroke-width="1.5" id="line2d_23"/><path clip-path="url(#pad5f04d28c)" d="M40.603 213.368h2.42l1.21-5.294 1.21 5.294 1.209-2.647 1.21 2.647h1.21l1.209-2.647 1.21 2.647 1.21-5.294 1.209 5.294 1.21-2.647 1.21 2.647h4.838l1.21-2.647 1.21 2.647h1.21l1.209-2.647 1.21 2.647h8.468l1.21-2.647 1.21 2.647h3.628l1.21-2.647 1.21 2.647h9.681l1.21-2.647 1.21 2.647 1.209-5.294 1.209 5.294h3.628l1.21-2.647h1.209l1.21 2.647h2.418l1.21-2.647 1.21 2.647 1.21-2.647 1.21 2.647h1.209l1.209 3.176 1.209-3.176h2.42l1.209-2.647 1.209 2.647 1.21-2.647 1.208 2.647h1.21l1.209-5.294 1.203 5.294h2.42l1.209-33.88 1.24-16.94 1.237-11.646 1.235-14.292 2.47-11.117 1.241-3.176 1.236-8.47 1.24-2.647 1.242-3.176 2.483-5.294 1.24-5.823 1.242-3.176h1.248l1.24-2.647h1.236l1.241-5.823h1.242l1.241-2.647h2.483l1.24-5.823 1.242 3.176 1.241-5.823 1.242 2.647 1.242-5.823h4.97l1.241-2.647 1.242 2.647 1.24-5.293h2.484l1.24-3.177 1.242-2.646h4.96l1.235-3.177h1.236l2.476-5.293 1.236 2.647 1.235-2.647 1.241 2.647 1.24-2.647 1.242 2.647 1.241-2.647 1.241-3.176 1.242-2.647h1.241l1.241 2.647h1.242l1.24-2.647 1.242 2.647h1.242l1.24-5.294 1.242 2.647 1.242-2.647h4.967l1.245-3.176 1.241-2.647h9.889l1.24-3.176 1.243-2.647h1.235l1.241 2.647 1.247-2.647h3.719l1.247 2.647 1.241-2.647h7.442l1.241-2.647 1.241 5.294 1.242-2.647h7.447l1.242-2.647 1.241 2.647h2.483l1.24-2.647 1.242 2.647h3.724l1.241-2.647h3.73l1.241-3.176 1.242 3.176h1.24l1.242-3.176 1.242 5.823h1.24l1.242-5.823h1.241l1.242 3.176 1.235 2.647h2.47l1.236-2.647h3.724l1.241 2.647 1.241-2.647 1.236 2.647 1.241-5.823 1.241 3.176 1.242 2.647 1.24-5.823 1.236 5.823h3.714l1.24-2.647 1.24 2.647 1.241 16.94 1.21 20.115 1.21 14.293 2.42 16.94 4.837 22.763 1.21 3.176 2.419 5.294 1.21 3.176h1.209l1.21 2.647 1.209 3.176 1.21 5.293h3.628l1.209 3.177 1.21 2.646h2.418l1.21 2.647 1.21 3.176 1.209-3.176 1.21 3.176h1.209l1.21 2.647h1.21l1.209 3.176 1.209-3.176 1.21 8.47h1.209l1.209-5.294h2.418l1.21 5.294h1.21l1.209 3.176 1.21-3.176 1.21-2.647 1.21 2.647 1.21 3.176 1.21-3.176 1.209 5.823 1.21-2.647h2.42l1.209 2.647h7.257l1.21 5.823h7.258l1.21 2.647 1.208-2.647h2.42l1.209 2.647h1.21l1.209 3.176h3.629" fill="none" stroke="#ff7f0e" stroke-linecap="square" stroke-width="1.5" id="line2d_24"/><path clip-path="url(#pad5f04d28c)" d="M40.603 224.971h10.753l1.194 2.848 2.389-5.696 2.389 5.696h9.557l1.195-2.848h1.195l1.195 2.848 1.195-2.848h2.39l1.194 2.848 1.194-2.848 1.194 2.848h1.194l1.194-2.848h2.389l1.194 2.848 1.195-2.848 1.195 2.848h1.194l1.195-2.848 1.194 2.848 1.194-2.848h1.195l1.194-2.848 1.194 5.696h7.165l1.194-2.848h8.361l1.195 2.848h2.389l1.194-2.848h2.389l1.194 2.848 1.194-2.848h1.195l1.194 2.848 1.194-2.848h2.388l1.195 2.848 1.194-2.848h1.195l1.194-22.784 3.583-17.088 1.195-2.848 1.194 2.848h1.194l1.195-5.696h3.583l1.194-2.848h1.194l1.195-2.848h7.166l1.194-2.847h1.194l1.195-2.848h3.583l1.194-2.848 1.194 2.848 1.195-2.848h1.194l1.194 2.848h1.195l1.194-2.848h1.194l1.194-2.848h5.972l1.194-2.848h1.195l1.194 2.848 1.194-2.848 1.195 2.848 2.388-5.696h3.584l1.194-2.848 1.194 2.848h3.583l1.195-2.848h1.194l1.194 2.848 1.195-2.848h1.194l1.194 2.848 1.195-2.848h1.194l1.194-2.848 1.195 5.696 1.194-2.848h1.194l1.195-2.848 1.194 2.848 1.195-2.848h2.388l1.195 2.848 1.194-2.848h1.194l1.195-5.696 1.194 5.696h2.389l1.194-2.848h1.194l1.195 2.848h1.194l1.195-2.848 1.194 2.848 1.194-5.696h1.195l1.194 2.848 1.194-2.848h1.195l1.194 2.848h3.583l1.194-2.848h1.195l1.194-2.848 2.389 5.696 1.194-2.848h2.389l1.194-2.848 1.195 2.848h1.194l1.194-2.848 1.195 2.848h2.388l1.195-2.848 1.194 2.848 2.392-5.696 1.194 5.696 1.195-5.696 1.197 5.696 1.195-2.848 1.194 2.848 1.194-2.848h1.195l1.194 2.848 1.194-5.696 1.195 5.696 1.194-5.696h1.194l1.195 2.848 1.194-2.848 1.194 5.696 1.195-2.848 1.194 2.848 2.389-5.696 1.194 5.696 1.195-5.696 1.194 5.696h1.194l1.195-5.696h2.388l1.195 2.848h2.388l1.195-2.848h1.194l1.194 2.848 1.194-2.848 1.195 2.848 1.194-2.848h1.195l1.194 5.696 1.195 14.24 1.194 11.392 1.195 2.847h1.194l3.583 8.544 1.194-2.848 1.194 5.696h2.388l1.195-2.848 1.194 2.848h1.194l1.194-2.848 1.195 8.544 1.194-5.696 1.194 5.696h1.194l1.194-5.696 3.583 8.544 1.194-2.848h1.194l1.195-5.696 1.194 5.696h3.582l1.195 5.696 2.388-5.696 1.194 5.696h1.195l1.194-2.848h3.582l1.195 2.848h2.388l1.194-2.848 1.194 2.848 1.195-2.848 1.194 2.848h2.388l1.195-2.848 1.195 2.848h1.195l1.194 2.848 1.195-2.848h7.166l1.194 5.696h1.194l1.195-5.696 1.194 2.848h1.194l1.194 2.848 2.389-5.696 1.194 5.696h2.39l1.194-5.696 2.388 5.696 1.194-2.848h0" fill="none" stroke="#2ca02c" stroke-linecap="square" stroke-width="1.5" id="line2d_25"/><path clip-path="url(#pad5f04d28c)" d="M40.603 262.07l1.2-3.177h1.201l1.2 3.176 1.201-3.176 1.201 3.176 1.2-3.176 1.202 3.176h1.2l1.201-3.176 1.201 3.176 1.201-3.176h1.201l1.2 3.176 1.202-3.176 1.201 3.176h2.402l1.2-3.176 1.201 3.176h1.201l1.201-3.176 1.201 5.823 1.2-2.647 1.201-3.176 1.201 3.176h4.803l1.201-3.176h1.2l1.201 3.176 1.2-3.176 1.202 3.176h1.2l1.202-3.176h1.2l1.201 3.176h2.401l1.201-3.176 1.2 3.176h1.202l1.2 2.647 1.201-2.647h2.402l1.201-3.176 1.201 3.176h2.402l1.2 2.647h1.202l1.2-5.823 1.201 3.176h4.803l1.2 2.647h1.201l1.201-2.647 1.2-3.176 1.202 3.176h1.2l1.2-3.176 1.202 3.176h1.2l1.201 2.647h1.201l1.201-2.647h2.402l1.2 2.647 1.201-16.94 2.447-16.94h1.224l1.223-5.822 1.223 2.646h2.441l1.223-2.646h1.224l1.223-2.647 1.218-3.176h1.223l1.223 3.176 1.224-3.176h4.887l1.224 3.176 1.223-3.176h7.316l1.224-2.647 1.217 2.647 1.224-2.647 1.223 2.647 1.218-2.647 1.223 2.647h2.447l1.223-2.647 1.218-3.176 1.223 3.176h1.223l1.224-3.176 1.223 3.176 1.223-3.176h2.441l1.218 3.176 1.223-3.176h8.564l1.223-5.294 1.223 5.294h7.34l2.447-5.294 1.224 5.294h2.447l1.223-2.647h2.447l1.217 2.647 2.441-5.294h3.658l1.218 2.647 1.223-2.647h8.546l1.223 2.647 1.217-2.647h12.199l1.223-3.176 1.217 3.176 1.224-3.176 1.223 3.176 1.223-3.176 1.224 3.176 1.223-3.176 1.217 3.176 1.224-3.176 1.223-2.647h1.224l1.223 2.647 1.223-2.647 1.224 5.823 1.223-3.176 1.224-2.647 1.223 2.647h3.664l1.223-2.647h3.67l1.224 2.647 1.218-2.647h2.446l1.224 2.647 1.223-2.647h1.218l1.223 5.823 1.223-5.823h14.669l1.223-3.176 1.224 3.176h4.893l1.223 16.94 2.402 11.646h2.401l1.201 5.293h3.602l1.201 5.823 1.201-2.647h2.402l1.2 2.647h2.402l1.2-2.647 1.201 2.647 1.2-2.647 1.202 2.647h2.401l1.201-2.647 1.2 2.647h15.61l1.202 3.176h1.2l1.201 2.647 1.201-2.647 1.2 2.647 1.201-2.647 1.201-3.176h2.402l1.2 5.823 1.202-2.647h1.2l1.201-3.176 1.201 3.176h1.2l1.201 2.647h3.603l1.2-5.823 1.201 3.176 1.201 2.647h1.2l1.202-2.647h1.2l1.2 2.647 1.202-2.647 1.2 2.647 1.2-2.647 1.201 2.647h3.603l1.2-2.647h1.201l1.2 2.647h1.202" fill="none" stroke="#d62728" stroke-linecap="square" stroke-width="1.5" id="line2d_26"/><path d="M40.603 276.812V10.7" fill="none" stroke="#000" stroke-linecap="square" stroke-width=".8" id="patch_3"/><path d="M397.723 276.812V10.7" fill="none" stroke="#000" stroke-linecap="square" stroke-width=".8" id="patch_4"/><path d="M40.603 276.812h357.12" fill="none" stroke="#000" stroke-linecap="square" stroke-width=".8" id="patch_5"/><path d="M40.603 10.7h357.12" fill="none" stroke="#000" stroke-linecap="square" stroke-width=".8" id="patch_6"/><g id="legend_1"><path d="M410.437 72.412h111.145q2 0 2-2V12.7q0-2-2-2H410.437q-2 0-2 2v57.712q0 2 2 2z" fill="#fff" opacity=".8" stroke="#ccc" id="patch_7"/><path d="M412.437 18.798h20" fill="none" stroke="#1f77b4" stroke-linecap="square" stroke-width="1.5" id="line2d_27"/><g id="text_14"><defs><path d="M19.672 34.813V8.108H35.5q7.953 0 11.781 3.297 3.844 3.297 3.844 10.078 0 6.844-3.844 10.078-3.828 3.25-11.781 3.25zm0 29.984V42.828h14.61q7.218 0 10.75 2.703 3.546 2.719 3.546 8.282 0 5.515-3.547 8.25-3.531 2.734-10.75 2.734zm-9.86 8.11h25.204q11.28 0 17.375-4.688Q58.5 63.53 58.5 54.89q0-6.703-3.125-10.657-3.125-3.953-9.188-4.922 7.282-1.562 11.313-6.53 4.031-4.954 4.031-12.376 0-9.765-6.64-15.093Q48.25 0 35.984 0H9.812z" id="DejaVuSans-66"/><path d="M48.781 52.594v-8.407q-3.812 2.11-7.64 3.157-3.828 1.047-7.735 1.047-8.75 0-13.593-5.547-4.829-5.532-4.829-15.547 0-10.016 4.829-15.563 4.843-5.53 13.593-5.53 3.907 0 7.735 1.046 3.828 1.047 7.64 3.156V2.094Q45.016.344 40.984-.531q-4.015-.89-8.562-.89-12.36 0-19.64 7.765-7.266 7.765-7.266 20.953 0 13.375 7.343 21.031Q20.22 56 33.016 56q4.14 0 8.093-.86 3.953-.843 7.672-2.546z" id="DejaVuSans-99"/><path d="M32.172-5.078q-3.797-9.766-7.422-12.735-3.61-2.984-9.656-2.984H7.906v7.516h5.282q3.703 0 5.75 1.765Q21-9.766 23.483-3.219l1.61 4.094-22.11 53.813H12.5l17.094-42.766 17.093 42.766h9.516z" id="DejaVuSans-121"/><path d="M9.422 75.984h8.984V0H9.422z" id="DejaVuSans-108"/></defs><g transform="matrix(.1 0 0 -.1 440.437 22.298)"><use xlink:href="#DejaVuSans-51"/><use x="63.623" xlink:href="#DejaVuSans-66"/><use x="132.227" xlink:href="#DejaVuSans-32"/><use x="164.014" xlink:href="#DejaVuSans-97"/><use x="225.293" xlink:href="#DejaVuSans-99"/><use x="280.273" xlink:href="#DejaVuSans-114"/><use x="321.387" xlink:href="#DejaVuSans-121"/><use x="380.566" xlink:href="#DejaVuSans-108"/></g></g><path d="M412.437 33.477h20" fill="none" stroke="#ff7f0e" stroke-linecap="square" stroke-width="1.5" id="line2d_29"/><g id="text_15"><defs><path d="M54.89 33.016V0h-8.984v32.719q0 7.765-3.031 11.61-3.031 3.858-9.078 3.858-7.281 0-11.484-4.64-4.204-4.625-4.204-12.64V0H9.08v54.688h9.03v-8.5q3.235 4.937 7.594 7.374Q30.078 56 35.797 56q9.422 0 14.25-5.828 4.844-5.828 4.844-17.156z" id="DejaVuSans-110"/><path d="M9.078 75.984h9.031V31.11l26.813 23.578H56.39l-29-25.578L57.625 0H45.906L18.11 26.703V0H9.08z" id="DejaVuSans-107"/><path d="M45.406 46.39v29.594h8.985V0h-8.985v8.203Q42.578 3.328 38.25.953q-4.313-2.375-10.375-2.375-9.906 0-16.14 7.906-6.22 7.922-6.22 20.813 0 12.89 6.22 20.797Q17.968 56 27.874 56q6.063 0 10.375-2.375 4.328-2.36 7.156-7.234zm-30.61-19.093q0-9.906 4.079-15.547 4.078-5.64 11.203-5.64 7.125 0 11.219 5.64 4.11 5.64 4.11 15.547 0 9.906-4.11 15.547-4.094 5.64-11.219 5.64-7.125 0-11.203-5.64-4.078-5.64-4.078-15.547z" id="DejaVuSans-100"/></defs><g transform="matrix(.1 0 0 -.1 440.437 36.977)"><use xlink:href="#DejaVuSans-51"/><use x="63.623" xlink:href="#DejaVuSans-66"/><use x="132.227" xlink:href="#DejaVuSans-32"/><use x="164.014" xlink:href="#DejaVuSans-110"/><use x="227.393" xlink:href="#DejaVuSans-97"/><use x="288.672" xlink:href="#DejaVuSans-107"/><use x="346.535" xlink:href="#DejaVuSans-101"/><use x="408.059" xlink:href="#DejaVuSans-100"/></g></g><path d="M412.437 48.155h20" fill="none" stroke="#2ca02c" stroke-linecap="square" stroke-width="1.5" id="line2d_31"/><g id="text_16"><defs><path d="M46 62.703V35.5h27.188v-8.297H46V0h-8.203v27.203H10.594V35.5h27.203v27.203z" id="DejaVuSans-43"/><path d="M9.813 72.906h41.89v-8.312H19.672V43.109h28.906v-8.297H19.672V0h-9.86z" id="DejaVuSans-70"/><path d="M9.813 72.906h9.859V8.296h35.5V0H9.812z" id="DejaVuSans-76"/><path d="M9.813 72.906h9.859V0h-9.86z" id="DejaVuSans-73"/><path d="M44.39 34.188q3.172-1.079 6.172-4.594 3-3.516 6.032-9.672L66.609 0H56l-9.313 18.703q-3.624 7.328-7.015 9.719-3.39 2.39-9.25 2.39h-10.75V0h-9.86v72.906h22.266q12.5 0 18.656-5.234 6.157-5.219 6.157-15.766 0-6.89-3.203-11.437-3.204-4.532-9.297-6.282zM19.673 64.797V38.922h12.406q7.125 0 10.766 3.297 3.64 3.297 3.64 9.687 0 6.39-3.64 9.64-3.64 3.25-10.766 3.25z" id="DejaVuSans-82"/></defs><g transform="matrix(.1 0 0 -.1 440.437 51.655)"><use xlink:href="#DejaVuSans-51"/><use x="63.623" xlink:href="#DejaVuSans-66"/><use x="132.227" xlink:href="#DejaVuSans-43"/><use x="216.016" xlink:href="#DejaVuSans-32"/><use x="247.803" xlink:href="#DejaVuSans-70"/><use x="305.322" xlink:href="#DejaVuSans-76"/><use x="361.035" xlink:href="#DejaVuSans-73"/><use x="390.527" xlink:href="#DejaVuSans-82"/><use x="459.932" xlink:href="#DejaVuSans-67"/><use x="529.756" xlink:href="#DejaVuSans-32"/><use x="561.543" xlink:href="#DejaVuSans-99"/><use x="616.523" xlink:href="#DejaVuSans-97"/><use x="677.803" xlink:href="#DejaVuSans-115"/><use x="729.902" xlink:href="#DejaVuSans-101"/></g></g><path d="M412.437 62.833h20" fill="none" stroke="#d62728" stroke-linecap="square" stroke-width="1.5" id="line2d_33"/><g id="text_17"><defs><path d="M37.11 75.984V68.5h-8.594q-4.828 0-6.72-1.953-1.874-1.953-1.874-7.031v-4.828h14.797v-6.985H19.922V0H10.89v47.703H2.297v6.984h8.594V58.5q0 9.125 4.25 13.297 4.25 4.187 13.468 4.187z" id="DejaVuSans-102"/><path d="M54.89 33.016V0h-8.984v32.719q0 7.765-3.031 11.61-3.031 3.858-9.078 3.858-7.281 0-11.484-4.64-4.204-4.625-4.204-12.64V0H9.08v75.984h9.03V46.188q3.235 4.937 7.594 7.374Q30.078 56 35.797 56q9.422 0 14.25-5.828 4.844-5.828 4.844-17.156z" id="DejaVuSans-104"/></defs><g transform="matrix(.1 0 0 -.1 440.437 66.333)"><use xlink:href="#DejaVuSans-51"/><use x="63.623" xlink:href="#DejaVuSans-66"/><use x="132.227" xlink:href="#DejaVuSans-32"/><use x="164.014" xlink:href="#DejaVuSans-102"/><use x="199.219" xlink:href="#DejaVuSans-97"/><use x="260.498" xlink:href="#DejaVuSans-115"/><use x="312.598" xlink:href="#DejaVuSans-116"/><use x="351.807" xlink:href="#DejaVuSans-116"/><use x="391.016" xlink:href="#DejaVuSans-101"/><use x="452.539" xlink:href="#DejaVuSans-99"/><use x="507.52" xlink:href="#DejaVuSans-104"/></g></g></g></g></g><defs><clipPath id="pad5f04d28c"><path d="M40.603 10.7h357.12v266.112H40.603z"/></clipPath></defs></svg>