<?xml version="1.0" encoding="utf-8" standalone="no"?>
<!DOCTYPE svg PUBLIC "-//W3C//DTD SVG 1.1//EN"
  "http://www.w3.org/Graphics/SVG/1.1/DTD/svg11.dtd">
<!-- Created with matplotlib (https://matplotlib.org/) -->
<svg height="314.36825pt" version="1.1" viewBox="0 0 530.782037 314.36825" width="530.782037pt" xmlns="http://www.w3.org/2000/svg" xmlns:xlink="http://www.w3.org/1999/xlink">
 <defs>
  <style type="text/css">
*{stroke-linecap:butt;stroke-linejoin:round;}
  </style>
 </defs>
 <g id="figure_1">
  <g id="patch_1">
   <path d="M 0 314.36825 
L 530.782037 314.36825 
L 530.782037 0 
L 0 0 
z
" style="fill:none;"/>
  </g>
  <g id="axes_1">
   <g id="patch_2">
    <path d="M 40.603125 276.812 
L 397.723125 276.812 
L 397.723125 10.7 
L 40.603125 10.7 
z
" style="fill:none;"/>
   </g>
   <g id="matplotlib.axis_1">
    <g id="xtick_1">
     <g id="line2d_1">
      <path clip-path="url(#pad5f04d28c)" d="M 40.603125 276.812 
L 40.603125 10.7 
" style="fill:none;stroke:#b0b0b0;stroke-linecap:square;stroke-width:0.8;"/>
     </g>
     <g id="line2d_2">
      <defs>
       <path d="M 0 0 
L 0 3.5 
" id="mdbfbce15ea" style="stroke:#000000;stroke-width:0.8;"/>
      </defs>
      <g>
       <use style="stroke:#000000;stroke-width:0.8;" x="40.603125" xlink:href="#mdbfbce15ea" y="276.812"/>
      </g>
     </g>
     <g id="text_1">
      <!-- 0 -->
      <defs>
       <path d="M 31.78125 66.40625 
Q 24.171875 66.40625 20.328125 58.90625 
Q 16.5 51.421875 16.5 36.375 
Q 16.5 21.390625 20.328125 13.890625 
Q 24.171875 6.390625 31.78125 6.390625 
Q 39.453125 6.390625 43.28125 13.890625 
Q 47.125 21.390625 47.125 36.375 
Q 47.125 51.421875 43.28125 58.90625 
Q 39.453125 66.40625 31.78125 66.40625 
z
M 31.78125 74.21875 
Q 44.046875 74.21875 50.515625 64.515625 
Q 56.984375 54.828125 56.984375 36.375 
Q 56.984375 17.96875 50.515625 8.265625 
Q 44.046875 -1.421875 31.78125 -1.421875 
Q 19.53125 -1.421875 13.0625 8.265625 
Q 6.59375 17.96875 6.59375 36.375 
Q 6.59375 54.828125 13.0625 64.515625 
Q 19.53125 74.21875 31.78125 74.21875 
z
" id="DejaVuSans-48"/>
      </defs>
      <g transform="translate(37.421875 291.410438)scale(0.1 -0.1)">
       <use xlink:href="#DejaVuSans-48"/>
      </g>
     </g>
    </g>
    <g id="xtick_2">
     <g id="line2d_3">
      <path clip-path="url(#pad5f04d28c)" d="M 100.280255 276.812 
L 100.280255 10.7 
" style="fill:none;stroke:#b0b0b0;stroke-linecap:square;stroke-width:0.8;"/>
     </g>
     <g id="line2d_4">
      <g>
       <use style="stroke:#000000;stroke-width:0.8;" x="100.280255" xlink:href="#mdbfbce15ea" y="276.812"/>
      </g>
     </g>
     <g id="text_2">
      <!-- 100 -->
      <defs>
       <path d="M 12.40625 8.296875 
L 28.515625 8.296875 
L 28.515625 63.921875 
L 10.984375 60.40625 
L 10.984375 69.390625 
L 28.421875 72.90625 
L 38.28125 72.90625 
L 38.28125 8.296875 
L 54.390625 8.296875 
L 54.390625 0 
L 12.40625 0 
z
" id="DejaVuSans-49"/>
      </defs>
      <g transform="translate(90.736505 291.410438)scale(0.1 -0.1)">
       <use xlink:href="#DejaVuSans-49"/>
       <use x="63.623047" xlink:href="#DejaVuSans-48"/>
       <use x="127.246094" xlink:href="#DejaVuSans-48"/>
      </g>
     </g>
    </g>
    <g id="xtick_3">
     <g id="line2d_5">
      <path clip-path="url(#pad5f04d28c)" d="M 159.957386 276.812 
L 159.957386 10.7 
" style="fill:none;stroke:#b0b0b0;stroke-linecap:square;stroke-width:0.8;"/>
     </g>
     <g id="line2d_6">
      <g>
       <use style="stroke:#000000;stroke-width:0.8;" x="159.957386" xlink:href="#mdbfbce15ea" y="276.812"/>
      </g>
     </g>
     <g id="text_3">
      <!-- 200 -->
      <defs>
       <path d="M 19.1875 8.296875 
L 53.609375 8.296875 
L 53.609375 0 
L 7.328125 0 
L 7.328125 8.296875 
Q 12.9375 14.109375 22.625 23.890625 
Q 32.328125 33.6875 34.8125 36.53125 
Q 39.546875 41.84375 41.421875 45.53125 
Q 43.3125 49.21875 43.3125 52.78125 
Q 43.3125 58.59375 39.234375 62.25 
Q 35.15625 65.921875 28.609375 65.921875 
Q 23.96875 65.921875 18.8125 64.3125 
Q 13.671875 62.703125 7.8125 59.421875 
L 7.8125 69.390625 
Q 13.765625 71.78125 18.9375 73 
Q 24.125 74.21875 28.421875 74.21875 
Q 39.75 74.21875 46.484375 68.546875 
Q 53.21875 62.890625 53.21875 53.421875 
Q 53.21875 48.921875 51.53125 44.890625 
Q 49.859375 40.875 45.40625 35.40625 
Q 44.1875 33.984375 37.640625 27.21875 
Q 31.109375 20.453125 19.1875 8.296875 
z
" id="DejaVuSans-50"/>
      </defs>
      <g transform="translate(150.413636 291.410438)scale(0.1 -0.1)">
       <use xlink:href="#DejaVuSans-50"/>
       <use x="63.623047" xlink:href="#DejaVuSans-48"/>
       <use x="127.246094" xlink:href="#DejaVuSans-48"/>
      </g>
     </g>
    </g>
    <g id="xtick_4">
     <g id="line2d_7">
      <path clip-path="url(#pad5f04d28c)" d="M 219.634516 276.812 
L 219.634516 10.7 
" style="fill:none;stroke:#b0b0b0;stroke-linecap:square;stroke-width:0.8;"/>
     </g>
     <g id="line2d_8">
      <g>
       <use style="stroke:#000000;stroke-width:0.8;" x="219.634516" xlink:href="#mdbfbce15ea" y="276.812"/>
      </g>
     </g>
     <g id="text_4">
      <!-- 300 -->
      <defs>
       <path d="M 40.578125 39.3125 
Q 47.65625 37.796875 51.625 33 
Q 55.609375 28.21875 55.609375 21.1875 
Q 55.609375 10.40625 48.1875 4.484375 
Q 40.765625 -1.421875 27.09375 -1.421875 
Q 22.515625 -1.421875 17.65625 -0.515625 
Q 12.796875 0.390625 7.625 2.203125 
L 7.625 11.71875 
Q 11.71875 9.328125 16.59375 8.109375 
Q 21.484375 6.890625 26.8125 6.890625 
Q 36.078125 6.890625 40.9375 10.546875 
Q 45.796875 14.203125 45.796875 21.1875 
Q 45.796875 27.640625 41.28125 31.265625 
Q 36.765625 34.90625 28.71875 34.90625 
L 20.21875 34.90625 
L 20.21875 43.015625 
L 29.109375 43.015625 
Q 36.375 43.015625 40.234375 45.921875 
Q 44.09375 48.828125 44.09375 54.296875 
Q 44.09375 59.90625 40.109375 62.90625 
Q 36.140625 65.921875 28.71875 65.921875 
Q 24.65625 65.921875 20.015625 65.03125 
Q 15.375 64.15625 9.8125 62.3125 
L 9.8125 71.09375 
Q 15.4375 72.65625 20.34375 73.4375 
Q 25.25 74.21875 29.59375 74.21875 
Q 40.828125 74.21875 47.359375 69.109375 
Q 53.90625 64.015625 53.90625 55.328125 
Q 53.90625 49.265625 50.4375 45.09375 
Q 46.96875 40.921875 40.578125 39.3125 
z
" id="DejaVuSans-51"/>
      </defs>
      <g transform="translate(210.090766 291.410438)scale(0.1 -0.1)">
       <use xlink:href="#DejaVuSans-51"/>
       <use x="63.623047" xlink:href="#DejaVuSans-48"/>
       <use x="127.246094" xlink:href="#DejaVuSans-48"/>
      </g>
     </g>
    </g>
    <g id="xtick_5">
     <g id="line2d_9">
      <path clip-path="url(#pad5f04d28c)" d="M 279.311647 276.812 
L 279.311647 10.7 
" style="fill:none;stroke:#b0b0b0;stroke-linecap:square;stroke-width:0.8;"/>
     </g>
     <g id="line2d_10">
      <g>
       <use style="stroke:#000000;stroke-width:0.8;" x="279.311647" xlink:href="#mdbfbce15ea" y="276.812"/>
      </g>
     </g>
     <g id="text_5">
      <!-- 400 -->
      <defs>
       <path d="M 37.796875 64.3125 
L 12.890625 25.390625 
L 37.796875 25.390625 
z
M 35.203125 72.90625 
L 47.609375 72.90625 
L 47.609375 25.390625 
L 58.015625 25.390625 
L 58.015625 17.1875 
L 47.609375 17.1875 
L 47.609375 0 
L 37.796875 0 
L 37.796875 17.1875 
L 4.890625 17.1875 
L 4.890625 26.703125 
z
" id="DejaVuSans-52"/>
      </defs>
      <g transform="translate(269.767897 291.410438)scale(0.1 -0.1)">
       <use xlink:href="#DejaVuSans-52"/>
       <use x="63.623047" xlink:href="#DejaVuSans-48"/>
       <use x="127.246094" xlink:href="#DejaVuSans-48"/>
      </g>
     </g>
    </g>
    <g id="xtick_6">
     <g id="line2d_11">
      <path clip-path="url(#pad5f04d28c)" d="M 338.988777 276.812 
L 338.988777 10.7 
" style="fill:none;stroke:#b0b0b0;stroke-linecap:square;stroke-width:0.8;"/>
     </g>
     <g id="line2d_12">
      <g>
       <use style="stroke:#000000;stroke-width:0.8;" x="338.988777" xlink:href="#mdbfbce15ea" y="276.812"/>
      </g>
     </g>
     <g id="text_6">
      <!-- 500 -->
      <defs>
       <path d="M 10.796875 72.90625 
L 49.515625 72.90625 
L 49.515625 64.59375 
L 19.828125 64.59375 
L 19.828125 46.734375 
Q 21.96875 47.46875 24.109375 47.828125 
Q 26.265625 48.1875 28.421875 48.1875 
Q 40.625 48.1875 47.75 41.5 
Q 54.890625 34.8125 54.890625 23.390625 
Q 54.890625 11.625 47.5625 5.09375 
Q 40.234375 -1.421875 26.90625 -1.421875 
Q 22.3125 -1.421875 17.546875 -0.640625 
Q 12.796875 0.140625 7.71875 1.703125 
L 7.71875 11.625 
Q 12.109375 9.234375 16.796875 8.0625 
Q 21.484375 6.890625 26.703125 6.890625 
Q 35.15625 6.890625 40.078125 11.328125 
Q 45.015625 15.765625 45.015625 23.390625 
Q 45.015625 31 40.078125 35.4375 
Q 35.15625 39.890625 26.703125 39.890625 
Q 22.75 39.890625 18.8125 39.015625 
Q 14.890625 38.140625 10.796875 36.28125 
z
" id="DejaVuSans-53"/>
      </defs>
      <g transform="translate(329.445027 291.410438)scale(0.1 -0.1)">
       <use xlink:href="#DejaVuSans-53"/>
       <use x="63.623047" xlink:href="#DejaVuSans-48"/>
       <use x="127.246094" xlink:href="#DejaVuSans-48"/>
      </g>
     </g>
    </g>
    <g id="text_7">
     <!-- time (s) -->
     <defs>
      <path d="M 18.3125 70.21875 
L 18.3125 54.6875 
L 36.8125 54.6875 
L 36.8125 47.703125 
L 18.3125 47.703125 
L 18.3125 18.015625 
Q 18.3125 11.328125 20.140625 9.421875 
Q 21.96875 7.515625 27.59375 7.515625 
L 36.8125 7.515625 
L 36.8125 0 
L 27.59375 0 
Q 17.1875 0 13.234375 3.875 
Q 9.28125 7.765625 9.28125 18.015625 
L 9.28125 47.703125 
L 2.6875 47.703125 
L 2.6875 54.6875 
L 9.28125 54.6875 
L 9.28125 70.21875 
z
" id="DejaVuSans-116"/>
      <path d="M 9.421875 54.6875 
L 18.40625 54.6875 
L 18.40625 0 
L 9.421875 0 
z
M 9.421875 75.984375 
L 18.40625 75.984375 
L 18.40625 64.59375 
L 9.421875 64.59375 
z
" id="DejaVuSans-105"/>
      <path d="M 52 44.1875 
Q 55.375 50.25 60.0625 53.125 
Q 64.75 56 71.09375 56 
Q 79.640625 56 84.28125 50.015625 
Q 88.921875 44.046875 88.921875 33.015625 
L 88.921875 0 
L 79.890625 0 
L 79.890625 32.71875 
Q 79.890625 40.578125 77.09375 44.375 
Q 74.3125 48.1875 68.609375 48.1875 
Q 61.625 48.1875 57.5625 43.546875 
Q 53.515625 38.921875 53.515625 30.90625 
L 53.515625 0 
L 44.484375 0 
L 44.484375 32.71875 
Q 44.484375 40.625 41.703125 44.40625 
Q 38.921875 48.1875 33.109375 48.1875 
Q 26.21875 48.1875 22.15625 43.53125 
Q 18.109375 38.875 18.109375 30.90625 
L 18.109375 0 
L 9.078125 0 
L 9.078125 54.6875 
L 18.109375 54.6875 
L 18.109375 46.1875 
Q 21.1875 51.21875 25.484375 53.609375 
Q 29.78125 56 35.6875 56 
Q 41.65625 56 45.828125 52.96875 
Q 50 49.953125 52 44.1875 
z
" id="DejaVuSans-109"/>
      <path d="M 56.203125 29.59375 
L 56.203125 25.203125 
L 14.890625 25.203125 
Q 15.484375 15.921875 20.484375 11.0625 
Q 25.484375 6.203125 34.421875 6.203125 
Q 39.59375 6.203125 44.453125 7.46875 
Q 49.3125 8.734375 54.109375 11.28125 
L 54.109375 2.78125 
Q 49.265625 0.734375 44.1875 -0.34375 
Q 39.109375 -1.421875 33.890625 -1.421875 
Q 20.796875 -1.421875 13.15625 6.1875 
Q 5.515625 13.8125 5.515625 26.8125 
Q 5.515625 40.234375 12.765625 48.109375 
Q 20.015625 56 32.328125 56 
Q 43.359375 56 49.78125 48.890625 
Q 56.203125 41.796875 56.203125 29.59375 
z
M 47.21875 32.234375 
Q 47.125 39.59375 43.09375 43.984375 
Q 39.0625 48.390625 32.421875 48.390625 
Q 24.90625 48.390625 20.390625 44.140625 
Q 15.875 39.890625 15.1875 32.171875 
z
" id="DejaVuSans-101"/>
      <path id="DejaVuSans-32"/>
      <path d="M 31 75.875 
Q 24.46875 64.65625 21.28125 53.65625 
Q 18.109375 42.671875 18.109375 31.390625 
Q 18.109375 20.125 21.3125 9.0625 
Q 24.515625 -2 31 -13.1875 
L 23.1875 -13.1875 
Q 15.875 -1.703125 12.234375 9.375 
Q 8.59375 20.453125 8.59375 31.390625 
Q 8.59375 42.28125 12.203125 53.3125 
Q 15.828125 64.359375 23.1875 75.875 
z
" id="DejaVuSans-40"/>
      <path d="M 44.28125 53.078125 
L 44.28125 44.578125 
Q 40.484375 46.53125 36.375 47.5 
Q 32.28125 48.484375 27.875 48.484375 
Q 21.1875 48.484375 17.84375 46.4375 
Q 14.5 44.390625 14.5 40.28125 
Q 14.5 37.15625 16.890625 35.375 
Q 19.28125 33.59375 26.515625 31.984375 
L 29.59375 31.296875 
Q 39.15625 29.25 43.1875 25.515625 
Q 47.21875 21.78125 47.21875 15.09375 
Q 47.21875 7.46875 41.1875 3.015625 
Q 35.15625 -1.421875 24.609375 -1.421875 
Q 20.21875 -1.421875 15.453125 -0.5625 
Q 10.6875 0.296875 5.421875 2 
L 5.421875 11.28125 
Q 10.40625 8.6875 15.234375 7.390625 
Q 20.0625 6.109375 24.8125 6.109375 
Q 31.15625 6.109375 34.5625 8.28125 
Q 37.984375 10.453125 37.984375 14.40625 
Q 37.984375 18.0625 35.515625 20.015625 
Q 33.0625 21.96875 24.703125 23.78125 
L 21.578125 24.515625 
Q 13.234375 26.265625 9.515625 29.90625 
Q 5.8125 33.546875 5.8125 39.890625 
Q 5.8125 47.609375 11.28125 51.796875 
Q 16.75 56 26.8125 56 
Q 31.78125 56 36.171875 55.265625 
Q 40.578125 54.546875 44.28125 53.078125 
z
" id="DejaVuSans-115"/>
      <path d="M 8.015625 75.875 
L 15.828125 75.875 
Q 23.140625 64.359375 26.78125 53.3125 
Q 30.421875 42.28125 30.421875 31.390625 
Q 30.421875 20.453125 26.78125 9.375 
Q 23.140625 -1.703125 15.828125 -13.1875 
L 8.015625 -13.1875 
Q 14.5 -2 17.703125 9.0625 
Q 20.90625 20.125 20.90625 31.390625 
Q 20.90625 42.671875 17.703125 53.65625 
Q 14.5 64.65625 8.015625 75.875 
z
" id="DejaVuSans-41"/>
     </defs>
     <g transform="translate(199.771719 305.088562)scale(0.1 -0.1)">
      <use xlink:href="#DejaVuSans-116"/>
      <use x="39.208984" xlink:href="#DejaVuSans-105"/>
      <use x="66.992188" xlink:href="#DejaVuSans-109"/>
      <use x="164.404297" xlink:href="#DejaVuSans-101"/>
      <use x="225.927734" xlink:href="#DejaVuSans-32"/>
      <use x="257.714844" xlink:href="#DejaVuSans-40"/>
      <use x="296.728516" xlink:href="#DejaVuSans-115"/>
      <use x="348.828125" xlink:href="#DejaVuSans-41"/>
     </g>
    </g>
   </g>
   <g id="matplotlib.axis_2">
    <g id="ytick_1">
     <g id="line2d_13">
      <path clip-path="url(#pad5f04d28c)" d="M 40.603125 246.18821 
L 397.723125 246.18821 
" style="fill:none;stroke:#b0b0b0;stroke-linecap:square;stroke-width:0.8;"/>
     </g>
     <g id="line2d_14">
      <defs>
       <path d="M 0 0 
L -3.5 0 
" id="m855a5b27b9" style="stroke:#000000;stroke-width:0.8;"/>
      </defs>
      <g>
       <use style="stroke:#000000;stroke-width:0.8;" x="40.603125" xlink:href="#m855a5b27b9" y="246.18821"/>
      </g>
     </g>
     <g id="text_8">
      <!-- 40 -->
      <g transform="translate(20.878125 249.987429)scale(0.1 -0.1)">
       <use xlink:href="#DejaVuSans-52"/>
       <use x="63.623047" xlink:href="#DejaVuSans-48"/>
      </g>
     </g>
    </g>
    <g id="ytick_2">
     <g id="line2d_15">
      <path clip-path="url(#pad5f04d28c)" d="M 40.603125 193.251667 
L 397.723125 193.251667 
" style="fill:none;stroke:#b0b0b0;stroke-linecap:square;stroke-width:0.8;"/>
     </g>
     <g id="line2d_16">
      <g>
       <use style="stroke:#000000;stroke-width:0.8;" x="40.603125" xlink:href="#m855a5b27b9" y="193.251667"/>
      </g>
     </g>
     <g id="text_9">
      <!-- 50 -->
      <g transform="translate(20.878125 197.050886)scale(0.1 -0.1)">
       <use xlink:href="#DejaVuSans-53"/>
       <use x="63.623047" xlink:href="#DejaVuSans-48"/>
      </g>
     </g>
    </g>
    <g id="ytick_3">
     <g id="line2d_17">
      <path clip-path="url(#pad5f04d28c)" d="M 40.603125 140.315125 
L 397.723125 140.315125 
" style="fill:none;stroke:#b0b0b0;stroke-linecap:square;stroke-width:0.8;"/>
     </g>
     <g id="line2d_18">
      <g>
       <use style="stroke:#000000;stroke-width:0.8;" x="40.603125" xlink:href="#m855a5b27b9" y="140.315125"/>
      </g>
     </g>
     <g id="text_10">
      <!-- 60 -->
      <defs>
       <path d="M 33.015625 40.375 
Q 26.375 40.375 22.484375 35.828125 
Q 18.609375 31.296875 18.609375 23.390625 
Q 18.609375 15.53125 22.484375 10.953125 
Q 26.375 6.390625 33.015625 6.390625 
Q 39.65625 6.390625 43.53125 10.953125 
Q 47.40625 15.53125 47.40625 23.390625 
Q 47.40625 31.296875 43.53125 35.828125 
Q 39.65625 40.375 33.015625 40.375 
z
M 52.59375 71.296875 
L 52.59375 62.3125 
Q 48.875 64.0625 45.09375 64.984375 
Q 41.3125 65.921875 37.59375 65.921875 
Q 27.828125 65.921875 22.671875 59.328125 
Q 17.53125 52.734375 16.796875 39.40625 
Q 19.671875 43.65625 24.015625 45.921875 
Q 28.375 48.1875 33.59375 48.1875 
Q 44.578125 48.1875 50.953125 41.515625 
Q 57.328125 34.859375 57.328125 23.390625 
Q 57.328125 12.15625 50.6875 5.359375 
Q 44.046875 -1.421875 33.015625 -1.421875 
Q 20.359375 -1.421875 13.671875 8.265625 
Q 6.984375 17.96875 6.984375 36.375 
Q 6.984375 53.65625 15.1875 63.9375 
Q 23.390625 74.21875 37.203125 74.21875 
Q 40.921875 74.21875 44.703125 73.484375 
Q 48.484375 72.75 52.59375 71.296875 
z
" id="DejaVuSans-54"/>
      </defs>
      <g transform="translate(20.878125 144.114343)scale(0.1 -0.1)">
       <use xlink:href="#DejaVuSans-54"/>
       <use x="63.623047" xlink:href="#DejaVuSans-48"/>
      </g>
     </g>
    </g>
    <g id="ytick_4">
     <g id="line2d_19">
      <path clip-path="url(#pad5f04d28c)" d="M 40.603125 87.378582 
L 397.723125 87.378582 
" style="fill:none;stroke:#b0b0b0;stroke-linecap:square;stroke-width:0.8;"/>
     </g>
     <g id="line2d_20">
      <g>
       <use style="stroke:#000000;stroke-width:0.8;" x="40.603125" xlink:href="#m855a5b27b9" y="87.378582"/>
      </g>
     </g>
     <g id="text_11">
      <!-- 70 -->
      <defs>
       <path d="M 8.203125 72.90625 
L 55.078125 72.90625 
L 55.078125 68.703125 
L 28.609375 0 
L 18.3125 0 
L 43.21875 64.59375 
L 8.203125 64.59375 
z
" id="DejaVuSans-55"/>
      </defs>
      <g transform="translate(20.878125 91.177801)scale(0.1 -0.1)">
       <use xlink:href="#DejaVuSans-55"/>
       <use x="63.623047" xlink:href="#DejaVuSans-48"/>
      </g>
     </g>
    </g>
    <g id="ytick_5">
     <g id="line2d_21">
      <path clip-path="url(#pad5f04d28c)" d="M 40.603125 34.442039 
L 397.723125 34.442039 
" style="fill:none;stroke:#b0b0b0;stroke-linecap:square;stroke-width:0.8;"/>
     </g>
     <g id="line2d_22">
      <g>
       <use style="stroke:#000000;stroke-width:0.8;" x="40.603125" xlink:href="#m855a5b27b9" y="34.442039"/>
      </g>
     </g>
     <g id="text_12">
      <!-- 80 -->
      <defs>
       <path d="M 31.78125 34.625 
Q 24.75 34.625 20.71875 30.859375 
Q 16.703125 27.09375 16.703125 20.515625 
Q 16.703125 13.921875 20.71875 10.15625 
Q 24.75 6.390625 31.78125 6.390625 
Q 38.8125 6.390625 42.859375 10.171875 
Q 46.921875 13.96875 46.921875 20.515625 
Q 46.921875 27.09375 42.890625 30.859375 
Q 38.875 34.625 31.78125 34.625 
z
M 21.921875 38.8125 
Q 15.578125 40.375 12.03125 44.71875 
Q 8.5 49.078125 8.5 55.328125 
Q 8.5 64.0625 14.71875 69.140625 
Q 20.953125 74.21875 31.78125 74.21875 
Q 42.671875 74.21875 48.875 69.140625 
Q 55.078125 64.0625 55.078125 55.328125 
Q 55.078125 49.078125 51.53125 44.71875 
Q 48 40.375 41.703125 38.8125 
Q 48.828125 37.15625 52.796875 32.3125 
Q 56.78125 27.484375 56.78125 20.515625 
Q 56.78125 9.90625 50.3125 4.234375 
Q 43.84375 -1.421875 31.78125 -1.421875 
Q 19.734375 -1.421875 13.25 4.234375 
Q 6.78125 9.90625 6.78125 20.515625 
Q 6.78125 27.484375 10.78125 32.3125 
Q 14.796875 37.15625 21.921875 38.8125 
z
M 18.3125 54.390625 
Q 18.3125 48.734375 21.84375 45.5625 
Q 25.390625 42.390625 31.78125 42.390625 
Q 38.140625 42.390625 41.71875 45.5625 
Q 45.3125 48.734375 45.3125 54.390625 
Q 45.3125 60.0625 41.71875 63.234375 
Q 38.140625 66.40625 31.78125 66.40625 
Q 25.390625 66.40625 21.84375 63.234375 
Q 18.3125 60.0625 18.3125 54.390625 
z
" id="DejaVuSans-56"/>
      </defs>
      <g transform="translate(20.878125 38.241258)scale(0.1 -0.1)">
       <use xlink:href="#DejaVuSans-56"/>
       <use x="63.623047" xlink:href="#DejaVuSans-48"/>
      </g>
     </g>
    </g>
    <g id="text_13">
     <!-- temperature (°C) -->
     <defs>
      <path d="M 18.109375 8.203125 
L 18.109375 -20.796875 
L 9.078125 -20.796875 
L 9.078125 54.6875 
L 18.109375 54.6875 
L 18.109375 46.390625 
Q 20.953125 51.265625 25.265625 53.625 
Q 29.59375 56 35.59375 56 
Q 45.5625 56 51.78125 48.09375 
Q 58.015625 40.1875 58.015625 27.296875 
Q 58.015625 14.40625 51.78125 6.484375 
Q 45.5625 -1.421875 35.59375 -1.421875 
Q 29.59375 -1.421875 25.265625 0.953125 
Q 20.953125 3.328125 18.109375 8.203125 
z
M 48.6875 27.296875 
Q 48.6875 37.203125 44.609375 42.84375 
Q 40.53125 48.484375 33.40625 48.484375 
Q 26.265625 48.484375 22.1875 42.84375 
Q 18.109375 37.203125 18.109375 27.296875 
Q 18.109375 17.390625 22.1875 11.75 
Q 26.265625 6.109375 33.40625 6.109375 
Q 40.53125 6.109375 44.609375 11.75 
Q 48.6875 17.390625 48.6875 27.296875 
z
" id="DejaVuSans-112"/>
      <path d="M 41.109375 46.296875 
Q 39.59375 47.171875 37.8125 47.578125 
Q 36.03125 48 33.890625 48 
Q 26.265625 48 22.1875 43.046875 
Q 18.109375 38.09375 18.109375 28.8125 
L 18.109375 0 
L 9.078125 0 
L 9.078125 54.6875 
L 18.109375 54.6875 
L 18.109375 46.1875 
Q 20.953125 51.171875 25.484375 53.578125 
Q 30.03125 56 36.53125 56 
Q 37.453125 56 38.578125 55.875 
Q 39.703125 55.765625 41.0625 55.515625 
z
" id="DejaVuSans-114"/>
      <path d="M 34.28125 27.484375 
Q 23.390625 27.484375 19.1875 25 
Q 14.984375 22.515625 14.984375 16.5 
Q 14.984375 11.71875 18.140625 8.90625 
Q 21.296875 6.109375 26.703125 6.109375 
Q 34.1875 6.109375 38.703125 11.40625 
Q 43.21875 16.703125 43.21875 25.484375 
L 43.21875 27.484375 
z
M 52.203125 31.203125 
L 52.203125 0 
L 43.21875 0 
L 43.21875 8.296875 
Q 40.140625 3.328125 35.546875 0.953125 
Q 30.953125 -1.421875 24.3125 -1.421875 
Q 15.921875 -1.421875 10.953125 3.296875 
Q 6 8.015625 6 15.921875 
Q 6 25.140625 12.171875 29.828125 
Q 18.359375 34.515625 30.609375 34.515625 
L 43.21875 34.515625 
L 43.21875 35.40625 
Q 43.21875 41.609375 39.140625 45 
Q 35.0625 48.390625 27.6875 48.390625 
Q 23 48.390625 18.546875 47.265625 
Q 14.109375 46.140625 10.015625 43.890625 
L 10.015625 52.203125 
Q 14.9375 54.109375 19.578125 55.046875 
Q 24.21875 56 28.609375 56 
Q 40.484375 56 46.34375 49.84375 
Q 52.203125 43.703125 52.203125 31.203125 
z
" id="DejaVuSans-97"/>
      <path d="M 8.5 21.578125 
L 8.5 54.6875 
L 17.484375 54.6875 
L 17.484375 21.921875 
Q 17.484375 14.15625 20.5 10.265625 
Q 23.53125 6.390625 29.59375 6.390625 
Q 36.859375 6.390625 41.078125 11.03125 
Q 45.3125 15.671875 45.3125 23.6875 
L 45.3125 54.6875 
L 54.296875 54.6875 
L 54.296875 0 
L 45.3125 0 
L 45.3125 8.40625 
Q 42.046875 3.421875 37.71875 1 
Q 33.40625 -1.421875 27.6875 -1.421875 
Q 18.265625 -1.421875 13.375 4.4375 
Q 8.5 10.296875 8.5 21.578125 
z
M 31.109375 56 
z
" id="DejaVuSans-117"/>
      <path d="M 25 67.921875 
Q 21.09375 67.921875 18.40625 65.203125 
Q 15.71875 62.5 15.71875 58.59375 
Q 15.71875 54.734375 18.40625 52.078125 
Q 21.09375 49.421875 25 49.421875 
Q 28.90625 49.421875 31.59375 52.078125 
Q 34.28125 54.734375 34.28125 58.59375 
Q 34.28125 62.453125 31.5625 65.1875 
Q 28.859375 67.921875 25 67.921875 
z
M 25 74.21875 
Q 28.125 74.21875 31 73.015625 
Q 33.890625 71.828125 35.984375 69.578125 
Q 38.234375 67.390625 39.359375 64.59375 
Q 40.484375 61.8125 40.484375 58.59375 
Q 40.484375 52.15625 35.96875 47.6875 
Q 31.453125 43.21875 24.90625 43.21875 
Q 18.3125 43.21875 13.90625 47.609375 
Q 9.515625 52 9.515625 58.59375 
Q 9.515625 65.140625 14 69.671875 
Q 18.5 74.21875 25 74.21875 
z
" id="DejaVuSans-176"/>
      <path d="M 64.40625 67.28125 
L 64.40625 56.890625 
Q 59.421875 61.53125 53.78125 63.8125 
Q 48.140625 66.109375 41.796875 66.109375 
Q 29.296875 66.109375 22.65625 58.46875 
Q 16.015625 50.828125 16.015625 36.375 
Q 16.015625 21.96875 22.65625 14.328125 
Q 29.296875 6.6875 41.796875 6.6875 
Q 48.140625 6.6875 53.78125 8.984375 
Q 59.421875 11.28125 64.40625 15.921875 
L 64.40625 5.609375 
Q 59.234375 2.09375 53.4375 0.328125 
Q 47.65625 -1.421875 41.21875 -1.421875 
Q 24.65625 -1.421875 15.125 8.703125 
Q 5.609375 18.84375 5.609375 36.375 
Q 5.609375 53.953125 15.125 64.078125 
Q 24.65625 74.21875 41.21875 74.21875 
Q 47.75 74.21875 53.53125 72.484375 
Q 59.328125 70.75 64.40625 67.28125 
z
" id="DejaVuSans-67"/>
     </defs>
     <g transform="translate(14.798438 186.77475)rotate(-90)scale(0.1 -0.1)">
      <use xlink:href="#DejaVuSans-116"/>
      <use x="39.208984" xlink:href="#DejaVuSans-101"/>
      <use x="100.732422" xlink:href="#DejaVuSans-109"/>
      <use x="198.144531" xlink:href="#DejaVuSans-112"/>
      <use x="261.621094" xlink:href="#DejaVuSans-101"/>
      <use x="323.144531" xlink:href="#DejaVuSans-114"/>
      <use x="364.257812" xlink:href="#DejaVuSans-97"/>
      <use x="425.537109" xlink:href="#DejaVuSans-116"/>
      <use x="464.746094" xlink:href="#DejaVuSans-117"/>
      <use x="528.125" xlink:href="#DejaVuSans-114"/>
      <use x="569.207031" xlink:href="#DejaVuSans-101"/>
      <use x="630.730469" xlink:href="#DejaVuSans-32"/>
      <use x="662.517578" xlink:href="#DejaVuSans-40"/>
      <use x="701.53125" xlink:href="#DejaVuSans-176"/>
      <use x="751.53125" xlink:href="#DejaVuSans-67"/>
      <use x="821.355469" xlink:href="#DejaVuSans-41"/>
     </g>
    </g>
   </g>
   <g id="line2d_23">
    <path clip-path="url(#pad5f04d28c)" d="M 40.603125 202.25088 
L 41.821095 204.897707 
L 43.03012 202.25088 
L 51.496222 202.25088 
L 52.705468 204.897707 
L 53.9148 202.25088 
L 56.33374 202.25088 
L 57.543069 204.897707 
L 58.752443 202.25088 
L 59.961806 202.25088 
L 61.171549 204.897707 
L 62.38096 202.25088 
L 63.590256 204.897707 
L 66.00833 204.897707 
L 67.217701 202.25088 
L 69.635543 202.25088 
L 70.844561 204.897707 
L 72.048117 202.25088 
L 75.675865 202.25088 
L 76.885273 204.897707 
L 78.09451 202.25088 
L 79.303787 202.25088 
L 80.513178 204.897707 
L 81.72252 208.073899 
L 82.932027 202.25088 
L 84.141447 208.073899 
L 85.350627 202.25088 
L 86.559852 208.073899 
L 87.769427 208.073899 
L 88.978731 202.25088 
L 90.187765 204.897707 
L 99.861331 204.897707 
L 101.070483 208.073899 
L 104.698724 208.073899 
L 105.908048 204.897707 
L 107.116989 202.25088 
L 108.325949 208.073899 
L 109.535081 202.25088 
L 110.744736 204.897707 
L 120.419927 204.897707 
L 121.629255 202.25088 
L 122.838558 208.073899 
L 124.047902 208.073899 
L 125.257168 202.25088 
L 126.466469 204.897707 
L 127.675812 208.073899 
L 130.093957 208.073899 
L 131.30322 171.018319 
L 132.546781 153.54926 
L 133.787413 145.079414 
L 135.028647 133.96274 
L 137.51084 116.493681 
L 138.74657 111.200026 
L 139.982591 105.377007 
L 141.223177 105.377007 
L 142.47608 99.553987 
L 143.717516 96.90716 
L 144.960303 93.730967 
L 147.441486 88.437313 
L 148.682778 85.26112 
L 149.924026 82.614293 
L 152.407298 82.614293 
L 153.647911 76.791274 
L 154.883927 74.144446 
L 156.124323 70.968254 
L 159.842408 70.968254 
L 161.078425 65.6746 
L 162.318822 68.321427 
L 163.560117 68.321427 
L 164.801554 65.6746 
L 166.042886 62.498407 
L 167.284818 62.498407 
L 168.525438 59.85158 
L 172.249282 59.85158 
L 173.485846 56.675387 
L 175.967878 56.675387 
L 177.203199 51.381733 
L 178.443857 54.02856 
L 179.685745 54.02856 
L 180.926362 51.381733 
L 182.167679 51.381733 
L 183.408938 48.20554 
L 184.644962 48.20554 
L 185.885516 45.558713 
L 187.126799 48.20554 
L 188.368091 48.20554 
L 190.850661 42.911886 
L 194.569236 42.911886 
L 195.809785 37.088867 
L 197.051099 42.911886 
L 198.292299 39.735694 
L 199.534383 39.735694 
L 200.774926 37.088867 
L 208.222657 37.088867 
L 209.46462 33.912674 
L 210.705223 33.912674 
L 211.958423 37.088867 
L 213.2004 33.912674 
L 214.441023 33.912674 
L 215.68226 31.265847 
L 226.866543 31.265847 
L 228.107604 33.912674 
L 229.348901 31.265847 
L 231.831643 31.265847 
L 233.072987 28.61902 
L 234.314233 31.265847 
L 235.55552 28.61902 
L 238.038084 28.61902 
L 239.278431 31.265847 
L 240.520657 28.61902 
L 241.761948 28.61902 
L 243.003227 31.265847 
L 244.244527 25.442827 
L 245.485807 25.442827 
L 246.727068 28.61902 
L 250.450367 28.61902 
L 251.692239 25.442827 
L 252.933558 31.265847 
L 254.174641 25.442827 
L 255.415914 28.61902 
L 256.657405 31.265847 
L 259.15191 31.265847 
L 260.389701 28.61902 
L 261.639799 25.442827 
L 262.881735 28.61902 
L 264.12301 25.442827 
L 265.364315 25.442827 
L 266.605624 28.61902 
L 267.841029 28.61902 
L 269.082225 25.442827 
L 270.3288 25.442827 
L 271.570796 22.796 
L 272.812011 25.442827 
L 276.535222 25.442827 
L 277.77655 28.61902 
L 279.018436 22.796 
L 280.259059 28.61902 
L 281.501014 28.61902 
L 282.741672 25.442827 
L 286.465953 25.442827 
L 287.707228 28.61902 
L 288.948699 25.442827 
L 290.189344 22.796 
L 291.431303 25.442827 
L 292.672552 22.796 
L 293.91385 25.442827 
L 298.890999 25.442827 
L 300.132244 28.61902 
L 301.373503 25.442827 
L 307.573994 25.442827 
L 308.809405 22.796 
L 310.045896 45.558713 
L 311.255278 65.6746 
L 312.46457 76.791274 
L 314.883385 93.730967 
L 316.092734 96.90716 
L 317.30197 102.730179 
L 318.51119 105.377007 
L 320.930017 116.493681 
L 322.139042 113.846853 
L 323.348383 119.669873 
L 324.55803 122.3167 
L 325.767282 125.492893 
L 326.97664 128.13972 
L 330.604487 128.13972 
L 331.8143 133.96274 
L 333.023461 133.96274 
L 334.232708 136.609567 
L 336.651292 136.609567 
L 337.860613 139.785759 
L 339.06995 139.785759 
L 340.279318 136.609567 
L 341.488761 145.079414 
L 345.116851 145.079414 
L 346.327081 150.902433 
L 347.5362 148.255606 
L 348.74558 150.902433 
L 352.372708 150.902433 
L 353.582413 153.54926 
L 354.791647 153.54926 
L 356.00092 156.725453 
L 357.209907 150.902433 
L 358.412738 150.902433 
L 359.622093 153.54926 
L 360.831521 156.725453 
L 362.040842 156.725453 
L 363.250202 153.54926 
L 364.459816 156.725453 
L 368.088068 156.725453 
L 369.297453 159.37228 
L 376.554142 159.37228 
L 377.763387 162.548473 
L 381.39131 162.548473 
L 382.600605 167.842127 
L 383.809944 162.548473 
L 385.019236 167.842127 
L 386.228594 162.548473 
L 387.438382 167.842127 
L 394.694193 167.842127 
L 395.903585 171.018319 
L 397.11286 167.842127 
L 398.322245 167.842127 
L 398.322245 167.842127 
" style="fill:none;stroke:#1f77b4;stroke-linecap:square;stroke-width:1.5;"/>
   </g>
   <g id="line2d_24">
    <path clip-path="url(#pad5f04d28c)" d="M 40.603125 213.367554 
L 43.023138 213.367554 
L 44.232477 208.073899 
L 45.442239 213.367554 
L 46.651969 210.720726 
L 47.861508 213.367554 
L 49.071216 213.367554 
L 50.280949 210.720726 
L 51.490597 213.367554 
L 52.700186 208.073899 
L 53.90988 213.367554 
L 55.119833 210.720726 
L 56.329474 213.367554 
L 61.168391 213.367554 
L 62.378065 210.720726 
L 63.587637 213.367554 
L 64.797247 213.367554 
L 66.006836 210.720726 
L 67.216753 213.367554 
L 75.68519 213.367554 
L 76.894724 210.720726 
L 78.104278 213.367554 
L 81.733279 213.367554 
L 82.942905 210.720726 
L 84.152691 213.367554 
L 93.83441 213.367554 
L 95.044128 210.720726 
L 96.253489 213.367554 
L 97.462627 208.073899 
L 98.671944 213.367554 
L 102.300278 213.367554 
L 103.509548 210.720726 
L 104.718855 210.720726 
L 105.928766 213.367554 
L 108.347346 213.367554 
L 109.557266 210.720726 
L 110.766797 213.367554 
L 111.976359 210.720726 
L 113.186455 213.367554 
L 114.395652 213.367554 
L 115.604651 216.543746 
L 116.813882 213.367554 
L 119.233349 213.367554 
L 120.442756 210.720726 
L 121.651972 213.367554 
L 122.861376 210.720726 
L 124.070424 213.367554 
L 125.279557 213.367554 
L 126.488752 208.073899 
L 127.692118 213.367554 
L 130.111267 213.367554 
L 131.320614 179.488166 
L 132.56169 162.548473 
L 133.797714 150.902433 
L 135.033033 136.609567 
L 137.503677 125.492893 
L 138.744258 122.3167 
L 139.980267 113.846853 
L 141.220847 111.200026 
L 142.462124 108.023834 
L 144.944687 102.730179 
L 146.185936 96.90716 
L 147.42727 93.730967 
L 148.67452 93.730967 
L 149.915809 91.08414 
L 151.151133 91.08414 
L 152.392374 85.26112 
L 153.633663 85.26112 
L 154.874999 82.614293 
L 157.357569 82.614293 
L 158.598804 76.791274 
L 159.840119 79.967466 
L 161.081389 74.144446 
L 162.322678 76.791274 
L 163.565276 70.968254 
L 168.535033 70.968254 
L 169.776308 68.321427 
L 171.017606 70.968254 
L 172.258912 65.6746 
L 174.741502 65.6746 
L 175.982774 62.498407 
L 177.224064 59.85158 
L 182.183959 59.85158 
L 183.419284 56.675387 
L 184.654578 56.675387 
L 187.131164 51.381733 
L 188.367111 54.02856 
L 189.601801 51.381733 
L 190.843098 54.02856 
L 192.083634 51.381733 
L 193.324905 54.02856 
L 194.566224 51.381733 
L 195.80747 48.20554 
L 197.049496 45.558713 
L 198.290145 45.558713 
L 199.531337 48.20554 
L 200.772662 48.20554 
L 202.013948 45.558713 
L 203.255207 48.20554 
L 204.496532 48.20554 
L 205.737795 42.911886 
L 206.979016 45.558713 
L 208.221009 42.911886 
L 213.187971 42.911886 
L 214.432734 39.735694 
L 215.674036 37.088867 
L 225.562542 37.088867 
L 226.803901 33.912674 
L 228.045753 31.265847 
L 229.28108 31.265847 
L 230.522473 33.912674 
L 231.769003 31.265847 
L 235.487519 31.265847 
L 236.73478 33.912674 
L 237.976068 31.265847 
L 245.417811 31.265847 
L 246.659166 28.61902 
L 247.900407 33.912674 
L 249.141732 31.265847 
L 256.589359 31.265847 
L 257.830681 28.61902 
L 259.071989 31.265847 
L 261.554534 31.265847 
L 262.795207 28.61902 
L 264.037091 31.265847 
L 267.760972 31.265847 
L 269.002301 28.61902 
L 272.732067 28.61902 
L 273.973323 25.442827 
L 275.214642 28.61902 
L 276.455932 28.61902 
L 277.697215 25.442827 
L 278.938537 31.265847 
L 280.179151 31.265847 
L 281.421042 25.442827 
L 282.662399 25.442827 
L 283.903638 28.61902 
L 285.139114 31.265847 
L 287.609778 31.265847 
L 288.845007 28.61902 
L 292.56879 28.61902 
L 293.810078 31.265847 
L 295.051345 28.61902 
L 296.286741 31.265847 
L 297.528192 25.442827 
L 298.769232 28.61902 
L 300.010542 31.265847 
L 301.251758 25.442827 
L 302.487092 31.265847 
L 306.201049 31.265847 
L 307.440263 28.61902 
L 308.681569 31.265847 
L 309.922419 48.20554 
L 311.132672 68.321427 
L 312.342169 82.614293 
L 314.761625 99.553987 
L 319.599454 122.3167 
L 320.808905 125.492893 
L 323.228032 130.786547 
L 324.437644 133.96274 
L 325.646974 133.96274 
L 326.856782 136.609567 
L 328.065868 139.785759 
L 329.275202 145.079414 
L 332.903551 145.079414 
L 334.113048 148.255606 
L 335.322714 150.902433 
L 337.741367 150.902433 
L 338.951046 153.54926 
L 340.160605 156.725453 
L 341.369847 153.54926 
L 342.579617 156.725453 
L 343.789038 156.725453 
L 344.998453 159.37228 
L 346.208102 159.37228 
L 347.417529 162.548473 
L 348.626871 159.37228 
L 349.836141 167.842127 
L 351.045513 167.842127 
L 352.254863 162.548473 
L 354.67337 162.548473 
L 355.883432 167.842127 
L 357.092662 167.842127 
L 358.301998 171.018319 
L 359.512221 167.842127 
L 360.721955 165.1953 
L 361.931643 167.842127 
L 363.141267 171.018319 
L 364.351051 167.842127 
L 365.560872 173.665147 
L 366.770656 171.018319 
L 369.19023 171.018319 
L 370.399659 173.665147 
L 377.657489 173.665147 
L 378.86683 179.488166 
L 386.125017 179.488166 
L 387.334257 182.134993 
L 388.543487 179.488166 
L 390.962671 179.488166 
L 392.171834 182.134993 
L 393.381238 182.134993 
L 394.590827 185.311186 
L 398.21966 185.311186 
L 398.21966 185.311186 
" style="fill:none;stroke:#ff7f0e;stroke-linecap:square;stroke-width:1.5;"/>
   </g>
   <g id="line2d_25">
    <path clip-path="url(#pad5f04d28c)" d="M 40.603125 224.971244 
L 51.355609 224.971244 
L 52.550419 227.81923 
L 54.938857 222.123258 
L 57.327575 227.81923 
L 66.885096 227.81923 
L 68.079951 224.971244 
L 69.274862 224.971244 
L 70.470084 227.81923 
L 71.664652 224.971244 
L 74.054286 224.971244 
L 75.248588 227.81923 
L 76.442798 224.971244 
L 77.637006 227.81923 
L 78.831215 227.81923 
L 80.025424 224.971244 
L 82.413867 224.971244 
L 83.608451 227.81923 
L 84.803127 224.971244 
L 85.99771 227.81923 
L 87.192298 227.81923 
L 88.386885 224.971244 
L 89.581105 227.81923 
L 90.775318 224.971244 
L 91.969552 224.971244 
L 93.16376 222.123258 
L 94.35797 227.81923 
L 101.523242 227.81923 
L 102.717471 224.971244 
L 111.07817 224.971244 
L 112.272736 227.81923 
L 114.661899 227.81923 
L 115.856464 224.971244 
L 118.244889 224.971244 
L 119.439134 227.81923 
L 120.633344 224.971244 
L 121.82755 224.971244 
L 123.021756 227.81923 
L 124.215968 224.971244 
L 126.604395 224.971244 
L 127.798589 227.81923 
L 128.992797 224.971244 
L 130.187752 224.971244 
L 131.38236 202.187356 
L 134.965318 185.09944 
L 136.159664 182.251454 
L 137.353981 185.09944 
L 138.548299 185.09944 
L 139.742625 179.403468 
L 143.325807 179.403468 
L 144.520121 176.555482 
L 145.714445 176.555482 
L 146.908803 173.707496 
L 154.074631 173.707496 
L 155.268948 170.85951 
L 156.463286 170.85951 
L 157.657617 168.011524 
L 161.240566 168.011524 
L 162.434884 165.163538 
L 163.629213 168.011524 
L 164.823551 165.163538 
L 166.0181 165.163538 
L 167.212414 168.011524 
L 168.406691 168.011524 
L 169.600947 165.163538 
L 170.795188 165.163538 
L 171.989462 162.315552 
L 177.961176 162.315552 
L 179.155488 159.467566 
L 180.349816 159.467566 
L 181.544064 162.315552 
L 182.738398 159.467566 
L 183.932758 162.315552 
L 186.321402 156.61958 
L 189.904635 156.61958 
L 191.098941 153.771594 
L 192.293297 156.61958 
L 195.876298 156.61958 
L 197.070632 153.771594 
L 198.264886 153.771594 
L 199.459194 156.61958 
L 200.653534 153.771594 
L 201.848084 153.771594 
L 203.042416 156.61958 
L 204.236747 153.771594 
L 205.431107 153.771594 
L 206.625462 150.923608 
L 207.81982 156.61958 
L 209.014141 153.771594 
L 210.208481 153.771594 
L 211.402801 150.923608 
L 212.597143 153.771594 
L 213.79169 150.923608 
L 216.180362 150.923608 
L 217.374605 153.771594 
L 218.568868 150.923608 
L 219.763198 150.923608 
L 220.957523 145.227636 
L 222.15189 150.923608 
L 224.54057 150.923608 
L 225.735125 148.075622 
L 226.929482 148.075622 
L 228.123925 150.923608 
L 229.31826 150.923608 
L 230.512587 148.075622 
L 231.706938 150.923608 
L 232.901265 145.227636 
L 234.095612 145.227636 
L 235.289934 148.075622 
L 236.484296 145.227636 
L 237.678787 145.227636 
L 238.87311 148.075622 
L 242.456066 148.075622 
L 243.650418 145.227636 
L 244.844716 145.227636 
L 246.039062 142.37965 
L 248.427716 148.075622 
L 249.622264 145.227636 
L 252.01093 145.227636 
L 253.205282 142.37965 
L 254.399623 145.227636 
L 255.59397 145.227636 
L 256.788302 142.37965 
L 257.982653 145.227636 
L 260.371309 145.227636 
L 261.565898 142.37965 
L 262.760249 145.227636 
L 265.15199 139.531664 
L 266.346361 145.227636 
L 267.540627 139.531664 
L 268.738354 145.227636 
L 269.932715 142.37965 
L 271.126988 145.227636 
L 272.321258 142.37965 
L 273.515764 142.37965 
L 274.710068 145.227636 
L 275.904393 139.531664 
L 277.098652 145.227636 
L 278.292916 139.531664 
L 279.487308 139.531664 
L 280.681649 142.37965 
L 281.875986 139.531664 
L 283.070338 145.227636 
L 284.264653 142.37965 
L 285.459212 145.227636 
L 287.847888 139.531664 
L 289.042184 145.227636 
L 290.236569 139.531664 
L 291.430946 145.227636 
L 292.625228 145.227636 
L 293.819526 139.531664 
L 296.208275 139.531664 
L 297.402904 142.37965 
L 299.791488 142.37965 
L 300.985744 139.531664 
L 302.179991 139.531664 
L 303.374228 142.37965 
L 304.568496 139.531664 
L 305.762885 142.37965 
L 306.957275 139.531664 
L 308.151635 139.531664 
L 309.34596 145.227636 
L 310.540642 159.467566 
L 311.735495 170.85951 
L 312.929732 173.707496 
L 314.123964 173.707496 
L 317.706588 182.251454 
L 318.900796 179.403468 
L 320.094993 185.09944 
L 322.48342 185.09944 
L 323.677625 182.251454 
L 324.871876 185.09944 
L 326.066081 185.09944 
L 327.260288 182.251454 
L 328.454504 190.795412 
L 329.648711 185.09944 
L 330.842912 190.795412 
L 332.037117 190.795412 
L 333.231323 185.09944 
L 336.813986 193.643398 
L 338.008183 190.795412 
L 339.202396 190.795412 
L 340.396591 185.09944 
L 341.590799 190.795412 
L 345.173439 190.795412 
L 346.367689 196.491384 
L 348.756093 190.795412 
L 349.950293 196.491384 
L 351.144509 196.491384 
L 352.338718 193.643398 
L 355.921342 193.643398 
L 357.115595 196.491384 
L 359.504002 196.491384 
L 360.698209 193.643398 
L 361.892416 196.491384 
L 363.086626 193.643398 
L 364.280836 196.491384 
L 366.669269 196.491384 
L 367.864167 193.643398 
L 369.058992 196.491384 
L 370.253835 196.491384 
L 371.448444 199.33937 
L 372.643116 196.491384 
L 379.809013 196.491384 
L 381.003219 202.187356 
L 382.197429 202.187356 
L 383.391633 196.491384 
L 384.585842 199.33937 
L 385.780048 199.33937 
L 386.974266 202.187356 
L 389.362692 196.491384 
L 390.556898 202.187356 
L 392.946317 202.187356 
L 394.140511 196.491384 
L 396.528925 202.187356 
L 397.723125 199.33937 
L 397.723125 199.33937 
" style="fill:none;stroke:#2ca02c;stroke-linecap:square;stroke-width:1.5;"/>
   </g>
   <g id="line2d_26">
    <path clip-path="url(#pad5f04d28c)" d="M 40.603125 262.069173 
L 41.803587 258.89298 
L 43.004295 258.89298 
L 44.204852 262.069173 
L 45.405415 258.89298 
L 46.60618 262.069173 
L 47.806762 258.89298 
L 49.00757 262.069173 
L 50.208432 262.069173 
L 51.409439 258.89298 
L 52.610485 262.069173 
L 53.811249 258.89298 
L 55.012035 258.89298 
L 56.212883 262.069173 
L 57.413693 258.89298 
L 58.61532 262.069173 
L 61.016807 262.069173 
L 62.217563 258.89298 
L 63.418384 262.069173 
L 64.619279 262.069173 
L 65.820147 258.89298 
L 67.021189 264.716 
L 68.22175 262.069173 
L 69.422303 258.89298 
L 70.623322 262.069173 
L 75.426275 262.069173 
L 76.627054 258.89298 
L 77.827568 258.89298 
L 79.028308 262.069173 
L 80.228794 258.89298 
L 81.429761 262.069173 
L 82.630642 262.069173 
L 83.831507 258.89298 
L 85.032528 258.89298 
L 86.233319 262.069173 
L 88.63437 262.069173 
L 89.835101 258.89298 
L 91.035733 262.069173 
L 92.236561 262.069173 
L 93.437414 264.716 
L 94.638207 262.069173 
L 97.040455 262.069173 
L 98.241373 258.89298 
L 99.442209 262.069173 
L 101.843946 262.069173 
L 103.044769 264.716 
L 104.245557 264.716 
L 105.44642 258.89298 
L 106.647212 262.069173 
L 111.450089 262.069173 
L 112.650675 264.716 
L 113.851432 264.716 
L 115.05199 262.069173 
L 116.252751 258.89298 
L 117.453637 262.069173 
L 118.654389 262.069173 
L 119.854879 258.89298 
L 121.055745 262.069173 
L 122.256575 262.069173 
L 123.457294 264.716 
L 124.65835 264.716 
L 125.859118 262.069173 
L 128.26065 262.069173 
L 129.46144 264.716 
L 130.662443 247.776306 
L 133.109229 230.836613 
L 134.332609 230.836613 
L 135.555983 225.013593 
L 136.779391 227.66042 
L 139.220163 227.66042 
L 140.443386 225.013593 
L 141.666725 225.013593 
L 142.8903 222.366766 
L 144.107866 219.190573 
L 145.331101 219.190573 
L 146.554477 222.366766 
L 147.777675 219.190573 
L 152.66536 219.190573 
L 153.888787 222.366766 
L 155.11201 219.190573 
L 162.428465 219.190573 
L 163.652017 216.543746 
L 164.869392 219.190573 
L 166.092772 216.543746 
L 167.31614 219.190573 
L 168.533552 216.543746 
L 169.756972 219.190573 
L 172.203695 219.190573 
L 173.427094 216.543746 
L 174.644519 213.367554 
L 175.867894 216.543746 
L 177.091266 216.543746 
L 178.314659 213.367554 
L 179.53801 216.543746 
L 180.76142 213.367554 
L 183.202213 213.367554 
L 184.419623 216.543746 
L 185.642952 213.367554 
L 194.206667 213.367554 
L 195.430046 208.073899 
L 196.653255 213.367554 
L 203.99371 213.367554 
L 206.44047 208.073899 
L 207.663913 213.367554 
L 210.110597 213.367554 
L 211.334012 210.720726 
L 213.780749 210.720726 
L 214.998216 213.367554 
L 217.438961 208.073899 
L 221.097186 208.073899 
L 222.314583 210.720726 
L 223.537841 208.073899 
L 232.083564 208.073899 
L 233.307114 210.720726 
L 234.52437 208.073899 
L 246.72254 208.073899 
L 247.945919 204.897707 
L 249.163323 208.073899 
L 250.386666 204.897707 
L 251.610091 208.073899 
L 252.833462 204.897707 
L 254.056843 208.073899 
L 255.280263 204.897707 
L 256.497473 208.073899 
L 257.720858 204.897707 
L 258.944415 202.25088 
L 260.167632 202.25088 
L 261.391187 204.897707 
L 262.614494 202.25088 
L 263.837939 208.073899 
L 265.061315 204.897707 
L 266.284653 202.25088 
L 267.50808 204.897707 
L 271.172092 204.897707 
L 272.395462 202.25088 
L 276.065639 202.25088 
L 277.289162 204.897707 
L 278.506592 202.25088 
L 280.95334 202.25088 
L 282.17673 204.897707 
L 283.400111 202.25088 
L 284.61751 202.25088 
L 285.840904 208.073899 
L 287.064282 202.25088 
L 301.732939 202.25088 
L 302.956264 199.074687 
L 304.179632 202.25088 
L 309.073201 202.25088 
L 310.29647 219.190573 
L 312.697816 230.836613 
L 315.099497 230.836613 
L 316.300219 236.130267 
L 319.902439 236.130267 
L 321.103492 241.953287 
L 322.303965 239.30646 
L 324.705604 239.30646 
L 325.906306 241.953287 
L 328.307844 241.953287 
L 329.50865 239.30646 
L 330.709151 241.953287 
L 331.909837 239.30646 
L 333.110632 241.953287 
L 335.512304 241.953287 
L 336.713109 239.30646 
L 337.913853 241.953287 
L 353.523824 241.953287 
L 354.724918 245.129479 
L 355.925511 245.129479 
L 357.126239 247.776306 
L 358.327012 245.129479 
L 359.52787 247.776306 
L 360.728429 245.129479 
L 361.929445 241.953287 
L 364.331123 241.953287 
L 365.531855 247.776306 
L 366.732568 245.129479 
L 367.93333 245.129479 
L 369.134318 241.953287 
L 370.335356 245.129479 
L 371.535812 245.129479 
L 372.736413 247.776306 
L 376.338582 247.776306 
L 377.539519 241.953287 
L 378.740129 245.129479 
L 379.941017 247.776306 
L 381.141801 247.776306 
L 382.342663 245.129479 
L 383.543381 245.129479 
L 384.74384 247.776306 
L 385.944619 245.129479 
L 387.145111 247.776306 
L 388.345724 245.129479 
L 389.546458 247.776306 
L 393.148891 247.776306 
L 394.349794 245.129479 
L 395.550243 245.129479 
L 396.750834 247.776306 
L 397.951938 247.776306 
L 397.951938 247.776306 
" style="fill:none;stroke:#d62728;stroke-linecap:square;stroke-width:1.5;"/>
   </g>
   <g id="patch_3">
    <path d="M 40.603125 276.812 
L 40.603125 10.7 
" style="fill:none;stroke:#000000;stroke-linecap:square;stroke-linejoin:miter;stroke-width:0.8;"/>
   </g>
   <g id="patch_4">
    <path d="M 397.723125 276.812 
L 397.723125 10.7 
" style="fill:none;stroke:#000000;stroke-linecap:square;stroke-linejoin:miter;stroke-width:0.8;"/>
   </g>
   <g id="patch_5">
    <path d="M 40.603125 276.812 
L 397.723125 276.812 
" style="fill:none;stroke:#000000;stroke-linecap:square;stroke-linejoin:miter;stroke-width:0.8;"/>
   </g>
   <g id="patch_6">
    <path d="M 40.603125 10.7 
L 397.723125 10.7 
" style="fill:none;stroke:#000000;stroke-linecap:square;stroke-linejoin:miter;stroke-width:0.8;"/>
   </g>
   <g id="legend_1">
    <g id="patch_7">
     <path d="M 410.436725 72.4125 
L 521.582038 72.4125 
Q 523.582038 72.4125 523.582038 70.4125 
L 523.582038 12.7 
Q 523.582038 10.7 521.582038 10.7 
L 410.436725 10.7 
Q 408.436725 10.7 408.436725 12.7 
L 408.436725 70.4125 
Q 408.436725 72.4125 410.436725 72.4125 
z
" style="fill:#ffffff;opacity:0.8;stroke:#cccccc;stroke-linejoin:miter;"/>
    </g>
    <g id="line2d_27">
     <path d="M 412.436725 18.798438 
L 432.436725 18.798438 
" style="fill:none;stroke:#1f77b4;stroke-linecap:square;stroke-width:1.5;"/>
    </g>
    <g id="line2d_28"/>
    <g id="text_14">
     <!-- 3B acryl -->
     <defs>
      <path d="M 19.671875 34.8125 
L 19.671875 8.109375 
L 35.5 8.109375 
Q 43.453125 8.109375 47.28125 11.40625 
Q 51.125 14.703125 51.125 21.484375 
Q 51.125 28.328125 47.28125 31.5625 
Q 43.453125 34.8125 35.5 34.8125 
z
M 19.671875 64.796875 
L 19.671875 42.828125 
L 34.28125 42.828125 
Q 41.5 42.828125 45.03125 45.53125 
Q 48.578125 48.25 48.578125 53.8125 
Q 48.578125 59.328125 45.03125 62.0625 
Q 41.5 64.796875 34.28125 64.796875 
z
M 9.8125 72.90625 
L 35.015625 72.90625 
Q 46.296875 72.90625 52.390625 68.21875 
Q 58.5 63.53125 58.5 54.890625 
Q 58.5 48.1875 55.375 44.234375 
Q 52.25 40.28125 46.1875 39.3125 
Q 53.46875 37.75 57.5 32.78125 
Q 61.53125 27.828125 61.53125 20.40625 
Q 61.53125 10.640625 54.890625 5.3125 
Q 48.25 0 35.984375 0 
L 9.8125 0 
z
" id="DejaVuSans-66"/>
      <path d="M 48.78125 52.59375 
L 48.78125 44.1875 
Q 44.96875 46.296875 41.140625 47.34375 
Q 37.3125 48.390625 33.40625 48.390625 
Q 24.65625 48.390625 19.8125 42.84375 
Q 14.984375 37.3125 14.984375 27.296875 
Q 14.984375 17.28125 19.8125 11.734375 
Q 24.65625 6.203125 33.40625 6.203125 
Q 37.3125 6.203125 41.140625 7.25 
Q 44.96875 8.296875 48.78125 10.40625 
L 48.78125 2.09375 
Q 45.015625 0.34375 40.984375 -0.53125 
Q 36.96875 -1.421875 32.421875 -1.421875 
Q 20.0625 -1.421875 12.78125 6.34375 
Q 5.515625 14.109375 5.515625 27.296875 
Q 5.515625 40.671875 12.859375 48.328125 
Q 20.21875 56 33.015625 56 
Q 37.15625 56 41.109375 55.140625 
Q 45.0625 54.296875 48.78125 52.59375 
z
" id="DejaVuSans-99"/>
      <path d="M 32.171875 -5.078125 
Q 28.375 -14.84375 24.75 -17.8125 
Q 21.140625 -20.796875 15.09375 -20.796875 
L 7.90625 -20.796875 
L 7.90625 -13.28125 
L 13.1875 -13.28125 
Q 16.890625 -13.28125 18.9375 -11.515625 
Q 21 -9.765625 23.484375 -3.21875 
L 25.09375 0.875 
L 2.984375 54.6875 
L 12.5 54.6875 
L 29.59375 11.921875 
L 46.6875 54.6875 
L 56.203125 54.6875 
z
" id="DejaVuSans-121"/>
      <path d="M 9.421875 75.984375 
L 18.40625 75.984375 
L 18.40625 0 
L 9.421875 0 
z
" id="DejaVuSans-108"/>
     </defs>
     <g transform="translate(440.436725 22.298438)scale(0.1 -0.1)">
      <use xlink:href="#DejaVuSans-51"/>
      <use x="63.623047" xlink:href="#DejaVuSans-66"/>
      <use x="132.226562" xlink:href="#DejaVuSans-32"/>
      <use x="164.013672" xlink:href="#DejaVuSans-97"/>
      <use x="225.292969" xlink:href="#DejaVuSans-99"/>
      <use x="280.273438" xlink:href="#DejaVuSans-114"/>
      <use x="321.386719" xlink:href="#DejaVuSans-121"/>
      <use x="380.566406" xlink:href="#DejaVuSans-108"/>
     </g>
    </g>
    <g id="line2d_29">
     <path d="M 412.436725 33.476563 
L 432.436725 33.476563 
" style="fill:none;stroke:#ff7f0e;stroke-linecap:square;stroke-width:1.5;"/>
    </g>
    <g id="line2d_30"/>
    <g id="text_15">
     <!-- 3B naked -->
     <defs>
      <path d="M 54.890625 33.015625 
L 54.890625 0 
L 45.90625 0 
L 45.90625 32.71875 
Q 45.90625 40.484375 42.875 44.328125 
Q 39.84375 48.1875 33.796875 48.1875 
Q 26.515625 48.1875 22.3125 43.546875 
Q 18.109375 38.921875 18.109375 30.90625 
L 18.109375 0 
L 9.078125 0 
L 9.078125 54.6875 
L 18.109375 54.6875 
L 18.109375 46.1875 
Q 21.34375 51.125 25.703125 53.5625 
Q 30.078125 56 35.796875 56 
Q 45.21875 56 50.046875 50.171875 
Q 54.890625 44.34375 54.890625 33.015625 
z
" id="DejaVuSans-110"/>
      <path d="M 9.078125 75.984375 
L 18.109375 75.984375 
L 18.109375 31.109375 
L 44.921875 54.6875 
L 56.390625 54.6875 
L 27.390625 29.109375 
L 57.625 0 
L 45.90625 0 
L 18.109375 26.703125 
L 18.109375 0 
L 9.078125 0 
z
" id="DejaVuSans-107"/>
      <path d="M 45.40625 46.390625 
L 45.40625 75.984375 
L 54.390625 75.984375 
L 54.390625 0 
L 45.40625 0 
L 45.40625 8.203125 
Q 42.578125 3.328125 38.25 0.953125 
Q 33.9375 -1.421875 27.875 -1.421875 
Q 17.96875 -1.421875 11.734375 6.484375 
Q 5.515625 14.40625 5.515625 27.296875 
Q 5.515625 40.1875 11.734375 48.09375 
Q 17.96875 56 27.875 56 
Q 33.9375 56 38.25 53.625 
Q 42.578125 51.265625 45.40625 46.390625 
z
M 14.796875 27.296875 
Q 14.796875 17.390625 18.875 11.75 
Q 22.953125 6.109375 30.078125 6.109375 
Q 37.203125 6.109375 41.296875 11.75 
Q 45.40625 17.390625 45.40625 27.296875 
Q 45.40625 37.203125 41.296875 42.84375 
Q 37.203125 48.484375 30.078125 48.484375 
Q 22.953125 48.484375 18.875 42.84375 
Q 14.796875 37.203125 14.796875 27.296875 
z
" id="DejaVuSans-100"/>
     </defs>
     <g transform="translate(440.436725 36.976563)scale(0.1 -0.1)">
      <use xlink:href="#DejaVuSans-51"/>
      <use x="63.623047" xlink:href="#DejaVuSans-66"/>
      <use x="132.226562" xlink:href="#DejaVuSans-32"/>
      <use x="164.013672" xlink:href="#DejaVuSans-110"/>
      <use x="227.392578" xlink:href="#DejaVuSans-97"/>
      <use x="288.671875" xlink:href="#DejaVuSans-107"/>
      <use x="346.535156" xlink:href="#DejaVuSans-101"/>
      <use x="408.058594" xlink:href="#DejaVuSans-100"/>
     </g>
    </g>
    <g id="line2d_31">
     <path d="M 412.436725 48.154688 
L 432.436725 48.154688 
" style="fill:none;stroke:#2ca02c;stroke-linecap:square;stroke-width:1.5;"/>
    </g>
    <g id="line2d_32"/>
    <g id="text_16">
     <!-- 3B+ FLIRC case -->
     <defs>
      <path d="M 46 62.703125 
L 46 35.5 
L 73.1875 35.5 
L 73.1875 27.203125 
L 46 27.203125 
L 46 0 
L 37.796875 0 
L 37.796875 27.203125 
L 10.59375 27.203125 
L 10.59375 35.5 
L 37.796875 35.5 
L 37.796875 62.703125 
z
" id="DejaVuSans-43"/>
      <path d="M 9.8125 72.90625 
L 51.703125 72.90625 
L 51.703125 64.59375 
L 19.671875 64.59375 
L 19.671875 43.109375 
L 48.578125 43.109375 
L 48.578125 34.8125 
L 19.671875 34.8125 
L 19.671875 0 
L 9.8125 0 
z
" id="DejaVuSans-70"/>
      <path d="M 9.8125 72.90625 
L 19.671875 72.90625 
L 19.671875 8.296875 
L 55.171875 8.296875 
L 55.171875 0 
L 9.8125 0 
z
" id="DejaVuSans-76"/>
      <path d="M 9.8125 72.90625 
L 19.671875 72.90625 
L 19.671875 0 
L 9.8125 0 
z
" id="DejaVuSans-73"/>
      <path d="M 44.390625 34.1875 
Q 47.5625 33.109375 50.5625 29.59375 
Q 53.5625 26.078125 56.59375 19.921875 
L 66.609375 0 
L 56 0 
L 46.6875 18.703125 
Q 43.0625 26.03125 39.671875 28.421875 
Q 36.28125 30.8125 30.421875 30.8125 
L 19.671875 30.8125 
L 19.671875 0 
L 9.8125 0 
L 9.8125 72.90625 
L 32.078125 72.90625 
Q 44.578125 72.90625 50.734375 67.671875 
Q 56.890625 62.453125 56.890625 51.90625 
Q 56.890625 45.015625 53.6875 40.46875 
Q 50.484375 35.9375 44.390625 34.1875 
z
M 19.671875 64.796875 
L 19.671875 38.921875 
L 32.078125 38.921875 
Q 39.203125 38.921875 42.84375 42.21875 
Q 46.484375 45.515625 46.484375 51.90625 
Q 46.484375 58.296875 42.84375 61.546875 
Q 39.203125 64.796875 32.078125 64.796875 
z
" id="DejaVuSans-82"/>
     </defs>
     <g transform="translate(440.436725 51.654688)scale(0.1 -0.1)">
      <use xlink:href="#DejaVuSans-51"/>
      <use x="63.623047" xlink:href="#DejaVuSans-66"/>
      <use x="132.226562" xlink:href="#DejaVuSans-43"/>
      <use x="216.015625" xlink:href="#DejaVuSans-32"/>
      <use x="247.802734" xlink:href="#DejaVuSans-70"/>
      <use x="305.322266" xlink:href="#DejaVuSans-76"/>
      <use x="361.035156" xlink:href="#DejaVuSans-73"/>
      <use x="390.527344" xlink:href="#DejaVuSans-82"/>
      <use x="459.931641" xlink:href="#DejaVuSans-67"/>
      <use x="529.755859" xlink:href="#DejaVuSans-32"/>
      <use x="561.542969" xlink:href="#DejaVuSans-99"/>
      <use x="616.523438" xlink:href="#DejaVuSans-97"/>
      <use x="677.802734" xlink:href="#DejaVuSans-115"/>
      <use x="729.902344" xlink:href="#DejaVuSans-101"/>
     </g>
    </g>
    <g id="line2d_33">
     <path d="M 412.436725 62.832813 
L 432.436725 62.832813 
" style="fill:none;stroke:#d62728;stroke-linecap:square;stroke-width:1.5;"/>
    </g>
    <g id="line2d_34"/>
    <g id="text_17">
     <!-- 3B fasttech -->
     <defs>
      <path d="M 37.109375 75.984375 
L 37.109375 68.5 
L 28.515625 68.5 
Q 23.6875 68.5 21.796875 66.546875 
Q 19.921875 64.59375 19.921875 59.515625 
L 19.921875 54.6875 
L 34.71875 54.6875 
L 34.71875 47.703125 
L 19.921875 47.703125 
L 19.921875 0 
L 10.890625 0 
L 10.890625 47.703125 
L 2.296875 47.703125 
L 2.296875 54.6875 
L 10.890625 54.6875 
L 10.890625 58.5 
Q 10.890625 67.625 15.140625 71.796875 
Q 19.390625 75.984375 28.609375 75.984375 
z
" id="DejaVuSans-102"/>
      <path d="M 54.890625 33.015625 
L 54.890625 0 
L 45.90625 0 
L 45.90625 32.71875 
Q 45.90625 40.484375 42.875 44.328125 
Q 39.84375 48.1875 33.796875 48.1875 
Q 26.515625 48.1875 22.3125 43.546875 
Q 18.109375 38.921875 18.109375 30.90625 
L 18.109375 0 
L 9.078125 0 
L 9.078125 75.984375 
L 18.109375 75.984375 
L 18.109375 46.1875 
Q 21.34375 51.125 25.703125 53.5625 
Q 30.078125 56 35.796875 56 
Q 45.21875 56 50.046875 50.171875 
Q 54.890625 44.34375 54.890625 33.015625 
z
" id="DejaVuSans-104"/>
     </defs>
     <g transform="translate(440.436725 66.332813)scale(0.1 -0.1)">
      <use xlink:href="#DejaVuSans-51"/>
      <use x="63.623047" xlink:href="#DejaVuSans-66"/>
      <use x="132.226562" xlink:href="#DejaVuSans-32"/>
      <use x="164.013672" xlink:href="#DejaVuSans-102"/>
      <use x="199.21875" xlink:href="#DejaVuSans-97"/>
      <use x="260.498047" xlink:href="#DejaVuSans-115"/>
      <use x="312.597656" xlink:href="#DejaVuSans-116"/>
      <use x="351.806641" xlink:href="#DejaVuSans-116"/>
      <use x="391.015625" xlink:href="#DejaVuSans-101"/>
      <use x="452.539062" xlink:href="#DejaVuSans-99"/>
      <use x="507.519531" xlink:href="#DejaVuSans-104"/>
     </g>
    </g>
   </g>
  </g>
 </g>
 <defs>
  <clipPath id="pad5f04d28c">
   <rect height="266.112" width="357.12" x="40.603125" y="10.7"/>
  </clipPath>
 </defs>
</svg>
