<svg height="419.158" viewBox="0 0 492.324 314.368" width="656.432" xmlns="http://www.w3.org/2000/svg" xmlns:xlink="http://www.w3.org/1999/xlink"><defs><style>*{stroke-linecap:butt;stroke-linejoin:round}</style></defs><g id="figure_1"><path d="M0 314.368h492.324V0H0z" fill="none" id="patch_1"/><g id="axes_1"><path d="M40.603 276.812h357.12V10.7H40.603z" fill="none" id="patch_2"/><g id="matplotlib.axis_1"><g id="xtick_1"><path clip-path="url(#p2c23ac5962)" d="M40.603 276.812V10.7" fill="none" stroke="#b0b0b0" stroke-linecap="square" stroke-width=".8" id="line2d_1"/><g id="line2d_2"><defs><path d="M0 0v3.5" id="mcdc2826c90" stroke="#000" stroke-width=".8"/></defs><use x="40.603" xlink:href="#mcdc2826c90" y="276.812" stroke="#000" stroke-width=".8"/></g><g id="text_1"><defs><path d="M31.781 66.406q-7.61 0-11.453-7.5Q16.5 51.422 16.5 36.375q0-14.984 3.828-22.484 3.844-7.5 11.453-7.5 7.672 0 11.5 7.5 3.844 7.5 3.844 22.484 0 15.047-3.844 22.531-3.828 7.5-11.5 7.5zm0 7.813q12.266 0 18.735-9.703 6.468-9.688 6.468-28.141 0-18.406-6.468-28.11-6.47-9.687-18.735-9.687-12.25 0-18.718 9.688-6.47 9.703-6.47 28.109 0 18.453 6.47 28.14Q19.53 74.22 31.78 74.22z" id="DejaVuSans-30"/></defs><use xlink:href="#DejaVuSans-30" transform="matrix(.1 0 0 -.1 37.422 291.41)"/></g></g><g id="xtick_2"><path clip-path="url(#p2c23ac5962)" d="M100.197 276.812V10.7" fill="none" stroke="#b0b0b0" stroke-linecap="square" stroke-width=".8" id="line2d_3"/><use x="100.197" xlink:href="#mcdc2826c90" y="276.812" stroke="#000" stroke-width=".8" id="line2d_4"/><g id="text_2"><defs><path d="M12.406 8.297h16.11v55.625l-17.532-3.516v8.985l17.438 3.515h9.86V8.296H54.39V0H12.406z" id="DejaVuSans-31"/></defs><g transform="matrix(.1 0 0 -.1 90.654 291.41)"><use xlink:href="#DejaVuSans-31"/><use x="63.623" xlink:href="#DejaVuSans-30"/><use x="127.246" xlink:href="#DejaVuSans-30"/></g></g></g><g id="xtick_3"><path clip-path="url(#p2c23ac5962)" d="M159.792 276.812V10.7" fill="none" stroke="#b0b0b0" stroke-linecap="square" stroke-width=".8" id="line2d_5"/><use x="159.792" xlink:href="#mcdc2826c90" y="276.812" stroke="#000" stroke-width=".8" id="line2d_6"/><g id="text_3"><defs><path d="M19.188 8.297h34.421V0H7.33v8.297q5.609 5.812 15.296 15.594 9.703 9.797 12.188 12.64 4.734 5.313 6.609 9 1.89 3.688 1.89 7.25 0 5.813-4.078 9.469-4.078 3.672-10.625 3.672-4.64 0-9.797-1.61-5.14-1.609-11-4.89v9.969Q13.767 71.78 18.938 73q5.188 1.219 9.485 1.219 11.328 0 18.062-5.672 6.735-5.656 6.735-15.125 0-4.5-1.688-8.531-1.672-4.016-6.125-9.485-1.218-1.422-7.765-8.187-6.532-6.766-18.453-18.922z" id="DejaVuSans-32"/></defs><g transform="matrix(.1 0 0 -.1 150.248 291.41)"><use xlink:href="#DejaVuSans-32"/><use x="63.623" xlink:href="#DejaVuSans-30"/><use x="127.246" xlink:href="#DejaVuSans-30"/></g></g></g><g id="xtick_4"><path clip-path="url(#p2c23ac5962)" d="M219.386 276.812V10.7" fill="none" stroke="#b0b0b0" stroke-linecap="square" stroke-width=".8" id="line2d_7"/><use x="219.386" xlink:href="#mcdc2826c90" y="276.812" stroke="#000" stroke-width=".8" id="line2d_8"/><g id="text_4"><defs><path d="M40.578 39.313Q47.656 37.797 51.625 33q3.984-4.781 3.984-11.813 0-10.78-7.422-16.703-7.421-5.906-21.093-5.906-4.578 0-9.438.906-4.86.907-10.031 2.72v9.515q4.094-2.39 8.969-3.61 4.89-1.218 10.218-1.218 9.266 0 14.125 3.656 4.86 3.656 4.86 10.64 0 6.454-4.516 10.079-4.515 3.64-12.562 3.64h-8.5v8.11h8.89q7.266 0 11.125 2.906 3.86 2.906 3.86 8.375 0 5.61-3.985 8.61-3.968 3.015-11.39 3.015-4.063 0-8.703-.89-4.641-.876-10.203-2.72v8.782q5.624 1.562 10.53 2.344 4.907.78 9.25.78 11.235 0 17.766-5.109 6.547-5.093 6.547-13.78 0-6.063-3.468-10.235-3.47-4.172-9.86-5.782z" id="DejaVuSans-33"/></defs><g transform="matrix(.1 0 0 -.1 209.842 291.41)"><use xlink:href="#DejaVuSans-33"/><use x="63.623" xlink:href="#DejaVuSans-30"/><use x="127.246" xlink:href="#DejaVuSans-30"/></g></g></g><g id="xtick_5"><path clip-path="url(#p2c23ac5962)" d="M278.98 276.812V10.7" fill="none" stroke="#b0b0b0" stroke-linecap="square" stroke-width=".8" id="line2d_9"/><use x="278.98" xlink:href="#mcdc2826c90" y="276.812" stroke="#000" stroke-width=".8" id="line2d_10"/><g id="text_5"><defs><path d="M37.797 64.313L12.89 25.39h24.906zm-2.594 8.593H47.61V25.391h10.407v-8.203H47.609V0h-9.812v17.188H4.89v9.515z" id="DejaVuSans-34"/></defs><g transform="matrix(.1 0 0 -.1 269.436 291.41)"><use xlink:href="#DejaVuSans-34"/><use x="63.623" xlink:href="#DejaVuSans-30"/><use x="127.246" xlink:href="#DejaVuSans-30"/></g></g></g><g id="xtick_6"><path clip-path="url(#p2c23ac5962)" d="M338.574 276.812V10.7" fill="none" stroke="#b0b0b0" stroke-linecap="square" stroke-width=".8" id="line2d_11"/><use x="338.574" xlink:href="#mcdc2826c90" y="276.812" stroke="#000" stroke-width=".8" id="line2d_12"/><g id="text_6"><defs><path d="M10.797 72.906h38.719v-8.312H19.828v-17.86q2.14.735 4.281 1.094 2.157.36 4.313.36 12.203 0 19.328-6.688 7.14-6.688 7.14-18.11 0-11.765-7.328-18.296-7.328-6.516-20.656-6.516-4.593 0-9.36.781-4.75.782-9.827 2.344v9.922q4.39-2.39 9.078-3.563 4.687-1.171 9.906-1.171 8.453 0 13.375 4.437 4.938 4.438 4.938 12.063 0 7.609-4.938 12.047-4.922 4.453-13.375 4.453-3.953 0-7.89-.875-3.922-.875-8.016-2.735z" id="DejaVuSans-35"/></defs><g transform="matrix(.1 0 0 -.1 329.03 291.41)"><use xlink:href="#DejaVuSans-35"/><use x="63.623" xlink:href="#DejaVuSans-30"/><use x="127.246" xlink:href="#DejaVuSans-30"/></g></g></g><g id="xtick_7"><path clip-path="url(#p2c23ac5962)" d="M398.169 276.812V10.7" fill="none" stroke="#b0b0b0" stroke-linecap="square" stroke-width=".8" id="line2d_13"/><use x="398.169" xlink:href="#mcdc2826c90" y="276.812" stroke="#000" stroke-width=".8" id="line2d_14"/><g id="text_7"><defs><path d="M33.016 40.375q-6.641 0-10.532-4.547-3.875-4.531-3.875-12.437 0-7.86 3.875-12.438 3.891-4.562 10.532-4.562 6.64 0 10.515 4.562 3.875 4.578 3.875 12.438 0 7.906-3.875 12.437-3.875 4.547-10.515 4.547zm19.578 30.922v-8.984q-3.719 1.75-7.5 2.671-3.782.938-7.5.938-9.766 0-14.922-6.594-5.14-6.594-5.875-19.922 2.875 4.25 7.219 6.516 4.359 2.266 9.578 2.266 10.984 0 17.36-6.672 6.374-6.657 6.374-18.125 0-11.235-6.64-18.032-6.641-6.78-17.672-6.78-12.657 0-19.344 9.687-6.688 9.703-6.688 28.109 0 17.281 8.204 27.563 8.203 10.28 22.015 10.28 3.719 0 7.5-.734t7.89-2.187z" id="DejaVuSans-36"/></defs><g transform="matrix(.1 0 0 -.1 388.625 291.41)"><use xlink:href="#DejaVuSans-36"/><use x="63.623" xlink:href="#DejaVuSans-30"/><use x="127.246" xlink:href="#DejaVuSans-30"/></g></g></g><g id="text_8"><defs><path d="M18.313 70.219V54.688h18.5v-6.985h-18.5V18.016q0-6.688 1.828-8.594 1.828-1.906 7.453-1.906h9.218V0h-9.218q-10.407 0-14.36 3.875-3.953 3.89-3.953 14.14v29.688H2.687v6.984h6.594V70.22z" id="DejaVuSans-74"/><path d="M9.422 54.688h8.984V0H9.422zm0 21.296h8.984v-11.39H9.422z" id="DejaVuSans-69"/><path d="M52 44.188q3.375 6.062 8.063 8.937Q64.75 56 71.093 56q8.548 0 13.188-5.984 4.64-5.97 4.64-17V0h-9.03v32.719q0 7.86-2.797 11.656-2.781 3.813-8.485 3.813-6.984 0-11.046-4.641-4.047-4.625-4.047-12.64V0h-9.032v32.719q0 7.906-2.78 11.687-2.782 3.782-8.595 3.782-6.89 0-10.953-4.657-4.047-4.656-4.047-12.625V0H9.08v54.688h9.03v-8.5q3.078 5.03 7.375 7.421Q29.781 56 35.687 56q5.97 0 10.141-3.031Q50 49.953 52 44.187z" id="DejaVuSans-6d"/><path d="M56.203 29.594v-4.39H14.891q.593-9.282 5.593-14.142 5-4.859 13.938-4.859 5.172 0 10.031 1.266 4.86 1.265 9.656 3.812v-8.5Q49.266.734 44.187-.344 39.11-1.422 33.892-1.422q-13.094 0-20.735 7.61-7.64 7.625-7.64 20.625 0 13.421 7.25 21.296Q20.016 56 32.328 56q11.031 0 17.453-7.11 6.422-7.093 6.422-19.296zm-8.984 2.64q-.094 7.36-4.125 11.75-4.032 4.407-10.672 4.407-7.516 0-12.031-4.25-4.516-4.25-5.203-11.97z" id="DejaVuSans-65"/><path d="M31 75.875q-6.531-11.219-9.719-22.219-3.172-10.984-3.172-22.265 0-11.266 3.203-22.328Q24.517-2 31-13.188h-7.813Q15.875-1.704 12.235 9.375q-3.64 11.078-3.64 22.016 0 10.89 3.61 21.922 3.624 11.046 10.983 22.562z" id="DejaVuSans-28"/><path d="M44.281 53.078v-8.5q-3.797 1.953-7.906 2.922-4.094.984-8.5.984-6.688 0-10.031-2.047-3.344-2.046-3.344-6.156 0-3.125 2.39-4.906 2.391-1.781 9.626-3.39l3.078-.688q9.562-2.047 13.593-5.781 4.032-3.735 4.032-10.422 0-7.625-6.032-12.078-6.03-4.438-16.578-4.438-4.39 0-9.156.86Q10.688.296 5.422 2v9.281q4.984-2.594 9.812-3.89 4.829-1.282 9.579-1.282 6.343 0 9.75 2.172 3.421 2.172 3.421 6.125 0 3.656-2.468 5.61-2.453 1.953-10.813 3.765l-3.125.735q-8.344 1.75-12.062 5.39-3.704 3.64-3.704 9.985 0 7.718 5.47 11.906Q16.75 56 26.811 56q4.97 0 9.36-.734 4.406-.72 8.11-2.188z" id="DejaVuSans-73"/><path d="M8.016 75.875h7.812q7.313-11.516 10.953-22.563 3.64-11.03 3.64-21.921 0-10.938-3.64-22.016-3.64-11.078-10.953-22.563H8.016Q14.5-2 17.703 9.063q3.203 11.063 3.203 22.329 0 11.28-3.203 22.265-3.203 11-9.687 22.219z" id="DejaVuSans-29"/></defs><g transform="matrix(.1 0 0 -.1 199.772 305.089)"><use xlink:href="#DejaVuSans-74"/><use x="39.209" xlink:href="#DejaVuSans-69"/><use x="66.992" xlink:href="#DejaVuSans-6d"/><use x="164.404" xlink:href="#DejaVuSans-65"/><use x="225.928" xlink:href="#DejaVuSans-20"/><use x="257.715" xlink:href="#DejaVuSans-28"/><use x="296.729" xlink:href="#DejaVuSans-73"/><use x="348.828" xlink:href="#DejaVuSans-29"/></g></g></g><g id="matplotlib.axis_2"><g id="ytick_1"><path clip-path="url(#p2c23ac5962)" d="M40.603 246.188h357.12" fill="none" stroke="#b0b0b0" stroke-linecap="square" stroke-width=".8" id="line2d_15"/><g id="line2d_16"><defs><path d="M0 0h-3.5" id="m89b3c16484" stroke="#000" stroke-width=".8"/></defs><use x="40.603" xlink:href="#m89b3c16484" y="246.188" stroke="#000" stroke-width=".8"/></g><g transform="matrix(.1 0 0 -.1 20.878 249.987)" id="text_9"><use xlink:href="#DejaVuSans-34"/><use x="63.623" xlink:href="#DejaVuSans-30"/></g></g><g id="ytick_2"><path clip-path="url(#p2c23ac5962)" d="M40.603 193.252h357.12" fill="none" stroke="#b0b0b0" stroke-linecap="square" stroke-width=".8" id="line2d_17"/><use x="40.603" xlink:href="#m89b3c16484" y="193.252" stroke="#000" stroke-width=".8" id="line2d_18"/><g transform="matrix(.1 0 0 -.1 20.878 197.05)" id="text_10"><use xlink:href="#DejaVuSans-35"/><use x="63.623" xlink:href="#DejaVuSans-30"/></g></g><g id="ytick_3"><path clip-path="url(#p2c23ac5962)" d="M40.603 140.315h357.12" fill="none" stroke="#b0b0b0" stroke-linecap="square" stroke-width=".8" id="line2d_19"/><use x="40.603" xlink:href="#m89b3c16484" y="140.315" stroke="#000" stroke-width=".8" id="line2d_20"/><g transform="matrix(.1 0 0 -.1 20.878 144.114)" id="text_11"><use xlink:href="#DejaVuSans-36"/><use x="63.623" xlink:href="#DejaVuSans-30"/></g></g><g id="ytick_4"><path clip-path="url(#p2c23ac5962)" d="M40.603 87.379h357.12" fill="none" stroke="#b0b0b0" stroke-linecap="square" stroke-width=".8" id="line2d_21"/><use x="40.603" xlink:href="#m89b3c16484" y="87.379" stroke="#000" stroke-width=".8" id="line2d_22"/><g id="text_12"><defs><path d="M8.203 72.906h46.875v-4.203L28.61 0H18.312L43.22 64.594H8.203z" id="DejaVuSans-37"/></defs><g transform="matrix(.1 0 0 -.1 20.878 91.178)"><use xlink:href="#DejaVuSans-37"/><use x="63.623" xlink:href="#DejaVuSans-30"/></g></g></g><g id="ytick_5"><path clip-path="url(#p2c23ac5962)" d="M40.603 34.442h357.12" fill="none" stroke="#b0b0b0" stroke-linecap="square" stroke-width=".8" id="line2d_23"/><use x="40.603" xlink:href="#m89b3c16484" y="34.442" stroke="#000" stroke-width=".8" id="line2d_24"/><g id="text_13"><defs><path d="M31.781 34.625q-7.031 0-11.062-3.766-4.016-3.765-4.016-10.343 0-6.594 4.016-10.36Q24.75 6.391 31.78 6.391q7.032 0 11.078 3.78 4.063 3.798 4.063 10.345 0 6.578-4.031 10.343-4.016 3.766-11.11 3.766zm-9.86 4.188q-6.343 1.562-9.89 5.906Q8.5 49.079 8.5 55.329q0 8.733 6.219 13.812 6.234 5.078 17.062 5.078 10.89 0 17.094-5.078 6.203-5.079 6.203-13.813 0-6.25-3.547-10.61-3.531-4.343-9.828-5.906 7.125-1.656 11.094-6.5 3.984-4.828 3.984-11.796 0-10.61-6.468-16.282-6.47-5.656-18.532-5.656-12.047 0-18.531 5.656-6.469 5.672-6.469 16.282 0 6.968 4 11.797 4.016 4.843 11.14 6.5zM18.314 54.39q0-5.657 3.53-8.828 3.548-3.172 9.938-3.172 6.36 0 9.938 3.172 3.593 3.171 3.593 8.828 0 5.672-3.593 8.843-3.578 3.172-9.938 3.172-6.39 0-9.937-3.172-3.532-3.172-3.532-8.843z" id="DejaVuSans-38"/></defs><g transform="matrix(.1 0 0 -.1 20.878 38.241)"><use xlink:href="#DejaVuSans-38"/><use x="63.623" xlink:href="#DejaVuSans-30"/></g></g></g><g id="text_14"><defs><path d="M18.11 8.203v-29H9.077v75.484h9.031v-8.296q2.844 4.875 7.157 7.234Q29.594 56 35.594 56q9.968 0 16.187-7.906 6.235-7.907 6.235-20.797T51.78 6.484q-6.218-7.906-16.187-7.906-6 0-10.328 2.375-4.313 2.375-7.157 7.25zm30.578 19.094q0 9.906-4.079 15.547-4.078 5.64-11.203 5.64-7.14 0-11.218-5.64-4.079-5.64-4.079-15.547 0-9.906 4.078-15.547 4.079-5.64 11.22-5.64 7.124 0 11.202 5.64t4.078 15.547z" id="DejaVuSans-70"/><path d="M41.11 46.297q-1.516.875-3.297 1.281Q36.03 48 33.89 48q-7.625 0-11.703-4.953-4.079-4.953-4.079-14.234V0H9.08v54.688h9.03v-8.5q2.844 4.984 7.375 7.39Q30.031 56 36.531 56q.922 0 2.047-.125 1.125-.11 2.484-.36z" id="DejaVuSans-72"/><path d="M34.281 27.484q-10.89 0-15.093-2.484-4.204-2.484-4.204-8.5 0-4.781 3.157-7.594 3.156-2.797 8.562-2.797 7.485 0 12 5.297 4.516 5.297 4.516 14.078v2zm17.922 3.72V0H43.22v8.297Q40.14 3.328 35.547.953q-4.594-2.375-11.234-2.375-8.391 0-13.36 4.719Q6 8.016 6 15.922q0 9.219 6.172 13.906 6.187 4.688 18.437 4.688h12.61v.89q0 6.203-4.078 9.594-4.078 3.39-11.453 3.39-4.688 0-9.141-1.124-4.438-1.125-8.531-3.375v8.312q4.921 1.906 9.562 2.844 4.64.953 9.031.953 11.875 0 17.735-6.156 5.86-6.14 5.86-18.64z" id="DejaVuSans-61"/><path d="M8.5 21.578v33.11h8.984V21.922q0-7.766 3.016-11.656 3.031-3.875 9.094-3.875 7.265 0 11.484 4.64 4.234 4.64 4.234 12.656v31h8.985V0h-8.984v8.406Q42.047 3.422 37.718 1q-4.313-2.422-10.032-2.422-9.421 0-14.312 5.86Q8.5 10.296 8.5 21.578zM31.11 56z" id="DejaVuSans-75"/><path d="M25 67.922q-3.906 0-6.594-2.719-2.687-2.703-2.687-6.61 0-3.859 2.687-6.515 2.688-2.656 6.594-2.656t6.594 2.656q2.687 2.656 2.687 6.516t-2.718 6.593Q28.858 67.922 25 67.922zm0 6.297q3.125 0 6-1.203 2.89-1.188 4.984-3.438 2.25-2.187 3.375-4.984 1.125-2.781 1.125-6 0-6.438-4.515-10.907-4.516-4.468-11.063-4.468-6.593 0-11 4.39Q9.516 52 9.516 58.594q0 6.547 4.484 11.078 4.5 4.547 11 4.547z" id="DejaVuSans-b0"/><path d="M64.406 67.281v-10.39q-4.984 4.64-10.625 6.922-5.64 2.296-11.984 2.296-12.5 0-19.14-7.64-6.641-7.64-6.641-22.094 0-14.406 6.64-22.047 6.64-7.64 19.14-7.64 6.345 0 11.985 2.296 5.64 2.297 10.625 6.938V5.609Q59.234 2.094 53.437.33q-5.78-1.75-12.218-1.75-16.563 0-26.094 10.124-9.516 10.14-9.516 27.672 0 17.578 9.516 27.703 9.531 10.14 26.094 10.14 6.531 0 12.312-1.734 5.797-1.734 10.875-5.203z" id="DejaVuSans-43"/></defs><g transform="matrix(0 -.1 -.1 0 14.798 186.775)"><use xlink:href="#DejaVuSans-74"/><use x="39.209" xlink:href="#DejaVuSans-65"/><use x="100.732" xlink:href="#DejaVuSans-6d"/><use x="198.145" xlink:href="#DejaVuSans-70"/><use x="261.621" xlink:href="#DejaVuSans-65"/><use x="323.145" xlink:href="#DejaVuSans-72"/><use x="364.258" xlink:href="#DejaVuSans-61"/><use x="425.537" xlink:href="#DejaVuSans-74"/><use x="464.746" xlink:href="#DejaVuSans-75"/><use x="528.125" xlink:href="#DejaVuSans-72"/><use x="569.207" xlink:href="#DejaVuSans-65"/><use x="630.73" xlink:href="#DejaVuSans-20"/><use x="662.518" xlink:href="#DejaVuSans-28"/><use x="701.531" xlink:href="#DejaVuSans-b0"/><use x="751.531" xlink:href="#DejaVuSans-43"/><use x="821.355" xlink:href="#DejaVuSans-29"/></g></g></g><path clip-path="url(#p2c23ac5962)" d="M40.603 202.25l1.216 2.648 1.208-2.647h8.454l1.208 2.647 1.207-2.647h2.416l1.208 2.647 1.207-2.647h1.208l1.208 2.647 1.208-2.647 1.207 2.647h2.415l1.208-2.647h2.414l1.208 2.647 1.201-2.647h3.623l1.208 2.647 1.207-2.647h1.208l1.208 2.647 1.207 3.176 1.208-5.823 1.208 5.823 1.207-5.823 1.208 5.823h1.208l1.208-5.823 1.207 2.647h9.66l1.208 3.176h3.623l1.207-3.176 1.208-2.647 1.207 5.823 1.207-5.823 1.208 2.647h9.662l1.208-2.647 1.207 5.823h1.208l1.208-5.823 1.207 2.647 1.208 3.176h2.415l1.207-37.056 1.242-17.469 1.239-8.47 1.24-11.116 2.478-17.47 1.234-5.293 1.235-5.823h1.238l1.252-5.823 1.24-2.647 1.24-3.176 2.478-5.294 1.24-3.176 1.24-2.647h2.48l1.238-5.823 1.234-2.647 1.239-3.176h3.713l1.234-5.293 1.239 2.646h1.24l1.24-2.646 1.239-3.177h1.24l1.239-2.646h3.718l1.235-3.177h2.479l1.234-5.293 1.238 2.647h1.24l1.24-2.647h1.24l1.239-3.176h1.234l1.239-2.647 1.24 2.647h1.239l2.479-5.294h3.713l1.24-5.823 1.239 5.823 1.24-3.176h1.24l1.239-2.647h7.437l1.24-3.176h1.239l1.252 3.176 1.24-3.176h1.239l1.24-2.647h11.168l1.24 2.647 1.239-2.647h2.48l1.239-2.647 1.24 2.647 1.239-2.647h2.479l1.239 2.647 1.24-2.647h1.24l1.24 2.647 1.239-5.823h1.24l1.239 3.176h3.718l1.24-3.176 1.24 5.823 1.24-5.823 1.239 3.176 1.24 2.647h2.49l1.237-2.647 1.248-3.176 1.24 3.176 1.24-3.176h1.24l1.239 3.176h1.234l1.239-3.176h1.245l1.24-2.647 1.24 2.647h3.718l1.24 3.176 1.24-5.823 1.238 5.823h1.24l1.24-3.176h3.719l1.24 3.176 1.239-3.176 1.239-2.647 1.24 2.647 1.24-2.647 1.24 2.647h4.97l1.239 3.176 1.24-3.176h6.191l1.234-2.647 1.235 22.763 1.207 20.116 1.208 11.116 2.416 16.94 1.207 3.176 1.208 5.823 1.207 2.647 2.416 11.117 1.207-2.647 1.208 5.823 1.208 2.647 1.207 3.176 1.208 2.647h3.623l1.208 5.823h1.207l1.208 2.647h2.415l1.208 3.176h1.208l1.207-3.176 1.208 8.47h3.623l1.209 5.822 1.207-2.646 1.208 2.646h3.622l1.208 2.647h1.207l1.208 3.176 1.207-5.823h1.201l1.208 2.647 1.208 3.176h1.208l1.207-3.176 1.208 3.176h3.623l1.208 2.647h7.247l1.207 3.176h3.623l1.208 5.294 1.207-5.294 1.208 5.294 1.208-5.294 1.208 5.294h7.246l1.207 3.176 1.208-3.176h1.208" fill="none" stroke="#1f77b4" stroke-linecap="square" stroke-width="1.5" id="line2d_25"/><path clip-path="url(#p2c23ac5962)" d="M40.603 213.368h2.417l1.207-5.294 1.209 5.294 1.208-2.647 1.207 2.647h1.208l1.209-2.647 1.207 2.647 1.208-5.294 1.208 5.294 1.209-2.647 1.208 2.647h4.832l1.208-2.647 1.208 2.647h1.208l1.208-2.647 1.208 2.647h8.456l1.208-2.647 1.208 2.647h3.624l1.208-2.647 1.208 2.647h9.669l1.208-2.647 1.207 2.647 1.208-5.294 1.207 5.294h3.624l1.207-2.647h1.208l1.208 2.647h2.415l1.209-2.647 1.207 2.647 1.208-2.647 1.209 2.647h1.207l1.208 3.176 1.207-3.176h2.416l1.208-2.647 1.207 2.647 1.208-2.647 1.208 2.647h1.207l1.208-5.294 1.201 5.294h2.416l1.208-33.88 1.239-16.94 1.234-11.646 1.234-14.292 2.467-11.117 1.239-3.176 1.234-8.47 1.24-2.647 1.239-3.176 2.479-5.294 1.24-5.823 1.239-3.176h1.245l1.24-2.647h1.234l1.24-5.823h1.239l1.24-2.647h2.478l1.24-5.823 1.24 3.176 1.24-5.823 1.239 2.647 1.24-5.823h4.963l1.24-2.647 1.24 2.647 1.24-5.293h2.478l1.24-3.177 1.24-2.646h4.952l1.234-3.177h1.234l2.473-5.293 1.234 2.647 1.233-2.647 1.24 2.647 1.238-2.647 1.24 2.647 1.24-2.647 1.239-3.176 1.24-2.647h1.24l1.239 2.647h1.24l1.239-2.647 1.24 2.647h1.239l1.24-5.294 1.239 2.647 1.24-2.647h4.96l1.243-3.176 1.24-2.647h9.875l1.24-3.176 1.24-2.647h1.233l1.24 2.647 1.245-2.647h3.713l1.245 2.647 1.24-2.647h7.431l1.24-2.647 1.24 5.294 1.24-2.647h7.436l1.24-2.647 1.24 2.647h2.479l1.239-2.647 1.24 2.647h3.719l1.24-2.647h3.724l1.24-3.176 1.239 3.176h1.24l1.239-3.176 1.24 5.823h1.239l1.24-5.823h1.24l1.239 3.176 1.234 2.647h2.467l1.233-2.647h3.719l1.24 2.647 1.24-2.647 1.233 2.647 1.24-5.823 1.239 3.176 1.24 2.647 1.239-5.823 1.233 5.823h3.71l1.237-2.647 1.24 2.647 1.238 16.94 1.21 20.115 1.207 14.293 2.416 16.94 4.831 22.763 1.208 3.176 2.416 5.294 1.208 3.176h1.207l1.208 2.647 1.208 3.176 1.207 5.293h3.624l1.208 3.177 1.208 2.646h2.415l1.208 2.647 1.208 3.176 1.207-3.176 1.208 3.176h1.208l1.208 2.647h1.208l1.208 3.176 1.207-3.176 1.208 8.47h1.207l1.208-5.294h2.415l1.209 5.294h1.207l1.208 3.176 1.208-3.176 1.208-2.647 1.208 2.647 1.208 3.176 1.209-3.176 1.208 5.823 1.208-2.647h2.416l1.208 2.647h7.248l1.207 5.823h7.248l1.208 2.647 1.207-2.647h2.416l1.208 2.647h1.207l1.208 3.176h3.624" fill="none" stroke="#ff7f0e" stroke-linecap="square" stroke-width="1.5" id="line2d_26"/><path clip-path="url(#p2c23ac5962)" d="M40.603 262.07l1.199-3.177H43l1.199 3.176 1.199-3.176 1.199 3.176 1.199-3.176 1.199 3.176h1.2l1.198-3.176 1.2 3.176 1.199-3.176h1.199l1.2 3.176 1.198-3.176 1.2 3.176h2.398l1.2-3.176 1.199 3.176h1.199l1.2-3.176 1.199 5.823 1.198-2.647 1.2-3.176 1.199 3.176h4.796l1.199-3.176h1.199l1.199 3.176 1.199-3.176 1.2 3.176h1.198l1.2-3.176h1.199l1.199 3.176h2.398l1.199-3.176 1.199 3.176h1.199l1.2 2.647 1.198-2.647h2.4l1.198-3.176 1.2 3.176h2.398l1.2 2.647h1.198l1.2-5.823 1.199 3.176h4.796l1.199 2.647h1.199l1.199-2.647 1.199-3.176 1.199 3.176h1.199l1.199-3.176 1.199 3.176h1.2l1.198 2.647h1.2l1.199-2.647h2.398l1.2 2.647 1.198-16.94 2.444-16.94h1.221l1.222-5.822 1.222 2.646h2.437l1.222-2.646h1.221l1.222-2.647 1.216-3.176h1.222l1.221 3.176 1.222-3.176h4.88l1.222 3.176 1.222-3.176h7.306l1.222-2.647 1.216 2.647 1.222-2.647 1.221 2.647 1.216-2.647 1.222 2.647h2.443l1.222-2.647 1.215-3.176 1.222 3.176h1.222l1.221-3.176 1.222 3.176 1.222-3.176h2.437l1.216 3.176 1.222-3.176h8.551l1.222-5.294 1.222 5.294h7.33l2.443-5.294 1.222 5.294h2.443l1.222-2.647h2.443l1.216 2.647 2.437-5.294h3.654l1.215 2.647 1.222-2.647h8.534l1.222 2.647 1.215-2.647h12.181l1.222-3.176 1.216 3.176 1.221-3.176 1.222 3.176 1.222-3.176 1.221 3.176 1.222-3.176 1.216 3.176 1.221-3.176 1.222-2.647h1.222l1.222 2.647 1.221-2.647 1.222 5.823 1.222-3.176 1.221-2.647 1.222 2.647h3.659l1.222-2.647h3.665l1.222 2.647 1.215-2.647h2.444l1.221 2.647 1.222-2.647h1.216l1.221 5.823 1.222-5.823h14.648l1.222-3.176 1.222 3.176h4.886l1.222 16.94 2.398 11.646h2.398l1.2 5.293h3.597l1.199 5.823 1.199-2.647h2.398l1.2 2.647h2.397l1.2-2.647 1.198 2.647 1.2-2.647 1.198 2.647h2.399l1.199-2.647 1.199 2.647h15.588l1.2 3.176h1.199l1.199 2.647 1.199-2.647 1.2 2.647 1.198-2.647 1.2-3.176h2.398l1.199 5.823 1.199-2.647h1.199l1.2-3.176 1.199 3.176h1.198l1.2 2.647h3.596l1.2-5.823 1.199 3.176 1.199 2.647h1.199l1.2-2.647h1.198l1.199 2.647 1.2-2.647 1.198 2.647 1.199-2.647 1.199 2.647h3.597l1.2-2.647h1.198l1.2 2.647h1.199" fill="none" stroke="#2ca02c" stroke-linecap="square" stroke-width="1.5" id="line2d_27"/><path d="M40.603 276.812V10.7" fill="none" stroke="#000" stroke-linecap="square" stroke-width=".8" id="patch_3"/><path d="M397.723 276.812V10.7" fill="none" stroke="#000" stroke-linecap="square" stroke-width=".8" id="patch_4"/><path d="M40.603 276.812h357.12" fill="none" stroke="#000" stroke-linecap="square" stroke-width=".8" id="patch_5"/><path d="M40.603 10.7h357.12" fill="none" stroke="#000" stroke-linecap="square" stroke-width=".8" id="patch_6"/><g id="legend_1"><path d="M410.437 57.734h72.687q2 0 2-2V12.7q0-2-2-2h-72.687q-2 0-2 2v43.034q0 2 2 2z" fill="#fff" opacity=".8" stroke="#ccc" id="patch_7"/><path d="M412.437 18.798h20" fill="none" stroke="#1f77b4" stroke-linecap="square" stroke-width="1.5" id="line2d_28"/><g id="text_15"><defs><path d="M48.781 52.594v-8.407q-3.812 2.11-7.64 3.157-3.828 1.047-7.735 1.047-8.75 0-13.593-5.547-4.829-5.532-4.829-15.547 0-10.016 4.829-15.563 4.843-5.53 13.593-5.53 3.907 0 7.735 1.046 3.828 1.047 7.64 3.156V2.094Q45.016.344 40.984-.531q-4.015-.89-8.562-.89-12.36 0-19.64 7.765-7.266 7.765-7.266 20.953 0 13.375 7.343 21.031Q20.22 56 33.016 56q4.14 0 8.093-.86 3.953-.843 7.672-2.546z" id="DejaVuSans-63"/><path d="M32.172-5.078q-3.797-9.766-7.422-12.735-3.61-2.984-9.656-2.984H7.906v7.516h5.282q3.703 0 5.75 1.765Q21-9.766 23.483-3.219l1.61 4.094-22.11 53.813H12.5l17.094-42.766 17.093 42.766h9.516z" id="DejaVuSans-79"/><path d="M9.422 75.984h8.984V0H9.422z" id="DejaVuSans-6c"/></defs><g transform="matrix(.1 0 0 -.1 440.437 22.298)"><use xlink:href="#DejaVuSans-61"/><use x="61.279" xlink:href="#DejaVuSans-63"/><use x="116.26" xlink:href="#DejaVuSans-72"/><use x="157.373" xlink:href="#DejaVuSans-79"/><use x="216.553" xlink:href="#DejaVuSans-6c"/></g></g><path d="M412.437 33.477h20" fill="none" stroke="#ff7f0e" stroke-linecap="square" stroke-width="1.5" id="line2d_30"/><g id="text_16"><defs><path d="M54.89 33.016V0h-8.984v32.719q0 7.765-3.031 11.61-3.031 3.858-9.078 3.858-7.281 0-11.484-4.64-4.204-4.625-4.204-12.64V0H9.08v54.688h9.03v-8.5q3.235 4.937 7.594 7.374Q30.078 56 35.797 56q9.422 0 14.25-5.828 4.844-5.828 4.844-17.156z" id="DejaVuSans-6e"/><path d="M9.078 75.984h9.031V31.11l26.813 23.578H56.39l-29-25.578L57.625 0H45.906L18.11 26.703V0H9.08z" id="DejaVuSans-6b"/><path d="M45.406 46.39v29.594h8.985V0h-8.985v8.203Q42.578 3.328 38.25.953q-4.313-2.375-10.375-2.375-9.906 0-16.14 7.906-6.22 7.922-6.22 20.813 0 12.89 6.22 20.797Q17.968 56 27.874 56q6.063 0 10.375-2.375 4.328-2.36 7.156-7.234zm-30.61-19.093q0-9.906 4.079-15.547 4.078-5.64 11.203-5.64 7.125 0 11.219 5.64 4.11 5.64 4.11 15.547 0 9.906-4.11 15.547-4.094 5.64-11.219 5.64-7.125 0-11.203-5.64-4.078-5.64-4.078-15.547z" id="DejaVuSans-64"/></defs><g transform="matrix(.1 0 0 -.1 440.437 36.977)"><use xlink:href="#DejaVuSans-6e"/><use x="63.379" xlink:href="#DejaVuSans-61"/><use x="124.658" xlink:href="#DejaVuSans-6b"/><use x="182.521" xlink:href="#DejaVuSans-65"/><use x="244.045" xlink:href="#DejaVuSans-64"/></g></g><path d="M412.437 48.155h20" fill="none" stroke="#2ca02c" stroke-linecap="square" stroke-width="1.5" id="line2d_32"/><g id="text_17"><defs><path d="M37.11 75.984V68.5h-8.594q-4.828 0-6.72-1.953-1.874-1.953-1.874-7.031v-4.828h14.797v-6.985H19.922V0H10.89v47.703H2.297v6.984h8.594V58.5q0 9.125 4.25 13.297 4.25 4.187 13.468 4.187z" id="DejaVuSans-66"/><path d="M54.89 33.016V0h-8.984v32.719q0 7.765-3.031 11.61-3.031 3.858-9.078 3.858-7.281 0-11.484-4.64-4.204-4.625-4.204-12.64V0H9.08v75.984h9.03V46.188q3.235 4.937 7.594 7.374Q30.078 56 35.797 56q9.422 0 14.25-5.828 4.844-5.828 4.844-17.156z" id="DejaVuSans-68"/></defs><g transform="matrix(.1 0 0 -.1 440.437 51.655)"><use xlink:href="#DejaVuSans-66"/><use x="35.205" xlink:href="#DejaVuSans-61"/><use x="96.484" xlink:href="#DejaVuSans-73"/><use x="148.584" xlink:href="#DejaVuSans-74"/><use x="187.793" xlink:href="#DejaVuSans-74"/><use x="227.002" xlink:href="#DejaVuSans-65"/><use x="288.525" xlink:href="#DejaVuSans-63"/><use x="343.506" xlink:href="#DejaVuSans-68"/></g></g></g></g></g><defs><clipPath id="p2c23ac5962"><path d="M40.603 10.7h357.12v266.112H40.603z"/></clipPath></defs></svg>