<svg xmlns="http://www.w3.org/2000/svg" width="3234.268" height="715.729" version="1.1" id="svg14"><defs id="defs18"><style id="style923">.cls-2{fill:#4aeff7}.cls-3{fill:#00dfeb}.cls-4{fill:none;stroke:#45413c;stroke-linecap:round;stroke-linejoin:round}.cls-5{fill:#a6fbff}</style><style id="style3871">.cls-2{fill:#4aeff7}.cls-3{fill:#00dfeb}.cls-4{fill:none;stroke:#45413c;stroke-linecap:round;stroke-linejoin:round}.cls-5{fill:#a6fbff}</style></defs><text xml:space="preserve" style="font-stretch:condensed;font-size:346.667px;line-height:0%;font-family:'Helvetica LT Std';-inkscape-font-specification:'Helvetica LT Std Condensed';letter-spacing:0;word-spacing:0;fill:none;stroke:#000;stroke-width:1px;stroke-linecap:butt;stroke-linejoin:miter;stroke-opacity:1" x="1360.038" y="461.896" id="text1050"><tspan id="tspan1048" x="1360.038" y="461.896" style="font-style:normal;font-variant:normal;font-weight:700;font-stretch:normal;font-size:346.667px;font-family:Quicksand;-inkscape-font-specification:'Quicksand Bold';fill:#4d4d4d">stressberry</tspan></text><path d="M511.296.007c-3.62.113-7.517 1.45-11.938 4.938C488.533.768 478.031-.682 468.641 7.82c-14.494-1.881-19.21 2-22.78 6.53-3.184-.065-23.82-3.271-33.283 10.845-23.782-2.814-31.297 13.988-22.782 29.656-4.857 7.519-9.89 14.947 1.47 29.28-4.019 7.985-1.529 16.645 7.936 27.126-2.498 11.223 2.412 19.14 11.22 25.313-1.648 15.357 14.083 24.287 18.78 27.469 1.804 8.948 5.563 17.392 23.531 22.062 2.964 13.336 13.763 15.64 24.22 18.438-34.563 20.089-64.2 46.522-64 111.375l-5.063 9.03c-39.63 24.104-75.286 101.567-19.532 164.533 3.642 19.708 9.75 33.864 15.188 49.53 8.134 63.13 61.218 92.693 75.22 96.189 20.515 15.628 42.367 30.456 71.936 40.843 27.875 28.75 58.074 39.707 88.438 39.688.445 0 .898.005 1.344 0 30.363.019 60.562-10.938 88.437-39.688 29.57-10.387 51.421-25.215 71.938-40.843 14-3.496 67.084-33.057 75.218-96.188 5.438-15.667 11.546-29.823 15.188-49.531 55.754-62.965 20.1-140.43-19.532-164.531l-5.062-9.031c.2-64.853-29.438-91.286-64-111.375 10.457-2.8 21.256-5.102 24.22-18.438 17.967-4.67 21.726-13.114 23.53-22.063 4.698-3.18 20.428-12.11 18.781-27.468 8.807-6.172 13.717-14.09 11.22-25.313 9.464-10.48 11.955-19.141 7.937-27.125 11.358-14.334 6.325-21.762 1.468-29.281 8.516-15.668 1-32.47-22.78-29.656-9.463-14.116-30.1-10.91-33.282-10.844-3.57-4.53-8.288-8.412-22.78-6.531-9.393-8.502-19.893-7.052-30.72-2.875-12.859-10.148-21.373-2.014-31.094 1.062-15.574-5.088-19.133 1.88-26.78 4.719-16.977-3.588-22.137 4.224-30.282 12.469l-9.47-.188c-25.61 15.093-38.333 45.826-42.843 61.625-4.512-15.802-17.206-46.534-42.813-61.625l-9.468.188c-8.146-8.245-13.306-16.057-30.28-12.47-7.65-2.837-11.209-9.806-26.783-4.718-6.38-2.018-12.246-6.214-19.156-6z" style="fill:#000" id="path2"/><path d="M460.313 66.407c67.948 35.03 107.447 63.369 129.087 87.504-11.082 44.418-68.896 46.445-90.036 45.199 4.33-2.015 7.94-4.428 9.22-8.136-5.304-3.77-24.112-.397-37.243-7.774 5.044-1.045 7.404-2.063 9.763-5.786-12.406-3.956-25.768-7.366-33.628-13.92 4.242.052 8.202.948 13.74-2.894-11.11-5.988-22.968-10.733-32.18-19.887 5.745-.14 11.94-.057 13.74-2.17-10.17-6.3-18.75-13.307-25.854-20.972 8.04.97 11.435.135 13.38-1.265-7.689-7.874-17.419-14.523-22.058-24.227 5.97 2.058 11.431 2.845 15.368-.18-2.613-5.894-13.806-9.37-20.25-23.142 6.285.61 12.95 1.37 14.283 0-2.922-11.89-7.927-18.57-12.836-25.492 13.45-.2 33.828.052 32.905-1.085l-8.317-8.497c13.138-3.537 26.58.568 36.34 3.616 4.382-3.458-.078-7.83-5.424-12.294 11.165 1.49 21.254 4.057 30.373 7.593 4.873-4.4-3.164-8.8-7.05-13.198 17.25 3.273 24.556 7.87 31.82 12.475 5.268-5.05.3-9.343-3.255-13.74 13.005 4.817 19.705 11.035 26.757 17.175 2.392-3.227 6.075-5.592 1.628-13.38 9.234 5.324 16.19 11.596 21.333 18.623 5.714-3.638 3.404-8.613 3.435-13.198 9.597 7.807 15.687 16.114 23.142 24.226 1.502-1.093 2.817-4.801 3.978-10.666 22.895 22.21 55.245 78.158 8.316 100.34-39.919-32.947-87.616-56.887-140.477-74.848zm360.533 0c-67.948 35.03-107.447 63.369-129.087 87.504 11.082 44.418 68.896 46.445 90.035 45.199-4.328-2.015-7.94-4.428-9.22-8.136 5.304-3.77 24.113-.397 37.243-7.774-5.044-1.045-7.403-2.063-9.762-5.786 12.405-3.956 25.768-7.366 33.627-13.92-4.24.052-8.2.948-13.74-2.894 11.112-5.988 22.97-10.733 32.181-19.887-5.745-.14-11.94-.057-13.74-2.17 10.17-6.3 18.751-13.307 25.854-20.972-8.04.97-11.436.135-13.38-1.265 7.69-7.874 17.418-14.523 22.058-24.227-5.97 2.058-11.432 2.845-15.368-.18 2.612-5.894 13.806-9.37 20.25-23.142-6.285.61-12.95 1.37-14.284 0 2.923-11.89 7.928-18.57 12.837-25.492-13.45-.2-33.828.052-32.905-1.085l8.317-8.497c-13.138-3.537-26.58.568-36.34 3.616-4.382-3.458.078-7.83 5.424-12.294-11.165 1.49-21.254 4.057-30.374 7.593-4.872-4.4 3.164-8.8 7.051-13.198-17.249 3.273-24.557 7.87-31.82 12.475-5.269-5.05-.3-9.343 3.255-13.74-13.006 4.817-19.705 11.035-26.758 17.175-2.39-3.227-6.075-5.592-1.627-13.38-9.234 5.324-16.19 11.596-21.334 18.623-5.713-3.638-3.403-8.613-3.435-13.198-9.596 7.807-15.687 16.114-23.14 24.226-1.503-1.093-2.818-4.801-3.979-10.666-22.895 22.21-55.246 78.158-8.316 100.34 39.918-32.947 87.616-56.887 140.477-74.848z" style="fill:#75a928" id="path4"/><path d="M722.865 518.713a81.39 75.052 0 1 1-162.78 0 81.39 75.052 0 1 1 162.78 0z" style="fill:#bc1142;stroke-width:1.12957" id="path6"/><path d="M594.374 304.316a72.999 86.13 34.034 1 1-94.968 143.712 72.999 86.13 34.034 1 1 94.968-143.712z" style="fill:#bc1142;stroke-width:1.90077" id="path8"/><path d="M685.408 300.316a86.13 72.999 55.966 1 0 94.968 143.712 86.13 72.999 55.966 1 0-94.968-143.712z" style="fill:#bc1142;stroke-width:1.90077" id="path10"/><path d="M425.831 340.439c36.414-9.757 12.292 150.636-17.333 137.476-32.587-26.214-43.083-102.976 17.333-137.476zm420.768-2c-36.414-9.757-12.29 150.636 17.334 137.476 32.586-26.213 43.083-102.976-17.334-137.476zM722.893 219.004c62.834-10.61 115.116 26.723 113.011 94.858-2.067 26.12-136.159-90.97-113.01-94.858zm-173.612-2c-62.835-10.61-115.116 26.723-113.012 94.858 2.067 26.12 136.16-90.97 113.012-94.858zm90.26-15.897c-37.503-.976-73.496 27.834-73.582 44.544-.105 20.304 29.65 41.093 73.837 41.62 45.123.324 73.916-16.64 74.061-37.594.165-23.74-41.039-48.937-74.317-48.57zm2.29 416.36c32.697-1.426 76.57 10.533 76.656 26.397.543 15.405-39.79 50.21-78.826 49.537-40.427 1.744-80.07-33.115-79.55-45.198-.605-17.716 49.226-31.548 81.72-30.735zm-120.77-94.012c23.278 28.045 33.89 77.319 14.462 91.843-18.379 11.088-63.012 6.522-94.736-39.051-21.395-38.242-18.638-77.157-3.616-88.59 22.465-13.684 57.174 4.8 83.89 35.798zm236.88-8.892c-25.186 29.5-39.21 83.31-20.837 100.643 17.568 13.463 64.73 11.58 99.566-36.756 25.296-32.465 16.82-86.682 2.37-101.075-21.464-16.602-52.276 4.645-81.098 37.188z" style="fill:#bc1142" id="path12"/><g id="_Group_" data-name="&lt;Group&gt;" transform="matrix(8.61293 0 0 8.50429 916.304 98.47)"><path id="_Path_" data-name="&lt;Path&gt;" class="cls-2" d="M28.27 23.17s8.56-1.43 12.07 2.26c3.51 3.69.08 8.68-3.79 8.39-3.87-.29-5.55-4.82-6.24-7.03a11 11 0 0 0-2.04-3.62z"/><path id="_Path_2" data-name="&lt;Path&gt;" class="cls-3" d="M36.55 30.91c-3.87-.28-5.52-4.86-6.24-7A9.39 9.39 0 0 0 30 23c-1 .08-1.7.19-1.7.19a11 11 0 0 1 2 3.62c.72 2.18 2.37 6.75 6.24 7a5 5 0 0 0 5-6.42 5.1 5.1 0 0 1-4.99 3.52z"/><path id="_Path_3" data-name="&lt;Path&gt;" class="cls-4" d="M28.27 23.17s8.56-1.43 12.07 2.26c3.51 3.69.08 8.68-3.79 8.39-3.87-.29-5.55-4.82-6.24-7.03a11 11 0 0 0-2.04-3.62z" style="stroke:#000;stroke-opacity:.898719"/><path id="_Path_4" data-name="&lt;Path&gt;" class="cls-2" d="M8 21.14S20.37 22.51 23.77 29c3.4 6.49-3.28 12-8.5 10.09-5.22-1.91-5.7-8.85-5.85-12.13A15.73 15.73 0 0 0 8 21.14z"/><g id="_Group_2" data-name="&lt;Group&gt;"><path id="_Path_5" data-name="&lt;Path&gt;" class="cls-3" d="M24.44 30.62a7.53 7.53 0 0 1-9.61 5.25c-2.91-1.06-4.42-3.63-5.21-6.3.4 3.48 1.6 8 5.65 9.49C20 40.79 26 36.33 24.44 30.62z"/></g><path id="_Path_6" data-name="&lt;Path&gt;" class="cls-4" d="M8 21.14S20.37 22.51 23.77 29c3.4 6.49-3.28 12-8.5 10.09-5.22-1.91-5.7-8.85-5.85-12.13A15.73 15.73 0 0 0 8 21.14z" style="stroke:#000;stroke-opacity:1"/><path id="_Path_7" data-name="&lt;Path&gt;" class="cls-2" d="M6.2 11.28s8.13-7.75 17.35-6.83c7.23.73 9 8.06 4.29 11.91-4.28 3.49-10.91.56-13.66-1.2a66.21 66.21 0 0 0-7.98-3.88z"/><path id="_Path_8" data-name="&lt;Path&gt;" class="cls-3" d="M27.84 13.08c-4.28 3.49-10.91.56-13.66-1.2a47.34 47.34 0 0 0-5.32-2.73 25.44 25.44 0 0 0-2.66 2.13 66.21 66.21 0 0 1 8 3.88c2.75 1.76 9.38 4.69 13.66 1.2a6.63 6.63 0 0 0 2.4-6.9 7 7 0 0 1-2.42 3.62z"/><path id="_Path_9" data-name="&lt;Path&gt;" class="cls-4" d="M6.2 11.28s8.13-7.75 17.35-6.83c7.23.73 9 8.06 4.29 11.91-4.28 3.49-10.91.56-13.66-1.2a66.21 66.21 0 0 0-7.98-3.88z" style="stroke:#000;stroke-opacity:1"/><ellipse id="_Path_10" data-name="&lt;Path&gt;" class="cls-5" cx="23.06" cy="7.27" rx="1.17" ry="3.28" transform="rotate(-85.86 23.06 7.275)"/><ellipse id="_Path_11" data-name="&lt;Path&gt;" class="cls-5" cx="37.03" cy="25.44" rx=".77" ry="2.15" transform="rotate(-66.68 37.04 25.435)"/><ellipse id="_Path_12" data-name="&lt;Path&gt;" class="cls-5" cx="18.33" cy="26.54" rx="1.08" ry="3.03" transform="rotate(-60.3 18.325 26.543)"/></g><g id="_Group_-1" data-name="&lt;Group&gt;" transform="matrix(8.4728 0 0 8.50488 -48.295 97.006)"><path id="_Path_-3" data-name="&lt;Path&gt;" class="cls-2" d="M19.72 23.17s-8.56-1.43-12.07 2.26c-3.51 3.69-.08 8.68 3.79 8.39 3.87-.29 5.55-4.82 6.24-7.03a11 11 0 0 1 2.04-3.62z"/><path id="_Path_2-1" data-name="&lt;Path&gt;" class="cls-3" d="M11.44 30.91c3.87-.28 5.52-4.86 6.24-7a9.39 9.39 0 0 1 .31-.91c1 .08 1.7.19 1.7.19a11 11 0 0 0-2 3.62c-.72 2.18-2.37 6.75-6.24 7a5 5 0 0 1-5-6.42 5.1 5.1 0 0 0 4.99 3.52z"/><path id="_Path_3-2" data-name="&lt;Path&gt;" class="cls-4" d="M19.72 23.17s-8.56-1.43-12.07 2.26c-3.51 3.69-.08 8.68 3.79 8.39 3.87-.29 5.55-4.82 6.24-7.03a11 11 0 0 1 2.04-3.62z" style="stroke:#000;stroke-opacity:1"/><path id="_Path_4-0" data-name="&lt;Path&gt;" class="cls-2" d="M39.99 21.14S27.62 22.51 24.22 29c-3.4 6.49 3.28 12 8.5 10.09 5.22-1.91 5.7-8.85 5.85-12.13a15.73 15.73 0 0 1 1.42-5.82z"/><g id="_Group_2-6" data-name="&lt;Group&gt;" transform="matrix(-1 0 0 1 47.99 0)"><path id="_Path_5-8" data-name="&lt;Path&gt;" class="cls-3" d="M24.44 30.62a7.53 7.53 0 0 1-9.61 5.25c-2.91-1.06-4.42-3.63-5.21-6.3.4 3.48 1.6 8 5.65 9.49C20 40.79 26 36.33 24.44 30.62z"/></g><path id="_Path_6-7" data-name="&lt;Path&gt;" class="cls-4" d="M39.99 21.14S27.62 22.51 24.22 29c-3.4 6.49 3.28 12 8.5 10.09 5.22-1.91 5.7-8.85 5.85-12.13a15.73 15.73 0 0 1 1.42-5.82z" style="stroke:#000;stroke-opacity:1"/><path id="_Path_7-4" data-name="&lt;Path&gt;" class="cls-2" d="M41.79 11.28s-8.13-7.75-17.35-6.83c-7.23.73-9 8.06-4.29 11.91 4.28 3.49 10.91.56 13.66-1.2a66.21 66.21 0 0 1 7.98-3.88z"/><path id="_Path_8-9" data-name="&lt;Path&gt;" class="cls-3" d="M20.15 13.08c4.28 3.49 10.91.56 13.66-1.2a47.34 47.34 0 0 1 5.32-2.73 25.44 25.44 0 0 1 2.66 2.13 66.21 66.21 0 0 0-8 3.88c-2.75 1.76-9.38 4.69-13.66 1.2a6.63 6.63 0 0 1-2.4-6.9 7 7 0 0 0 2.42 3.62z"/><path id="_Path_9-2" data-name="&lt;Path&gt;" class="cls-4" d="M41.79 11.28s-8.13-7.75-17.35-6.83c-7.23.73-9 8.06-4.29 11.91 4.28 3.49 10.91.56 13.66-1.2a66.21 66.21 0 0 1 7.98-3.88z" style="stroke:#000;stroke-opacity:1"/><ellipse id="_Path_10-4" data-name="&lt;Path&gt;" class="cls-5" cx="-9.056" cy="-24.344" rx="1.17" ry="3.28" transform="scale(-1 1) rotate(-85.86)"/><ellipse id="_Path_11-4" data-name="&lt;Path&gt;" class="cls-5" cx="-27.702" cy=".018" rx=".77" ry="2.15" transform="scale(-1 1) rotate(-66.68)"/><ellipse id="_Path_12-5" data-name="&lt;Path&gt;" class="cls-5" cx="-37.749" cy="-12.62" rx="1.08" ry="3.03" transform="scale(-1 1) rotate(-60.3)"/></g></svg>